<?xml version="1.0" encoding="UTF-8" standalone="no"?>
<!DOCTYPE svg PUBLIC "-//W3C//DTD SVG 1.1//EN"
"http://www.w3.org/Graphics/SVG/1.1/DTD/svg11.dtd">
<svg viewBox="0 0 909 1286" version="1.1" xmlns="http://www.w3.org/2000/svg" xmlns:xlink="http://www.w3.org/1999/xlink">
<defs>
<style type="text/css"><![CDATA[
.g0_36{
fill: #D9D9D9;
}
.g1_36{
fill: none;
stroke: #000000;
stroke-width: 0.7638889;
stroke-linecap: butt;
stroke-linejoin: miter;
}
.g2_36{
}
]]></style>
</defs>
<image preserveAspectRatio="none" x="748" y="1196" width="94" height="58" xlink:href="img/1.png" />
<image preserveAspectRatio="none" x="336" y="42" width="259" height="49" xlink:href="img/2.png" />
<image preserveAspectRatio="none" x="342" y="50" width="247" height="27" xlink:href="img/3.png" />
<image preserveAspectRatio="none" x="341" y="46" width="238" height="41" xlink:href="img/4.png" />
<g fill="#FFFFFF" >
<use xlink:href="#f0_j" transform="matrix(11.5,0,0,11.5,354.9,70)" />
<use xlink:href="#f0_i" transform="matrix(11.5,0,0,11.5,364.2,70)" />
<use xlink:href="#f0_2n" transform="matrix(11.5,0,0,11.5,374.1,70)" />
<use xlink:href="#f0_t" transform="matrix(11.5,0,0,11.5,382.4,70)" />
<use xlink:href="#f0_oj" transform="matrix(11.5,0,0,11.5,391,70)" />
<use xlink:href="#f0_3e" transform="matrix(11.5,0,0,11.5,396.3,70)" />
<use xlink:href="#f0_1c" transform="matrix(11.5,0,0,11.5,406,70)" />
<use xlink:href="#f0_1c" transform="matrix(11.5,0,0,11.5,410.7,70)" />
<use xlink:href="#f0_oj" transform="matrix(11.5,0,0,11.5,415.4,70)" />
<use xlink:href="#f0_rz" transform="matrix(11.5,0,0,11.5,420.8,70)" />
<use xlink:href="#f0_rx" transform="matrix(11.5,0,0,11.5,429.7,70)" />
<use xlink:href="#f0_ry" transform="matrix(11.5,0,0,11.5,438.6,70)" />
<use xlink:href="#f0_s3" transform="matrix(11.5,0,0,11.5,447.4,70)" />
<use xlink:href="#f0_t" transform="matrix(11.5,0,0,11.5,460.2,70)" />
<use xlink:href="#f0_3e" transform="matrix(11.5,0,0,11.5,468.8,70)" />
<use xlink:href="#f0_5" transform="matrix(11.5,0,0,11.5,478.5,70)" />
<use xlink:href="#f0_1x" transform="matrix(11.5,0,0,11.5,489.2,70)" />
<use xlink:href="#f0_1c" transform="matrix(11.5,0,0,11.5,504.6,70)" />
<use xlink:href="#f0_1y" transform="matrix(11.5,0,0,11.5,509.3,70)" />
<use xlink:href="#f0_5" transform="matrix(11.5,0,0,11.5,520.9,70)" />
<use xlink:href="#f0_2t" transform="matrix(11.5,0,0,11.5,531.5,70)" />
<use xlink:href="#f0_1c" transform="matrix(11.5,0,0,11.5,540.2,70)" />
<use xlink:href="#f0_24" transform="matrix(11.5,0,0,11.5,544.9,70)" />
<use xlink:href="#f0_1y" transform="matrix(11.5,0,0,11.5,556.8,70)" />
</g>
<image preserveAspectRatio="none" x="554" y="46" width="36" height="41" xlink:href="img/5.png" />
<g fill="#FFFFFF" >
<use xlink:href="#f1_l" transform="matrix(11,0,0,11,770.1,1227.7)" />
<use xlink:href="#f1_k" transform="matrix(11,0,0,11,779,1227.7)" />
<use xlink:href="#f1_j" transform="matrix(11,0,0,11,792.4,1227.7)" />
<use xlink:href="#f1_l" transform="matrix(11,0,0,11,803,1227.7)" />
<use xlink:href="#f1_k" transform="matrix(11,0,0,11,811.9,1227.7)" />
</g>
<path fill-rule="evenodd" d="M52.7,1193.2H856.9v-.7H52.7v.7Z" class="g0_36" />
<path d="M37.9,99.4L873,98.5" class="g1_36" />
<g fill="#000000" >
<use xlink:href="#f2_1x" transform="matrix(12,0,0,12,55,379.3)" />
<use xlink:href="#f2_h" transform="matrix(12,0,0,12,67.7,379.3)" />
<use xlink:href="#f2_21" transform="matrix(12,0,0,12,78.5,379.3)" />
<use xlink:href="#f2_2k" transform="matrix(12,0,0,12,86.6,379.3)" />
<use xlink:href="#f2_2c" transform="matrix(12,0,0,12,95.8,379.3)" />
<use xlink:href="#f2_2b" transform="matrix(12,0,0,12,104.9,379.3)" />
<use xlink:href="#f2_2a" transform="matrix(12,0,0,12,114.1,379.3)" />
<use xlink:href="#f2_21" transform="matrix(12,0,0,12,123.3,379.3)" />
<use xlink:href="#f2_2a" transform="matrix(12,0,0,12,131.4,379.3)" />
<use xlink:href="#f2_2g" transform="matrix(12,0,0,12,140.5,379.3)" />
<use xlink:href="#f2_25" transform="matrix(12,0,0,12,145.6,379.3)" />
<use xlink:href="#f2_1x" transform="matrix(12,0,0,12,150.7,379.3)" />
<use xlink:href="#f2_28" transform="matrix(12,0,0,12,158.9,379.3)" />
<use xlink:href="#f2_23" transform="matrix(12,0,0,12,168.5,379.3)" />
<use xlink:href="#f2_2e" transform="matrix(12,0,0,12,177.7,379.3)" />
<use xlink:href="#f2_2b" transform="matrix(12,0,0,12,183.8,379.3)" />
<use xlink:href="#f2_2j" transform="matrix(12,0,0,12,193,379.3)" />
<use xlink:href="#f2_2g" transform="matrix(12,0,0,12,206.2,379.3)" />
<use xlink:href="#f2_24" transform="matrix(12,0,0,12,211.3,379.3)" />
<use xlink:href="#f2_1z" transform="matrix(12,0,0,12,225.1,379.3)" />
<use xlink:href="#f2_2h" transform="matrix(12,0,0,12,233.1,379.3)" />
<use xlink:href="#f2_2e" transform="matrix(12,0,0,12,242.3,379.3)" />
<use xlink:href="#f2_2i" transform="matrix(12,0,0,12,248.4,379.3)" />
<use xlink:href="#f2_21" transform="matrix(12,0,0,12,257.5,379.3)" />
<use xlink:href="#f2_1y" transform="matrix(12,0,0,12,270.3,379.3)" />
<use xlink:href="#f2_h" transform="matrix(12,0,0,12,284.1,379.3)" />
<use xlink:href="#f2_28" transform="matrix(12,0,0,12,294.8,379.3)" />
<use xlink:href="#f2_2b" transform="matrix(12,0,0,12,299.9,379.3)" />
<use xlink:href="#f2_23" transform="matrix(12,0,0,12,309.1,379.3)" />
<use xlink:href="#f2_25" transform="matrix(12,0,0,12,318.2,379.3)" />
<use xlink:href="#f2_2f" transform="matrix(12,0,0,12,323.3,379.3)" />
<use xlink:href="#f2_2g" transform="matrix(12,0,0,12,330.4,379.3)" />
<use xlink:href="#f2_25" transform="matrix(12,0,0,12,335.5,379.3)" />
<use xlink:href="#f2_1z" transform="matrix(12,0,0,12,340.6,379.3)" />
<use xlink:href="#f2_23" transform="matrix(12,0,0,12,353.4,379.3)" />
<use xlink:href="#f2_2e" transform="matrix(12,0,0,12,362.5,379.3)" />
<use xlink:href="#f2_2b" transform="matrix(12,0,0,12,368.6,379.3)" />
<use xlink:href="#f2_2j" transform="matrix(12,0,0,12,377.8,379.3)" />
<use xlink:href="#f2_2g" transform="matrix(12,0,0,12,391,379.3)" />
<use xlink:href="#f2_24" transform="matrix(12,0,0,12,396.1,379.3)" />
<use xlink:href="#f2_1z" transform="matrix(12,0,0,12,409.8,379.3)" />
<use xlink:href="#f2_2h" transform="matrix(12,0,0,12,417.9,379.3)" />
<use xlink:href="#f2_2e" transform="matrix(12,0,0,12,427.1,379.3)" />
<use xlink:href="#f2_2i" transform="matrix(12,0,0,12,433.2,379.3)" />
<use xlink:href="#f2_21" transform="matrix(12,0,0,12,442.4,379.3)" />
<use xlink:href="#f2_c" transform="matrix(12,0,0,12,55,402.1)" />
<use xlink:href="#f2_1y" transform="matrix(12,0,0,12,61.1,402.1)" />
<use xlink:href="#f2_d" transform="matrix(12,0,0,12,70.3,402.1)" />
<use xlink:href="#f2_15" transform="matrix(12,0,0,12,81,402.1)" />
<use xlink:href="#f2_2k" transform="matrix(12,0,0,12,92.2,402.1)" />
<use xlink:href="#f2_2c" transform="matrix(12,0,0,12,101.4,402.1)" />
<use xlink:href="#f2_2b" transform="matrix(12,0,0,12,110.6,402.1)" />
<use xlink:href="#f2_2a" transform="matrix(12,0,0,12,119.7,402.1)" />
<use xlink:href="#f2_21" transform="matrix(12,0,0,12,128.9,402.1)" />
<use xlink:href="#f2_2a" transform="matrix(12,0,0,12,137,402.1)" />
<use xlink:href="#f2_2g" transform="matrix(12,0,0,12,146.1,402.1)" />
<use xlink:href="#f2_25" transform="matrix(12,0,0,12,151.2,402.1)" />
<use xlink:href="#f2_1x" transform="matrix(12,0,0,12,156.3,402.1)" />
<use xlink:href="#f2_28" transform="matrix(12,0,0,12,164.4,402.1)" />
<use xlink:href="#f2_23" transform="matrix(12,0,0,12,174.1,402.1)" />
<use xlink:href="#f2_2e" transform="matrix(12,0,0,12,183.3,402.1)" />
<use xlink:href="#f2_2b" transform="matrix(12,0,0,12,189.4,402.1)" />
<use xlink:href="#f2_2j" transform="matrix(12,0,0,12,198.6,402.1)" />
<use xlink:href="#f2_2g" transform="matrix(12,0,0,12,211.8,402.1)" />
<use xlink:href="#f2_24" transform="matrix(12,0,0,12,216.9,402.1)" />
<use xlink:href="#f2_h" transform="matrix(12,0,0,12,230.8,402.1)" />
<use xlink:href="#f2_22" transform="matrix(12,0,0,12,241.4,402.1)" />
<use xlink:href="#f2_2b" transform="matrix(12,0,0,12,247.5,402.1)" />
<use xlink:href="#f2_2b" transform="matrix(12,0,0,12,256.7,402.1)" />
<use xlink:href="#f2_20" transform="matrix(12,0,0,12,265.8,402.1)" />
<use xlink:href="#f2_2e" transform="matrix(12,0,0,12,279.5,402.1)" />
<use xlink:href="#f2_21" transform="matrix(12,0,0,12,285.7,402.1)" />
<use xlink:href="#f2_2f" transform="matrix(12,0,0,12,293.8,402.1)" />
<use xlink:href="#f2_2b" transform="matrix(12,0,0,12,300.9,402.1)" />
<use xlink:href="#f2_2h" transform="matrix(12,0,0,12,310.1,402.1)" />
<use xlink:href="#f2_2e" transform="matrix(12,0,0,12,319.3,402.1)" />
<use xlink:href="#f2_1z" transform="matrix(12,0,0,12,325.4,402.1)" />
<use xlink:href="#f2_21" transform="matrix(12,0,0,12,333.5,402.1)" />
<use xlink:href="#f2_2f" transform="matrix(12,0,0,12,341.7,402.1)" />
<use xlink:href="#f2_1x" transform="matrix(12,0,0,12,353.4,402.1)" />
<use xlink:href="#f2_2a" transform="matrix(12,0,0,12,361.5,402.1)" />
<use xlink:href="#f2_20" transform="matrix(12,0,0,12,370.7,402.1)" />
<use xlink:href="#f2_2f" transform="matrix(12,0,0,12,384.4,402.1)" />
<use xlink:href="#f2_2c" transform="matrix(12,0,0,12,391.6,402.1)" />
<use xlink:href="#f2_1x" transform="matrix(12,0,0,12,400.8,402.1)" />
<use xlink:href="#f2_1z" transform="matrix(12,0,0,12,408.8,402.1)" />
<use xlink:href="#f2_21" transform="matrix(12,0,0,12,416.9,402.1)" />
<use xlink:href="#f2_2h" transform="matrix(12,0,0,12,429.6,402.1)" />
<use xlink:href="#f2_2a" transform="matrix(12,0,0,12,438.8,402.1)" />
<use xlink:href="#f2_28" transform="matrix(12,0,0,12,448,402.1)" />
<use xlink:href="#f2_25" transform="matrix(12,0,0,12,453.1,402.1)" />
<use xlink:href="#f2_29" transform="matrix(12,0,0,12,458.2,402.1)" />
<use xlink:href="#f2_25" transform="matrix(12,0,0,12,472.4,402.1)" />
<use xlink:href="#f2_2g" transform="matrix(12,0,0,12,477.4,402.1)" />
<use xlink:href="#f2_21" transform="matrix(12,0,0,12,482.6,402.1)" />
<use xlink:href="#f2_20" transform="matrix(12,0,0,12,490.7,402.1)" />
<use xlink:href="#f2_g" transform="matrix(12,0,0,12,504.5,402.1)" />
<use xlink:href="#f2_1c" transform="matrix(12,0,0,12,55,424.8)" />
<use xlink:href="#f2_2b" transform="matrix(12,0,0,12,66.2,424.8)" />
<use xlink:href="#f2_23" transform="matrix(12,0,0,12,75.4,424.8)" />
<use xlink:href="#f2_25" transform="matrix(12,0,0,12,84.5,424.8)" />
<use xlink:href="#f2_2f" transform="matrix(12,0,0,12,89.6,424.8)" />
<use xlink:href="#f2_2g" transform="matrix(12,0,0,12,96.8,424.8)" />
<use xlink:href="#f2_25" transform="matrix(12,0,0,12,101.9,424.8)" />
<use xlink:href="#f2_1z" transform="matrix(12,0,0,12,107,424.8)" />
<use xlink:href="#f2_23" transform="matrix(12,0,0,12,119.7,424.8)" />
<use xlink:href="#f2_2e" transform="matrix(12,0,0,12,128.9,424.8)" />
<use xlink:href="#f2_2b" transform="matrix(12,0,0,12,135,424.8)" />
<use xlink:href="#f2_2j" transform="matrix(12,0,0,12,144.1,424.8)" />
<use xlink:href="#f2_2g" transform="matrix(12,0,0,12,157.3,424.8)" />
<use xlink:href="#f2_24" transform="matrix(12,0,0,12,162.4,424.8)" />
<use xlink:href="#f2_h" transform="matrix(12,0,0,12,176.2,424.8)" />
<use xlink:href="#f2_22" transform="matrix(12,0,0,12,186.9,424.8)" />
<use xlink:href="#f2_2b" transform="matrix(12,0,0,12,193,424.8)" />
<use xlink:href="#f2_2b" transform="matrix(12,0,0,12,202.2,424.8)" />
<use xlink:href="#f2_20" transform="matrix(12,0,0,12,211.4,424.8)" />
<use xlink:href="#f2_2e" transform="matrix(12,0,0,12,225.1,424.8)" />
<use xlink:href="#f2_21" transform="matrix(12,0,0,12,231.2,424.8)" />
<use xlink:href="#f2_2f" transform="matrix(12,0,0,12,239.3,424.8)" />
<use xlink:href="#f2_2b" transform="matrix(12,0,0,12,246.5,424.8)" />
<use xlink:href="#f2_2h" transform="matrix(12,0,0,12,255.7,424.8)" />
<use xlink:href="#f2_2e" transform="matrix(12,0,0,12,264.8,424.8)" />
<use xlink:href="#f2_1z" transform="matrix(12,0,0,12,270.9,424.8)" />
<use xlink:href="#f2_21" transform="matrix(12,0,0,12,279.1,424.8)" />
<use xlink:href="#f2_2f" transform="matrix(12,0,0,12,287.3,424.8)" />
<use xlink:href="#f2_1x" transform="matrix(12,0,0,12,298.9,424.8)" />
<use xlink:href="#f2_2a" transform="matrix(12,0,0,12,307.1,424.8)" />
<use xlink:href="#f2_20" transform="matrix(12,0,0,12,316.2,424.8)" />
<use xlink:href="#f2_2f" transform="matrix(12,0,0,12,329.9,424.8)" />
<use xlink:href="#f2_2c" transform="matrix(12,0,0,12,337,424.8)" />
<use xlink:href="#f2_1x" transform="matrix(12,0,0,12,346.2,424.8)" />
<use xlink:href="#f2_1z" transform="matrix(12,0,0,12,354.3,424.8)" />
<use xlink:href="#f2_21" transform="matrix(12,0,0,12,362.5,424.8)" />
<use xlink:href="#f2_28" transform="matrix(12,0,0,12,375.2,424.8)" />
<use xlink:href="#f2_25" transform="matrix(12,0,0,12,380.3,424.8)" />
<use xlink:href="#f2_29" transform="matrix(12,0,0,12,385.4,424.8)" />
<use xlink:href="#f2_25" transform="matrix(12,0,0,12,399.6,424.8)" />
<use xlink:href="#f2_2g" transform="matrix(12,0,0,12,404.6,424.8)" />
<use xlink:href="#f2_21" transform="matrix(12,0,0,12,409.8,424.8)" />
<use xlink:href="#f2_20" transform="matrix(12,0,0,12,417.9,424.8)" />
<use xlink:href="#f2_c" transform="matrix(12,0,0,12,55,447.5)" />
<use xlink:href="#f2_1z" transform="matrix(12,0,0,12,61.1,447.5)" />
<use xlink:href="#f2_d" transform="matrix(12,0,0,12,69.2,447.5)" />
<use xlink:href="#f2_15" transform="matrix(12,0,0,12,80,447.5)" />
<use xlink:href="#f2_2k" transform="matrix(12,0,0,12,91.2,447.5)" />
<use xlink:href="#f2_2c" transform="matrix(12,0,0,12,100.4,447.5)" />
<use xlink:href="#f2_2b" transform="matrix(12,0,0,12,109.5,447.5)" />
<use xlink:href="#f2_2a" transform="matrix(12,0,0,12,118.7,447.5)" />
<use xlink:href="#f2_21" transform="matrix(12,0,0,12,127.9,447.5)" />
<use xlink:href="#f2_2a" transform="matrix(12,0,0,12,136,447.5)" />
<use xlink:href="#f2_2g" transform="matrix(12,0,0,12,145.1,447.5)" />
<use xlink:href="#f2_25" transform="matrix(12,0,0,12,150.2,447.5)" />
<use xlink:href="#f2_1x" transform="matrix(12,0,0,12,155.3,447.5)" />
<use xlink:href="#f2_28" transform="matrix(12,0,0,12,163.4,447.5)" />
<use xlink:href="#f2_23" transform="matrix(12,0,0,12,173.1,447.5)" />
<use xlink:href="#f2_2e" transform="matrix(12,0,0,12,182.3,447.5)" />
<use xlink:href="#f2_2b" transform="matrix(12,0,0,12,188.4,447.5)" />
<use xlink:href="#f2_2j" transform="matrix(12,0,0,12,197.6,447.5)" />
<use xlink:href="#f2_2g" transform="matrix(12,0,0,12,210.8,447.5)" />
<use xlink:href="#f2_24" transform="matrix(12,0,0,12,215.9,447.5)" />
<use xlink:href="#f2_2a" transform="matrix(12,0,0,12,229.7,447.5)" />
<use xlink:href="#f2_2b" transform="matrix(12,0,0,12,238.7,447.5)" />
<use xlink:href="#f2_2g" transform="matrix(12,0,0,12,247.9,447.5)" />
<use xlink:href="#f2_2f" transform="matrix(12,0,0,12,257.6,447.5)" />
<use xlink:href="#f2_2h" transform="matrix(12,0,0,12,264.7,447.5)" />
<use xlink:href="#f2_2f" transform="matrix(12,0,0,12,273.9,447.5)" />
<use xlink:href="#f2_2g" transform="matrix(12,0,0,12,281.1,447.5)" />
<use xlink:href="#f2_1x" transform="matrix(12,0,0,12,286.2,447.5)" />
<use xlink:href="#f2_25" transform="matrix(12,0,0,12,294.3,447.5)" />
<use xlink:href="#f2_2a" transform="matrix(12,0,0,12,299.4,447.5)" />
<use xlink:href="#f2_1x" transform="matrix(12,0,0,12,308.6,447.5)" />
<use xlink:href="#f2_1y" transform="matrix(12,0,0,12,316.7,447.5)" />
<use xlink:href="#f2_28" transform="matrix(12,0,0,12,325.8,447.5)" />
<use xlink:href="#f2_21" transform="matrix(12,0,0,12,330.9,447.5)" />
<use xlink:href="#f2_g" transform="matrix(12,0,0,12,343.6,447.5)" />
<use xlink:href="#f2_1x" transform="matrix(12,0,0,12,352.8,447.5)" />
<use xlink:href="#f2_2f" transform="matrix(12,0,0,12,360.9,447.5)" />
<use xlink:href="#f2_2e" transform="matrix(12,0,0,12,372.6,447.5)" />
<use xlink:href="#f2_21" transform="matrix(12,0,0,12,378.7,447.5)" />
<use xlink:href="#f2_2f" transform="matrix(12,0,0,12,386.9,447.5)" />
<use xlink:href="#f2_2b" transform="matrix(12,0,0,12,394.1,447.5)" />
<use xlink:href="#f2_2h" transform="matrix(12,0,0,12,403.2,447.5)" />
<use xlink:href="#f2_2e" transform="matrix(12,0,0,12,412.3,447.5)" />
<use xlink:href="#f2_1z" transform="matrix(12,0,0,12,418.4,447.5)" />
<use xlink:href="#f2_21" transform="matrix(12,0,0,12,426.6,447.5)" />
<use xlink:href="#f2_2f" transform="matrix(12,0,0,12,434.7,447.5)" />
<use xlink:href="#f2_1x" transform="matrix(12,0,0,12,446.4,447.5)" />
<use xlink:href="#f2_2e" transform="matrix(12,0,0,12,454.6,447.5)" />
<use xlink:href="#f2_21" transform="matrix(12,0,0,12,460.7,447.5)" />
<use xlink:href="#f2_28" transform="matrix(12,0,0,12,473.4,447.5)" />
<use xlink:href="#f2_25" transform="matrix(12,0,0,12,478.5,447.5)" />
<use xlink:href="#f2_29" transform="matrix(12,0,0,12,483.6,447.5)" />
<use xlink:href="#f2_25" transform="matrix(12,0,0,12,497.7,447.5)" />
<use xlink:href="#f2_2g" transform="matrix(12,0,0,12,502.8,447.5)" />
<use xlink:href="#f2_21" transform="matrix(12,0,0,12,507.9,447.5)" />
<use xlink:href="#f2_20" transform="matrix(12,0,0,12,516.1,447.5)" />
<use xlink:href="#f2_j" transform="matrix(12,0,0,12,529.8,447.5)" />
<use xlink:href="#f2_1z" transform="matrix(12,0,0,12,539.5,447.5)" />
<use xlink:href="#f2_1x" transform="matrix(12,0,0,12,547.7,447.5)" />
<use xlink:href="#f2_2e" transform="matrix(12,0,0,12,555.7,447.5)" />
<use xlink:href="#f2_2e" transform="matrix(12,0,0,12,561.8,447.5)" />
<use xlink:href="#f2_2l" transform="matrix(12,0,0,12,568,447.5)" />
<use xlink:href="#f2_25" transform="matrix(12,0,0,12,577.2,447.5)" />
<use xlink:href="#f2_2a" transform="matrix(12,0,0,12,582.3,447.5)" />
<use xlink:href="#f2_23" transform="matrix(12,0,0,12,591.4,447.5)" />
<use xlink:href="#f2_1z" transform="matrix(12,0,0,12,605.1,447.5)" />
<use xlink:href="#f2_1x" transform="matrix(12,0,0,12,613.3,447.5)" />
<use xlink:href="#f2_2c" transform="matrix(12,0,0,12,621.4,447.5)" />
<use xlink:href="#f2_1x" transform="matrix(12,0,0,12,630.6,447.5)" />
<use xlink:href="#f2_1z" transform="matrix(12,0,0,12,638.7,447.5)" />
<use xlink:href="#f2_25" transform="matrix(12,0,0,12,646.9,447.5)" />
<use xlink:href="#f2_2g" transform="matrix(12,0,0,12,652,447.5)" />
<use xlink:href="#f2_2l" transform="matrix(12,0,0,12,657.1,447.5)" />
<use xlink:href="#f2_i" transform="matrix(12,0,0,12,666.3,447.5)" />
<use xlink:href="#f3_1f" transform="matrix(12,0,0,12,441.1,470.3)" />
<use xlink:href="#f3_1i" transform="matrix(12,0,0,12,455.4,470.3)" />
<use xlink:href="#f3_c" transform="matrix(12,0,0,12,55,493.1)" />
<use xlink:href="#f3_1x" transform="matrix(12,0,0,12,61.1,493.1)" />
<use xlink:href="#f3_d" transform="matrix(12,0,0,12,70.3,493.1)" />
<use xlink:href="#f3_1k" transform="matrix(12,0,0,12,81,493.1)" />
<use xlink:href="#f3_1x" transform="matrix(12,0,0,12,93.2,493.1)" />
<use xlink:href="#f3_27" transform="matrix(12,0,0,12,102.4,493.1)" />
<use xlink:href="#f3_25" transform="matrix(12,0,0,12,112.5,493.1)" />
<use xlink:href="#f3_2a" transform="matrix(12,0,0,12,117.6,493.1)" />
<use xlink:href="#f3_23" transform="matrix(12,0,0,12,127.8,493.1)" />
<use xlink:href="#f3_1x" transform="matrix(12,0,0,12,141.6,493.1)" />
<use xlink:href="#f3_2a" transform="matrix(12,0,0,12,150.8,493.1)" />
<use xlink:href="#f3_21" transform="matrix(12,0,0,12,165.5,493.1)" />
<use xlink:href="#f3_2k" transform="matrix(12,0,0,12,173.7,493.1)" />
<use xlink:href="#f3_1x" transform="matrix(12,0,0,12,182.8,493.1)" />
<use xlink:href="#f3_29" transform="matrix(12,0,0,12,192,493.1)" />
<use xlink:href="#f3_2c" transform="matrix(12,0,0,12,207.3,493.1)" />
<use xlink:href="#f3_28" transform="matrix(12,0,0,12,217.5,493.1)" />
<use xlink:href="#f3_21" transform="matrix(12,0,0,12,222.6,493.1)" />
<use xlink:href="#f3_2b" transform="matrix(12,0,0,12,235.3,493.1)" />
<use xlink:href="#f3_22" transform="matrix(12,0,0,12,244.4,493.1)" />
<use xlink:href="#f3_1x" transform="matrix(12,0,0,12,255.1,493.1)" />
<use xlink:href="#f3_2f" transform="matrix(12,0,0,12,268.9,493.1)" />
<use xlink:href="#f3_29" transform="matrix(12,0,0,12,276,493.1)" />
<use xlink:href="#f3_1x" transform="matrix(12,0,0,12,291.3,493.1)" />
<use xlink:href="#f3_28" transform="matrix(12,0,0,12,300.5,493.1)" />
<use xlink:href="#f3_28" transform="matrix(12,0,0,12,305.6,493.1)" />
<use xlink:href="#f3_2c" transform="matrix(12,0,0,12,315.3,493.1)" />
<use xlink:href="#f3_2b" transform="matrix(12,0,0,12,325.4,493.1)" />
<use xlink:href="#f3_2a" transform="matrix(12,0,0,12,334.5,493.1)" />
<use xlink:href="#f3_20" transform="matrix(12,0,0,12,344.7,493.1)" />
<use xlink:href="#f3_g" transform="matrix(12,0,0,12,354.9,493.1)" />
<use xlink:href="#f3_21" transform="matrix(12,0,0,12,364.1,493.1)" />
<use xlink:href="#f3_2k" transform="matrix(12,0,0,12,372.2,493.1)" />
<use xlink:href="#f3_2c" transform="matrix(12,0,0,12,381.4,493.1)" />
<use xlink:href="#f3_28" transform="matrix(12,0,0,12,391.6,493.1)" />
<use xlink:href="#f3_1x" transform="matrix(12,0,0,12,396.7,493.1)" />
<use xlink:href="#f3_25" transform="matrix(12,0,0,12,405.8,493.1)" />
<use xlink:href="#f3_2a" transform="matrix(12,0,0,12,410.9,493.1)" />
<use xlink:href="#f3_24" transform="matrix(12,0,0,12,425.7,493.1)" />
<use xlink:href="#f3_2b" transform="matrix(12,0,0,12,435.9,493.1)" />
<use xlink:href="#f3_2j" transform="matrix(12,0,0,12,445.2,493.1)" />
<use xlink:href="#f3_2g" transform="matrix(12,0,0,12,462.8,493.1)" />
<use xlink:href="#f3_24" transform="matrix(12,0,0,12,468.9,493.1)" />
<use xlink:href="#f3_21" transform="matrix(12,0,0,12,479.1,493.1)" />
<use xlink:href="#f3_22" transform="matrix(12,0,0,12,491.9,493.1)" />
<use xlink:href="#f3_2b" transform="matrix(12,0,0,12,498,493.1)" />
<use xlink:href="#f3_2h" transform="matrix(12,0,0,12,507.2,493.1)" />
<use xlink:href="#f3_2e" transform="matrix(12,0,0,12,517.4,493.1)" />
<use xlink:href="#f3_1z" transform="matrix(12,0,0,12,530.1,493.1)" />
<use xlink:href="#f3_2b" transform="matrix(12,0,0,12,538.2,493.1)" />
<use xlink:href="#f3_29" transform="matrix(12,0,0,12,547.4,493.1)" />
<use xlink:href="#f3_2c" transform="matrix(12,0,0,12,562.7,493.1)" />
<use xlink:href="#f3_2b" transform="matrix(12,0,0,12,572.9,493.1)" />
<use xlink:href="#f3_2a" transform="matrix(12,0,0,12,582.1,493.1)" />
<use xlink:href="#f3_21" transform="matrix(12,0,0,12,592.3,493.1)" />
<use xlink:href="#f3_2a" transform="matrix(12,0,0,12,600.4,493.1)" />
<use xlink:href="#f3_2g" transform="matrix(12,0,0,12,610.6,493.1)" />
<use xlink:href="#f3_2f" transform="matrix(12,0,0,12,616.7,493.1)" />
<use xlink:href="#f3_2b" transform="matrix(12,0,0,12,628.4,493.1)" />
<use xlink:href="#f3_22" transform="matrix(12,0,0,12,637.6,493.1)" />
<use xlink:href="#f3_1x" transform="matrix(12,0,0,12,648.3,493.1)" />
<use xlink:href="#f3_2a" transform="matrix(12,0,0,12,657.5,493.1)" />
<use xlink:href="#f3_21" transform="matrix(12,0,0,12,672.4,493.1)" />
<use xlink:href="#f3_1z" transform="matrix(12,0,0,12,680.5,493.1)" />
<use xlink:href="#f3_2b" transform="matrix(12,0,0,12,688.7,493.1)" />
<use xlink:href="#f3_2f" transform="matrix(12,0,0,12,697.8,493.1)" />
<use xlink:href="#f3_2l" transform="matrix(12,0,0,12,705,493.1)" />
<use xlink:href="#f3_2f" transform="matrix(12,0,0,12,714.1,493.1)" />
<use xlink:href="#f3_2g" transform="matrix(12,0,0,12,721.3,493.1)" />
<use xlink:href="#f3_21" transform="matrix(12,0,0,12,727.4,493.1)" />
<use xlink:href="#f3_29" transform="matrix(12,0,0,12,735.6,493.1)" />
<use xlink:href="#f3_22" transform="matrix(12,0,0,12,755.4,493.1)" />
<use xlink:href="#f3_2h" transform="matrix(12,0,0,12,761.5,493.1)" />
<use xlink:href="#f3_2a" transform="matrix(12,0,0,12,771.7,493.1)" />
<use xlink:href="#f3_1z" transform="matrix(12,0,0,12,781.8,493.1)" />
<use xlink:href="#f3_2g" transform="matrix(12,0,0,12,790,493.1)" />
<use xlink:href="#f3_25" transform="matrix(12,0,0,12,796.1,493.1)" />
<use xlink:href="#f3_2b" transform="matrix(12,0,0,12,801.2,493.1)" />
<use xlink:href="#f3_2a" transform="matrix(12,0,0,12,810.4,493.1)" />
<use xlink:href="#f3_1x" transform="matrix(12,0,0,12,825.2,493.1)" />
<use xlink:href="#f3_2f" transform="matrix(12,0,0,12,834.3,493.1)" />
<use xlink:href="#f3_1x" transform="matrix(12,0,0,12,55,515.8)" />
<use xlink:href="#f3_2h" transform="matrix(12,0,0,12,68.8,515.8)" />
<use xlink:href="#f3_2a" transform="matrix(12,0,0,12,78.9,515.8)" />
<use xlink:href="#f3_25" transform="matrix(12,0,0,12,89.1,515.8)" />
<use xlink:href="#f3_2g" transform="matrix(12,0,0,12,94.2,515.8)" />
<use xlink:href="#f3_i" transform="matrix(12,0,0,12,100.3,515.8)" />
<use xlink:href="#f3_c" transform="matrix(12,0,0,12,55,538.6)" />
<use xlink:href="#f3_1y" transform="matrix(12,0,0,12,61.1,538.6)" />
<use xlink:href="#f3_d" transform="matrix(12,0,0,12,71.3,538.6)" />
<use xlink:href="#f3_1e" transform="matrix(12,0,0,12,82,538.6)" />
<use xlink:href="#f3_1x" transform="matrix(12,0,0,12,95.3,538.6)" />
<use xlink:href="#f3_29" transform="matrix(12,0,0,12,104.4,538.6)" />
<use xlink:href="#f3_21" transform="matrix(12,0,0,12,119.7,538.6)" />
<use xlink:href="#f3_2g" transform="matrix(12,0,0,12,132.4,538.6)" />
<use xlink:href="#f3_24" transform="matrix(12,0,0,12,138.6,538.6)" />
<use xlink:href="#f3_21" transform="matrix(12,0,0,12,148.6,538.6)" />
<use xlink:href="#f3_2g" transform="matrix(12,0,0,12,161.4,538.6)" />
<use xlink:href="#f3_2l" transform="matrix(12,0,0,12,167.5,538.6)" />
<use xlink:href="#f3_2c" transform="matrix(12,0,0,12,176.7,538.6)" />
<use xlink:href="#f3_21" transform="matrix(12,0,0,12,186.9,538.6)" />
<use xlink:href="#f3_2b" transform="matrix(12,0,0,12,199.6,538.6)" />
<use xlink:href="#f3_22" transform="matrix(12,0,0,12,208.8,538.6)" />
<use xlink:href="#f3_22" transform="matrix(12,0,0,12,219.5,538.6)" />
<use xlink:href="#f3_2b" transform="matrix(12,0,0,12,225.6,538.6)" />
<use xlink:href="#f3_2b" transform="matrix(12,0,0,12,234.7,538.6)" />
<use xlink:href="#f3_20" transform="matrix(12,0,0,12,243.9,538.6)" />
<use xlink:href="#f3_1z" transform="matrix(12,0,0,12,258.6,538.6)" />
<use xlink:href="#f3_24" transform="matrix(12,0,0,12,266.8,538.6)" />
<use xlink:href="#f3_1x" transform="matrix(12,0,0,12,277,538.6)" />
<use xlink:href="#f3_25" transform="matrix(12,0,0,12,286.1,538.6)" />
<use xlink:href="#f3_2a" transform="matrix(12,0,0,12,291.2,538.6)" />
<use xlink:href="#f3_2g" transform="matrix(12,0,0,12,306,538.6)" />
<use xlink:href="#f3_24" transform="matrix(12,0,0,12,312.1,538.6)" />
<use xlink:href="#f3_1x" transform="matrix(12,0,0,12,322.3,538.6)" />
<use xlink:href="#f3_2g" transform="matrix(12,0,0,12,331.5,538.6)" />
<use xlink:href="#f3_21" transform="matrix(12,0,0,12,342.2,538.6)" />
<use xlink:href="#f3_2k" transform="matrix(12,0,0,12,350.4,538.6)" />
<use xlink:href="#f3_25" transform="matrix(12,0,0,12,359.5,538.6)" />
<use xlink:href="#f3_2f" transform="matrix(12,0,0,12,364.6,538.6)" />
<use xlink:href="#f3_2g" transform="matrix(12,0,0,12,371.7,538.6)" />
<use xlink:href="#f3_2f" transform="matrix(12,0,0,12,377.9,538.6)" />
<use xlink:href="#f3_25" transform="matrix(12,0,0,12,389.6,538.6)" />
<use xlink:href="#f3_2a" transform="matrix(12,0,0,12,394.7,538.6)" />
<use xlink:href="#f3_1x" transform="matrix(12,0,0,12,409.4,538.6)" />
<use xlink:href="#f3_2c" transform="matrix(12,0,0,12,423.1,538.6)" />
<use xlink:href="#f3_2b" transform="matrix(12,0,0,12,433.3,538.6)" />
<use xlink:href="#f3_2a" transform="matrix(12,0,0,12,442.5,538.6)" />
<use xlink:href="#f3_20" transform="matrix(12,0,0,12,452.7,538.6)" />
<use xlink:href="#f3_i" transform="matrix(12,0,0,12,462.9,538.6)" />
<use xlink:href="#f2_c" transform="matrix(12,0,0,12,55,561.3)" />
<use xlink:href="#f2_1x" transform="matrix(12,0,0,12,61.1,561.3)" />
<use xlink:href="#f2_d" transform="matrix(12,0,0,12,69.2,561.3)" />
<use xlink:href="#f2_1g" transform="matrix(12,0,0,12,80,561.3)" />
<use xlink:href="#f2_2e" transform="matrix(12,0,0,12,90.2,561.3)" />
<use xlink:href="#f2_2b" transform="matrix(12,0,0,12,96.3,561.3)" />
<use xlink:href="#f2_20" transform="matrix(12,0,0,12,105.5,561.3)" />
<use xlink:href="#f2_2h" transform="matrix(12,0,0,12,114.6,561.3)" />
<use xlink:href="#f2_1z" transform="matrix(12,0,0,12,123.8,561.3)" />
<use xlink:href="#f2_2g" transform="matrix(12,0,0,12,131.9,561.3)" />
<use xlink:href="#f2_25" transform="matrix(12,0,0,12,137,561.3)" />
<use xlink:href="#f2_2i" transform="matrix(12,0,0,12,142.1,561.3)" />
<use xlink:href="#f2_25" transform="matrix(12,0,0,12,151.2,561.3)" />
<use xlink:href="#f2_2g" transform="matrix(12,0,0,12,156.3,561.3)" />
<use xlink:href="#f2_2l" transform="matrix(12,0,0,12,161.5,561.3)" />
<use xlink:href="#f2_h" transform="matrix(12,0,0,12,175.3,561.3)" />
<use xlink:href="#f2_1z" transform="matrix(12,0,0,12,185.9,561.3)" />
<use xlink:href="#f2_2b" transform="matrix(12,0,0,12,194.1,561.3)" />
<use xlink:href="#f2_2a" transform="matrix(12,0,0,12,203.2,561.3)" />
<use xlink:href="#f2_2i" transform="matrix(12,0,0,12,212.4,561.3)" />
<use xlink:href="#f2_21" transform="matrix(12,0,0,12,221.6,561.3)" />
<use xlink:href="#f2_2e" transform="matrix(12,0,0,12,229.7,561.3)" />
<use xlink:href="#f2_2f" transform="matrix(12,0,0,12,235.8,561.3)" />
<use xlink:href="#f2_25" transform="matrix(12,0,0,12,242.9,561.3)" />
<use xlink:href="#f2_2b" transform="matrix(12,0,0,12,248,561.3)" />
<use xlink:href="#f2_2a" transform="matrix(12,0,0,12,257.2,561.3)" />
<use xlink:href="#f2_2b" transform="matrix(12,0,0,12,271,561.3)" />
<use xlink:href="#f2_22" transform="matrix(12,0,0,12,280.1,561.3)" />
<use xlink:href="#f2_25" transform="matrix(12,0,0,12,290.8,561.3)" />
<use xlink:href="#f2_2a" transform="matrix(12,0,0,12,295.9,561.3)" />
<use xlink:href="#f2_2b" transform="matrix(12,0,0,12,305.1,561.3)" />
<use xlink:href="#f2_2e" transform="matrix(12,0,0,12,314.2,561.3)" />
<use xlink:href="#f2_23" transform="matrix(12,0,0,12,320.4,561.3)" />
<use xlink:href="#f2_1x" transform="matrix(12,0,0,12,329.5,561.3)" />
<use xlink:href="#f2_2a" transform="matrix(12,0,0,12,337.7,561.3)" />
<use xlink:href="#f2_25" transform="matrix(12,0,0,12,346.8,561.3)" />
<use xlink:href="#f2_1z" transform="matrix(12,0,0,12,351.9,561.3)" />
<use xlink:href="#f2_2f" transform="matrix(12,0,0,12,364.6,561.3)" />
<use xlink:href="#f2_2h" transform="matrix(12,0,0,12,371.8,561.3)" />
<use xlink:href="#f2_1y" transform="matrix(12,0,0,12,380.9,561.3)" />
<use xlink:href="#f2_2f" transform="matrix(12,0,0,12,390.1,561.3)" />
<use xlink:href="#f2_2g" transform="matrix(12,0,0,12,397.2,561.3)" />
<use xlink:href="#f2_1x" transform="matrix(12,0,0,12,402.3,561.3)" />
<use xlink:href="#f2_2a" transform="matrix(12,0,0,12,410.5,561.3)" />
<use xlink:href="#f2_1z" transform="matrix(12,0,0,12,419.6,561.3)" />
<use xlink:href="#f2_21" transform="matrix(12,0,0,12,427.7,561.3)" />
<use xlink:href="#f2_2f" transform="matrix(12,0,0,12,435.9,561.3)" />
<use xlink:href="#f2_25" transform="matrix(12,0,0,12,447.6,561.3)" />
<use xlink:href="#f2_2a" transform="matrix(12,0,0,12,452.7,561.3)" />
<use xlink:href="#f2_2g" transform="matrix(12,0,0,12,461.8,561.3)" />
<use xlink:href="#f2_2b" transform="matrix(12,0,0,12,466.9,561.3)" />
<use xlink:href="#f2_2b" transform="matrix(12,0,0,12,480.7,561.3)" />
<use xlink:href="#f2_2e" transform="matrix(12,0,0,12,489.8,561.3)" />
<use xlink:href="#f2_23" transform="matrix(12,0,0,12,496,561.3)" />
<use xlink:href="#f2_1x" transform="matrix(12,0,0,12,505.2,561.3)" />
<use xlink:href="#f2_2a" transform="matrix(12,0,0,12,513.2,561.3)" />
<use xlink:href="#f2_25" transform="matrix(12,0,0,12,522.4,561.3)" />
<use xlink:href="#f2_1z" transform="matrix(12,0,0,12,527.5,561.3)" />
<use xlink:href="#f2_29" transform="matrix(12,0,0,12,540.2,561.3)" />
<use xlink:href="#f2_1x" transform="matrix(12,0,0,12,554.4,561.3)" />
<use xlink:href="#f2_2g" transform="matrix(12,0,0,12,562.5,561.3)" />
<use xlink:href="#f2_21" transform="matrix(12,0,0,12,567.6,561.3)" />
<use xlink:href="#f2_2e" transform="matrix(12,0,0,12,575.8,561.3)" />
<use xlink:href="#f2_25" transform="matrix(12,0,0,12,581.9,561.3)" />
<use xlink:href="#f2_1x" transform="matrix(12,0,0,12,587.1,561.3)" />
<use xlink:href="#f2_28" transform="matrix(12,0,0,12,595.1,561.3)" />
<use xlink:href="#f2_2j" transform="matrix(12,0,0,12,604.8,561.3)" />
<use xlink:href="#f2_25" transform="matrix(12,0,0,12,618,561.3)" />
<use xlink:href="#f2_2g" transform="matrix(12,0,0,12,623.1,561.3)" />
<use xlink:href="#f2_24" transform="matrix(12,0,0,12,628.2,561.3)" />
<use xlink:href="#f2_2g" transform="matrix(12,0,0,12,642,561.3)" />
<use xlink:href="#f2_24" transform="matrix(12,0,0,12,647.1,561.3)" />
<use xlink:href="#f2_21" transform="matrix(12,0,0,12,656.3,561.3)" />
<use xlink:href="#f2_24" transform="matrix(12,0,0,12,669,561.3)" />
<use xlink:href="#f2_21" transform="matrix(12,0,0,12,678.2,561.3)" />
<use xlink:href="#f2_28" transform="matrix(12,0,0,12,686.2,561.3)" />
<use xlink:href="#f2_2c" transform="matrix(12,0,0,12,691.3,561.3)" />
<use xlink:href="#f2_2b" transform="matrix(12,0,0,12,705,561.3)" />
<use xlink:href="#f2_22" transform="matrix(12,0,0,12,714.2,561.3)" />
<use xlink:href="#f2_2e" transform="matrix(12,0,0,12,724.9,561.3)" />
<use xlink:href="#f2_1x" transform="matrix(12,0,0,12,731,561.3)" />
<use xlink:href="#f2_20" transform="matrix(12,0,0,12,739.1,561.3)" />
<use xlink:href="#f2_25" transform="matrix(12,0,0,12,748.3,561.3)" />
<use xlink:href="#f2_1x" transform="matrix(12,0,0,12,753.4,561.3)" />
<use xlink:href="#f2_2a" transform="matrix(12,0,0,12,761.6,561.3)" />
<use xlink:href="#f2_2g" transform="matrix(12,0,0,12,770.7,561.3)" />
<use xlink:href="#f2_21" transform="matrix(12,0,0,12,780.5,561.3)" />
<use xlink:href="#f2_2a" transform="matrix(12,0,0,12,788.7,561.3)" />
<use xlink:href="#f2_21" transform="matrix(12,0,0,12,797.8,561.3)" />
<use xlink:href="#f2_2e" transform="matrix(12,0,0,12,806,561.3)" />
<use xlink:href="#f2_23" transform="matrix(12,0,0,12,812.1,561.3)" />
<use xlink:href="#f2_2l" transform="matrix(12,0,0,12,821.3,561.3)" />
<use xlink:href="#f2_j" transform="matrix(12,0,0,12,835.1,561.3)" />
<use xlink:href="#f2_2f" transform="matrix(12,0,0,12,55,584)" />
<use xlink:href="#f2_2h" transform="matrix(12,0,0,12,62.1,584)" />
<use xlink:href="#f2_2a" transform="matrix(12,0,0,12,71.3,584)" />
<use xlink:href="#f2_28" transform="matrix(12,0,0,12,80.5,584)" />
<use xlink:href="#f2_25" transform="matrix(12,0,0,12,85.6,584)" />
<use xlink:href="#f2_23" transform="matrix(12,0,0,12,90.7,584)" />
<use xlink:href="#f2_24" transform="matrix(12,0,0,12,99.9,584)" />
<use xlink:href="#f2_2g" transform="matrix(12,0,0,12,109,584)" />
<use xlink:href="#f2_1y" transform="matrix(12,0,0,12,118.8,584)" />
<use xlink:href="#f2_2l" transform="matrix(12,0,0,12,127.8,584)" />
<use xlink:href="#f2_2g" transform="matrix(12,0,0,12,141.6,584)" />
<use xlink:href="#f2_24" transform="matrix(12,0,0,12,146.6,584)" />
<use xlink:href="#f2_21" transform="matrix(12,0,0,12,155.8,584)" />
<use xlink:href="#f2_1x" transform="matrix(12,0,0,12,168.5,584)" />
<use xlink:href="#f2_2h" transform="matrix(12,0,0,12,176.7,584)" />
<use xlink:href="#f2_2g" transform="matrix(12,0,0,12,185.8,584)" />
<use xlink:href="#f2_2b" transform="matrix(12,0,0,12,191,584)" />
<use xlink:href="#f2_2g" transform="matrix(12,0,0,12,200.1,584)" />
<use xlink:href="#f2_2e" transform="matrix(12,0,0,12,205.2,584)" />
<use xlink:href="#f2_2b" transform="matrix(12,0,0,12,211.3,584)" />
<use xlink:href="#f2_2c" transform="matrix(12,0,0,12,220.5,584)" />
<use xlink:href="#f2_24" transform="matrix(12,0,0,12,229.6,584)" />
<use xlink:href="#f2_2f" transform="matrix(12,0,0,12,238.8,584)" />
<use xlink:href="#f2_j" transform="matrix(12,0,0,12,250.5,584)" />
<use xlink:href="#f2_2c" transform="matrix(12,0,0,12,260.2,584)" />
<use xlink:href="#f2_2e" transform="matrix(12,0,0,12,269.4,584)" />
<use xlink:href="#f2_2b" transform="matrix(12,0,0,12,275.5,584)" />
<use xlink:href="#f2_20" transform="matrix(12,0,0,12,284.6,584)" />
<use xlink:href="#f2_2h" transform="matrix(12,0,0,12,293.8,584)" />
<use xlink:href="#f2_1z" transform="matrix(12,0,0,12,303,584)" />
<use xlink:href="#f2_21" transform="matrix(12,0,0,12,311.1,584)" />
<use xlink:href="#f2_2e" transform="matrix(12,0,0,12,319.2,584)" />
<use xlink:href="#f2_2f" transform="matrix(12,0,0,12,325.3,584)" />
<use xlink:href="#f2_c" transform="matrix(12,0,0,12,337,584)" />
<use xlink:href="#f2_2c" transform="matrix(12,0,0,12,347.7,584)" />
<use xlink:href="#f2_24" transform="matrix(12,0,0,12,356.9,584)" />
<use xlink:href="#f2_2l" transform="matrix(12,0,0,12,366,584)" />
<use xlink:href="#f2_2g" transform="matrix(12,0,0,12,375.2,584)" />
<use xlink:href="#f2_2b" transform="matrix(12,0,0,12,380.3,584)" />
<use xlink:href="#f2_2c" transform="matrix(12,0,0,12,389.5,584)" />
<use xlink:href="#f2_28" transform="matrix(12,0,0,12,398.7,584)" />
<use xlink:href="#f2_1x" transform="matrix(12,0,0,12,403.7,584)" />
<use xlink:href="#f2_2a" transform="matrix(12,0,0,12,411.9,584)" />
<use xlink:href="#f2_27" transform="matrix(12,0,0,12,421,584)" />
<use xlink:href="#f2_2g" transform="matrix(12,0,0,12,430.1,584)" />
<use xlink:href="#f2_2b" transform="matrix(12,0,0,12,435.2,584)" />
<use xlink:href="#f2_2a" transform="matrix(12,0,0,12,444.4,584)" />
<use xlink:href="#f2_g" transform="matrix(12,0,0,12,458.1,584)" />
<use xlink:href="#f2_1x" transform="matrix(12,0,0,12,467.3,584)" />
<use xlink:href="#f2_28" transform="matrix(12,0,0,12,475.5,584)" />
<use xlink:href="#f2_23" transform="matrix(12,0,0,12,480.6,584)" />
<use xlink:href="#f2_1x" transform="matrix(12,0,0,12,489.7,584)" />
<use xlink:href="#f2_21" transform="matrix(12,0,0,12,498,584)" />
<use xlink:href="#f2_g" transform="matrix(12,0,0,12,510.6,584)" />
<use xlink:href="#f2_22" transform="matrix(12,0,0,12,519.8,584)" />
<use xlink:href="#f2_28" transform="matrix(12,0,0,12,525.9,584)" />
<use xlink:href="#f2_2b" transform="matrix(12,0,0,12,531,584)" />
<use xlink:href="#f2_1x" transform="matrix(12,0,0,12,540.2,584)" />
<use xlink:href="#f2_2g" transform="matrix(12,0,0,12,548.3,584)" />
<use xlink:href="#f2_25" transform="matrix(12,0,0,12,553.4,584)" />
<use xlink:href="#f2_2a" transform="matrix(12,0,0,12,558.6,584)" />
<use xlink:href="#f2_23" transform="matrix(12,0,0,12,567.7,584)" />
<use xlink:href="#f2_g" transform="matrix(12,0,0,12,581.5,584)" />
<use xlink:href="#f2_2f" transform="matrix(12,0,0,12,586.1,584)" />
<use xlink:href="#f2_2h" transform="matrix(12,0,0,12,593.2,584)" />
<use xlink:href="#f2_1y" transform="matrix(12,0,0,12,602.3,584)" />
<use xlink:href="#f2_29" transform="matrix(12,0,0,12,611.5,584)" />
<use xlink:href="#f2_21" transform="matrix(12,0,0,12,625.6,584)" />
<use xlink:href="#f2_2e" transform="matrix(12,0,0,12,633.8,584)" />
<use xlink:href="#f2_23" transform="matrix(12,0,0,12,639.9,584)" />
<use xlink:href="#f2_21" transform="matrix(12,0,0,12,649.1,584)" />
<use xlink:href="#f2_20" transform="matrix(12,0,0,12,657.2,584)" />
<use xlink:href="#f2_2c" transform="matrix(12,0,0,12,671.1,584)" />
<use xlink:href="#f2_28" transform="matrix(12,0,0,12,680.3,584)" />
<use xlink:href="#f2_1x" transform="matrix(12,0,0,12,685.4,584)" />
<use xlink:href="#f2_2a" transform="matrix(12,0,0,12,693.5,584)" />
<use xlink:href="#f2_2g" transform="matrix(12,0,0,12,702.7,584)" />
<use xlink:href="#f2_2f" transform="matrix(12,0,0,12,707.8,584)" />
<use xlink:href="#f2_d" transform="matrix(12,0,0,12,719.5,584)" />
<use xlink:href="#f2_14" transform="matrix(12,0,0,12,55,606.9)" />
<use xlink:href="#f2_21" transform="matrix(12,0,0,12,68.2,606.9)" />
<use xlink:href="#f2_1z" transform="matrix(12,0,0,12,76.4,606.9)" />
<use xlink:href="#f2_2b" transform="matrix(12,0,0,12,84.5,606.9)" />
<use xlink:href="#f2_29" transform="matrix(12,0,0,12,93.8,606.9)" />
<use xlink:href="#f2_2c" transform="matrix(12,0,0,12,107.9,606.9)" />
<use xlink:href="#f2_2b" transform="matrix(12,0,0,12,117,606.9)" />
<use xlink:href="#f2_2f" transform="matrix(12,0,0,12,126.2,606.9)" />
<use xlink:href="#f2_25" transform="matrix(12,0,0,12,133.3,606.9)" />
<use xlink:href="#f2_2g" transform="matrix(12,0,0,12,138.5,606.9)" />
<use xlink:href="#f2_25" transform="matrix(12,0,0,12,143.6,606.9)" />
<use xlink:href="#f2_2b" transform="matrix(12,0,0,12,148.7,606.9)" />
<use xlink:href="#f2_2a" transform="matrix(12,0,0,12,157.8,606.9)" />
<use xlink:href="#f2_h" transform="matrix(12,0,0,12,171.6,606.9)" />
<use xlink:href="#f2_20" transform="matrix(12,0,0,12,182.4,606.9)" />
<use xlink:href="#f2_21" transform="matrix(12,0,0,12,191.5,606.9)" />
<use xlink:href="#f2_1z" transform="matrix(12,0,0,12,199.7,606.9)" />
<use xlink:href="#f2_2b" transform="matrix(12,0,0,12,207.8,606.9)" />
<use xlink:href="#f2_29" transform="matrix(12,0,0,12,217,606.9)" />
<use xlink:href="#f2_2c" transform="matrix(12,0,0,12,231.1,606.9)" />
<use xlink:href="#f2_2b" transform="matrix(12,0,0,12,240.4,606.9)" />
<use xlink:href="#f2_2f" transform="matrix(12,0,0,12,249.5,606.9)" />
<use xlink:href="#f2_21" transform="matrix(12,0,0,12,256.7,606.9)" />
<use xlink:href="#f2_2e" transform="matrix(12,0,0,12,264.8,606.9)" />
<use xlink:href="#f2_2f" transform="matrix(12,0,0,12,271,606.9)" />
<use xlink:href="#f2_c" transform="matrix(12,0,0,12,282.7,606.9)" />
<use xlink:href="#f2_22" transform="matrix(12,0,0,12,293.4,606.9)" />
<use xlink:href="#f2_2h" transform="matrix(12,0,0,12,299.5,606.9)" />
<use xlink:href="#f2_2a" transform="matrix(12,0,0,12,308.7,606.9)" />
<use xlink:href="#f2_23" transform="matrix(12,0,0,12,317.8,606.9)" />
<use xlink:href="#f2_25" transform="matrix(12,0,0,12,327,606.9)" />
<use xlink:href="#f2_g" transform="matrix(12,0,0,12,336.6,606.9)" />
<use xlink:href="#f2_1y" transform="matrix(12,0,0,12,345.7,606.9)" />
<use xlink:href="#f2_1x" transform="matrix(12,0,0,12,354.9,606.9)" />
<use xlink:href="#f2_1z" transform="matrix(12,0,0,12,363,606.9)" />
<use xlink:href="#f2_2g" transform="matrix(12,0,0,12,371.2,606.9)" />
<use xlink:href="#f2_21" transform="matrix(12,0,0,12,376.3,606.9)" />
<use xlink:href="#f2_2e" transform="matrix(12,0,0,12,384.4,606.9)" />
<use xlink:href="#f2_25" transform="matrix(12,0,0,12,390.5,606.9)" />
<use xlink:href="#f2_1x" transform="matrix(12,0,0,12,395.7,606.9)" />
<use xlink:href="#f2_g" transform="matrix(12,0,0,12,408.4,606.9)" />
<use xlink:href="#f2_22" transform="matrix(12,0,0,12,417.6,606.9)" />
<use xlink:href="#f2_28" transform="matrix(12,0,0,12,423.5,606.9)" />
<use xlink:href="#f2_1x" transform="matrix(12,0,0,12,428.6,606.9)" />
<use xlink:href="#f2_23" transform="matrix(12,0,0,12,436.8,606.9)" />
<use xlink:href="#f2_21" transform="matrix(12,0,0,12,445.9,606.9)" />
<use xlink:href="#f2_28" transform="matrix(12,0,0,12,454.1,606.9)" />
<use xlink:href="#f2_28" transform="matrix(12,0,0,12,459.2,606.9)" />
<use xlink:href="#f2_1x" transform="matrix(12,0,0,12,464.3,606.9)" />
<use xlink:href="#f2_2g" transform="matrix(12,0,0,12,472.5,606.9)" />
<use xlink:href="#f2_21" transform="matrix(12,0,0,12,477.5,606.9)" />
<use xlink:href="#f2_2f" transform="matrix(12,0,0,12,485.6,606.9)" />
<use xlink:href="#f2_d" transform="matrix(12,0,0,12,497.4,606.9)" />
<use xlink:href="#f2_1y" transform="matrix(12,0,0,12,508.1,606.9)" />
<use xlink:href="#f2_2e" transform="matrix(12,0,0,12,517.2,606.9)" />
<use xlink:href="#f2_21" transform="matrix(12,0,0,12,523.3,606.9)" />
<use xlink:href="#f2_1x" transform="matrix(12,0,0,12,531.4,606.9)" />
<use xlink:href="#f2_27" transform="matrix(12,0,0,12,539.6,606.9)" />
<use xlink:href="#f2_20" transform="matrix(12,0,0,12,548.8,606.9)" />
<use xlink:href="#f2_2b" transform="matrix(12,0,0,12,558,606.9)" />
<use xlink:href="#f2_2j" transform="matrix(12,0,0,12,567.1,606.9)" />
<use xlink:href="#f2_2a" transform="matrix(12,0,0,12,580.4,606.9)" />
<use xlink:href="#f2_20" transform="matrix(12,0,0,12,594.1,606.9)" />
<use xlink:href="#f2_21" transform="matrix(12,0,0,12,603.3,606.9)" />
<use xlink:href="#f2_1x" transform="matrix(12,0,0,12,611.4,606.9)" />
<use xlink:href="#f2_20" transform="matrix(12,0,0,12,619.6,606.9)" />
<use xlink:href="#f2_20" transform="matrix(12,0,0,12,633.3,606.9)" />
<use xlink:href="#f2_21" transform="matrix(12,0,0,12,642.5,606.9)" />
<use xlink:href="#f2_1z" transform="matrix(12,0,0,12,650.6,606.9)" />
<use xlink:href="#f2_1x" transform="matrix(12,0,0,12,658.7,606.9)" />
<use xlink:href="#f2_2l" transform="matrix(12,0,0,12,666.9,606.9)" />
<use xlink:href="#f2_21" transform="matrix(12,0,0,12,676.1,606.9)" />
<use xlink:href="#f2_20" transform="matrix(12,0,0,12,684.2,606.9)" />
<use xlink:href="#f2_2b" transform="matrix(12,0,0,12,698.1,606.9)" />
<use xlink:href="#f2_2e" transform="matrix(12,0,0,12,707.3,606.9)" />
<use xlink:href="#f2_23" transform="matrix(12,0,0,12,713.4,606.9)" />
<use xlink:href="#f2_1x" transform="matrix(12,0,0,12,722.6,606.9)" />
<use xlink:href="#f2_2a" transform="matrix(12,0,0,12,730.7,606.9)" />
<use xlink:href="#f2_25" transform="matrix(12,0,0,12,739.9,606.9)" />
<use xlink:href="#f2_1z" transform="matrix(12,0,0,12,745,606.9)" />
<use xlink:href="#f2_29" transform="matrix(12,0,0,12,757.7,606.9)" />
<use xlink:href="#f2_1x" transform="matrix(12,0,0,12,771.9,606.9)" />
<use xlink:href="#f2_2g" transform="matrix(12,0,0,12,780,606.9)" />
<use xlink:href="#f2_2g" transform="matrix(12,0,0,12,785.1,606.9)" />
<use xlink:href="#f2_21" transform="matrix(12,0,0,12,790.3,606.9)" />
<use xlink:href="#f2_2e" transform="matrix(12,0,0,12,798.5,606.9)" />
<use xlink:href="#f2_25" transform="matrix(12,0,0,12,809.1,606.9)" />
<use xlink:href="#f2_2a" transform="matrix(12,0,0,12,814.2,606.9)" />
<use xlink:href="#f2_2g" transform="matrix(12,0,0,12,823.4,606.9)" />
<use xlink:href="#f2_2b" transform="matrix(12,0,0,12,828.5,606.9)" />
<use xlink:href="#f2_2f" transform="matrix(12,0,0,12,55,629.6)" />
<use xlink:href="#f2_25" transform="matrix(12,0,0,12,62.1,629.6)" />
<use xlink:href="#f2_29" transform="matrix(12,0,0,12,67.2,629.6)" />
<use xlink:href="#f2_2c" transform="matrix(12,0,0,12,81.4,629.6)" />
<use xlink:href="#f2_28" transform="matrix(12,0,0,12,90.6,629.6)" />
<use xlink:href="#f2_21" transform="matrix(12,0,0,12,95.7,629.6)" />
<use xlink:href="#f2_2e" transform="matrix(12,0,0,12,103.8,629.6)" />
<use xlink:href="#f2_1z" transform="matrix(12,0,0,12,114.6,629.6)" />
<use xlink:href="#f2_2b" transform="matrix(12,0,0,12,122.7,629.6)" />
<use xlink:href="#f2_29" transform="matrix(12,0,0,12,131.9,629.6)" />
<use xlink:href="#f2_2c" transform="matrix(12,0,0,12,146.1,629.6)" />
<use xlink:href="#f2_2b" transform="matrix(12,0,0,12,155.3,629.6)" />
<use xlink:href="#f2_2h" transform="matrix(12,0,0,12,164.5,629.6)" />
<use xlink:href="#f2_2a" transform="matrix(12,0,0,12,173.6,629.6)" />
<use xlink:href="#f2_20" transform="matrix(12,0,0,12,182.8,629.6)" />
<use xlink:href="#f2_2f" transform="matrix(12,0,0,12,192,629.6)" />
<use xlink:href="#f2_15" transform="matrix(12,0,0,12,55,652.4)" />
<use xlink:href="#f2_2a" transform="matrix(12,0,0,12,66.2,652.4)" />
<use xlink:href="#f2_21" transform="matrix(12,0,0,12,75.4,652.4)" />
<use xlink:href="#f2_2e" transform="matrix(12,0,0,12,83.5,652.4)" />
<use xlink:href="#f2_23" transform="matrix(12,0,0,12,89.6,652.4)" />
<use xlink:href="#f2_2l" transform="matrix(12,0,0,12,98.8,652.4)" />
<use xlink:href="#f2_16" transform="matrix(12,0,0,12,112.5,652.4)" />
<use xlink:href="#f2_28" transform="matrix(12,0,0,12,122.7,652.4)" />
<use xlink:href="#f2_2b" transform="matrix(12,0,0,12,127.8,652.4)" />
<use xlink:href="#f2_2j" transform="matrix(12,0,0,12,137,652.4)" />
<use xlink:href="#f2_h" transform="matrix(12,0,0,12,154.8,652.4)" />
<use xlink:href="#f2_1l" transform="matrix(12,0,0,12,165.5,652.4)" />
<use xlink:href="#f2_2a" transform="matrix(12,0,0,12,178.7,652.4)" />
<use xlink:href="#f2_25" transform="matrix(12,0,0,12,187.9,652.4)" />
<use xlink:href="#f2_20" transform="matrix(12,0,0,12,193,652.4)" />
<use xlink:href="#f2_25" transform="matrix(12,0,0,12,202.2,652.4)" />
<use xlink:href="#f2_2e" transform="matrix(12,0,0,12,207.3,652.4)" />
<use xlink:href="#f2_21" transform="matrix(12,0,0,12,213.4,652.4)" />
<use xlink:href="#f2_1z" transform="matrix(12,0,0,12,221.6,652.4)" />
<use xlink:href="#f2_2g" transform="matrix(12,0,0,12,229.6,652.4)" />
<use xlink:href="#f2_25" transform="matrix(12,0,0,12,234.7,652.4)" />
<use xlink:href="#f2_2b" transform="matrix(12,0,0,12,239.9,652.4)" />
<use xlink:href="#f2_2a" transform="matrix(12,0,0,12,249.1,652.4)" />
<use xlink:href="#f2_1x" transform="matrix(12,0,0,12,258.2,652.4)" />
<use xlink:href="#f2_28" transform="matrix(12,0,0,12,266.3,652.4)" />
<use xlink:href="#f2_29" transform="matrix(12,0,0,12,276,652.4)" />
<use xlink:href="#f2_2b" transform="matrix(12,0,0,12,290.1,652.4)" />
<use xlink:href="#f2_2i" transform="matrix(12,0,0,12,299.3,652.4)" />
<use xlink:href="#f2_21" transform="matrix(12,0,0,12,308.5,652.4)" />
<use xlink:href="#f2_29" transform="matrix(12,0,0,12,316.7,652.4)" />
<use xlink:href="#f2_21" transform="matrix(12,0,0,12,330.8,652.4)" />
<use xlink:href="#f2_2a" transform="matrix(12,0,0,12,338.9,652.4)" />
<use xlink:href="#f2_2g" transform="matrix(12,0,0,12,348.1,652.4)" />
<use xlink:href="#f2_2b" transform="matrix(12,0,0,12,357.8,652.4)" />
<use xlink:href="#f2_22" transform="matrix(12,0,0,12,367,652.4)" />
<use xlink:href="#f2_21" transform="matrix(12,0,0,12,377.6,652.4)" />
<use xlink:href="#f2_2a" transform="matrix(12,0,0,12,385.8,652.4)" />
<use xlink:href="#f2_21" transform="matrix(12,0,0,12,394.9,652.4)" />
<use xlink:href="#f2_2e" transform="matrix(12,0,0,12,403.1,652.4)" />
<use xlink:href="#f2_23" transform="matrix(12,0,0,12,409.3,652.4)" />
<use xlink:href="#f2_2l" transform="matrix(12,0,0,12,418.5,652.4)" />
<use xlink:href="#f2_2g" transform="matrix(12,0,0,12,432.3,652.4)" />
<use xlink:href="#f2_2b" transform="matrix(12,0,0,12,437.4,652.4)" />
<use xlink:href="#f2_2j" transform="matrix(12,0,0,12,446.5,652.4)" />
<use xlink:href="#f2_1x" transform="matrix(12,0,0,12,459.8,652.4)" />
<use xlink:href="#f2_2e" transform="matrix(12,0,0,12,467.9,652.4)" />
<use xlink:href="#f2_20" transform="matrix(12,0,0,12,474,652.4)" />
<use xlink:href="#f2_2f" transform="matrix(12,0,0,12,483.2,652.4)" />
<use xlink:href="#f2_24" transform="matrix(12,0,0,12,494.8,652.4)" />
<use xlink:href="#f2_25" transform="matrix(12,0,0,12,504,652.4)" />
<use xlink:href="#f2_23" transform="matrix(12,0,0,12,509.1,652.4)" />
<use xlink:href="#f2_24" transform="matrix(12,0,0,12,518.3,652.4)" />
<use xlink:href="#f2_21" transform="matrix(12,0,0,12,527.4,652.4)" />
<use xlink:href="#f2_2e" transform="matrix(12,0,0,12,535.6,652.4)" />
<use xlink:href="#f2_2g" transform="matrix(12,0,0,12,546.3,652.4)" />
<use xlink:href="#f2_2e" transform="matrix(12,0,0,12,551.4,652.4)" />
<use xlink:href="#f2_2b" transform="matrix(12,0,0,12,557.5,652.4)" />
<use xlink:href="#f2_2c" transform="matrix(12,0,0,12,566.7,652.4)" />
<use xlink:href="#f2_24" transform="matrix(12,0,0,12,575.8,652.4)" />
<use xlink:href="#f2_25" transform="matrix(12,0,0,12,584.9,652.4)" />
<use xlink:href="#f2_1z" transform="matrix(12,0,0,12,590,652.4)" />
<use xlink:href="#f2_28" transform="matrix(12,0,0,12,602.7,652.4)" />
<use xlink:href="#f2_21" transform="matrix(12,0,0,12,607.9,652.4)" />
<use xlink:href="#f2_2i" transform="matrix(12,0,0,12,616,652.4)" />
<use xlink:href="#f2_21" transform="matrix(12,0,0,12,625.1,652.4)" />
<use xlink:href="#f2_28" transform="matrix(12,0,0,12,633.3,652.4)" />
<use xlink:href="#f2_2f" transform="matrix(12,0,0,12,638.4,652.4)" />
<use xlink:href="#f2_c" transform="matrix(12,0,0,12,650.1,652.4)" />
<use xlink:href="#f2_2c" transform="matrix(12,0,0,12,660.7,652.4)" />
<use xlink:href="#f2_2e" transform="matrix(12,0,0,12,669.9,652.4)" />
<use xlink:href="#f2_2b" transform="matrix(12,0,0,12,676,652.4)" />
<use xlink:href="#f2_20" transform="matrix(12,0,0,12,685.2,652.4)" />
<use xlink:href="#f2_2h" transform="matrix(12,0,0,12,694.4,652.4)" />
<use xlink:href="#f2_1z" transform="matrix(12,0,0,12,703.5,652.4)" />
<use xlink:href="#f2_21" transform="matrix(12,0,0,12,711.7,652.4)" />
<use xlink:href="#f2_2e" transform="matrix(12,0,0,12,719.8,652.4)" />
<use xlink:href="#f2_2g" transform="matrix(12,0,0,12,730.5,652.4)" />
<use xlink:href="#f2_2b" transform="matrix(12,0,0,12,735.7,652.4)" />
<use xlink:href="#f2_1z" transform="matrix(12,0,0,12,749.6,652.4)" />
<use xlink:href="#f2_2b" transform="matrix(12,0,0,12,757.7,652.4)" />
<use xlink:href="#f2_2a" transform="matrix(12,0,0,12,766.8,652.4)" />
<use xlink:href="#f2_2f" transform="matrix(12,0,0,12,776,652.4)" />
<use xlink:href="#f2_2h" transform="matrix(12,0,0,12,783.1,652.4)" />
<use xlink:href="#f2_29" transform="matrix(12,0,0,12,792.3,652.4)" />
<use xlink:href="#f2_21" transform="matrix(12,0,0,12,806.4,652.4)" />
<use xlink:href="#f2_2e" transform="matrix(12,0,0,12,814.5,652.4)" />
<use xlink:href="#f2_d" transform="matrix(12,0,0,12,825.3,652.4)" />
<use xlink:href="#f2_1x" transform="matrix(12,0,0,12,55,675.1)" />
<use xlink:href="#f2_2a" transform="matrix(12,0,0,12,63.1,675.1)" />
<use xlink:href="#f2_20" transform="matrix(12,0,0,12,72.3,675.1)" />
<use xlink:href="#f2_25" transform="matrix(12,0,0,12,86.1,675.1)" />
<use xlink:href="#f2_2g" transform="matrix(12,0,0,12,91.2,675.1)" />
<use xlink:href="#f2_2f" transform="matrix(12,0,0,12,96.3,675.1)" />
<use xlink:href="#f2_20" transform="matrix(12,0,0,12,108,675.1)" />
<use xlink:href="#f2_25" transform="matrix(12,0,0,12,117.1,675.1)" />
<use xlink:href="#f2_2f" transform="matrix(12,0,0,12,122.2,675.1)" />
<use xlink:href="#f2_2f" transform="matrix(12,0,0,12,129.4,675.1)" />
<use xlink:href="#f2_25" transform="matrix(12,0,0,12,136.5,675.1)" />
<use xlink:href="#f2_2c" transform="matrix(12,0,0,12,141.5,675.1)" />
<use xlink:href="#f2_1x" transform="matrix(12,0,0,12,150.7,675.1)" />
<use xlink:href="#f2_2g" transform="matrix(12,0,0,12,158.8,675.1)" />
<use xlink:href="#f2_25" transform="matrix(12,0,0,12,163.9,675.1)" />
<use xlink:href="#f2_2b" transform="matrix(12,0,0,12,169.1,675.1)" />
<use xlink:href="#f2_2a" transform="matrix(12,0,0,12,178.3,675.1)" />
<use xlink:href="#f2_1x" transform="matrix(12,0,0,12,192,675.1)" />
<use xlink:href="#f2_2a" transform="matrix(12,0,0,12,200.1,675.1)" />
<use xlink:href="#f2_20" transform="matrix(12,0,0,12,209.3,675.1)" />
<use xlink:href="#f2_28" transform="matrix(12,0,0,12,223,675.1)" />
<use xlink:href="#f2_2b" transform="matrix(12,0,0,12,228.1,675.1)" />
<use xlink:href="#f2_2f" transform="matrix(12,0,0,12,237.2,675.1)" />
<use xlink:href="#f2_2f" transform="matrix(12,0,0,12,244.3,675.1)" />
<use xlink:href="#f2_1x" transform="matrix(12,0,0,12,256,675.1)" />
<use xlink:href="#f2_2f" transform="matrix(12,0,0,12,264.2,675.1)" />
<use xlink:href="#f2_24" transform="matrix(12,0,0,12,276,675.1)" />
<use xlink:href="#f2_21" transform="matrix(12,0,0,12,285.1,675.1)" />
<use xlink:href="#f2_1x" transform="matrix(12,0,0,12,293.3,675.1)" />
<use xlink:href="#f2_2g" transform="matrix(12,0,0,12,301.3,675.1)" />
<use xlink:href="#f2_2g" transform="matrix(12,0,0,12,311,675.1)" />
<use xlink:href="#f2_2b" transform="matrix(12,0,0,12,316.1,675.1)" />
<use xlink:href="#f2_2g" transform="matrix(12,0,0,12,329.9,675.1)" />
<use xlink:href="#f2_24" transform="matrix(12,0,0,12,335,675.1)" />
<use xlink:href="#f2_21" transform="matrix(12,0,0,12,344.1,675.1)" />
<use xlink:href="#f2_21" transform="matrix(12,0,0,12,356.9,675.1)" />
<use xlink:href="#f2_2a" transform="matrix(12,0,0,12,365,675.1)" />
<use xlink:href="#f2_2i" transform="matrix(12,0,0,12,374.2,675.1)" />
<use xlink:href="#f2_25" transform="matrix(12,0,0,12,383.3,675.1)" />
<use xlink:href="#f2_2e" transform="matrix(12,0,0,12,388.4,675.1)" />
<use xlink:href="#f2_2b" transform="matrix(12,0,0,12,394.5,675.1)" />
<use xlink:href="#f2_2a" transform="matrix(12,0,0,12,403.6,675.1)" />
<use xlink:href="#f2_29" transform="matrix(12,0,0,12,412.9,675.1)" />
<use xlink:href="#f2_21" transform="matrix(12,0,0,12,427,675.1)" />
<use xlink:href="#f2_2a" transform="matrix(12,0,0,12,435.1,675.1)" />
<use xlink:href="#f2_2g" transform="matrix(12,0,0,12,444.3,675.1)" />
<use xlink:href="#f2_1e" transform="matrix(12,0,0,12,55,697.8)" />
<use xlink:href="#f2_2h" transform="matrix(12,0,0,12,68.2,697.8)" />
<use xlink:href="#f2_2g" transform="matrix(12,0,0,12,77.4,697.8)" />
<use xlink:href="#f2_2e" transform="matrix(12,0,0,12,82.5,697.8)" />
<use xlink:href="#f2_25" transform="matrix(12,0,0,12,88.6,697.8)" />
<use xlink:href="#f2_21" transform="matrix(12,0,0,12,93.8,697.8)" />
<use xlink:href="#f2_2a" transform="matrix(12,0,0,12,101.9,697.8)" />
<use xlink:href="#f2_2g" transform="matrix(12,0,0,12,111,697.8)" />
<use xlink:href="#f2_1z" transform="matrix(12,0,0,12,120.7,697.8)" />
<use xlink:href="#f2_2l" transform="matrix(12,0,0,12,128.8,697.8)" />
<use xlink:href="#f2_1z" transform="matrix(12,0,0,12,138,697.8)" />
<use xlink:href="#f2_28" transform="matrix(12,0,0,12,146.1,697.8)" />
<use xlink:href="#f2_21" transform="matrix(12,0,0,12,151.2,697.8)" />
<use xlink:href="#f2_h" transform="matrix(12,0,0,12,159.4,697.8)" />
<use xlink:href="#f2_1d" transform="matrix(12,0,0,12,170.2,697.8)" />
<use xlink:href="#f2_25" transform="matrix(12,0,0,12,186.4,697.8)" />
<use xlink:href="#f2_2a" transform="matrix(12,0,0,12,191.5,697.8)" />
<use xlink:href="#f2_21" transform="matrix(12,0,0,12,200.7,697.8)" />
<use xlink:href="#f2_2e" transform="matrix(12,0,0,12,208.8,697.8)" />
<use xlink:href="#f2_1x" transform="matrix(12,0,0,12,214.9,697.8)" />
<use xlink:href="#f2_28" transform="matrix(12,0,0,12,223,697.8)" />
<use xlink:href="#f2_25" transform="matrix(12,0,0,12,228.2,697.8)" />
<use xlink:href="#f2_2f" transform="matrix(12,0,0,12,233.3,697.8)" />
<use xlink:href="#f2_1x" transform="matrix(12,0,0,12,240.4,697.8)" />
<use xlink:href="#f2_2g" transform="matrix(12,0,0,12,248.5,697.8)" />
<use xlink:href="#f2_25" transform="matrix(12,0,0,12,253.6,697.8)" />
<use xlink:href="#f2_2b" transform="matrix(12,0,0,12,258.7,697.8)" />
<use xlink:href="#f2_2a" transform="matrix(12,0,0,12,267.9,697.8)" />
<use xlink:href="#f2_2b" transform="matrix(12,0,0,12,281.6,697.8)" />
<use xlink:href="#f2_22" transform="matrix(12,0,0,12,290.8,697.8)" />
<use xlink:href="#f2_20" transform="matrix(12,0,0,12,301.5,697.8)" />
<use xlink:href="#f2_21" transform="matrix(12,0,0,12,310.7,697.8)" />
<use xlink:href="#f2_1x" transform="matrix(12,0,0,12,318.8,697.8)" />
<use xlink:href="#f2_20" transform="matrix(12,0,0,12,326.9,697.8)" />
<use xlink:href="#f2_29" transform="matrix(12,0,0,12,340.7,697.8)" />
<use xlink:href="#f2_1x" transform="matrix(12,0,0,12,354.8,697.8)" />
<use xlink:href="#f2_2g" transform="matrix(12,0,0,12,363,697.8)" />
<use xlink:href="#f2_2g" transform="matrix(12,0,0,12,368.1,697.8)" />
<use xlink:href="#f2_21" transform="matrix(12,0,0,12,373.2,697.8)" />
<use xlink:href="#f2_2e" transform="matrix(12,0,0,12,381.4,697.8)" />
<use xlink:href="#f2_2g" transform="matrix(12,0,0,12,392.1,697.8)" />
<use xlink:href="#f2_2b" transform="matrix(12,0,0,12,397.2,697.8)" />
<use xlink:href="#f2_2e" transform="matrix(12,0,0,12,410.9,697.8)" />
<use xlink:href="#f2_21" transform="matrix(12,0,0,12,417,697.8)" />
<use xlink:href="#f2_28" transform="matrix(12,0,0,12,425.1,697.8)" />
<use xlink:href="#f2_21" transform="matrix(12,0,0,12,430.2,697.8)" />
<use xlink:href="#f2_1x" transform="matrix(12,0,0,12,438.4,697.8)" />
<use xlink:href="#f2_2f" transform="matrix(12,0,0,12,446.5,697.8)" />
<use xlink:href="#f2_21" transform="matrix(12,0,0,12,453.6,697.8)" />
<use xlink:href="#f2_2g" transform="matrix(12,0,0,12,466.3,697.8)" />
<use xlink:href="#f2_24" transform="matrix(12,0,0,12,471.4,697.8)" />
<use xlink:href="#f2_21" transform="matrix(12,0,0,12,480.6,697.8)" />
<use xlink:href="#f2_29" transform="matrix(12,0,0,12,488.8,697.8)" />
<use xlink:href="#f2_1y" transform="matrix(12,0,0,12,507.5,697.8)" />
<use xlink:href="#f2_1x" transform="matrix(12,0,0,12,516.7,697.8)" />
<use xlink:href="#f2_1z" transform="matrix(12,0,0,12,524.8,697.8)" />
<use xlink:href="#f2_27" transform="matrix(12,0,0,12,532.9,697.8)" />
<use xlink:href="#f2_22" transform="matrix(12,0,0,12,546.7,697.8)" />
<use xlink:href="#f2_2b" transform="matrix(12,0,0,12,552.8,697.8)" />
<use xlink:href="#f2_2e" transform="matrix(12,0,0,12,562,697.8)" />
<use xlink:href="#f2_2e" transform="matrix(12,0,0,12,572.7,697.8)" />
<use xlink:href="#f2_21" transform="matrix(12,0,0,12,578.8,697.8)" />
<use xlink:href="#f2_2h" transform="matrix(12,0,0,12,587,697.8)" />
<use xlink:href="#f2_2f" transform="matrix(12,0,0,12,596,697.8)" />
<use xlink:href="#f2_21" transform="matrix(12,0,0,12,603.2,697.8)" />
<use xlink:href="#f2_2b" transform="matrix(12,0,0,12,615.9,697.8)" />
<use xlink:href="#f2_22" transform="matrix(12,0,0,12,625.1,697.8)" />
<use xlink:href="#f2_1x" transform="matrix(12,0,0,12,635.7,697.8)" />
<use xlink:href="#f2_2h" transform="matrix(12,0,0,12,643.9,697.8)" />
<use xlink:href="#f2_2g" transform="matrix(12,0,0,12,653,697.8)" />
<use xlink:href="#f2_2b" transform="matrix(12,0,0,12,658.1,697.8)" />
<use xlink:href="#f2_2g" transform="matrix(12,0,0,12,667.3,697.8)" />
<use xlink:href="#f2_2e" transform="matrix(12,0,0,12,672.5,697.8)" />
<use xlink:href="#f2_2b" transform="matrix(12,0,0,12,678.6,697.8)" />
<use xlink:href="#f2_2c" transform="matrix(12,0,0,12,687.7,697.8)" />
<use xlink:href="#f2_24" transform="matrix(12,0,0,12,696.9,697.8)" />
<use xlink:href="#f2_2f" transform="matrix(12,0,0,12,706.1,697.8)" />
<use xlink:href="#f2_c" transform="matrix(12,0,0,12,55,720.7)" />
<use xlink:href="#f2_1y" transform="matrix(12,0,0,12,61.1,720.7)" />
<use xlink:href="#f2_d" transform="matrix(12,0,0,12,70.3,720.7)" />
<use xlink:href="#f2_17" transform="matrix(12,0,0,12,81,720.7)" />
<use xlink:href="#f2_2e" transform="matrix(12,0,0,12,94.3,720.7)" />
<use xlink:href="#f2_1x" transform="matrix(12,0,0,12,100.4,720.7)" />
<use xlink:href="#f2_2m" transform="matrix(12,0,0,12,108.5,720.7)" />
<use xlink:href="#f2_25" transform="matrix(12,0,0,12,116.6,720.7)" />
<use xlink:href="#f2_2a" transform="matrix(12,0,0,12,121.7,720.7)" />
<use xlink:href="#f2_23" transform="matrix(12,0,0,12,130.8,720.7)" />
<use xlink:href="#f2_22" transform="matrix(12,0,0,12,144.5,720.7)" />
<use xlink:href="#f2_2b" transform="matrix(12,0,0,12,150.6,720.7)" />
<use xlink:href="#f2_2b" transform="matrix(12,0,0,12,159.8,720.7)" />
<use xlink:href="#f2_20" transform="matrix(12,0,0,12,169,720.7)" />
<use xlink:href="#f2_1z" transform="matrix(12,0,0,12,182.7,720.7)" />
<use xlink:href="#f2_24" transform="matrix(12,0,0,12,190.9,720.7)" />
<use xlink:href="#f2_1x" transform="matrix(12,0,0,12,200,720.7)" />
<use xlink:href="#f2_25" transform="matrix(12,0,0,12,208.2,720.7)" />
<use xlink:href="#f2_2a" transform="matrix(12,0,0,12,213.3,720.7)" />
<use xlink:href="#f2_j" transform="matrix(12,0,0,12,227.1,720.7)" />
<use xlink:href="#f2_20" transform="matrix(12,0,0,12,236.7,720.7)" />
<use xlink:href="#f2_21" transform="matrix(12,0,0,12,245.9,720.7)" />
<use xlink:href="#f2_2g" transform="matrix(12,0,0,12,254,720.7)" />
<use xlink:href="#f2_2e" transform="matrix(12,0,0,12,259.1,720.7)" />
<use xlink:href="#f2_25" transform="matrix(12,0,0,12,265.2,720.7)" />
<use xlink:href="#f2_2g" transform="matrix(12,0,0,12,270.3,720.7)" />
<use xlink:href="#f2_2h" transform="matrix(12,0,0,12,275.5,720.7)" />
<use xlink:href="#f2_2f" transform="matrix(12,0,0,12,284.6,720.7)" />
<use xlink:href="#f2_22" transform="matrix(12,0,0,12,296.3,720.7)" />
<use xlink:href="#f2_2b" transform="matrix(12,0,0,12,302.4,720.7)" />
<use xlink:href="#f2_2b" transform="matrix(12,0,0,12,311.6,720.7)" />
<use xlink:href="#f2_20" transform="matrix(12,0,0,12,320.8,720.7)" />
<use xlink:href="#f2_1z" transform="matrix(12,0,0,12,334.4,720.7)" />
<use xlink:href="#f2_24" transform="matrix(12,0,0,12,342.5,720.7)" />
<use xlink:href="#f2_1x" transform="matrix(12,0,0,12,351.7,720.7)" />
<use xlink:href="#f2_25" transform="matrix(12,0,0,12,359.8,720.7)" />
<use xlink:href="#f2_2a" transform="matrix(12,0,0,12,365,720.7)" />
</g>
<image preserveAspectRatio="none" x="55" y="127" width="257" height="232" xlink:href="img/6.png" />
<path fill-rule="evenodd" d="M37.4,38.1h.7v-.7h-.7v.7Z" class="g2_36" />
<path fill-rule="evenodd" d="M37.4,38.1h.7v-.7h-.7v.7Z" class="g2_36" />
<path fill-rule="evenodd" d="M38.1,38.1H871.5v-.7H38.1v.7Z" class="g2_36" />
<path fill-rule="evenodd" d="M871.5,38.1h.7v-.7h-.7v.7Z" class="g2_36" />
<path fill-rule="evenodd" d="M871.5,38.1h.7v-.7h-.7v.7Z" class="g2_36" />
<path fill-rule="evenodd" d="M37.4,1248.2h.7V38.1h-.7V1248.2Z" class="g2_36" />
<path fill-rule="evenodd" d="M872.2,1248.2h.8V38.1h-.8V1248.2Z" class="g2_36" />
<path fill-rule="evenodd" d="M871.5,1248.2h.7V38.1h-.7V1248.2Z" class="g2_36" />
<path fill-rule="evenodd" d="M37.4,1249h.7v-.8h-.7v.8Z" class="g2_36" />
<path fill-rule="evenodd" d="M37.4,1249h.7v-.8h-.7v.8Z" class="g2_36" />
<path fill-rule="evenodd" d="M38.1,1249.7H871.5v-.7H38.1v.7Z" class="g2_36" />
<path fill-rule="evenodd" d="M38.1,1249H871.5v-.8H38.1v.8Z" class="g2_36" />
<path fill-rule="evenodd" d="M872.2,1249.7h.8v-1.5h-.8v1.5Z" class="g2_36" />
<path fill-rule="evenodd" d="M871.5,1249.7H873v-.7h-1.5v.7Z" class="g2_36" />
<path fill-rule="evenodd" d="M871.5,1249h.7v-.8h-.7v.8Z" class="g2_36" />
<path fill-rule="evenodd" d="M871.5,1249h.7v-.8h-.7v.8Z" class="g2_36" />
<defs>
<path d="M489,-15c0,0,-99,0,-179,30c0,0,-80,30,-136,91c0,0,-56,61,-85,152c0,0,-30,91,-30,212c0,0,0,123,32,218c0,0,33,96,92,161c0,0,59,65,142,98c0,0,82,34,181,34c0,0,40,0,78,-7c0,0,37,-7,69,-18c0,0,31,-11,57,-25c0,0,25,-14,35,-24c0,0,10,-10,14,-17c0,0,4,-7,6,-17c0,0,2,-11,3,-25c0,0,2,-14,2,-35c0,0,0,-22,-2,-38c0,0,-1,-15,-5,-25c0,0,-4,-10,-9,-14c0,0,-5,-5,-12,-5c0,0,-11,0,-28,13c0,0,-18,13,-45,29c0,0,-27,16,-65,29c0,0,-37,13,-89,13c0,0,-58,0,-103,-23c0,0,-45,-23,-77,-67c0,0,-31,-44,-48,-106c0,0,-16,-61,-16,-139c0,0,0,-85,17,-147c0,0,18,-62,50,-103c0,0,33,-40,79,-60c0,0,45,-19,103,-19c0,0,52,0,90,12c0,0,38,12,65,27c0,0,27,15,45,27c0,0,17,12,27,12c0,0,8,0,12,-3c0,0,4,-3,7,-12c0,0,3,-9,5,-25c0,0,1,-16,1,-43c0,0,0,-18,-1,-31c0,0,-1,-14,-3,-23c0,0,-2,-9,-6,-16c0,0,-4,-7,-12,-15c0,0,-8,-9,-32,-22c0,0,-23,-14,-57,-26C661,13,627,1,583,-6c0,0,-43,-9,-94,-9Z" 
id="f0_j"
transform="scale(0.001,-0.001)" />

<path d="M440,150c0,0,41,0,68,8c0,0,28,9,49,26c0,0,20,16,32,41c0,0,11,25,11,58c0,0,0,33,-11,60c0,0,-11,26,-33,44c0,0,-21,18,-55,28c0,0,-33,9,-87,9H298V150ZM407,567c0,0,42,0,68,10c0,0,25,10,42,28c0,0,16,17,24,41c0,0,9,24,9,50c0,0,0,29,-9,52c0,0,-9,23,-27,39c0,0,-18,15,-45,23c0,0,-27,8,-72,8H298V567ZM164,0c0,0,-25,0,-42,15c0,0,-16,14,-16,47V903c0,0,0,33,16,48c0,0,17,14,42,14H406c0,0,88,0,150,-15c0,0,61,-15,103,-45c0,0,42,-30,65,-77c0,0,22,-46,22,-108c0,0,0,-36,-9,-67c0,0,-9,-31,-26,-56c0,0,-17,-25,-42,-45c0,0,-25,-19,-57,-31c0,0,41,-7,76,-26c0,0,34,-19,60,-48c0,0,26,-30,41,-69c0,0,15,-40,15,-89c0,0,0,-51,-14,-93c0,0,-15,-42,-40,-74c0,0,-25,-32,-59,-55c0,0,-35,-23,-77,-38C614,29,573,14,525,7C525,7,478,0,420,0Z" 
id="f0_i"
transform="scale(0.001,-0.001)" />

<path d="M320,-17c0,0,-50,0,-93,9c0,0,-43,8,-76,19c0,0,-32,11,-54,24C97,35,75,48,65,58c0,0,-10,9,-14,28c0,0,-4,18,-4,52c0,0,0,23,1,39c0,0,2,15,5,25c0,0,4,10,9,14c0,0,6,4,13,4c0,0,11,0,30,-12c0,0,19,-13,49,-28c0,0,30,-15,71,-27c0,0,42,-12,96,-12c0,0,36,0,64,8c0,0,29,9,49,25c0,0,19,15,30,38c0,0,10,23,10,52c0,0,0,33,-18,56c0,0,-18,24,-46,42c0,0,-29,18,-66,34c0,0,-36,16,-75,34c0,0,-39,18,-76,41c0,0,-36,23,-65,54c0,0,-29,32,-47,75c0,0,-17,44,-17,104c0,0,0,70,25,122c0,0,26,53,70,88c0,0,43,34,103,51c0,0,59,18,125,18c0,0,35,0,69,-6c0,0,34,-5,64,-14c0,0,30,-9,53,-20c0,0,23,-11,31,-18c0,0,7,-8,10,-13c0,0,3,-5,4,-14c0,0,2,-8,3,-21c0,0,1,-13,1,-33c0,0,0,-21,-1,-36c0,0,-1,-15,-4,-25c0,0,-3,-9,-7,-14c0,0,-5,-4,-14,-4c0,0,-8,0,-26,10c0,0,-18,10,-44,23c0,0,-26,12,-60,22c0,0,-34,10,-75,10c0,0,-32,0,-56,-8c0,0,-24,-8,-40,-21c0,0,-16,-14,-24,-34c0,0,-8,-19,-8,-41c0,0,0,-32,18,-56c0,0,17,-23,46,-42c0,0,30,-18,67,-34c0,0,38,-16,76,-34c0,0,39,-18,76,-41c0,0,38,-22,67,-54c0,0,29,-32,47,-75c0,0,18,-43,18,-101c0,0,0,-76,-29,-133c0,0,-28,-58,-77,-96C572,60,524,21,459,2c0,0,-65,-19,-139,-19Z" 
id="f0_2n"
transform="scale(0.001,-0.001)" />

<path d="M164,0c0,0,-25,0,-42,15c0,0,-16,14,-16,47V903c0,0,0,33,16,48c0,0,17,14,42,14H645c0,0,7,0,12,-4c0,0,5,-3,9,-13c0,0,4,-9,6,-24c0,0,2,-14,2,-36c0,0,0,-21,-2,-36c0,0,-2,-14,-6,-23c0,0,-4,-9,-9,-13c0,0,-5,-4,-12,-4H301V576H593c0,0,6,0,12,-4c0,0,6,-4,9,-13c0,0,4,-8,6,-23c0,0,2,-14,2,-35c0,0,0,-22,-2,-36c0,0,-2,-14,-6,-23c0,0,-3,-8,-9,-12c0,0,-6,-4,-12,-4H301V154H649c0,0,6,0,12,-5c0,0,5,-4,9,-13c0,0,4,-9,6,-23c0,0,2,-15,2,-36c0,0,0,-22,-2,-36c0,0,-2,-15,-6,-24c0,0,-4,-9,-9,-13c0,0,-6,-4,-12,-4Z" 
id="f0_t"
transform="scale(0.001,-0.001)" />

<path d="M79,297c0,0,-19,0,-27,18c0,0,-8,17,-8,60c0,0,0,41,8,59c0,0,8,17,27,17H389c0,0,9,0,15,-4c0,0,7,-4,11,-13c0,0,5,-9,7,-23c0,0,1,-15,1,-36c0,0,0,-43,-8,-61c0,0,-8,-17,-26,-17Z" 
id="f0_oj"
transform="scale(0.001,-0.001)" />

<path d="M121,-4c0,0,-39,0,-60,2C61,-2,39,0,32,8c0,0,-8,8,-3,24c0,0,4,15,18,41L279,495L64,892c0,0,-14,26,-19,42c0,0,-5,17,4,24c0,0,9,8,32,10c0,0,23,2,65,2c0,0,35,0,56,-2c0,0,20,-1,32,-4c0,0,12,-4,17,-10c0,0,5,-6,9,-15L431,620L595,939c0,0,5,9,10,15c0,0,5,6,16,10c0,0,10,3,29,4c0,0,19,2,53,2c0,0,37,0,59,-2c0,0,22,-2,30,-10c0,0,8,-8,4,-24c0,0,-4,-16,-17,-42L564,497L793,73c0,0,14,-26,18,-41c0,0,4,-16,-5,-24c0,0,-9,-8,-32,-10c0,0,-24,-2,-65,-2c0,0,-36,0,-56,2c0,0,-20,1,-31,3c0,0,-12,4,-17,10c0,0,-5,6,-9,15L414,374L233,26c0,0,-4,-9,-9,-15c0,0,-6,-6,-17,-10c0,0,-12,-2,-32,-3c0,0,-21,-2,-54,-2Z" 
id="f0_3e"
transform="scale(0.001,-0.001)" />

<path d="M204,-4c0,0,-28,0,-47,2c0,0,-19,2,-31,5c0,0,-11,4,-16,10c0,0,-4,6,-4,13V939c0,0,0,7,4,13c0,0,5,6,17,10c0,0,11,3,30,6c0,0,19,2,47,2c0,0,29,0,48,-2c0,0,18,-3,29,-6c0,0,11,-4,16,-10c0,0,5,-6,5,-13V26c0,0,0,-7,-5,-13c0,0,-5,-6,-16,-10c0,0,-11,-3,-29,-5c0,0,-19,-2,-48,-2Z" 
id="f0_1c"
transform="scale(0.001,-0.001)" />

<path d="M127,0c0,0,-16,0,-28,3C99,3,87,6,80,15c0,0,-8,8,-11,25c0,0,-3,16,-3,42c0,0,0,25,2,42c0,0,2,18,8,32c0,0,6,14,15,27c0,0,9,13,24,29L282,390c0,0,50,53,81,95c0,0,30,43,47,79c0,0,17,35,24,65c0,0,6,30,6,57c0,0,0,24,-8,46c0,0,-8,22,-23,39c0,0,-15,16,-38,25c0,0,-23,10,-55,10c0,0,-44,0,-78,-12c0,0,-33,-11,-59,-25c0,0,-26,-13,-43,-25c0,0,-17,-12,-27,-12c0,0,-7,0,-11,5c0,0,-5,4,-8,15c0,0,-3,10,-5,28c0,0,-2,17,-2,42c0,0,0,18,1,29c0,0,1,12,4,20c0,0,2,9,6,15c0,0,3,6,13,15c0,0,9,9,34,23c0,0,25,14,61,27c0,0,37,14,81,23c0,0,44,9,92,9c0,0,75,0,131,-19c0,0,57,-19,94,-53c0,0,37,-34,55,-81c0,0,19,-47,19,-100c0,0,0,-47,-9,-93c0,0,-9,-45,-37,-98c0,0,-29,-52,-80,-116c0,0,-52,-64,-136,-148L299,159H679c0,0,8,0,14,-4c0,0,6,-5,11,-14c0,0,4,-9,7,-25c0,0,2,-15,2,-36c0,0,0,-22,-2,-37c0,0,-2,-15,-6,-25c0,0,-3,-10,-9,-14c0,0,-6,-4,-14,-4Z" 
id="f0_rz"
transform="scale(0.001,-0.001)" />

<path d="M385,138c0,0,29,0,52,9c0,0,22,10,39,28c0,0,17,19,28,47c0,0,11,29,19,66c0,0,7,37,9,84c0,0,3,47,3,104c0,0,0,69,-4,122c0,0,-4,52,-11,91c0,0,-8,39,-20,66c0,0,-12,27,-28,43c0,0,-16,16,-37,22c0,0,-21,7,-47,7c0,0,-44,0,-73,-21c0,0,-28,-21,-45,-64c0,0,-17,-42,-24,-106c0,0,-6,-63,-6,-148c0,0,0,-103,8,-171c0,0,8,-67,26,-107c0,0,17,-40,45,-56c0,0,27,-16,66,-16ZM378,-17c0,0,-99,0,-164,33c0,0,-65,34,-103,98c0,0,-38,64,-54,156c0,0,-15,92,-15,209c0,0,0,115,19,208c0,0,19,94,61,160c0,0,42,65,110,101c0,0,68,35,165,35c0,0,99,0,164,-34c0,0,65,-34,103,-98c0,0,39,-64,53,-156c0,0,15,-92,15,-209c0,0,0,-115,-18,-209c0,0,-19,-93,-61,-159C653,118,611,53,543,17c0,0,-67,-34,-165,-34Z" 
id="f0_rx"
transform="scale(0.001,-0.001)" />

<path d="M142,0c0,0,-6,0,-12,4c0,0,-5,3,-9,12c0,0,-4,9,-6,23c0,0,-3,15,-3,36c0,0,0,21,2,36c0,0,2,14,6,23c0,0,4,9,10,13c0,0,5,5,12,5H322V779L166,693c0,0,-17,-8,-28,-10c0,0,-1,0,-3,0c-4,0,-10,1,-14,5c0,0,-6,6,-8,22c0,0,-2,15,-2,44c0,0,0,18,0,29c0,0,1,12,4,20c0,0,3,8,8,14c0,0,5,5,14,11L345,962c0,0,4,3,9,5c0,0,6,2,15,3c0,0,9,1,23,2c0,0,15,0,38,0c0,0,28,0,46,-1c0,0,17,-1,26,-4c0,0,9,-3,12,-7c0,0,3,-4,3,-11V152H675c0,0,7,0,12,-5c0,0,6,-4,10,-13c0,0,4,-9,6,-23c0,0,2,-15,2,-36c0,0,0,-21,-2,-36c0,0,-3,-14,-7,-23c0,0,-4,-9,-9,-12c0,0,-5,-4,-12,-4Z" 
id="f0_ry"
transform="scale(0.001,-0.001)" />

<path d="M398,134c0,0,34,0,60,12c0,0,25,13,43,36c0,0,17,23,26,54c0,0,9,31,9,68c0,0,0,38,-7,66c0,0,-7,29,-22,49c0,0,-15,20,-39,30c0,0,-25,10,-60,10c0,0,-21,0,-41,-4c0,0,-20,-4,-40,-10c0,0,-19,-7,-37,-16c0,0,-18,-10,-33,-20c0,0,0,-80,9,-133c0,0,9,-54,26,-85c0,0,18,-31,44,-44c0,0,27,-13,62,-13ZM387,-16c0,0,-67,0,-117,15c0,0,-50,14,-86,43c0,0,-37,29,-60,70c0,0,-23,41,-37,92c0,0,-14,52,-19,112c0,0,-5,61,-5,129c0,0,0,56,5,118c0,0,6,62,22,122c0,0,16,59,45,114c0,0,29,54,75,94c0,0,46,41,111,65c0,0,65,24,155,24c0,0,28,0,57,-4c0,0,29,-3,53,-8c0,0,25,-5,42,-12c0,0,17,-7,23,-12c0,0,5,-5,8,-11c0,0,3,-5,5,-13c0,0,2,-7,3,-17c0,0,1,-11,1,-25c0,0,0,-24,-1,-39c0,0,-2,-15,-5,-24c0,0,-3,-8,-8,-12c0,0,-5,-4,-12,-4c0,0,-9,0,-24,5c0,0,-14,5,-34,11c0,0,-20,6,-47,10c0,0,-27,5,-63,5c0,0,-61,0,-102,-23c0,0,-42,-22,-68,-60c0,0,-26,-39,-38,-90c0,0,-12,-50,-13,-107c0,0,16,10,38,21c0,0,21,10,46,18c0,0,25,7,54,12c0,0,29,5,62,5c0,0,73,0,125,-20c0,0,52,-20,86,-58c0,0,33,-37,48,-90c0,0,16,-53,16,-118c0,0,0,-73,-22,-135c0,0,-23,-62,-66,-108C640,79,597,34,533,9c0,0,-63,-25,-146,-25Z" 
id="f0_s3"
transform="scale(0.001,-0.001)" />

<path d="M589,371L453,782h-1L317,371ZM106,-4c0,0,-35,0,-54,2C52,-2,32,0,25,8c0,0,-7,9,-5,24c0,0,2,16,11,42L329,931c0,0,4,13,10,21c0,0,6,7,19,12c0,0,13,4,36,5c0,0,23,1,61,1c0,0,44,0,71,-1c0,0,26,-1,40,-5c0,0,15,-5,21,-13c0,0,6,-8,11,-22L896,73c0,0,9,-27,11,-43c0,0,3,-15,-6,-23c0,0,-8,-7,-29,-9c0,0,-21,-2,-57,-2c0,0,-38,0,-59,1c0,0,-22,1,-33,4c0,0,-11,3,-16,9c0,0,-4,6,-7,16L635,220H272L211,31c0,0,-2,-11,-7,-18c0,0,-5,-7,-16,-11c0,0,-11,-3,-31,-4c0,0,-19,-2,-51,-2Z" 
id="f0_5"
transform="scale(0.001,-0.001)" />

<path d="M198,-4c0,0,-27,0,-45,2c0,0,-18,2,-28,5c0,0,-11,4,-15,10c0,0,-4,6,-4,13V887c0,0,0,38,20,58c0,0,20,20,53,20H308c0,0,34,0,59,-6c0,0,24,-5,42,-18c0,0,18,-13,30,-35c0,0,12,-21,21,-52L669,279h3L889,852c0,0,9,32,21,53c0,0,11,22,27,35c0,0,15,14,36,19c0,0,21,6,48,6h132c0,0,21,0,35,-5c0,0,15,-5,24,-15c0,0,9,-11,14,-25c0,0,5,-15,5,-33V26c0,0,0,-7,-4,-13c0,0,-4,-6,-15,-10c0,0,-11,-3,-29,-5c0,0,-18,-2,-45,-2c0,0,-27,0,-45,2c0,0,-18,2,-28,5c0,0,-11,4,-15,10c0,0,-5,6,-5,13V813h-1L764,27c0,0,-3,-10,-10,-16c0,0,-6,-6,-18,-10c0,0,-12,-3,-29,-4c0,0,-18,-1,-44,-1c0,0,-25,0,-43,2c0,0,-18,2,-29,5c0,0,-12,4,-19,10c0,0,-6,6,-9,14L293,813h-2V26c0,0,0,-7,-4,-13c0,0,-4,-6,-15,-10c0,0,-11,-3,-29,-5c0,0,-17,-2,-45,-2Z" 
id="f0_1x"
transform="scale(0.001,-0.001)" />

<path d="M193,-4c0,0,-26,0,-43,2c0,0,-18,2,-27,6c0,0,-10,4,-14,10c0,0,-3,6,-3,13V895c0,0,0,35,20,53c0,0,21,17,50,17H282c0,0,28,0,47,-5c0,0,20,-5,35,-16c0,0,15,-11,29,-31c0,0,13,-20,27,-49L608,511c0,0,17,-32,33,-63c0,0,16,-31,31,-62c0,0,14,-31,29,-60c0,0,14,-30,27,-60h1c0,0,-2,52,-3,109c0,0,-1,57,-1,108V936c0,0,0,7,4,13c0,0,5,6,15,11c0,0,10,4,28,6c0,0,17,2,44,2c0,0,25,0,42,-2c0,0,17,-2,27,-6c0,0,9,-5,13,-11c0,0,4,-6,4,-13V68c0,0,0,-17,-6,-30c0,0,-6,-14,-17,-23C879,15,869,6,856,2c0,0,-14,-3,-28,-3H744c0,0,-26,0,-45,4c0,0,-19,5,-35,19c0,0,-16,14,-31,38c0,0,-15,23,-34,60L359,572c0,0,-21,40,-43,86c0,0,-21,47,-38,91h-2c0,0,3,-54,5,-107c0,0,2,-53,2,-110V27c0,0,0,-7,-5,-13c0,0,-4,-6,-14,-10c0,0,-10,-4,-27,-6c0,0,-17,-2,-44,-2Z" 
id="f0_1y"
transform="scale(0.001,-0.001)" />

<path d="M378,-4c0,0,-28,0,-47,2c0,0,-19,2,-31,5c0,0,-11,4,-16,10c0,0,-4,6,-4,13V805H38c0,0,-8,0,-13,4c0,0,-5,5,-9,14c0,0,-3,9,-5,25c0,0,-2,15,-2,37c0,0,0,22,2,38c0,0,2,15,5,25c0,0,4,9,9,13c0,0,5,4,13,4H718c0,0,7,0,12,-4c0,0,6,-4,10,-13c0,0,3,-10,5,-25c0,0,2,-16,2,-38c0,0,0,-22,-2,-37c0,0,-2,-16,-5,-25c0,0,-4,-9,-10,-14c0,0,-5,-4,-12,-4H476V26c0,0,0,-7,-5,-13c0,0,-5,-6,-16,-10c0,0,-11,-3,-30,-5c0,0,-19,-2,-47,-2Z" 
id="f0_2t"
transform="scale(0.001,-0.001)" />

<path d="M514,145c0,0,72,0,121,27c0,0,48,26,78,73c0,0,30,46,42,107c0,0,13,62,13,131c0,0,0,76,-12,139c0,0,-12,62,-41,106c0,0,-29,45,-76,69c0,0,-48,24,-120,24c0,0,-72,0,-120,-27c0,0,-49,-27,-79,-73c0,0,-29,-45,-42,-106c0,0,-12,-61,-12,-129c0,0,0,-79,12,-142c0,0,12,-63,40,-108c0,0,28,-44,76,-68c0,0,48,-23,120,-23ZM508,-17c0,0,-113,0,-196,29c0,0,-84,29,-140,90c0,0,-56,60,-84,154c0,0,-28,93,-28,221c0,0,0,117,29,210c0,0,30,94,89,160c0,0,59,65,146,101c0,0,87,35,202,35c0,0,110,0,194,-29c0,0,84,-30,140,-90c0,0,56,-60,85,-153c0,0,29,-92,29,-217c0,0,0,-120,-30,-215c0,0,-30,-95,-89,-161C855,118,796,52,709,17c0,0,-87,-34,-201,-34Z" 
id="f0_24"
transform="scale(0.001,-0.001)" />

<path d="M299,0V777H162l36,173H508V0Z" 
id="f1_l"
transform="scale(0.001,-0.001)" />

<path d="M403,172c0,0,80,0,127,81c0,0,48,80,48,218c0,0,0,145,-47,227c0,0,-46,83,-125,83c0,0,-82,0,-129,-83c0,0,-47,-82,-47,-230c0,0,0,-135,48,-215c0,0,48,-81,125,-81Zm3,-182c0,0,-167,0,-272,130C134,120,30,251,30,464c0,0,0,227,102,364c0,0,102,137,268,137h6c0,0,170,0,271,-130c0,0,100,-130,100,-347c0,0,0,-253,-112,-376C665,112,553,-10,406,-10Z" 
id="f1_k"
transform="scale(0.001,-0.001)" />

<path d="M44,-281L425,1053H537L156,-281Z" 
id="f1_j"
transform="scale(0.001,-0.001)" />

<path d="M284,67c0,0,51,0,88,12c0,0,37,12,74,30V358l-98,-3c0,0,-100,-4,-135,-39c0,0,-35,-35,-35,-117c0,0,0,-132,106,-132ZM233,-14c0,0,-179,0,-179,208c0,0,0,70,27,116c0,0,27,46,87,70c0,0,60,24,173,27l105,3V519c0,0,0,72,-26,107c0,0,-27,34,-82,34c0,0,-75,0,-137,-35L176,538H134V691c0,0,121,26,213,26c0,0,115,0,169,-47c0,0,54,-47,54,-144V52L657,33V0H465L451,70c0,0,-85,-84,-218,-84Z" 
id="f2_1x"
transform="scale(0.001,-0.001)" />

<path d="M57,302V417H454V302Z" 
id="f2_h"
transform="scale(0.001,-0.001)" />

<path d="M495,413c0,0,0,133,-34,190c0,0,-34,57,-105,57c0,0,-78,0,-119,-63c0,0,-42,-62,-42,-184ZM374,-14c0,0,-163,0,-239,87c0,0,-75,88,-75,283c0,0,0,183,77,273c0,0,76,91,219,91c0,0,269,0,269,-306V353H194V340c0,0,0,-103,23,-160c0,0,22,-57,70,-87c0,0,47,-29,124,-29c0,0,40,0,96,6c0,0,55,7,91,15V43C598,43,562,20,500,3c0,0,-61,-17,-126,-17Z" 
id="f2_21"
transform="scale(0.001,-0.001)" />

<path d="M13,0V34L95,46L325,350L122,649L40,668v33H357V668L264,648L399,446L554,649l-96,19v33H710V668L630,652L433,397L663,50L745,34V0H427V34l94,17L359,299L169,50L266,34V0Z" 
id="f2_2k"
transform="scale(0.001,-0.001)" />

<path d="M382,45c0,0,188,0,188,314c0,0,0,143,-47,213c0,0,-46,69,-141,69c0,0,-87,0,-146,-24V58c0,0,67,-13,146,-13ZM25,-325v35l88,18V649L34,668v33H231l1,-41c0,0,31,27,84,43c0,0,53,17,107,17c0,0,134,0,208,-94c0,0,73,-93,73,-267c0,0,0,-178,-80,-276c0,0,-80,-97,-232,-97c0,0,-84,0,-160,16c0,0,4,-53,4,-84V-272l123,-18v-35Z" 
id="f2_2c"
transform="scale(0.001,-0.001)" />

<path d="M377,45c0,0,99,0,147,73c0,0,47,73,47,237c0,0,0,161,-47,233c0,0,-47,72,-147,72c0,0,-97,0,-141,-69c0,0,-44,-69,-44,-236c0,0,0,-169,45,-240c0,0,44,-70,140,-70Zm0,-59c0,0,-158,0,-238,94c0,0,-81,95,-81,274c0,0,0,178,81,272c0,0,80,94,244,94c0,0,160,0,241,-92c0,0,82,-92,82,-274c0,0,0,-368,-329,-368Z" 
id="f2_2b"
transform="scale(0.001,-0.001)" />

<path d="M439,0V33l93,19V500c0,0,0,62,-30,97c0,0,-31,36,-94,36c0,0,-67,0,-165,-22V52L338,33V0H35V33l84,19V649L35,668v33H235l7,-57c0,0,57,33,122,54c0,0,65,22,108,22c0,0,91,0,137,-53c0,0,47,-53,47,-154V52L741,33V0Z" 
id="f2_2a"
transform="scale(0.001,-0.001)" />

<path d="M249,-14c0,0,-71,0,-107,42c0,0,-35,42,-35,119V639H15v33l93,29l76,159h47V701H391V639H231V161c0,0,0,-48,22,-73c0,0,22,-24,57,-24c0,0,44,0,106,12V26C416,26,389,8,340,-2c0,0,-49,-12,-91,-12Z" 
id="f2_2g"
transform="scale(0.001,-0.001)" />

<path d="M32,0V33L151,52V649L52,668v33H275V52L395,33V0ZM201,850c0,0,-32,0,-56,24c0,0,-24,24,-24,56c0,0,0,34,24,58c0,0,24,24,56,24c0,0,34,0,58,-24c0,0,24,-24,24,-58c0,0,0,-32,-24,-56c0,0,-24,-24,-58,-24Z" 
id="f2_25"
transform="scale(0.001,-0.001)" />

<path d="M31,0V33L150,52v956L31,1026v34H274V52L394,33V0Z" 
id="f2_28"
transform="scale(0.001,-0.001)" />

<path d="M359,-270c0,0,124,0,192,46c0,0,67,47,67,129c0,0,0,43,-26,67c0,0,-26,24,-79,24H242c0,0,-32,-27,-51,-69c0,0,-20,-41,-20,-77c0,0,0,-64,46,-92c0,0,46,-28,142,-28Zm11,561c0,0,81,0,115,47c0,0,34,47,34,141c0,0,0,100,-35,142c0,0,-35,42,-113,42c0,0,-78,0,-114,-43c0,0,-37,-42,-37,-141c0,0,0,-98,36,-143c0,0,36,-45,114,-45ZM359,-329c0,0,-143,0,-218,44c0,0,-75,43,-75,125c0,0,0,39,27,78c0,0,26,38,98,89c0,0,-43,14,-72,48c0,0,-29,35,-29,74L208,262c0,0,-118,55,-118,217c0,0,0,115,73,178c0,0,73,63,211,63c0,0,28,0,71,-6c0,0,44,-6,67,-13l165,83l26,-32L599,644c0,0,50,-56,50,-165c0,0,0,-120,-72,-182c0,0,-73,-62,-208,-62c0,0,-62,0,-114,11L208,148c0,0,2,-13,29,-24c0,0,27,-12,67,-12H512c0,0,113,0,168,-49c0,0,55,-49,55,-134c0,0,0,-79,-44,-137c0,0,-43,-58,-128,-90c0,0,-84,-31,-204,-31Z" 
id="f2_23"
transform="scale(0.001,-0.001)" />

<path d="M31,0V33l88,19V649L31,668v33H235l7,-87c0,0,44,37,121,71c0,0,76,35,121,35h11V530H463l-43,82c0,0,-37,0,-88,-10c0,0,-52,-10,-89,-26V52L363,33V0Z" 
id="f2_2e"
transform="scale(0.001,-0.001)" />

<path d="M327,-14L84,649L1,668v33H335V668L219,648L385,174L554,632h63L786,171L944,649L830,668v33h267V668l-78,-16L784,-14H726L553,448L382,-14Z" 
id="f2_2j"
transform="scale(0.001,-0.001)" />

<path d="M442,0V33l93,19V504c0,0,0,129,-124,129c0,0,-70,0,-168,-22V52L338,33V0H31V33l88,19v956L15,1026v34H243V756c0,0,0,-77,-5,-112c0,0,54,31,122,53c0,0,68,23,115,23c0,0,91,0,137,-53c0,0,47,-53,47,-154V52L744,33V0Z" 
id="f2_24"
transform="scale(0.001,-0.001)" />

<path d="M399,-14c0,0,-341,0,-341,370c0,0,0,175,87,269c0,0,87,95,249,95c0,0,101,0,220,-23V501H573L541,625c0,0,-62,35,-149,35c0,0,-200,0,-200,-304c0,0,0,-158,61,-225c0,0,61,-67,189,-67c0,0,109,0,189,24V43C631,43,595,16,530,1c0,0,-64,-15,-131,-15Z" 
id="f2_1z"
transform="scale(0.001,-0.001)" />

<path d="M289,-14c0,0,-179,0,-179,205V649L20,668v33H233V200c0,0,0,-128,120,-128c0,0,92,0,173,23V649L420,668v33H649V52L738,33V0H533l-6,57C527,57,474,28,405,7c0,0,-69,-21,-116,-21Z" 
id="f2_2h"
transform="scale(0.001,-0.001)" />

<path d="M360,-14L72,649L0,668v33H327V668L216,648L420,164L615,649L504,668v33H764V668L697,652L416,-14Z" 
id="f2_2i"
transform="scale(0.001,-0.001)" />

<path d="M376,50c0,0,103,0,149,80c0,0,46,81,46,240c0,0,0,137,-47,204c0,0,-48,67,-148,67c0,0,-44,0,-87,-7c0,0,-44,-8,-63,-17V62c0,0,63,-12,150,-12Zm3,-64c0,0,-64,0,-141,14c0,0,-78,14,-136,37v971L0,1026v34H226V809c0,0,0,-40,-4,-148c0,0,74,59,188,59c0,0,143,0,219,-87c0,0,77,-87,77,-263c0,0,0,-189,-84,-287c0,0,-84,-97,-243,-97Z" 
id="f2_1y"
transform="scale(0.001,-0.001)" />

<path d="M278,-14c0,0,-52,0,-115,11c0,0,-63,10,-99,23V193H98L134,95c0,0,56,-50,146,-50c0,0,144,0,144,123c0,0,0,91,-114,130l-66,21c0,0,-75,25,-110,50c0,0,-34,26,-53,63c0,0,-18,36,-18,89c0,0,0,92,63,145c0,0,63,54,170,54c0,0,77,0,193,-23V544H454l-32,81c0,0,-39,35,-124,35c0,0,-61,0,-92,-30c0,0,-32,-30,-32,-80c0,0,0,-43,29,-72c0,0,28,-29,86,-48c0,0,110,-38,144,-55c0,0,33,-17,57,-42c0,0,23,-25,36,-57c0,0,13,-32,13,-79c0,0,0,-104,-66,-158c0,0,-66,-53,-195,-53Z" 
id="f2_2f"
transform="scale(0.001,-0.001)" />

<path d="M460,-325c0,0,-148,79,-231,172c0,0,-84,93,-123,217c0,0,-39,126,-39,304c0,0,0,178,39,303c0,0,39,125,122,217c0,0,82,93,232,172V997c0,0,-91,-52,-145,-134c0,0,-54,-81,-79,-190c0,0,-25,-109,-25,-305c0,0,0,-194,26,-309c0,0,26,-114,82,-193c0,0,56,-79,141,-128v-63Z" 
id="f2_c"
transform="scale(0.001,-0.001)" />

<path d="M49,-325v63c0,0,85,49,140,128c0,0,56,79,83,194c0,0,26,115,26,308c0,0,0,196,-25,305c0,0,-25,109,-79,190c0,0,-54,82,-145,134v63c0,0,149,-80,232,-172c0,0,83,-92,122,-217c0,0,39,-125,39,-303c0,0,0,-177,-39,-303c0,0,-39,-125,-122,-217c0,0,-83,-93,-232,-173Z" 
id="f2_d"
transform="scale(0.001,-0.001)" />

<path d="M44,0V40L172,60V941L44,960v40H794V760H745L721,922c0,0,-83,11,-241,11H316V543H586l23,119h48V354H609L586,475H316V67H513c0,0,193,0,252,12l43,185h49L843,0Z" 
id="f2_15"
transform="scale(0.001,-0.001)" />

<path d="M64,0V34L168,59V639H47v36l121,29v49c0,0,0,155,61,239c0,0,62,84,173,84c0,0,58,0,107,-15V908H472l-33,92c0,0,-26,16,-62,16c0,0,-47,0,-66,-42c0,0,-19,-42,-19,-157V701H478V639H292V59L443,34V0Z" 
id="f2_22"
transform="scale(0.001,-0.001)" />

<path d="M383,64c0,0,85,0,152,28V645c0,0,-67,13,-152,13c0,0,-194,0,-194,-314c0,0,0,-141,48,-211c0,0,48,-69,146,-69ZM342,-14c0,0,-287,0,-287,358c0,0,0,184,82,280c0,0,81,96,239,96c0,0,81,0,163,-18c0,0,-4,25,-4,124v182l-118,18v34H659V52L745,33V0H548l-9,52c0,0,-84,-66,-197,-66Z" 
id="f2_20"
transform="scale(0.001,-0.001)" />

<path d="M431,0V33L535,52V499c0,0,0,62,-32,96c0,0,-32,33,-95,33c0,0,-66,0,-163,-22V52L350,33V0H32V33l89,19V649L32,668v33H237l6,-57c0,0,56,32,119,54c0,0,62,22,110,22c0,0,52,0,95,-20c0,0,44,-19,66,-62c0,0,57,32,134,57c0,0,77,25,128,25c0,0,179,0,179,-207V52l90,-19V0H846V33L950,52V499c0,0,0,129,-119,129c0,0,-19,0,-45,-3c0,0,-26,-3,-52,-7c0,0,-25,-4,-49,-8c0,0,-23,-5,-39,-8c0,0,13,-41,13,-89V52L764,33V0Z" 
id="f2_29"
transform="scale(0.001,-0.001)" />

<path d="M58,-234v58c0,0,131,42,131,125c0,0,0,15,-11,27c0,0,-11,12,-38,25C140,1,89,27,89,75c0,0,0,40,25,61c0,0,26,21,65,21c0,0,48,0,77,-34c0,0,30,-34,30,-86c0,0,0,-101,-60,-170c0,0,-59,-69,-168,-101Z" 
id="f2_g"
transform="scale(0.001,-0.001)" />

<path d="M44,0V40L172,60V941L44,960v40H471V960L316,941V65H513c0,0,159,0,234,14l46,208h48L828,0Z" 
id="f2_1c"
transform="scale(0.001,-0.001)" />

<path d="M0,-14L351,1007h73L75,-14Z" 
id="f2_j"
transform="scale(0.001,-0.001)" />

<path d="M148,-329c0,0,-58,0,-114,13v151H69l24,-71c0,0,23,-17,64,-17c0,0,39,0,72,22c0,0,33,23,60,67c0,0,27,44,68,157L90,649L19,668v33H344V668L233,648L423,158L606,649L497,668v33H758V668L685,652L411,-43c0,0,-48,-124,-84,-177c0,0,-36,-54,-79,-82c0,0,-44,-27,-100,-27Z" 
id="f2_2l"
transform="scale(0.001,-0.001)" />

<path d="M191,-20c0,0,-39,0,-65,25c0,0,-25,27,-25,64c0,0,0,38,26,64c0,0,26,26,64,26c0,0,38,0,64,-26c0,0,26,-26,26,-64c0,0,0,-37,-25,-64c0,0,-26,-25,-65,-25Z" 
id="f2_i"
transform="scale(0.001,-0.001)" />

<path d="M595,60c0,0,141,0,206,102c0,0,65,102,65,340c0,0,0,236,-65,335c0,0,-65,100,-206,100c0,0,-142,0,-207,-100c0,0,-66,-99,-66,-335c0,0,0,-239,66,-340c0,0,65,-102,207,-102Zm0,-74c0,0,-253,0,-387,130C208,116,75,246,75,501c0,0,0,510,520,510c0,0,256,0,387,-129c0,0,132,-130,132,-381c0,0,0,-254,-133,-385C981,116,848,-14,595,-14Z" 
id="f3_1f"
transform="scale(0.001,-0.001)" />

<path d="M498,506c0,0,115,0,164,47c0,0,48,48,48,166c0,0,0,112,-46,156c0,0,-46,43,-169,43H390V506ZM793,0L514,423H390V74L518,54V0H36V54L154,74V926L26,945v55H504c0,0,221,0,330,-68c0,0,109,-68,109,-212c0,0,0,-215,-201,-276L1009,74L1117,54V0Z" 
id="f3_1i"
transform="scale(0.001,-0.001)" />

<path d="M460,-325c0,0,-148,79,-231,172c0,0,-84,93,-123,217c0,0,-39,126,-39,305c0,0,0,178,39,303c0,0,39,125,123,218c0,0,83,92,231,170V975c0,0,-68,-52,-109,-133c0,0,-41,-81,-61,-189c0,0,-19,-109,-19,-285c0,0,0,-177,19,-285c0,0,19,-107,60,-189c0,0,42,-82,110,-134v-85Z" 
id="f3_c"
transform="scale(0.001,-0.001)" />

<path d="M345,75c0,0,50,0,110,26V351l-63,-2c0,0,-72,-3,-100,-38c0,0,-28,-35,-28,-113c0,0,0,-63,22,-93c0,0,23,-30,59,-30ZM266,-14c0,0,-217,0,-217,208c0,0,0,79,32,126c0,0,32,48,93,71c0,0,60,22,190,25l91,2V521c0,0,0,126,-104,126c0,0,-62,0,-140,-39L183,521H134V691c0,0,112,17,165,21c0,0,53,5,108,5c0,0,264,0,264,-194V67L741,49V0H483L466,54C466,54,408,14,361,0c0,0,-47,-14,-95,-14Z" 
id="f3_1x"
transform="scale(0.001,-0.001)" />

<path d="M49,-325v85c0,0,68,53,110,135c0,0,41,82,60,190c0,0,19,109,19,283c0,0,0,177,-19,285c0,0,-20,108,-61,189c0,0,-41,81,-109,133v85c0,0,149,-80,232,-172c0,0,83,-92,122,-217c0,0,39,-125,39,-302c0,0,0,-178,-39,-304c0,0,-39,-125,-122,-218c0,0,-83,-93,-232,-172Z" 
id="f3_d"
transform="scale(0.001,-0.001)" />

<path d="M231,0V54L390,74V921H352c0,0,-171,0,-240,-15L92,721H24v279H996V721H927L907,906c0,0,-62,14,-245,14H626V74L785,54V0Z" 
id="f3_1k"
transform="scale(0.001,-0.001)" />

<path d="M43,0V49l67,18V992l-72,18v50H325V336L599,635l-75,17v49H791V652L711,636L544,460L785,67L847,50V0H510V50l41,17L411,313L325,253V67L395,49V0Z" 
id="f3_27"
transform="scale(0.001,-0.001)" />

<path d="M34,0V49l76,18V634L38,652v49H325V67L402,49V0ZM217,831c0,0,-48,0,-81,33c0,0,-34,33,-34,82c0,0,0,48,34,81c0,0,34,33,81,33c0,0,48,0,81,-33c0,0,33,-33,33,-81c0,0,0,-47,-33,-81c0,0,-32,-34,-81,-34Z" 
id="f3_25"
transform="scale(0.001,-0.001)" />

<path d="M41,0V49l69,18V634L41,652v49H313l11,-61l50,26c0,0,105,54,188,54c0,0,194,0,194,-207V67L827,49V0H478V49l63,18V484c0,0,0,63,-27,98c0,0,-26,35,-75,35c0,0,-57,0,-114,-25V67L389,49V0Z" 
id="f3_2a"
transform="scale(0.001,-0.001)" />

<path d="M360,-256c0,0,108,0,167,35c0,0,59,35,59,98c0,0,0,70,-95,70H254c0,0,-65,-47,-65,-108c0,0,0,-47,46,-71c0,0,45,-24,125,-24Zm9,561c0,0,55,0,79,43c0,0,25,43,25,129c0,0,0,87,-24,127c0,0,-25,41,-80,41c0,0,-52,0,-75,-41c0,0,-24,-40,-24,-127c0,0,0,-86,23,-129c0,0,23,-43,76,-43Zm-9,-641c0,0,-153,0,-236,43c0,0,-84,44,-84,120c0,0,0,33,28,65c0,0,27,31,105,76c0,0,-44,17,-75,59c0,0,-31,43,-31,90L192,258c0,0,-133,56,-133,219c0,0,0,116,81,180c0,0,82,63,233,63c0,0,32,0,82,-6c0,0,51,-6,74,-13l168,83l26,-32L638,631c0,0,46,-57,46,-154c0,0,0,-119,-80,-182c0,0,-80,-64,-234,-64c0,0,-59,0,-114,9L238,183c0,0,1,-22,28,-41c0,0,26,-19,64,-19H493c0,0,256,0,256,-196c0,0,0,-81,-44,-139c0,0,-45,-59,-131,-92c0,0,-86,-32,-214,-32Z" 
id="f3_23"
transform="scale(0.001,-0.001)" />

<path d="M434,423c0,0,0,101,-7,142c0,0,-6,40,-22,60c0,0,-16,19,-45,19c0,0,-44,0,-66,-48c0,0,-22,-49,-22,-173ZM389,-14c0,0,-172,0,-254,89c0,0,-83,90,-83,279c0,0,0,184,79,274c0,0,79,91,238,91c0,0,142,0,206,-76c0,0,64,-76,64,-237V345H271V333c0,0,0,-111,18,-158c0,0,18,-47,58,-72c0,0,40,-25,110,-25c0,0,66,0,166,22V42C623,42,582,18,517,1c0,0,-66,-15,-128,-15Z" 
id="f3_21"
transform="scale(0.001,-0.001)" />

<path d="M6,0V49L69,61L292,323L91,634L23,652v49H398V652L319,632L421,475L557,634l-71,18v49H725V652L663,637L466,406L689,65L756,49V0H381V49l79,17L337,254L175,65L245,49V0Z" 
id="f3_2k"
transform="scale(0.001,-0.001)" />

<path d="M41,0V49l69,18V634L41,652v49H313l11,-61l50,26c0,0,105,54,188,54c0,0,125,0,167,-91c0,0,153,91,258,91c0,0,189,0,189,-207V67l71,-17V0H898V50l63,17V484c0,0,0,63,-24,98c0,0,-25,35,-74,35c0,0,-55,0,-119,-31c0,0,7,-32,7,-73V67L821,50V0H473V50l63,17V484c0,0,0,63,-25,98c0,0,-24,35,-73,35c0,0,-49,0,-113,-29V67L389,49V0Z" 
id="f3_29"
transform="scale(0.001,-0.001)" />

<path d="M438,65c0,0,131,0,131,293c0,0,0,279,-130,279c0,0,-69,0,-127,-29V80c0,0,60,-15,126,-15ZM20,-325v50l76,18V634L19,652v49H304l1,-36c0,0,80,55,194,55c0,0,146,0,218,-86c0,0,71,-86,71,-271c0,0,0,-183,-83,-280c0,0,-83,-97,-238,-97c0,0,-79,0,-160,19c0,0,5,-48,5,-109V-257l103,-18v-50Z" 
id="f3_2c"
transform="scale(0.001,-0.001)" />

<path d="M30,0V49l76,18V992l-72,18v50H322V67L398,49V0Z" 
id="f3_28"
transform="scale(0.001,-0.001)" />

<path d="M379,60c0,0,59,0,84,64c0,0,24,65,24,231c0,0,0,164,-24,227c0,0,-24,63,-84,63c0,0,-57,0,-80,-60c0,0,-22,-61,-22,-230c0,0,0,-173,23,-234c0,0,22,-61,79,-61Zm-2,-74c0,0,-161,0,-240,91c0,0,-79,91,-79,277c0,0,0,186,80,276c0,0,81,90,245,90c0,0,167,0,245,-93c0,0,78,-93,78,-273c0,0,0,-188,-81,-278c0,0,-81,-90,-248,-90Z" 
id="f3_2b"
transform="scale(0.001,-0.001)" />

<path d="M41,0V49l76,18V624H11v51l106,29v75c0,0,0,144,73,220c0,0,73,77,210,77c0,0,74,0,124,-15V894H476l-22,81c0,0,-18,17,-47,17c0,0,-74,0,-74,-189V701H475V624H333V67L447,49V0Z" 
id="f3_22"
transform="scale(0.001,-0.001)" />

<path d="M276,-14c0,0,-57,0,-125,13C151,-1,83,10,48,23V214H97l28,-98c0,0,26,-26,69,-44c0,0,42,-17,86,-17c0,0,65,0,97,28c0,0,32,28,32,71c0,0,0,41,-31,65c0,0,-30,25,-133,57c0,0,-108,34,-154,92c0,0,-45,58,-45,143c0,0,0,95,71,152c0,0,71,57,183,57c0,0,77,0,207,-22V518H457l-24,82c0,0,-21,22,-60,35c0,0,-40,14,-75,14c0,0,-53,0,-79,-22c0,0,-26,-22,-26,-59c0,0,0,-40,32,-65c0,0,32,-26,132,-55c0,0,109,-34,155,-89c0,0,45,-55,45,-137c0,0,0,-117,-72,-177c0,0,-72,-59,-209,-59Z" 
id="f3_2f"
transform="scale(0.001,-0.001)" />

<path d="M416,68c0,0,60,0,124,32V628c0,0,-58,15,-118,15c0,0,-67,0,-104,-73c0,0,-38,-73,-38,-216c0,0,0,-139,36,-212c0,0,35,-74,100,-74ZM369,-14c0,0,-155,0,-231,88c0,0,-76,90,-76,274c0,0,0,182,82,277c0,0,81,95,236,95c0,0,82,0,165,-20c0,0,-5,24,-5,115V992l-72,18v50H756V67L833,49V0H562L547,40C547,40,505,13,483,4c0,0,-23,-7,-51,-12c0,0,-28,-6,-63,-6Z" 
id="f3_20"
transform="scale(0.001,-0.001)" />

<path d="M20,-236v69c0,0,47,14,81,37c0,0,33,24,52,52c0,0,18,28,18,53c0,0,0,17,-11,28c0,0,-12,12,-45,30c0,0,-57,30,-57,93c0,0,0,48,34,74c0,0,33,25,85,25c0,0,63,0,105,-41c0,0,42,-41,42,-105c0,0,0,-115,-78,-195c0,0,-77,-81,-226,-120Z" 
id="f3_g"
transform="scale(0.001,-0.001)" />

<path d="M41,0V49l69,18V992l-72,18v50H325V756c0,0,0,-49,-4,-116l51,26c0,0,106,54,190,54c0,0,194,0,194,-207V67L827,49V0H478V49l63,18V484c0,0,0,63,-27,98c0,0,-26,35,-75,35c0,0,-57,0,-114,-25V67L389,49V0Z" 
id="f3_24"
transform="scale(0.001,-0.001)" />

<path d="M305,-14L57,634L4,652v49H351V652L268,632L419,232L581,631h71L814,232L950,634l-82,18v49h227V652l-54,-15L806,-14H715L555,378L395,-14Z" 
id="f3_2j"
transform="scale(0.001,-0.001)" />

<path d="M327,-14c0,0,-101,0,-156,45c0,0,-55,45,-55,131V624H25v48l108,29l87,159H332V701H480V624H332V176c0,0,0,-49,20,-73c0,0,20,-25,53,-25c0,0,40,0,97,12V26c0,0,-22,-15,-76,-27c0,0,-55,-13,-99,-13Z" 
id="f3_2g"
transform="scale(0.001,-0.001)" />

<path d="M287,-18c0,0,-194,0,-194,206V634L23,652v49H309V217c0,0,0,-63,26,-98c0,0,27,-35,76,-35c0,0,57,0,113,25V634l-64,18v49H740V67L809,49V0H536L526,61L475,35c0,0,-104,-53,-188,-53Z" 
id="f3_2h"
transform="scale(0.001,-0.001)" />

<path d="M41,0V49l91,18V634L41,652v49H336l8,-145c0,0,80,89,144,128c0,0,64,40,117,40h40V468H604l-45,94c0,0,-47,0,-106,-21c0,0,-60,-20,-105,-48V67L460,49V0Z" 
id="f3_2e"
transform="scale(0.001,-0.001)" />

<path d="M425,-14c0,0,-187,0,-280,90c0,0,-93,90,-93,276c0,0,0,115,42,198c0,0,43,82,121,126c0,0,78,44,182,44c0,0,104,0,227,-26V486H571L539,609c0,0,-25,19,-50,26c0,0,-24,7,-65,7c0,0,-44,0,-79,-35c0,0,-36,-35,-56,-98c0,0,-20,-64,-20,-153c0,0,0,-150,47,-214c0,0,47,-64,148,-64c0,0,103,0,176,21V42C640,42,606,15,547,0c0,0,-59,-14,-122,-14Z" 
id="f3_1z"
transform="scale(0.001,-0.001)" />

<path d="M159,-329c0,0,-61,0,-123,14v180H81l32,-94c0,0,21,-17,55,-17c0,0,28,0,50,13c0,0,21,14,40,39c0,0,20,25,37,62c0,0,17,37,50,110L64,634L15,652v49H374V652L290,632L455,244L602,634l-82,18v49H749V652L698,637L421,-44c0,0,-47,-121,-83,-176c0,0,-36,-55,-80,-82c0,0,-43,-27,-99,-27Z" 
id="f3_2l"
transform="scale(0.001,-0.001)" />

<path d="M191,-20c0,0,-51,0,-88,34c0,0,-36,36,-36,88c0,0,0,52,36,88c0,0,36,36,88,36c0,0,51,0,88,-36c0,0,36,-36,36,-88c0,0,0,-51,-36,-87c0,0,-36,-35,-88,-35Z" 
id="f3_i"
transform="scale(0.001,-0.001)" />

<path d="M424,64c0,0,74,0,109,71c0,0,36,72,36,236c0,0,0,137,-34,201c0,0,-34,65,-111,65c0,0,-29,0,-62,-7c0,0,-34,-6,-55,-19V76c0,0,47,-12,117,-12Zm21,-78c0,0,-121,0,-354,50V994l-72,18v48H307V802c0,0,0,-69,-8,-141c0,0,30,25,86,42c0,0,57,17,110,17c0,0,153,0,223,-84c0,0,70,-83,70,-266c0,0,0,-180,-90,-283C698,87,608,-14,445,-14Z" 
id="f3_1y"
transform="scale(0.001,-0.001)" />

<path d="M868,0L251,804V74L385,54V0H29V54L157,74V926L29,945v55H371L862,361V926L727,945v55h356V945L955,926V0Z" 
id="f3_1e"
transform="scale(0.001,-0.001)" />

<path d="M394,460c0,0,126,0,186,57c0,0,60,57,60,187c0,0,0,123,-57,176c0,0,-58,53,-194,53H316V460ZM54,0V40L172,60V941L44,960v40H421c0,0,368,0,368,-295c0,0,0,-153,-93,-233c0,0,-93,-80,-267,-80H316V60L475,40V0Z" 
id="f2_1g"
transform="scale(0.001,-0.001)" />

<path d="M477,0V33l64,19L348,354L257,254V52L331,33V0H44V33l89,19v956L29,1026v34H257V338L544,647l-73,20v34H718V667L631,650L431,446L688,50L764,33V0Z" 
id="f2_27"
transform="scale(0.001,-0.001)" />

<path d="M529,65c0,0,183,0,270,108c0,0,87,108,87,334c0,0,0,210,-113,318c0,0,-113,108,-322,108H316V71c0,0,90,-6,213,-6Zm0,-67L172,0H44V40L172,60V941L44,960v40H498c0,0,277,0,411,-123c0,0,133,-124,133,-371c0,0,0,-251,-129,-380C913,126,785,-2,529,-2Z" 
id="f2_14"
transform="scale(0.001,-0.001)" />

<path d="M54,0V40L172,60V941L44,960v40H794V760H745L721,922c0,0,-83,11,-241,11H316V516H611l23,120h46V328H634L611,449H316V60L483,40V0Z" 
id="f2_16"
transform="scale(0.001,-0.001)" />

<path d="M557,-14c0,0,-199,0,-298,89c0,0,-99,90,-99,255V941L32,960v40H432V960L304,941V341c0,0,0,-273,264,-273c0,0,144,0,220,68c0,0,77,68,77,202V941L730,960v40h341V960L943,941V344c0,0,0,-180,-99,-269c0,0,-99,-89,-287,-89Z" 
id="f2_1l"
transform="scale(0.001,-0.001)" />

<path d="M868,0L251,900V60L385,40V0H44V40L172,60V941L44,960v40H347L862,259V941L727,960v40h341V960L940,941V0Z" 
id="f2_1e"
transform="scale(0.001,-0.001)" />

<path d="M617,0L251,860V60L385,40V0H44V40L172,60V941L44,960v40H347L672,239l355,761h287V960L1185,941V60L1314,40V0H908V40l134,20V859L643,0Z" 
id="f2_1d"
transform="scale(0.001,-0.001)" />

<path d="M577,-14c0,0,-243,0,-379,131C198,117,63,248,63,488c0,0,0,263,131,393c0,0,132,130,386,130c0,0,182,0,352,-45V751H882L862,875c0,0,-52,37,-124,57c0,0,-72,19,-152,19c0,0,-191,0,-279,-113c0,0,-88,-114,-88,-348c0,0,0,-220,91,-333c0,0,91,-114,269,-114c0,0,63,0,131,15c0,0,69,15,105,36V377L686,397v40h370V397L958,377V52C958,52,871,24,778,5c0,0,-93,-19,-201,-19Z" 
id="f2_17"
transform="scale(0.001,-0.001)" />

<path d="M41,0V34L426,641H261c0,0,-42,0,-80,-7c0,0,-39,-7,-54,-19L104,515H69V701H586V665L201,60H407c0,0,42,0,89,10c0,0,47,10,66,25l39,147h35L617,0Z" 
id="f2_2m"
transform="scale(0.001,-0.001)" />


</defs>
</svg>