<?xml version="1.0" encoding="UTF-8" standalone="no"?>
<!DOCTYPE svg PUBLIC "-//W3C//DTD SVG 1.1//EN"
"http://www.w3.org/Graphics/SVG/1.1/DTD/svg11.dtd">
<svg viewBox="0 0 909 1286" version="1.1" xmlns="http://www.w3.org/2000/svg" xmlns:xlink="http://www.w3.org/1999/xlink">
<defs>
<style type="text/css"><![CDATA[
.g0_66{
fill: #D9D9D9;
}
.g1_66{
fill: none;
stroke: #000000;
stroke-width: 0.7638889;
stroke-linecap: butt;
stroke-linejoin: miter;
}
.g2_66{
}
]]></style>
</defs>
<image preserveAspectRatio="none" x="748" y="1196" width="94" height="58" xlink:href="img/1.png" />
<image preserveAspectRatio="none" x="336" y="42" width="259" height="49" xlink:href="img/2.png" />
<image preserveAspectRatio="none" x="342" y="50" width="247" height="27" xlink:href="img/3.png" />
<image preserveAspectRatio="none" x="341" y="46" width="238" height="41" xlink:href="img/4.png" />
<g fill="#FFFFFF" >
<use xlink:href="#f0_j" transform="matrix(11.5,0,0,11.5,354.9,70)" />
<use xlink:href="#f0_i" transform="matrix(11.5,0,0,11.5,364.2,70)" />
<use xlink:href="#f0_2n" transform="matrix(11.5,0,0,11.5,374.1,70)" />
<use xlink:href="#f0_t" transform="matrix(11.5,0,0,11.5,382.4,70)" />
<use xlink:href="#f0_oj" transform="matrix(11.5,0,0,11.5,391,70)" />
<use xlink:href="#f0_3e" transform="matrix(11.5,0,0,11.5,396.3,70)" />
<use xlink:href="#f0_1c" transform="matrix(11.5,0,0,11.5,406,70)" />
<use xlink:href="#f0_1c" transform="matrix(11.5,0,0,11.5,410.7,70)" />
<use xlink:href="#f0_oj" transform="matrix(11.5,0,0,11.5,415.4,70)" />
<use xlink:href="#f0_rz" transform="matrix(11.5,0,0,11.5,420.8,70)" />
<use xlink:href="#f0_rx" transform="matrix(11.5,0,0,11.5,429.7,70)" />
<use xlink:href="#f0_ry" transform="matrix(11.5,0,0,11.5,438.6,70)" />
<use xlink:href="#f0_s0" transform="matrix(11.5,0,0,11.5,447.4,70)" />
<use xlink:href="#f0_t" transform="matrix(11.5,0,0,11.5,460.2,70)" />
<use xlink:href="#f0_3e" transform="matrix(11.5,0,0,11.5,468.8,70)" />
<use xlink:href="#f0_5" transform="matrix(11.5,0,0,11.5,478.5,70)" />
<use xlink:href="#f0_1x" transform="matrix(11.5,0,0,11.5,489.2,70)" />
<use xlink:href="#f0_1c" transform="matrix(11.5,0,0,11.5,504.6,70)" />
<use xlink:href="#f0_1y" transform="matrix(11.5,0,0,11.5,509.3,70)" />
<use xlink:href="#f0_5" transform="matrix(11.5,0,0,11.5,520.9,70)" />
<use xlink:href="#f0_2t" transform="matrix(11.5,0,0,11.5,531.5,70)" />
<use xlink:href="#f0_1c" transform="matrix(11.5,0,0,11.5,540.2,70)" />
<use xlink:href="#f0_24" transform="matrix(11.5,0,0,11.5,544.9,70)" />
<use xlink:href="#f0_1y" transform="matrix(11.5,0,0,11.5,556.8,70)" />
</g>
<image preserveAspectRatio="none" x="554" y="46" width="36" height="41" xlink:href="img/5.png" />
<g fill="#FFFFFF" >
<use xlink:href="#f1_t" transform="matrix(11,0,0,11,770.1,1227.7)" />
<use xlink:href="#f1_j" transform="matrix(11,0,0,11,783.5,1227.7)" />
<use xlink:href="#f1_l" transform="matrix(11,0,0,11,794.1,1227.7)" />
<use xlink:href="#f1_m" transform="matrix(11,0,0,11,803,1227.7)" />
</g>
<path fill-rule="evenodd" d="M52.7,1193.2H856.9v-.7H52.7v.7Z" class="g0_66" />
<path d="M37.9,99.4L873,98.5" class="g1_66" />
<g fill="#000000" >
<use xlink:href="#f2_19" transform="matrix(12,0,0,12,55,143.8)" />
<use xlink:href="#f2_2a" transform="matrix(12,0,0,12,61.1,143.8)" />
<use xlink:href="#f2_2a" transform="matrix(12,0,0,12,70.3,143.8)" />
<use xlink:href="#f2_21" transform="matrix(12,0,0,12,79.4,143.8)" />
<use xlink:href="#f2_2e" transform="matrix(12,0,0,12,87.6,143.8)" />
<use xlink:href="#f2_25" transform="matrix(12,0,0,12,98.3,143.8)" />
<use xlink:href="#f2_2a" transform="matrix(12,0,0,12,103.5,143.8)" />
<use xlink:href="#f2_2g" transform="matrix(12,0,0,12,112.5,143.8)" />
<use xlink:href="#f2_21" transform="matrix(12,0,0,12,117.6,143.8)" />
<use xlink:href="#f2_23" transform="matrix(12,0,0,12,125.8,143.8)" />
<use xlink:href="#f2_2h" transform="matrix(12,0,0,12,134.9,143.8)" />
<use xlink:href="#f2_29" transform="matrix(12,0,0,12,144.1,143.8)" />
<use xlink:href="#f2_21" transform="matrix(12,0,0,12,158.2,143.8)" />
<use xlink:href="#f2_2a" transform="matrix(12,0,0,12,166.3,143.8)" />
<use xlink:href="#f2_2g" transform="matrix(12,0,0,12,175.5,143.8)" />
<use xlink:href="#f2_8r" transform="matrix(12,0,0,12,185.2,143.8)" />
<use xlink:href="#f2_1k" transform="matrix(12,0,0,12,208.1,143.8)" />
<use xlink:href="#f2_21" transform="matrix(12,0,0,12,219.3,143.8)" />
<use xlink:href="#f2_23" transform="matrix(12,0,0,12,227.4,143.8)" />
<use xlink:href="#f2_29" transform="matrix(12,0,0,12,236.7,143.8)" />
<use xlink:href="#f2_1x" transform="matrix(12,0,0,12,250.8,143.8)" />
<use xlink:href="#f2_2a" transform="matrix(12,0,0,12,259,143.8)" />
<use xlink:href="#f2_8r" transform="matrix(12,0,0,12,55,168.1)" />
<use xlink:href="#f2_13" transform="matrix(12,0,0,12,77.9,168.1)" />
<use xlink:href="#f2_24" transform="matrix(12,0,0,12,90.1,168.1)" />
<use xlink:href="#f2_1x" transform="matrix(12,0,0,12,99.3,168.1)" />
<use xlink:href="#f2_28" transform="matrix(12,0,0,12,107.5,168.1)" />
<use xlink:href="#f2_1x" transform="matrix(12,0,0,12,112.5,168.1)" />
<use xlink:href="#f2_2m" transform="matrix(12,0,0,12,120.7,168.1)" />
<use xlink:href="#f2_1x" transform="matrix(12,0,0,12,128.8,168.1)" />
<use xlink:href="#f2_8r" transform="matrix(12,0,0,12,141.5,168.1)" />
<use xlink:href="#f2_1g" transform="matrix(12,0,0,12,164.4,168.1)" />
<use xlink:href="#f2_2e" transform="matrix(12,0,0,12,174.6,168.1)" />
<use xlink:href="#f2_21" transform="matrix(12,0,0,12,180.7,168.1)" />
<use xlink:href="#f2_2f" transform="matrix(12,0,0,12,188.9,168.1)" />
<use xlink:href="#f2_21" transform="matrix(12,0,0,12,196,168.1)" />
<use xlink:href="#f2_2a" transform="matrix(12,0,0,12,204.2,168.1)" />
<use xlink:href="#f2_2g" transform="matrix(12,0,0,12,213.3,168.1)" />
<use xlink:href="#f2_8r" transform="matrix(12,0,0,12,55,192.3)" />
<use xlink:href="#f2_1d" transform="matrix(12,0,0,12,77.9,192.3)" />
<use xlink:href="#f2_25" transform="matrix(12,0,0,12,94.2,192.3)" />
<use xlink:href="#f2_1z" transform="matrix(12,0,0,12,99.3,192.3)" />
<use xlink:href="#f2_2e" transform="matrix(12,0,0,12,107.5,192.3)" />
<use xlink:href="#f2_2b" transform="matrix(12,0,0,12,113.6,192.3)" />
<use xlink:href="#f2_2c" transform="matrix(12,0,0,12,122.8,192.3)" />
<use xlink:href="#f2_2l" transform="matrix(12,0,0,12,132,192.3)" />
<use xlink:href="#f2_28" transform="matrix(12,0,0,12,141,192.3)" />
<use xlink:href="#f2_21" transform="matrix(12,0,0,12,146.1,192.3)" />
<use xlink:href="#f2_8r" transform="matrix(12,0,0,12,158.9,192.3)" />
<use xlink:href="#f2_1g" transform="matrix(12,0,0,12,181.8,192.3)" />
<use xlink:href="#f2_2e" transform="matrix(12,0,0,12,191.9,192.3)" />
<use xlink:href="#f2_21" transform="matrix(12,0,0,12,198,192.3)" />
<use xlink:href="#f2_2f" transform="matrix(12,0,0,12,206.2,192.3)" />
<use xlink:href="#f2_21" transform="matrix(12,0,0,12,213.3,192.3)" />
<use xlink:href="#f2_2a" transform="matrix(12,0,0,12,221.5,192.3)" />
<use xlink:href="#f2_2g" transform="matrix(12,0,0,12,230.7,192.3)" />
<use xlink:href="#f2_8r" transform="matrix(12,0,0,12,55,216.6)" />
<use xlink:href="#f2_1e" transform="matrix(12,0,0,12,77.9,216.6)" />
<use xlink:href="#f2_2h" transform="matrix(12,0,0,12,91.2,216.6)" />
<use xlink:href="#f2_1z" transform="matrix(12,0,0,12,100.3,216.6)" />
<use xlink:href="#f2_21" transform="matrix(12,0,0,12,108.5,216.6)" />
<use xlink:href="#f2_28" transform="matrix(12,0,0,12,116.6,216.6)" />
<use xlink:href="#f2_28" transform="matrix(12,0,0,12,121.7,216.6)" />
<use xlink:href="#f2_2h" transform="matrix(12,0,0,12,126.8,216.6)" />
<use xlink:href="#f2_2f" transform="matrix(12,0,0,12,136,216.6)" />
<use xlink:href="#f2_8r" transform="matrix(12,0,0,12,147.7,216.6)" />
<use xlink:href="#f2_11" transform="matrix(12,0,0,12,170.6,216.6)" />
<use xlink:href="#f2_1y" transform="matrix(12,0,0,12,183.8,216.6)" />
<use xlink:href="#f2_2f" transform="matrix(12,0,0,12,193,216.6)" />
<use xlink:href="#f2_21" transform="matrix(12,0,0,12,200.1,216.6)" />
<use xlink:href="#f2_2a" transform="matrix(12,0,0,12,208.2,216.6)" />
<use xlink:href="#f2_2g" transform="matrix(12,0,0,12,217.4,216.6)" />
<use xlink:href="#f2_2b" transform="matrix(12,0,0,12,227.1,216.6)" />
<use xlink:href="#f2_2e" transform="matrix(12,0,0,12,236.3,216.6)" />
<use xlink:href="#f2_2h" transform="matrix(12,0,0,12,247,216.6)" />
<use xlink:href="#f2_2g" transform="matrix(12,0,0,12,256.2,216.6)" />
<use xlink:href="#f2_25" transform="matrix(12,0,0,12,261.3,216.6)" />
<use xlink:href="#f2_28" transform="matrix(12,0,0,12,266.4,216.6)" />
<use xlink:href="#f2_25" transform="matrix(12,0,0,12,271.5,216.6)" />
<use xlink:href="#f2_2m" transform="matrix(12,0,0,12,276.6,216.6)" />
<use xlink:href="#f2_21" transform="matrix(12,0,0,12,284.7,216.6)" />
<use xlink:href="#f2_20" transform="matrix(12,0,0,12,292.8,216.6)" />
<use xlink:href="#f2_12" transform="matrix(12,0,0,12,306.6,216.6)" />
<use xlink:href="#f2_2h" transform="matrix(12,0,0,12,318.8,216.6)" />
<use xlink:href="#f2_2g" transform="matrix(12,0,0,12,328,216.6)" />
<use xlink:href="#f2_25" transform="matrix(12,0,0,12,337.7,216.6)" />
<use xlink:href="#f2_22" transform="matrix(12,0,0,12,342.8,216.6)" />
<use xlink:href="#f2_2c" transform="matrix(12,0,0,12,353.4,216.6)" />
<use xlink:href="#f2_2e" transform="matrix(12,0,0,12,362.6,216.6)" />
<use xlink:href="#f2_21" transform="matrix(12,0,0,12,368.7,216.6)" />
<use xlink:href="#f2_2f" transform="matrix(12,0,0,12,376.9,216.6)" />
<use xlink:href="#f2_21" transform="matrix(12,0,0,12,384,216.6)" />
<use xlink:href="#f2_2a" transform="matrix(12,0,0,12,392.2,216.6)" />
<use xlink:href="#f2_2g" transform="matrix(12,0,0,12,401.3,216.6)" />
<use xlink:href="#f2_1z" transform="matrix(12,0,0,12,410.9,216.6)" />
<use xlink:href="#f2_1x" transform="matrix(12,0,0,12,419.1,216.6)" />
<use xlink:href="#f2_28" transform="matrix(12,0,0,12,427.2,216.6)" />
<use xlink:href="#f2_28" transform="matrix(12,0,0,12,432.3,216.6)" />
<use xlink:href="#f2_21" transform="matrix(12,0,0,12,437.4,216.6)" />
<use xlink:href="#f2_20" transform="matrix(12,0,0,12,445.6,216.6)" />
<use xlink:href="#f2_2c" transform="matrix(12,0,0,12,459.4,216.6)" />
<use xlink:href="#f2_21" transform="matrix(12,0,0,12,468.4,216.6)" />
<use xlink:href="#f2_2e" transform="matrix(12,0,0,12,476.6,216.6)" />
<use xlink:href="#f2_25" transform="matrix(12,0,0,12,482.7,216.6)" />
<use xlink:href="#f2_2f" transform="matrix(12,0,0,12,487.8,216.6)" />
<use xlink:href="#f2_2c" transform="matrix(12,0,0,12,494.9,216.6)" />
<use xlink:href="#f2_21" transform="matrix(12,0,0,12,504.1,216.6)" />
<use xlink:href="#f2_2e" transform="matrix(12,0,0,12,512.2,216.6)" />
<use xlink:href="#f2_29" transform="matrix(12,0,0,12,518.3,216.6)" />
<use xlink:href="#f2_8r" transform="matrix(12,0,0,12,55,240.8)" />
<use xlink:href="#f2_15" transform="matrix(12,0,0,12,77.9,240.8)" />
<use xlink:href="#f2_29" transform="matrix(12,0,0,12,89.2,240.8)" />
<use xlink:href="#f2_1y" transform="matrix(12,0,0,12,103.3,240.8)" />
<use xlink:href="#f2_2e" transform="matrix(12,0,0,12,112.5,240.8)" />
<use xlink:href="#f2_2l" transform="matrix(12,0,0,12,118.6,240.8)" />
<use xlink:href="#f2_2b" transform="matrix(12,0,0,12,127.7,240.8)" />
<use xlink:href="#f2_2f" transform="matrix(12,0,0,12,141.5,240.8)" />
<use xlink:href="#f2_1x" transform="matrix(12,0,0,12,148.6,240.8)" />
<use xlink:href="#f3_1z" transform="matrix(12,0,0,12,156.9,240.8)" />
<use xlink:href="#f3_1f" transform="matrix(12,0,0,12,442.1,371.4)" />
<use xlink:href="#f3_1i" transform="matrix(12,0,0,12,455.3,371.4)" />
<use xlink:href="#f3_c" transform="matrix(12,0,0,12,55,395.7)" />
<use xlink:href="#f3_1x" transform="matrix(12,0,0,12,61.1,395.7)" />
<use xlink:href="#f3_d" transform="matrix(12,0,0,12,69.2,395.7)" />
<use xlink:href="#f3_c" transform="matrix(12,0,0,12,55,832.7)" />
<use xlink:href="#f3_1y" transform="matrix(12,0,0,12,61.1,832.7)" />
<use xlink:href="#f3_d" transform="matrix(12,0,0,12,70.3,832.7)" />
<use xlink:href="#f4_16" transform="matrix(12,0,0,12,81,832.7)" />
<use xlink:href="#f4_1j" transform="matrix(12,0,0,12,92.2,832.7)" />
<use xlink:href="#f4_18" transform="matrix(12,0,0,12,102.4,832.7)" />
<use xlink:href="#f3_u" transform="matrix(12,0,0,12,121.3,832.7)" />
<use xlink:href="#f3_12" transform="matrix(12,0,0,12,131,832.7)" />
<use xlink:href="#f3_25" transform="matrix(12,0,0,12,143.2,832.7)" />
<use xlink:href="#f3_2a" transform="matrix(12,0,0,12,148.2,832.7)" />
<use xlink:href="#f3_20" transform="matrix(12,0,0,12,157.4,832.7)" />
<use xlink:href="#f3_2f" transform="matrix(12,0,0,12,166.6,832.7)" />
<use xlink:href="#f3_2j" transform="matrix(12,0,0,12,178.3,832.7)" />
<use xlink:href="#f3_25" transform="matrix(12,0,0,12,191.5,832.7)" />
<use xlink:href="#f3_2g" transform="matrix(12,0,0,12,196.6,832.7)" />
<use xlink:href="#f3_24" transform="matrix(12,0,0,12,201.7,832.7)" />
<use xlink:href="#f3_16" transform="matrix(12,0,0,12,215.5,832.7)" />
<use xlink:href="#f3_1j" transform="matrix(12,0,0,12,225.7,832.7)" />
<use xlink:href="#f3_18" transform="matrix(12,0,0,12,235.9,832.7)" />
<use xlink:href="#f3_2e" transform="matrix(12,0,0,12,253.6,832.7)" />
<use xlink:href="#f3_21" transform="matrix(12,0,0,12,259.7,832.7)" />
<use xlink:href="#f3_1z" transform="matrix(12,0,0,12,267.9,832.7)" />
<use xlink:href="#f3_21" transform="matrix(12,0,0,12,276,832.7)" />
<use xlink:href="#f3_2c" transform="matrix(12,0,0,12,284.2,832.7)" />
<use xlink:href="#f3_2g" transform="matrix(12,0,0,12,293.4,832.7)" />
<use xlink:href="#f3_2b" transform="matrix(12,0,0,12,298.5,832.7)" />
<use xlink:href="#f3_2e" transform="matrix(12,0,0,12,307.6,832.7)" />
<use xlink:href="#f3_2f" transform="matrix(12,0,0,12,313.7,832.7)" />
<use xlink:href="#f3_1x" transform="matrix(12,0,0,12,325.3,832.7)" />
<use xlink:href="#f3_2g" transform="matrix(12,0,0,12,333.5,832.7)" />
<use xlink:href="#f3_2g" transform="matrix(12,0,0,12,338.6,832.7)" />
<use xlink:href="#f3_1x" transform="matrix(12,0,0,12,343.8,832.7)" />
<use xlink:href="#f3_1z" transform="matrix(12,0,0,12,351.8,832.7)" />
<use xlink:href="#f3_24" transform="matrix(12,0,0,12,360,832.7)" />
<use xlink:href="#f3_21" transform="matrix(12,0,0,12,369.1,832.7)" />
<use xlink:href="#f3_20" transform="matrix(12,0,0,12,377.3,832.7)" />
<use xlink:href="#f3_2g" transform="matrix(12,0,0,12,391,832.7)" />
<use xlink:href="#f3_2b" transform="matrix(12,0,0,12,396.2,832.7)" />
<use xlink:href="#f3_2g" transform="matrix(12,0,0,12,409.8,832.7)" />
<use xlink:href="#f3_24" transform="matrix(12,0,0,12,414.9,832.7)" />
<use xlink:href="#f3_21" transform="matrix(12,0,0,12,424,832.7)" />
<use xlink:href="#f3_1j" transform="matrix(12,0,0,12,436.8,832.7)" />
<use xlink:href="#f3_21" transform="matrix(12,0,0,12,446.9,832.7)" />
<use xlink:href="#f3_2e" transform="matrix(12,0,0,12,455.1,832.7)" />
<use xlink:href="#f3_2g" transform="matrix(12,0,0,12,461.2,832.7)" />
<use xlink:href="#f3_2b" transform="matrix(12,0,0,12,466.3,832.7)" />
<use xlink:href="#f3_28" transform="matrix(12,0,0,12,475.4,832.7)" />
<use xlink:href="#f3_25" transform="matrix(12,0,0,12,480.5,832.7)" />
<use xlink:href="#f3_1z" transform="matrix(12,0,0,12,490.3,832.7)" />
<use xlink:href="#f3_21" transform="matrix(12,0,0,12,498.4,832.7)" />
<use xlink:href="#f3_28" transform="matrix(12,0,0,12,506.5,832.7)" />
<use xlink:href="#f3_28" transform="matrix(12,0,0,12,511.6,832.7)" />
<use xlink:href="#f3_2f" transform="matrix(12,0,0,12,516.7,832.7)" />
<use xlink:href="#f3_25" transform="matrix(12,0,0,12,528.5,832.7)" />
<use xlink:href="#f3_2a" transform="matrix(12,0,0,12,533.6,832.7)" />
<use xlink:href="#f3_2f" transform="matrix(12,0,0,12,547.3,832.7)" />
<use xlink:href="#f3_21" transform="matrix(12,0,0,12,554.4,832.7)" />
<use xlink:href="#f3_29" transform="matrix(12,0,0,12,562.6,832.7)" />
<use xlink:href="#f3_25" transform="matrix(12,0,0,12,576.7,832.7)" />
<use xlink:href="#f3_2a" transform="matrix(12,0,0,12,581.8,832.7)" />
<use xlink:href="#f3_25" transform="matrix(12,0,0,12,591,832.7)" />
<use xlink:href="#f3_22" transform="matrix(12,0,0,12,596.1,832.7)" />
<use xlink:href="#f3_21" transform="matrix(12,0,0,12,602.2,832.7)" />
<use xlink:href="#f3_2e" transform="matrix(12,0,0,12,610.4,832.7)" />
<use xlink:href="#f3_2b" transform="matrix(12,0,0,12,616.5,832.7)" />
<use xlink:href="#f3_2h" transform="matrix(12,0,0,12,625.6,832.7)" />
<use xlink:href="#f3_2f" transform="matrix(12,0,0,12,634.8,832.7)" />
<use xlink:href="#f3_2g" transform="matrix(12,0,0,12,646.5,832.7)" />
<use xlink:href="#f3_2h" transform="matrix(12,0,0,12,651.6,832.7)" />
<use xlink:href="#f3_1y" transform="matrix(12,0,0,12,660.8,832.7)" />
<use xlink:href="#f3_2h" transform="matrix(12,0,0,12,670,832.7)" />
<use xlink:href="#f3_28" transform="matrix(12,0,0,12,679.1,832.7)" />
<use xlink:href="#f3_21" transform="matrix(12,0,0,12,684.2,832.7)" />
<use xlink:href="#f3_2f" transform="matrix(12,0,0,12,692.3,832.7)" />
<use xlink:href="#f3_i" transform="matrix(12,0,0,12,699.5,832.7)" />
<use xlink:href="#f3_1k" transform="matrix(12,0,0,12,708.6,832.7)" />
<use xlink:href="#f3_24" transform="matrix(12,0,0,12,719.8,832.7)" />
<use xlink:href="#f3_25" transform="matrix(12,0,0,12,729,832.7)" />
<use xlink:href="#f3_2f" transform="matrix(12,0,0,12,734.1,832.7)" />
<use xlink:href="#f3_1z" transform="matrix(12,0,0,12,745.9,832.7)" />
<use xlink:href="#f3_1x" transform="matrix(12,0,0,12,754,832.7)" />
<use xlink:href="#f3_2h" transform="matrix(12,0,0,12,762.1,832.7)" />
<use xlink:href="#f3_2f" transform="matrix(12,0,0,12,771.2,832.7)" />
<use xlink:href="#f3_21" transform="matrix(12,0,0,12,778.4,832.7)" />
<use xlink:href="#f3_2f" transform="matrix(12,0,0,12,786.5,832.7)" />
<use xlink:href="#f3_2g" transform="matrix(12,0,0,12,798.2,832.7)" />
<use xlink:href="#f3_24" transform="matrix(12,0,0,12,803.4,832.7)" />
<use xlink:href="#f3_21" transform="matrix(12,0,0,12,812.6,832.7)" />
<use xlink:href="#f3_2f" transform="matrix(12,0,0,12,820.7,832.7)" />
<use xlink:href="#f3_21" transform="matrix(12,0,0,12,827.8,832.7)" />
<use xlink:href="#f3_1z" transform="matrix(12,0,0,12,55,857)" />
<use xlink:href="#f3_21" transform="matrix(12,0,0,12,63.1,857)" />
<use xlink:href="#f3_28" transform="matrix(12,0,0,12,71.3,857)" />
<use xlink:href="#f3_28" transform="matrix(12,0,0,12,76.4,857)" />
<use xlink:href="#f3_2f" transform="matrix(12,0,0,12,81.5,857)" />
<use xlink:href="#f3_2g" transform="matrix(12,0,0,12,93.2,857)" />
<use xlink:href="#f3_2b" transform="matrix(12,0,0,12,98.3,857)" />
<use xlink:href="#f3_23" transform="matrix(12,0,0,12,112.1,857)" />
<use xlink:href="#f3_2e" transform="matrix(12,0,0,12,121.3,857)" />
<use xlink:href="#f3_2b" transform="matrix(12,0,0,12,127.4,857)" />
<use xlink:href="#f3_2j" transform="matrix(12,0,0,12,136.5,857)" />
<use xlink:href="#f3_1x" transform="matrix(12,0,0,12,154.3,857)" />
<use xlink:href="#f3_2a" transform="matrix(12,0,0,12,162.4,857)" />
<use xlink:href="#f3_20" transform="matrix(12,0,0,12,171.6,857)" />
<use xlink:href="#f3_2f" transform="matrix(12,0,0,12,185.3,857)" />
<use xlink:href="#f3_21" transform="matrix(12,0,0,12,192.4,857)" />
<use xlink:href="#f3_1z" transform="matrix(12,0,0,12,200.6,857)" />
<use xlink:href="#f3_2e" transform="matrix(12,0,0,12,208.8,857)" />
<use xlink:href="#f3_21" transform="matrix(12,0,0,12,214.9,857)" />
<use xlink:href="#f3_2g" transform="matrix(12,0,0,12,223,857)" />
<use xlink:href="#f3_21" transform="matrix(12,0,0,12,228,857)" />
<use xlink:href="#f3_2i" transform="matrix(12,0,0,12,240.8,857)" />
<use xlink:href="#f3_1x" transform="matrix(12,0,0,12,249.9,857)" />
<use xlink:href="#f3_2e" transform="matrix(12,0,0,12,258.1,857)" />
<use xlink:href="#f3_25" transform="matrix(12,0,0,12,264.2,857)" />
<use xlink:href="#f3_2b" transform="matrix(12,0,0,12,269.3,857)" />
<use xlink:href="#f3_2h" transform="matrix(12,0,0,12,278.5,857)" />
<use xlink:href="#f3_2f" transform="matrix(12,0,0,12,287.7,857)" />
<use xlink:href="#f3_2f" transform="matrix(12,0,0,12,299.4,857)" />
<use xlink:href="#f3_2c" transform="matrix(12,0,0,12,306.5,857)" />
<use xlink:href="#f3_21" transform="matrix(12,0,0,12,315.6,857)" />
<use xlink:href="#f3_2e" transform="matrix(12,0,0,12,323.7,857)" />
<use xlink:href="#f3_29" transform="matrix(12,0,0,12,329.8,857)" />
<use xlink:href="#f3_1x" transform="matrix(12,0,0,12,344,857)" />
<use xlink:href="#f3_2g" transform="matrix(12,0,0,12,352.1,857)" />
<use xlink:href="#f3_2b" transform="matrix(12,0,0,12,357.2,857)" />
<use xlink:href="#f3_23" transform="matrix(12,0,0,12,366.4,857)" />
<use xlink:href="#f3_21" transform="matrix(12,0,0,12,375.5,857)" />
<use xlink:href="#f3_2a" transform="matrix(12,0,0,12,383.7,857)" />
<use xlink:href="#f3_25" transform="matrix(12,0,0,12,392.9,857)" />
<use xlink:href="#f3_1z" transform="matrix(12,0,0,12,398,857)" />
<use xlink:href="#f3_2f" transform="matrix(12,0,0,12,410.7,857)" />
<use xlink:href="#f3_2h" transform="matrix(12,0,0,12,417.9,857)" />
<use xlink:href="#f3_1y" transform="matrix(12,0,0,12,427,857)" />
<use xlink:href="#f3_2f" transform="matrix(12,0,0,12,436.2,857)" />
<use xlink:href="#f3_2g" transform="matrix(12,0,0,12,443.3,857)" />
<use xlink:href="#f3_1x" transform="matrix(12,0,0,12,448.4,857)" />
<use xlink:href="#f3_2a" transform="matrix(12,0,0,12,456.6,857)" />
<use xlink:href="#f3_1z" transform="matrix(12,0,0,12,465.8,857)" />
<use xlink:href="#f3_21" transform="matrix(12,0,0,12,473.9,857)" />
<use xlink:href="#f3_2f" transform="matrix(12,0,0,12,482,857)" />
<use xlink:href="#f3_1x" transform="matrix(12,0,0,12,493.6,857)" />
<use xlink:href="#f3_2a" transform="matrix(12,0,0,12,501.8,857)" />
<use xlink:href="#f3_20" transform="matrix(12,0,0,12,510.9,857)" />
<use xlink:href="#f3_1x" transform="matrix(12,0,0,12,524.7,857)" />
<use xlink:href="#f3_2a" transform="matrix(12,0,0,12,532.8,857)" />
<use xlink:href="#f3_20" transform="matrix(12,0,0,12,542,857)" />
<use xlink:href="#f3_2e" transform="matrix(12,0,0,12,551.2,857)" />
<use xlink:href="#f3_2b" transform="matrix(12,0,0,12,557.3,857)" />
<use xlink:href="#f3_23" transform="matrix(12,0,0,12,566.5,857)" />
<use xlink:href="#f3_21" transform="matrix(12,0,0,12,575.6,857)" />
<use xlink:href="#f3_2a" transform="matrix(12,0,0,12,583.7,857)" />
<use xlink:href="#f3_1y" transform="matrix(12,0,0,12,597.5,857)" />
<use xlink:href="#f3_25" transform="matrix(12,0,0,12,606.6,857)" />
<use xlink:href="#f3_2a" transform="matrix(12,0,0,12,611.7,857)" />
<use xlink:href="#f3_20" transform="matrix(12,0,0,12,620.9,857)" />
<use xlink:href="#f3_25" transform="matrix(12,0,0,12,630.1,857)" />
<use xlink:href="#f3_2a" transform="matrix(12,0,0,12,635.2,857)" />
<use xlink:href="#f3_23" transform="matrix(12,0,0,12,644.4,857)" />
<use xlink:href="#f3_2c" transform="matrix(12,0,0,12,658.1,857)" />
<use xlink:href="#f3_2e" transform="matrix(12,0,0,12,667.3,857)" />
<use xlink:href="#f3_2b" transform="matrix(12,0,0,12,673.3,857)" />
<use xlink:href="#f3_2g" transform="matrix(12,0,0,12,682.5,857)" />
<use xlink:href="#f3_21" transform="matrix(12,0,0,12,687.6,857)" />
<use xlink:href="#f3_25" transform="matrix(12,0,0,12,695.8,857)" />
<use xlink:href="#f3_2a" transform="matrix(12,0,0,12,700.9,857)" />
<use xlink:href="#f3_2f" transform="matrix(12,0,0,12,710.1,857)" />
<use xlink:href="#f3_c" transform="matrix(12,0,0,12,721.7,857)" />
<use xlink:href="#f3_11" transform="matrix(12,0,0,12,727.8,857)" />
<use xlink:href="#f3_12" transform="matrix(12,0,0,12,741.1,857)" />
<use xlink:href="#f3_1g" transform="matrix(12,0,0,12,753.3,857)" />
<use xlink:href="#f3_d" transform="matrix(12,0,0,12,763.4,857)" />
<use xlink:href="#f4_11" transform="matrix(12,0,0,12,55,881.2)" />
<use xlink:href="#f4_12" transform="matrix(12,0,0,12,68.2,881.2)" />
<use xlink:href="#f4_1g" transform="matrix(12,0,0,12,80.4,881.2)" />
<use xlink:href="#f3_u" transform="matrix(12,0,0,12,96.2,881.2)" />
<use xlink:href="#f3_13" transform="matrix(12,0,0,12,105.9,881.2)" />
<use xlink:href="#f3_2b" transform="matrix(12,0,0,12,118.1,881.2)" />
<use xlink:href="#f3_2a" transform="matrix(12,0,0,12,127.3,881.2)" />
<use xlink:href="#f3_1z" transform="matrix(12,0,0,12,136.4,881.2)" />
<use xlink:href="#f3_21" transform="matrix(12,0,0,12,144.6,881.2)" />
<use xlink:href="#f3_2a" transform="matrix(12,0,0,12,152.8,881.2)" />
<use xlink:href="#f3_2g" transform="matrix(12,0,0,12,161.9,881.2)" />
<use xlink:href="#f3_2e" transform="matrix(12,0,0,12,167,881.2)" />
<use xlink:href="#f3_1x" transform="matrix(12,0,0,12,173.2,881.2)" />
<use xlink:href="#f3_2g" transform="matrix(12,0,0,12,181.3,881.2)" />
<use xlink:href="#f3_21" transform="matrix(12,0,0,12,186.4,881.2)" />
<use xlink:href="#f3_2f" transform="matrix(12,0,0,12,194.5,881.2)" />
<use xlink:href="#f3_2g" transform="matrix(12,0,0,12,206.2,881.2)" />
<use xlink:href="#f3_24" transform="matrix(12,0,0,12,211.3,881.2)" />
<use xlink:href="#f3_21" transform="matrix(12,0,0,12,220.5,881.2)" />
<use xlink:href="#f3_2g" transform="matrix(12,0,0,12,233.2,881.2)" />
<use xlink:href="#f3_21" transform="matrix(12,0,0,12,238.3,881.2)" />
<use xlink:href="#f3_2f" transform="matrix(12,0,0,12,246.4,881.2)" />
<use xlink:href="#f3_2g" transform="matrix(12,0,0,12,253.6,881.2)" />
<use xlink:href="#f3_2b" transform="matrix(12,0,0,12,258.7,881.2)" />
<use xlink:href="#f3_2f" transform="matrix(12,0,0,12,267.9,881.2)" />
<use xlink:href="#f3_2g" transform="matrix(12,0,0,12,275,881.2)" />
<use xlink:href="#f3_21" transform="matrix(12,0,0,12,280.1,881.2)" />
<use xlink:href="#f3_2e" transform="matrix(12,0,0,12,288.2,881.2)" />
<use xlink:href="#f3_2b" transform="matrix(12,0,0,12,294.3,881.2)" />
<use xlink:href="#f3_2a" transform="matrix(12,0,0,12,303.5,881.2)" />
<use xlink:href="#f3_21" transform="matrix(12,0,0,12,312.7,881.2)" />
<use xlink:href="#f3_25" transform="matrix(12,0,0,12,325.3,881.2)" />
<use xlink:href="#f3_2a" transform="matrix(12,0,0,12,330.4,881.2)" />
<use xlink:href="#f3_2f" transform="matrix(12,0,0,12,339.6,881.2)" />
<use xlink:href="#f3_25" transform="matrix(12,0,0,12,346.7,881.2)" />
<use xlink:href="#f3_20" transform="matrix(12,0,0,12,351.8,881.2)" />
<use xlink:href="#f3_21" transform="matrix(12,0,0,12,360.9,881.2)" />
<use xlink:href="#f3_2f" transform="matrix(12,0,0,12,373.7,881.2)" />
<use xlink:href="#f3_21" transform="matrix(12,0,0,12,380.9,881.2)" />
<use xlink:href="#f3_29" transform="matrix(12,0,0,12,389,881.2)" />
<use xlink:href="#f3_25" transform="matrix(12,0,0,12,403.2,881.2)" />
<use xlink:href="#f3_2a" transform="matrix(12,0,0,12,408.2,881.2)" />
<use xlink:href="#f3_25" transform="matrix(12,0,0,12,417.4,881.2)" />
<use xlink:href="#f3_22" transform="matrix(12,0,0,12,422.5,881.2)" />
<use xlink:href="#f3_21" transform="matrix(12,0,0,12,428.5,881.2)" />
<use xlink:href="#f3_2e" transform="matrix(12,0,0,12,436.7,881.2)" />
<use xlink:href="#f3_2b" transform="matrix(12,0,0,12,442.8,881.2)" />
<use xlink:href="#f3_2h" transform="matrix(12,0,0,12,452,881.2)" />
<use xlink:href="#f3_2f" transform="matrix(12,0,0,12,461.2,881.2)" />
<use xlink:href="#f3_2g" transform="matrix(12,0,0,12,472.9,881.2)" />
<use xlink:href="#f3_2h" transform="matrix(12,0,0,12,478,881.2)" />
<use xlink:href="#f3_1y" transform="matrix(12,0,0,12,487.2,881.2)" />
<use xlink:href="#f3_2h" transform="matrix(12,0,0,12,496.3,881.2)" />
<use xlink:href="#f3_28" transform="matrix(12,0,0,12,505.5,881.2)" />
<use xlink:href="#f3_21" transform="matrix(12,0,0,12,510.5,881.2)" />
<use xlink:href="#f3_2f" transform="matrix(12,0,0,12,518.7,881.2)" />
<use xlink:href="#f3_i" transform="matrix(12,0,0,12,525.8,881.2)" />
<use xlink:href="#f4_1c" transform="matrix(12,0,0,12,55,905.5)" />
<use xlink:href="#f4_18" transform="matrix(12,0,0,12,67.2,905.5)" />
<use xlink:href="#f4_j" transform="matrix(12,0,0,12,81.5,905.5)" />
<use xlink:href="#f4_19" transform="matrix(12,0,0,12,86.6,905.5)" />
<use xlink:href="#f4_13" transform="matrix(12,0,0,12,93.7,905.5)" />
<use xlink:href="#f4_1j" transform="matrix(12,0,0,12,107,905.5)" />
<use xlink:href="#f4_18" transform="matrix(12,0,0,12,117.2,905.5)" />
<use xlink:href="#f4_u" transform="matrix(12,0,0,12,136,905.5)" />
<use xlink:href="#f3_h" transform="matrix(12,0,0,12,146.7,905.5)" />
<use xlink:href="#f3_19" transform="matrix(12,0,0,12,157.4,905.5)" />
<use xlink:href="#f3_2g" transform="matrix(12,0,0,12,163.5,905.5)" />
<use xlink:href="#f3_2f" transform="matrix(12,0,0,12,173.3,905.5)" />
<use xlink:href="#f3_2g" transform="matrix(12,0,0,12,180.3,905.5)" />
<use xlink:href="#f3_25" transform="matrix(12,0,0,12,185.4,905.5)" />
<use xlink:href="#f3_29" transform="matrix(12,0,0,12,190.6,905.5)" />
<use xlink:href="#f3_2h" transform="matrix(12,0,0,12,204.7,905.5)" />
<use xlink:href="#f3_28" transform="matrix(12,0,0,12,213.9,905.5)" />
<use xlink:href="#f3_1x" transform="matrix(12,0,0,12,218.9,905.5)" />
<use xlink:href="#f3_2g" transform="matrix(12,0,0,12,227.1,905.5)" />
<use xlink:href="#f3_21" transform="matrix(12,0,0,12,232.3,905.5)" />
<use xlink:href="#f3_2f" transform="matrix(12,0,0,12,240.3,905.5)" />
<use xlink:href="#f3_2g" transform="matrix(12,0,0,12,252,905.5)" />
<use xlink:href="#f3_24" transform="matrix(12,0,0,12,257.1,905.5)" />
<use xlink:href="#f3_21" transform="matrix(12,0,0,12,266.3,905.5)" />
<use xlink:href="#f3_28" transform="matrix(12,0,0,12,279.1,905.5)" />
<use xlink:href="#f3_21" transform="matrix(12,0,0,12,284.1,905.5)" />
<use xlink:href="#f3_2l" transform="matrix(12,0,0,12,292.3,905.5)" />
<use xlink:href="#f3_20" transform="matrix(12,0,0,12,301.4,905.5)" />
<use xlink:href="#f3_25" transform="matrix(12,0,0,12,310.6,905.5)" />
<use xlink:href="#f3_23" transform="matrix(12,0,0,12,315.7,905.5)" />
<use xlink:href="#f3_1z" transform="matrix(12,0,0,12,329.4,905.5)" />
<use xlink:href="#f3_21" transform="matrix(12,0,0,12,337.6,905.5)" />
<use xlink:href="#f3_28" transform="matrix(12,0,0,12,345.7,905.5)" />
<use xlink:href="#f3_28" transform="matrix(12,0,0,12,350.8,905.5)" />
<use xlink:href="#f3_2f" transform="matrix(12,0,0,12,355.9,905.5)" />
<use xlink:href="#f3_2g" transform="matrix(12,0,0,12,367.6,905.5)" />
<use xlink:href="#f3_2b" transform="matrix(12,0,0,12,372.7,905.5)" />
<use xlink:href="#f3_2f" transform="matrix(12,0,0,12,386.5,905.5)" />
<use xlink:href="#f3_21" transform="matrix(12,0,0,12,393.6,905.5)" />
<use xlink:href="#f3_1z" transform="matrix(12,0,0,12,401.7,905.5)" />
<use xlink:href="#f3_2e" transform="matrix(12,0,0,12,409.9,905.5)" />
<use xlink:href="#f3_21" transform="matrix(12,0,0,12,416,905.5)" />
<use xlink:href="#f3_2g" transform="matrix(12,0,0,12,424.1,905.5)" />
<use xlink:href="#f3_21" transform="matrix(12,0,0,12,429.2,905.5)" />
<use xlink:href="#f3_2g" transform="matrix(12,0,0,12,441.9,905.5)" />
<use xlink:href="#f3_21" transform="matrix(12,0,0,12,447,905.5)" />
<use xlink:href="#f3_2f" transform="matrix(12,0,0,12,455.2,905.5)" />
<use xlink:href="#f3_2g" transform="matrix(12,0,0,12,462.3,905.5)" />
<use xlink:href="#f3_2b" transform="matrix(12,0,0,12,467.4,905.5)" />
<use xlink:href="#f3_2f" transform="matrix(12,0,0,12,476.6,905.5)" />
<use xlink:href="#f3_2g" transform="matrix(12,0,0,12,483.6,905.5)" />
<use xlink:href="#f3_21" transform="matrix(12,0,0,12,488.7,905.5)" />
<use xlink:href="#f3_2e" transform="matrix(12,0,0,12,496.9,905.5)" />
<use xlink:href="#f3_2b" transform="matrix(12,0,0,12,503,905.5)" />
<use xlink:href="#f3_2a" transform="matrix(12,0,0,12,512.2,905.5)" />
<use xlink:href="#f3_21" transform="matrix(12,0,0,12,521.3,905.5)" />
<use xlink:href="#f3_i" transform="matrix(12,0,0,12,529.5,905.5)" />
<use xlink:href="#f3_1c" transform="matrix(12,0,0,12,538.6,905.5)" />
<use xlink:href="#f3_21" transform="matrix(12,0,0,12,549.8,905.5)" />
<use xlink:href="#f3_2l" transform="matrix(12,0,0,12,558,905.5)" />
<use xlink:href="#f3_20" transform="matrix(12,0,0,12,567.1,905.5)" />
<use xlink:href="#f3_25" transform="matrix(12,0,0,12,576.3,905.5)" />
<use xlink:href="#f3_23" transform="matrix(12,0,0,12,581.4,905.5)" />
<use xlink:href="#f3_b" transform="matrix(12,0,0,12,590.6,905.5)" />
<use xlink:href="#f3_2f" transform="matrix(12,0,0,12,593.8,905.5)" />
<use xlink:href="#f3_1z" transform="matrix(12,0,0,12,605.5,905.5)" />
<use xlink:href="#f3_21" transform="matrix(12,0,0,12,613.7,905.5)" />
<use xlink:href="#f3_28" transform="matrix(12,0,0,12,621.8,905.5)" />
<use xlink:href="#f3_28" transform="matrix(12,0,0,12,626.9,905.5)" />
<use xlink:href="#f3_2f" transform="matrix(12,0,0,12,632,905.5)" />
<use xlink:href="#f3_29" transform="matrix(12,0,0,12,643.8,905.5)" />
<use xlink:href="#f3_1x" transform="matrix(12,0,0,12,657.9,905.5)" />
<use xlink:href="#f3_2g" transform="matrix(12,0,0,12,666,905.5)" />
<use xlink:href="#f3_2h" transform="matrix(12,0,0,12,671.1,905.5)" />
<use xlink:href="#f3_2e" transform="matrix(12,0,0,12,680.3,905.5)" />
<use xlink:href="#f3_21" transform="matrix(12,0,0,12,686.4,905.5)" />
<use xlink:href="#f3_1x" transform="matrix(12,0,0,12,699.2,905.5)" />
<use xlink:href="#f3_2g" transform="matrix(12,0,0,12,707.3,905.5)" />
<use xlink:href="#f3_l" transform="matrix(12,0,0,12,717,905.5)" />
<use xlink:href="#f3_k" transform="matrix(12,0,0,12,726.2,905.5)" />
<use xlink:href="#f3_2l" transform="matrix(12,0,0,12,740,905.5)" />
<use xlink:href="#f3_21" transform="matrix(12,0,0,12,749.1,905.5)" />
<use xlink:href="#f3_1x" transform="matrix(12,0,0,12,757.3,905.5)" />
<use xlink:href="#f3_2e" transform="matrix(12,0,0,12,765.4,905.5)" />
<use xlink:href="#f3_2f" transform="matrix(12,0,0,12,771.5,905.5)" />
<use xlink:href="#f3_2b" transform="matrix(12,0,0,12,783.2,905.5)" />
<use xlink:href="#f3_22" transform="matrix(12,0,0,12,792.3,905.5)" />
<use xlink:href="#f3_1x" transform="matrix(12,0,0,12,802.9,905.5)" />
<use xlink:href="#f3_23" transform="matrix(12,0,0,12,811.1,905.5)" />
<use xlink:href="#f3_21" transform="matrix(12,0,0,12,820.2,905.5)" />
<use xlink:href="#f3_i" transform="matrix(12,0,0,12,833,905.5)" />
<use xlink:href="#f4_19" transform="matrix(12,0,0,12,55,929.7)" />
<use xlink:href="#f4_2a" transform="matrix(12,0,0,12,62.1,929.7)" />
<use xlink:href="#f4_24" transform="matrix(12,0,0,12,72.3,929.7)" />
<use xlink:href="#f4_25" transform="matrix(12,0,0,12,82.5,929.7)" />
<use xlink:href="#f4_1y" transform="matrix(12,0,0,12,87.6,929.7)" />
<use xlink:href="#f4_25" transform="matrix(12,0,0,12,97.8,929.7)" />
<use xlink:href="#f4_2a" transform="matrix(12,0,0,12,102.9,929.7)" />
<use xlink:href="#f3_u" transform="matrix(12,0,0,12,117.7,929.7)" />
<use xlink:href="#f3_u" transform="matrix(12,0,0,12,127.4,929.7)" />
<use xlink:href="#f3_19" transform="matrix(12,0,0,12,137.1,929.7)" />
<use xlink:href="#f3_2g" transform="matrix(12,0,0,12,143.2,929.7)" />
<use xlink:href="#f3_25" transform="matrix(12,0,0,12,152.8,929.7)" />
<use xlink:href="#f3_2f" transform="matrix(12,0,0,12,157.9,929.7)" />
<use xlink:href="#f3_2f" transform="matrix(12,0,0,12,169.6,929.7)" />
<use xlink:href="#f3_21" transform="matrix(12,0,0,12,176.8,929.7)" />
<use xlink:href="#f3_1z" transform="matrix(12,0,0,12,184.9,929.7)" />
<use xlink:href="#f3_2e" transform="matrix(12,0,0,12,193,929.7)" />
<use xlink:href="#f3_21" transform="matrix(12,0,0,12,199.1,929.7)" />
<use xlink:href="#f3_2g" transform="matrix(12,0,0,12,207.3,929.7)" />
<use xlink:href="#f3_21" transform="matrix(12,0,0,12,212.4,929.7)" />
<use xlink:href="#f3_20" transform="matrix(12,0,0,12,220.5,929.7)" />
<use xlink:href="#f3_1y" transform="matrix(12,0,0,12,234.2,929.7)" />
<use xlink:href="#f3_2l" transform="matrix(12,0,0,12,243.3,929.7)" />
<use xlink:href="#f3_1j" transform="matrix(12,0,0,12,257.1,929.7)" />
<use xlink:href="#f3_21" transform="matrix(12,0,0,12,267.3,929.7)" />
<use xlink:href="#f3_2e" transform="matrix(12,0,0,12,275.4,929.7)" />
<use xlink:href="#f3_2g" transform="matrix(12,0,0,12,281.5,929.7)" />
<use xlink:href="#f3_2b" transform="matrix(12,0,0,12,286.7,929.7)" />
<use xlink:href="#f3_28" transform="matrix(12,0,0,12,295.8,929.7)" />
<use xlink:href="#f3_25" transform="matrix(12,0,0,12,300.9,929.7)" />
<use xlink:href="#f3_1z" transform="matrix(12,0,0,12,310.6,929.7)" />
<use xlink:href="#f3_21" transform="matrix(12,0,0,12,318.7,929.7)" />
<use xlink:href="#f3_28" transform="matrix(12,0,0,12,326.8,929.7)" />
<use xlink:href="#f3_28" transform="matrix(12,0,0,12,331.9,929.7)" />
<use xlink:href="#f3_2f" transform="matrix(12,0,0,12,337,929.7)" />
<use xlink:href="#f3_25" transform="matrix(12,0,0,12,348.8,929.7)" />
<use xlink:href="#f3_2a" transform="matrix(12,0,0,12,353.9,929.7)" />
<use xlink:href="#f3_2e" transform="matrix(12,0,0,12,367.6,929.7)" />
<use xlink:href="#f3_21" transform="matrix(12,0,0,12,373.7,929.7)" />
<use xlink:href="#f3_2f" transform="matrix(12,0,0,12,381.8,929.7)" />
<use xlink:href="#f3_2c" transform="matrix(12,0,0,12,389,929.7)" />
<use xlink:href="#f3_2b" transform="matrix(12,0,0,12,398.2,929.7)" />
<use xlink:href="#f3_2a" transform="matrix(12,0,0,12,407.4,929.7)" />
<use xlink:href="#f3_2f" transform="matrix(12,0,0,12,416.4,929.7)" />
<use xlink:href="#f3_21" transform="matrix(12,0,0,12,423.6,929.7)" />
<use xlink:href="#f3_2g" transform="matrix(12,0,0,12,436.3,929.7)" />
<use xlink:href="#f3_2b" transform="matrix(12,0,0,12,441.4,929.7)" />
<use xlink:href="#f3_21" transform="matrix(12,0,0,12,455.2,929.7)" />
<use xlink:href="#f3_2k" transform="matrix(12,0,0,12,463.3,929.7)" />
<use xlink:href="#f3_1z" transform="matrix(12,0,0,12,472.5,929.7)" />
<use xlink:href="#f3_21" transform="matrix(12,0,0,12,480.6,929.7)" />
<use xlink:href="#f3_2f" transform="matrix(12,0,0,12,488.7,929.7)" />
<use xlink:href="#f3_2f" transform="matrix(12,0,0,12,495.9,929.7)" />
<use xlink:href="#f3_2f" transform="matrix(12,0,0,12,507.6,929.7)" />
<use xlink:href="#f3_2c" transform="matrix(12,0,0,12,514.7,929.7)" />
<use xlink:href="#f3_21" transform="matrix(12,0,0,12,523.9,929.7)" />
<use xlink:href="#f3_2e" transform="matrix(12,0,0,12,532,929.7)" />
<use xlink:href="#f3_29" transform="matrix(12,0,0,12,538.1,929.7)" />
<use xlink:href="#f3_1x" transform="matrix(12,0,0,12,552.3,929.7)" />
<use xlink:href="#f3_2g" transform="matrix(12,0,0,12,560.4,929.7)" />
<use xlink:href="#f3_2b" transform="matrix(12,0,0,12,565.5,929.7)" />
<use xlink:href="#f3_23" transform="matrix(12,0,0,12,574.7,929.7)" />
<use xlink:href="#f3_21" transform="matrix(12,0,0,12,583.8,929.7)" />
<use xlink:href="#f3_2a" transform="matrix(12,0,0,12,592,929.7)" />
<use xlink:href="#f3_21" transform="matrix(12,0,0,12,601.2,929.7)" />
<use xlink:href="#f3_2f" transform="matrix(12,0,0,12,609.3,929.7)" />
<use xlink:href="#f3_25" transform="matrix(12,0,0,12,616.5,929.7)" />
<use xlink:href="#f3_2f" transform="matrix(12,0,0,12,621.6,929.7)" />
<use xlink:href="#f3_i" transform="matrix(12,0,0,12,628.8,929.7)" />
<use xlink:href="#f3_1k" transform="matrix(12,0,0,12,638.2,929.7)" />
<use xlink:href="#f3_24" transform="matrix(12,0,0,12,649.4,929.7)" />
<use xlink:href="#f3_21" transform="matrix(12,0,0,12,658.6,929.7)" />
<use xlink:href="#f3_25" transform="matrix(12,0,0,12,671.2,929.7)" />
<use xlink:href="#f3_2a" transform="matrix(12,0,0,12,676.3,929.7)" />
<use xlink:href="#f3_24" transform="matrix(12,0,0,12,685.4,929.7)" />
<use xlink:href="#f3_25" transform="matrix(12,0,0,12,694.6,929.7)" />
<use xlink:href="#f3_1y" transform="matrix(12,0,0,12,699.7,929.7)" />
<use xlink:href="#f3_25" transform="matrix(12,0,0,12,708.8,929.7)" />
<use xlink:href="#f3_2a" transform="matrix(12,0,0,12,714,929.7)" />
<use xlink:href="#f3_23" transform="matrix(12,0,0,12,727.7,929.7)" />
<use xlink:href="#f3_25" transform="matrix(12,0,0,12,736.9,929.7)" />
<use xlink:href="#f3_2i" transform="matrix(12,0,0,12,742,929.7)" />
<use xlink:href="#f3_21" transform="matrix(12,0,0,12,751.2,929.7)" />
<use xlink:href="#f3_2f" transform="matrix(12,0,0,12,759.3,929.7)" />
<use xlink:href="#f3_1x" transform="matrix(12,0,0,12,771,929.7)" />
<use xlink:href="#f3_2a" transform="matrix(12,0,0,12,783.6,929.7)" />
<use xlink:href="#f3_21" transform="matrix(12,0,0,12,792.8,929.7)" />
<use xlink:href="#f3_23" transform="matrix(12,0,0,12,800.9,929.7)" />
<use xlink:href="#f3_1x" transform="matrix(12,0,0,12,810.1,929.7)" />
<use xlink:href="#f3_2g" transform="matrix(12,0,0,12,818.3,929.7)" />
<use xlink:href="#f3_25" transform="matrix(12,0,0,12,823.4,929.7)" />
<use xlink:href="#f3_2i" transform="matrix(12,0,0,12,828.5,929.7)" />
<use xlink:href="#f3_21" transform="matrix(12,0,0,12,837.6,929.7)" />
<use xlink:href="#f3_22" transform="matrix(12,0,0,12,55,953.9)" />
<use xlink:href="#f3_21" transform="matrix(12,0,0,12,61.1,953.9)" />
<use xlink:href="#f3_21" transform="matrix(12,0,0,12,69.2,953.9)" />
<use xlink:href="#f3_20" transform="matrix(12,0,0,12,77.4,953.9)" />
<use xlink:href="#f3_1y" transform="matrix(12,0,0,12,86.6,953.9)" />
<use xlink:href="#f3_1x" transform="matrix(12,0,0,12,95.7,953.9)" />
<use xlink:href="#f3_1z" transform="matrix(12,0,0,12,103.9,953.9)" />
<use xlink:href="#f3_27" transform="matrix(12,0,0,12,112,953.9)" />
<use xlink:href="#f3_2g" transform="matrix(12,0,0,12,125.7,953.9)" />
<use xlink:href="#f3_2b" transform="matrix(12,0,0,12,130.8,953.9)" />
<use xlink:href="#f3_2g" transform="matrix(12,0,0,12,144.6,953.9)" />
<use xlink:href="#f3_24" transform="matrix(12,0,0,12,149.7,953.9)" />
<use xlink:href="#f3_21" transform="matrix(12,0,0,12,158.9,953.9)" />
<use xlink:href="#f3_24" transform="matrix(12,0,0,12,171.6,953.9)" />
<use xlink:href="#f3_2l" transform="matrix(12,0,0,12,180.7,953.9)" />
<use xlink:href="#f3_2c" transform="matrix(12,0,0,12,189.9,953.9)" />
<use xlink:href="#f3_2b" transform="matrix(12,0,0,12,199.1,953.9)" />
<use xlink:href="#f3_2g" transform="matrix(12,0,0,12,208.2,953.9)" />
<use xlink:href="#f3_24" transform="matrix(12,0,0,12,213.4,953.9)" />
<use xlink:href="#f3_1x" transform="matrix(12,0,0,12,222.5,953.9)" />
<use xlink:href="#f3_28" transform="matrix(12,0,0,12,230.6,953.9)" />
<use xlink:href="#f3_1x" transform="matrix(12,0,0,12,235.7,953.9)" />
<use xlink:href="#f3_29" transform="matrix(12,0,0,12,243.9,953.9)" />
<use xlink:href="#f3_2h" transform="matrix(12,0,0,12,257.9,953.9)" />
<use xlink:href="#f3_2f" transform="matrix(12,0,0,12,267.1,953.9)" />
<use xlink:href="#f3_1x" transform="matrix(12,0,0,12,278.8,953.9)" />
<use xlink:href="#f3_2a" transform="matrix(12,0,0,12,287,953.9)" />
<use xlink:href="#f3_20" transform="matrix(12,0,0,12,296.1,953.9)" />
<use xlink:href="#f3_1x" transform="matrix(12,0,0,12,309.9,953.9)" />
<use xlink:href="#f3_2a" transform="matrix(12,0,0,12,318,953.9)" />
<use xlink:href="#f3_2g" transform="matrix(12,0,0,12,327.3,953.9)" />
<use xlink:href="#f3_21" transform="matrix(12,0,0,12,332.4,953.9)" />
<use xlink:href="#f3_2e" transform="matrix(12,0,0,12,340.5,953.9)" />
<use xlink:href="#f3_25" transform="matrix(12,0,0,12,346.6,953.9)" />
<use xlink:href="#f3_2b" transform="matrix(12,0,0,12,351.7,953.9)" />
<use xlink:href="#f3_2e" transform="matrix(12,0,0,12,360.9,953.9)" />
<use xlink:href="#f3_2c" transform="matrix(12,0,0,12,371.6,953.9)" />
<use xlink:href="#f3_25" transform="matrix(12,0,0,12,380.8,953.9)" />
<use xlink:href="#f3_2g" transform="matrix(12,0,0,12,385.8,953.9)" />
<use xlink:href="#f3_2h" transform="matrix(12,0,0,12,390.9,953.9)" />
<use xlink:href="#f3_25" transform="matrix(12,0,0,12,400.1,953.9)" />
<use xlink:href="#f3_2g" transform="matrix(12,0,0,12,405.2,953.9)" />
<use xlink:href="#f3_1x" transform="matrix(12,0,0,12,410.3,953.9)" />
<use xlink:href="#f3_2e" transform="matrix(12,0,0,12,418.4,953.9)" />
<use xlink:href="#f3_2l" transform="matrix(12,0,0,12,424.5,953.9)" />
<use xlink:href="#f3_g" transform="matrix(12,0,0,12,433.7,953.9)" />
<use xlink:href="#f3_2g" transform="matrix(12,0,0,12,442.8,953.9)" />
<use xlink:href="#f3_24" transform="matrix(12,0,0,12,448,953.9)" />
<use xlink:href="#f3_25" transform="matrix(12,0,0,12,457.1,953.9)" />
<use xlink:href="#f3_2f" transform="matrix(12,0,0,12,462.2,953.9)" />
<use xlink:href="#f3_2e" transform="matrix(12,0,0,12,474,953.9)" />
<use xlink:href="#f3_21" transform="matrix(12,0,0,12,480.1,953.9)" />
<use xlink:href="#f3_2f" transform="matrix(12,0,0,12,488.2,953.9)" />
<use xlink:href="#f3_2h" transform="matrix(12,0,0,12,495.3,953.9)" />
<use xlink:href="#f3_28" transform="matrix(12,0,0,12,504.4,953.9)" />
<use xlink:href="#f3_2g" transform="matrix(12,0,0,12,509.5,953.9)" />
<use xlink:href="#f3_2f" transform="matrix(12,0,0,12,514.6,953.9)" />
<use xlink:href="#f3_25" transform="matrix(12,0,0,12,526.4,953.9)" />
<use xlink:href="#f3_2a" transform="matrix(12,0,0,12,531.4,953.9)" />
<use xlink:href="#f3_2f" transform="matrix(12,0,0,12,545.2,953.9)" />
<use xlink:href="#f3_2h" transform="matrix(12,0,0,12,552.3,953.9)" />
<use xlink:href="#f3_2c" transform="matrix(12,0,0,12,561.5,953.9)" />
<use xlink:href="#f3_2c" transform="matrix(12,0,0,12,570.7,953.9)" />
<use xlink:href="#f3_2e" transform="matrix(12,0,0,12,579.8,953.9)" />
<use xlink:href="#f3_21" transform="matrix(12,0,0,12,585.9,953.9)" />
<use xlink:href="#f3_2f" transform="matrix(12,0,0,12,594.1,953.9)" />
<use xlink:href="#f3_2f" transform="matrix(12,0,0,12,601.1,953.9)" />
<use xlink:href="#f3_25" transform="matrix(12,0,0,12,608.3,953.9)" />
<use xlink:href="#f3_2b" transform="matrix(12,0,0,12,613.4,953.9)" />
<use xlink:href="#f3_2a" transform="matrix(12,0,0,12,622.5,953.9)" />
<use xlink:href="#f3_2b" transform="matrix(12,0,0,12,636.3,953.9)" />
<use xlink:href="#f3_22" transform="matrix(12,0,0,12,645.5,953.9)" />
<use xlink:href="#f3_2f" transform="matrix(12,0,0,12,656.2,953.9)" />
<use xlink:href="#f3_2l" transform="matrix(12,0,0,12,663.3,953.9)" />
<use xlink:href="#f3_2a" transform="matrix(12,0,0,12,672.5,953.9)" />
<use xlink:href="#f3_2g" transform="matrix(12,0,0,12,681.7,953.9)" />
<use xlink:href="#f3_24" transform="matrix(12,0,0,12,686.7,953.9)" />
<use xlink:href="#f3_21" transform="matrix(12,0,0,12,695.8,953.9)" />
<use xlink:href="#f3_2f" transform="matrix(12,0,0,12,704,953.9)" />
<use xlink:href="#f3_25" transform="matrix(12,0,0,12,711.1,953.9)" />
<use xlink:href="#f3_2f" transform="matrix(12,0,0,12,716.2,953.9)" />
<use xlink:href="#f3_1x" transform="matrix(12,0,0,12,728,953.9)" />
<use xlink:href="#f3_2a" transform="matrix(12,0,0,12,736.1,953.9)" />
<use xlink:href="#f3_20" transform="matrix(12,0,0,12,745.3,953.9)" />
<use xlink:href="#f3_2e" transform="matrix(12,0,0,12,759,953.9)" />
<use xlink:href="#f3_21" transform="matrix(12,0,0,12,765.1,953.9)" />
<use xlink:href="#f3_28" transform="matrix(12,0,0,12,773.2,953.9)" />
<use xlink:href="#f3_21" transform="matrix(12,0,0,12,778.3,953.9)" />
<use xlink:href="#f3_1x" transform="matrix(12,0,0,12,786.4,953.9)" />
<use xlink:href="#f3_2f" transform="matrix(12,0,0,12,794.6,953.9)" />
<use xlink:href="#f3_21" transform="matrix(12,0,0,12,801.7,953.9)" />
<use xlink:href="#f3_2b" transform="matrix(12,0,0,12,814.5,953.9)" />
<use xlink:href="#f3_22" transform="matrix(12,0,0,12,823.7,953.9)" />
<use xlink:href="#f3_16" transform="matrix(12,0,0,12,55,978.5)" />
<use xlink:href="#f3_1j" transform="matrix(12,0,0,12,65.2,978.5)" />
<use xlink:href="#f3_18" transform="matrix(12,0,0,12,75.4,978.5)" />
<use xlink:href="#f3_c" transform="matrix(12,0,0,12,93.1,978.5)" />
<use xlink:href="#f5_16e" transform="matrix(12,0,0,12,99.3,978.5)" />
<use xlink:href="#f3_1j" transform="matrix(12,0,0,12,114.4,978.5)" />
<use xlink:href="#f3_2c" transform="matrix(12,0,0,12,124.6,978.5)" />
<use xlink:href="#f3_21" transform="matrix(12,0,0,12,133.8,978.5)" />
<use xlink:href="#f3_2e" transform="matrix(12,0,0,12,141.9,978.5)" />
<use xlink:href="#f3_29" transform="matrix(12,0,0,12,148,978.5)" />
<use xlink:href="#f3_1x" transform="matrix(12,0,0,12,162.2,978.5)" />
<use xlink:href="#f3_2g" transform="matrix(12,0,0,12,170.3,978.5)" />
<use xlink:href="#f3_2b" transform="matrix(12,0,0,12,175.4,978.5)" />
<use xlink:href="#f3_23" transform="matrix(12,0,0,12,184.6,978.5)" />
<use xlink:href="#f3_21" transform="matrix(12,0,0,12,193.7,978.5)" />
<use xlink:href="#f3_2a" transform="matrix(12,0,0,12,201.9,978.5)" />
<use xlink:href="#f3_21" transform="matrix(12,0,0,12,211.1,978.5)" />
<use xlink:href="#f3_2f" transform="matrix(12,0,0,12,219.2,978.5)" />
<use xlink:href="#f3_25" transform="matrix(12,0,0,12,226.4,978.5)" />
<use xlink:href="#f3_2f" transform="matrix(12,0,0,12,231.5,978.5)" />
<use xlink:href="#f3_20" transform="matrix(12,0,0,12,243.2,978.5)" />
<use xlink:href="#f3_21" transform="matrix(12,0,0,12,252.4,978.5)" />
<use xlink:href="#f3_1z" transform="matrix(12,0,0,12,260.5,978.5)" />
<use xlink:href="#f3_2e" transform="matrix(12,0,0,12,268.7,978.5)" />
<use xlink:href="#f3_21" transform="matrix(12,0,0,12,274.8,978.5)" />
<use xlink:href="#f3_1x" transform="matrix(12,0,0,12,283,978.5)" />
<use xlink:href="#f3_2f" transform="matrix(12,0,0,12,291.1,978.5)" />
<use xlink:href="#f3_21" transform="matrix(12,0,0,12,298.2,978.5)" />
<use xlink:href="#f3_2f" transform="matrix(12,0,0,12,306.4,978.5)" />
<use xlink:href="#f3_d" transform="matrix(12,0,0,12,313.5,978.5)" />
<use xlink:href="#f3_i" transform="matrix(12,0,0,12,319.7,978.5)" />
</g>
<image preserveAspectRatio="none" x="55" y="248" width="225" height="102" xlink:href="img/6.png" />
<image preserveAspectRatio="none" x="222" y="403" width="466" height="385" xlink:href="img/7.png" />
<path fill-rule="evenodd" d="M37.4,38.1h.7v-.7h-.7v.7Z" class="g2_66" />
<path fill-rule="evenodd" d="M37.4,38.1h.7v-.7h-.7v.7Z" class="g2_66" />
<path fill-rule="evenodd" d="M38.1,38.1H871.5v-.7H38.1v.7Z" class="g2_66" />
<path fill-rule="evenodd" d="M871.5,38.1h.7v-.7h-.7v.7Z" class="g2_66" />
<path fill-rule="evenodd" d="M871.5,38.1h.7v-.7h-.7v.7Z" class="g2_66" />
<path fill-rule="evenodd" d="M37.4,1248.2h.7V38.1h-.7V1248.2Z" class="g2_66" />
<path fill-rule="evenodd" d="M872.2,1248.2h.8V38.1h-.8V1248.2Z" class="g2_66" />
<path fill-rule="evenodd" d="M871.5,1248.2h.7V38.1h-.7V1248.2Z" class="g2_66" />
<path fill-rule="evenodd" d="M37.4,1249h.7v-.8h-.7v.8Z" class="g2_66" />
<path fill-rule="evenodd" d="M37.4,1249h.7v-.8h-.7v.8Z" class="g2_66" />
<path fill-rule="evenodd" d="M38.1,1249.7H871.5v-.7H38.1v.7Z" class="g2_66" />
<path fill-rule="evenodd" d="M38.1,1249H871.5v-.8H38.1v.8Z" class="g2_66" />
<path fill-rule="evenodd" d="M872.2,1249.7h.8v-1.5h-.8v1.5Z" class="g2_66" />
<path fill-rule="evenodd" d="M871.5,1249.7H873v-.7h-1.5v.7Z" class="g2_66" />
<path fill-rule="evenodd" d="M871.5,1249h.7v-.8h-.7v.8Z" class="g2_66" />
<path fill-rule="evenodd" d="M871.5,1249h.7v-.8h-.7v.8Z" class="g2_66" />
<defs>
<path d="M489,-15c0,0,-99,0,-179,30c0,0,-80,30,-136,91c0,0,-56,61,-85,152c0,0,-30,91,-30,212c0,0,0,123,32,218c0,0,33,96,92,161c0,0,59,65,142,98c0,0,82,34,181,34c0,0,40,0,78,-7c0,0,37,-7,69,-18c0,0,31,-11,57,-25c0,0,25,-14,35,-24c0,0,10,-10,14,-17c0,0,4,-7,6,-17c0,0,2,-11,3,-25c0,0,2,-14,2,-35c0,0,0,-22,-2,-38c0,0,-1,-15,-5,-25c0,0,-4,-10,-9,-14c0,0,-5,-5,-12,-5c0,0,-11,0,-28,13c0,0,-18,13,-45,29c0,0,-27,16,-65,29c0,0,-37,13,-89,13c0,0,-58,0,-103,-23c0,0,-45,-23,-77,-67c0,0,-31,-44,-48,-106c0,0,-16,-61,-16,-139c0,0,0,-85,17,-147c0,0,18,-62,50,-103c0,0,33,-40,79,-60c0,0,45,-19,103,-19c0,0,52,0,90,12c0,0,38,12,65,27c0,0,27,15,45,27c0,0,17,12,27,12c0,0,8,0,12,-3c0,0,4,-3,7,-12c0,0,3,-9,5,-25c0,0,1,-16,1,-43c0,0,0,-18,-1,-31c0,0,-1,-14,-3,-23c0,0,-2,-9,-6,-16c0,0,-4,-7,-12,-15c0,0,-8,-9,-32,-22c0,0,-23,-14,-57,-26C661,13,627,1,583,-6c0,0,-43,-9,-94,-9Z" 
id="f0_j"
transform="scale(0.001,-0.001)" />

<path d="M440,150c0,0,41,0,68,8c0,0,28,9,49,26c0,0,20,16,32,41c0,0,11,25,11,58c0,0,0,33,-11,60c0,0,-11,26,-33,44c0,0,-21,18,-55,28c0,0,-33,9,-87,9H298V150ZM407,567c0,0,42,0,68,10c0,0,25,10,42,28c0,0,16,17,24,41c0,0,9,24,9,50c0,0,0,29,-9,52c0,0,-9,23,-27,39c0,0,-18,15,-45,23c0,0,-27,8,-72,8H298V567ZM164,0c0,0,-25,0,-42,15c0,0,-16,14,-16,47V903c0,0,0,33,16,48c0,0,17,14,42,14H406c0,0,88,0,150,-15c0,0,61,-15,103,-45c0,0,42,-30,65,-77c0,0,22,-46,22,-108c0,0,0,-36,-9,-67c0,0,-9,-31,-26,-56c0,0,-17,-25,-42,-45c0,0,-25,-19,-57,-31c0,0,41,-7,76,-26c0,0,34,-19,60,-48c0,0,26,-30,41,-69c0,0,15,-40,15,-89c0,0,0,-51,-14,-93c0,0,-15,-42,-40,-74c0,0,-25,-32,-59,-55c0,0,-35,-23,-77,-38C614,29,573,14,525,7C525,7,478,0,420,0Z" 
id="f0_i"
transform="scale(0.001,-0.001)" />

<path d="M320,-17c0,0,-50,0,-93,9c0,0,-43,8,-76,19c0,0,-32,11,-54,24C97,35,75,48,65,58c0,0,-10,9,-14,28c0,0,-4,18,-4,52c0,0,0,23,1,39c0,0,2,15,5,25c0,0,4,10,9,14c0,0,6,4,13,4c0,0,11,0,30,-12c0,0,19,-13,49,-28c0,0,30,-15,71,-27c0,0,42,-12,96,-12c0,0,36,0,64,8c0,0,29,9,49,25c0,0,19,15,30,38c0,0,10,23,10,52c0,0,0,33,-18,56c0,0,-18,24,-46,42c0,0,-29,18,-66,34c0,0,-36,16,-75,34c0,0,-39,18,-76,41c0,0,-36,23,-65,54c0,0,-29,32,-47,75c0,0,-17,44,-17,104c0,0,0,70,25,122c0,0,26,53,70,88c0,0,43,34,103,51c0,0,59,18,125,18c0,0,35,0,69,-6c0,0,34,-5,64,-14c0,0,30,-9,53,-20c0,0,23,-11,31,-18c0,0,7,-8,10,-13c0,0,3,-5,4,-14c0,0,2,-8,3,-21c0,0,1,-13,1,-33c0,0,0,-21,-1,-36c0,0,-1,-15,-4,-25c0,0,-3,-9,-7,-14c0,0,-5,-4,-14,-4c0,0,-8,0,-26,10c0,0,-18,10,-44,23c0,0,-26,12,-60,22c0,0,-34,10,-75,10c0,0,-32,0,-56,-8c0,0,-24,-8,-40,-21c0,0,-16,-14,-24,-34c0,0,-8,-19,-8,-41c0,0,0,-32,18,-56c0,0,17,-23,46,-42c0,0,30,-18,67,-34c0,0,38,-16,76,-34c0,0,39,-18,76,-41c0,0,38,-22,67,-54c0,0,29,-32,47,-75c0,0,18,-43,18,-101c0,0,0,-76,-29,-133c0,0,-28,-58,-77,-96C572,60,524,21,459,2c0,0,-65,-19,-139,-19Z" 
id="f0_2n"
transform="scale(0.001,-0.001)" />

<path d="M164,0c0,0,-25,0,-42,15c0,0,-16,14,-16,47V903c0,0,0,33,16,48c0,0,17,14,42,14H645c0,0,7,0,12,-4c0,0,5,-3,9,-13c0,0,4,-9,6,-24c0,0,2,-14,2,-36c0,0,0,-21,-2,-36c0,0,-2,-14,-6,-23c0,0,-4,-9,-9,-13c0,0,-5,-4,-12,-4H301V576H593c0,0,6,0,12,-4c0,0,6,-4,9,-13c0,0,4,-8,6,-23c0,0,2,-14,2,-35c0,0,0,-22,-2,-36c0,0,-2,-14,-6,-23c0,0,-3,-8,-9,-12c0,0,-6,-4,-12,-4H301V154H649c0,0,6,0,12,-5c0,0,5,-4,9,-13c0,0,4,-9,6,-23c0,0,2,-15,2,-36c0,0,0,-22,-2,-36c0,0,-2,-15,-6,-24c0,0,-4,-9,-9,-13c0,0,-6,-4,-12,-4Z" 
id="f0_t"
transform="scale(0.001,-0.001)" />

<path d="M79,297c0,0,-19,0,-27,18c0,0,-8,17,-8,60c0,0,0,41,8,59c0,0,8,17,27,17H389c0,0,9,0,15,-4c0,0,7,-4,11,-13c0,0,5,-9,7,-23c0,0,1,-15,1,-36c0,0,0,-43,-8,-61c0,0,-8,-17,-26,-17Z" 
id="f0_oj"
transform="scale(0.001,-0.001)" />

<path d="M121,-4c0,0,-39,0,-60,2C61,-2,39,0,32,8c0,0,-8,8,-3,24c0,0,4,15,18,41L279,495L64,892c0,0,-14,26,-19,42c0,0,-5,17,4,24c0,0,9,8,32,10c0,0,23,2,65,2c0,0,35,0,56,-2c0,0,20,-1,32,-4c0,0,12,-4,17,-10c0,0,5,-6,9,-15L431,620L595,939c0,0,5,9,10,15c0,0,5,6,16,10c0,0,10,3,29,4c0,0,19,2,53,2c0,0,37,0,59,-2c0,0,22,-2,30,-10c0,0,8,-8,4,-24c0,0,-4,-16,-17,-42L564,497L793,73c0,0,14,-26,18,-41c0,0,4,-16,-5,-24c0,0,-9,-8,-32,-10c0,0,-24,-2,-65,-2c0,0,-36,0,-56,2c0,0,-20,1,-31,3c0,0,-12,4,-17,10c0,0,-5,6,-9,15L414,374L233,26c0,0,-4,-9,-9,-15c0,0,-6,-6,-17,-10c0,0,-12,-2,-32,-3c0,0,-21,-2,-54,-2Z" 
id="f0_3e"
transform="scale(0.001,-0.001)" />

<path d="M204,-4c0,0,-28,0,-47,2c0,0,-19,2,-31,5c0,0,-11,4,-16,10c0,0,-4,6,-4,13V939c0,0,0,7,4,13c0,0,5,6,17,10c0,0,11,3,30,6c0,0,19,2,47,2c0,0,29,0,48,-2c0,0,18,-3,29,-6c0,0,11,-4,16,-10c0,0,5,-6,5,-13V26c0,0,0,-7,-5,-13c0,0,-5,-6,-16,-10c0,0,-11,-3,-29,-5c0,0,-19,-2,-48,-2Z" 
id="f0_1c"
transform="scale(0.001,-0.001)" />

<path d="M127,0c0,0,-16,0,-28,3C99,3,87,6,80,15c0,0,-8,8,-11,25c0,0,-3,16,-3,42c0,0,0,25,2,42c0,0,2,18,8,32c0,0,6,14,15,27c0,0,9,13,24,29L282,390c0,0,50,53,81,95c0,0,30,43,47,79c0,0,17,35,24,65c0,0,6,30,6,57c0,0,0,24,-8,46c0,0,-8,22,-23,39c0,0,-15,16,-38,25c0,0,-23,10,-55,10c0,0,-44,0,-78,-12c0,0,-33,-11,-59,-25c0,0,-26,-13,-43,-25c0,0,-17,-12,-27,-12c0,0,-7,0,-11,5c0,0,-5,4,-8,15c0,0,-3,10,-5,28c0,0,-2,17,-2,42c0,0,0,18,1,29c0,0,1,12,4,20c0,0,2,9,6,15c0,0,3,6,13,15c0,0,9,9,34,23c0,0,25,14,61,27c0,0,37,14,81,23c0,0,44,9,92,9c0,0,75,0,131,-19c0,0,57,-19,94,-53c0,0,37,-34,55,-81c0,0,19,-47,19,-100c0,0,0,-47,-9,-93c0,0,-9,-45,-37,-98c0,0,-29,-52,-80,-116c0,0,-52,-64,-136,-148L299,159H679c0,0,8,0,14,-4c0,0,6,-5,11,-14c0,0,4,-9,7,-25c0,0,2,-15,2,-36c0,0,0,-22,-2,-37c0,0,-2,-15,-6,-25c0,0,-3,-10,-9,-14c0,0,-6,-4,-14,-4Z" 
id="f0_rz"
transform="scale(0.001,-0.001)" />

<path d="M385,138c0,0,29,0,52,9c0,0,22,10,39,28c0,0,17,19,28,47c0,0,11,29,19,66c0,0,7,37,9,84c0,0,3,47,3,104c0,0,0,69,-4,122c0,0,-4,52,-11,91c0,0,-8,39,-20,66c0,0,-12,27,-28,43c0,0,-16,16,-37,22c0,0,-21,7,-47,7c0,0,-44,0,-73,-21c0,0,-28,-21,-45,-64c0,0,-17,-42,-24,-106c0,0,-6,-63,-6,-148c0,0,0,-103,8,-171c0,0,8,-67,26,-107c0,0,17,-40,45,-56c0,0,27,-16,66,-16ZM378,-17c0,0,-99,0,-164,33c0,0,-65,34,-103,98c0,0,-38,64,-54,156c0,0,-15,92,-15,209c0,0,0,115,19,208c0,0,19,94,61,160c0,0,42,65,110,101c0,0,68,35,165,35c0,0,99,0,164,-34c0,0,65,-34,103,-98c0,0,39,-64,53,-156c0,0,15,-92,15,-209c0,0,0,-115,-18,-209c0,0,-19,-93,-61,-159C653,118,611,53,543,17c0,0,-67,-34,-165,-34Z" 
id="f0_rx"
transform="scale(0.001,-0.001)" />

<path d="M142,0c0,0,-6,0,-12,4c0,0,-5,3,-9,12c0,0,-4,9,-6,23c0,0,-3,15,-3,36c0,0,0,21,2,36c0,0,2,14,6,23c0,0,4,9,10,13c0,0,5,5,12,5H322V779L166,693c0,0,-17,-8,-28,-10c0,0,-1,0,-3,0c-4,0,-10,1,-14,5c0,0,-6,6,-8,22c0,0,-2,15,-2,44c0,0,0,18,0,29c0,0,1,12,4,20c0,0,3,8,8,14c0,0,5,5,14,11L345,962c0,0,4,3,9,5c0,0,6,2,15,3c0,0,9,1,23,2c0,0,15,0,38,0c0,0,28,0,46,-1c0,0,17,-1,26,-4c0,0,9,-3,12,-7c0,0,3,-4,3,-11V152H675c0,0,7,0,12,-5c0,0,6,-4,10,-13c0,0,4,-9,6,-23c0,0,2,-15,2,-36c0,0,0,-21,-2,-36c0,0,-3,-14,-7,-23c0,0,-4,-9,-9,-12c0,0,-5,-4,-12,-4Z" 
id="f0_ry"
transform="scale(0.001,-0.001)" />

<path d="M337,-17c0,0,-50,0,-93,8c0,0,-43,7,-76,16c0,0,-34,11,-55,22c0,0,-22,11,-29,17c0,0,-6,6,-10,13c0,0,-3,8,-6,18c0,0,-2,10,-3,25c0,0,-1,16,-1,37c0,0,0,36,6,50c0,0,6,13,17,13c0,0,8,0,26,-10c0,0,18,-10,47,-21c0,0,28,-12,66,-22c0,0,38,-10,87,-10c0,0,41,0,72,10c0,0,31,9,53,27c0,0,22,17,33,42c0,0,11,25,11,56c0,0,0,34,-13,61c0,0,-13,26,-39,45c0,0,-26,20,-65,30c0,0,-39,10,-92,10H189c0,0,-9,0,-16,3c0,0,-7,3,-11,11c0,0,-5,8,-7,23c0,0,-1,14,-1,37c0,0,0,22,1,36c0,0,2,13,6,21c0,0,4,7,11,10c0,0,6,3,15,3h85c0,0,43,0,77,10c0,0,33,10,56,29c0,0,23,19,35,45c0,0,12,27,12,59c0,0,0,25,-8,47c0,0,-9,22,-25,38c0,0,-16,16,-41,26c0,0,-26,9,-60,9c0,0,-39,0,-73,-11c0,0,-34,-12,-62,-26c0,0,-27,-13,-46,-25c0,0,-19,-12,-28,-12c0,0,-6,0,-10,2c0,0,-5,3,-8,11c0,0,-3,7,-4,21c0,0,-2,14,-2,37c0,0,0,18,1,31c0,0,1,12,3,20c0,0,2,8,5,14c0,0,4,6,11,13c0,0,8,7,31,21c0,0,23,14,58,28c0,0,35,13,81,22c0,0,46,10,100,10c0,0,70,0,124,-17c0,0,54,-16,91,-47c0,0,37,-31,56,-76c0,0,19,-46,19,-102c0,0,0,-44,-11,-83c0,0,-12,-38,-33,-68c0,0,-22,-29,-54,-50c0,0,-33,-21,-75,-32v-2c0,0,50,-6,91,-26c0,0,40,-19,68,-49c0,0,28,-30,43,-68c0,0,15,-37,15,-81c0,0,0,-72,-28,-128c0,0,-27,-56,-77,-94C604,60,555,22,487,2c0,0,-69,-19,-150,-19Z" 
id="f0_s0"
transform="scale(0.001,-0.001)" />

<path d="M589,371L453,782h-1L317,371ZM106,-4c0,0,-35,0,-54,2C52,-2,32,0,25,8c0,0,-7,9,-5,24c0,0,2,16,11,42L329,931c0,0,4,13,10,21c0,0,6,7,19,12c0,0,13,4,36,5c0,0,23,1,61,1c0,0,44,0,71,-1c0,0,26,-1,40,-5c0,0,15,-5,21,-13c0,0,6,-8,11,-22L896,73c0,0,9,-27,11,-43c0,0,3,-15,-6,-23c0,0,-8,-7,-29,-9c0,0,-21,-2,-57,-2c0,0,-38,0,-59,1c0,0,-22,1,-33,4c0,0,-11,3,-16,9c0,0,-4,6,-7,16L635,220H272L211,31c0,0,-2,-11,-7,-18c0,0,-5,-7,-16,-11c0,0,-11,-3,-31,-4c0,0,-19,-2,-51,-2Z" 
id="f0_5"
transform="scale(0.001,-0.001)" />

<path d="M198,-4c0,0,-27,0,-45,2c0,0,-18,2,-28,5c0,0,-11,4,-15,10c0,0,-4,6,-4,13V887c0,0,0,38,20,58c0,0,20,20,53,20H308c0,0,34,0,59,-6c0,0,24,-5,42,-18c0,0,18,-13,30,-35c0,0,12,-21,21,-52L669,279h3L889,852c0,0,9,32,21,53c0,0,11,22,27,35c0,0,15,14,36,19c0,0,21,6,48,6h132c0,0,21,0,35,-5c0,0,15,-5,24,-15c0,0,9,-11,14,-25c0,0,5,-15,5,-33V26c0,0,0,-7,-4,-13c0,0,-4,-6,-15,-10c0,0,-11,-3,-29,-5c0,0,-18,-2,-45,-2c0,0,-27,0,-45,2c0,0,-18,2,-28,5c0,0,-11,4,-15,10c0,0,-5,6,-5,13V813h-1L764,27c0,0,-3,-10,-10,-16c0,0,-6,-6,-18,-10c0,0,-12,-3,-29,-4c0,0,-18,-1,-44,-1c0,0,-25,0,-43,2c0,0,-18,2,-29,5c0,0,-12,4,-19,10c0,0,-6,6,-9,14L293,813h-2V26c0,0,0,-7,-4,-13c0,0,-4,-6,-15,-10c0,0,-11,-3,-29,-5c0,0,-17,-2,-45,-2Z" 
id="f0_1x"
transform="scale(0.001,-0.001)" />

<path d="M193,-4c0,0,-26,0,-43,2c0,0,-18,2,-27,6c0,0,-10,4,-14,10c0,0,-3,6,-3,13V895c0,0,0,35,20,53c0,0,21,17,50,17H282c0,0,28,0,47,-5c0,0,20,-5,35,-16c0,0,15,-11,29,-31c0,0,13,-20,27,-49L608,511c0,0,17,-32,33,-63c0,0,16,-31,31,-62c0,0,14,-31,29,-60c0,0,14,-30,27,-60h1c0,0,-2,52,-3,109c0,0,-1,57,-1,108V936c0,0,0,7,4,13c0,0,5,6,15,11c0,0,10,4,28,6c0,0,17,2,44,2c0,0,25,0,42,-2c0,0,17,-2,27,-6c0,0,9,-5,13,-11c0,0,4,-6,4,-13V68c0,0,0,-17,-6,-30c0,0,-6,-14,-17,-23C879,15,869,6,856,2c0,0,-14,-3,-28,-3H744c0,0,-26,0,-45,4c0,0,-19,5,-35,19c0,0,-16,14,-31,38c0,0,-15,23,-34,60L359,572c0,0,-21,40,-43,86c0,0,-21,47,-38,91h-2c0,0,3,-54,5,-107c0,0,2,-53,2,-110V27c0,0,0,-7,-5,-13c0,0,-4,-6,-14,-10c0,0,-10,-4,-27,-6c0,0,-17,-2,-44,-2Z" 
id="f0_1y"
transform="scale(0.001,-0.001)" />

<path d="M378,-4c0,0,-28,0,-47,2c0,0,-19,2,-31,5c0,0,-11,4,-16,10c0,0,-4,6,-4,13V805H38c0,0,-8,0,-13,4c0,0,-5,5,-9,14c0,0,-3,9,-5,25c0,0,-2,15,-2,37c0,0,0,22,2,38c0,0,2,15,5,25c0,0,4,9,9,13c0,0,5,4,13,4H718c0,0,7,0,12,-4c0,0,6,-4,10,-13c0,0,3,-10,5,-25c0,0,2,-16,2,-38c0,0,0,-22,-2,-37c0,0,-2,-16,-5,-25c0,0,-4,-9,-10,-14c0,0,-5,-4,-12,-4H476V26c0,0,0,-7,-5,-13c0,0,-5,-6,-16,-10c0,0,-11,-3,-30,-5c0,0,-19,-2,-47,-2Z" 
id="f0_2t"
transform="scale(0.001,-0.001)" />

<path d="M514,145c0,0,72,0,121,27c0,0,48,26,78,73c0,0,30,46,42,107c0,0,13,62,13,131c0,0,0,76,-12,139c0,0,-12,62,-41,106c0,0,-29,45,-76,69c0,0,-48,24,-120,24c0,0,-72,0,-120,-27c0,0,-49,-27,-79,-73c0,0,-29,-45,-42,-106c0,0,-12,-61,-12,-129c0,0,0,-79,12,-142c0,0,12,-63,40,-108c0,0,28,-44,76,-68c0,0,48,-23,120,-23ZM508,-17c0,0,-113,0,-196,29c0,0,-84,29,-140,90c0,0,-56,60,-84,154c0,0,-28,93,-28,221c0,0,0,117,29,210c0,0,30,94,89,160c0,0,59,65,146,101c0,0,87,35,202,35c0,0,110,0,194,-29c0,0,84,-30,140,-90c0,0,56,-60,85,-153c0,0,29,-92,29,-217c0,0,0,-120,-30,-215c0,0,-30,-95,-89,-161C855,118,796,52,709,17c0,0,-87,-34,-201,-34Z" 
id="f0_24"
transform="scale(0.001,-0.001)" />

<path d="M407,475c0,0,61,0,105,44c0,0,44,43,44,103c0,0,0,64,-43,108c0,0,-44,43,-109,43c0,0,-57,0,-99,-44c0,0,-42,-45,-42,-107c0,0,0,-62,42,-104c0,0,42,-43,102,-43ZM195,0L430,323c0,0,-67,-8,-85,-8c0,0,-126,0,-212,92c0,0,-87,92,-87,227c0,0,0,141,107,237c0,0,106,96,264,96c0,0,151,0,246,-97c0,0,95,-96,95,-250c0,0,0,-112,-56,-223c0,0,-55,-112,-94,-168L448,0Z" 
id="f1_t"
transform="scale(0.001,-0.001)" />

<path d="M44,-281L425,1053H537L156,-281Z" 
id="f1_j"
transform="scale(0.001,-0.001)" />

<path d="M299,0V777H162l36,173H508V0Z" 
id="f1_l"
transform="scale(0.001,-0.001)" />

<path d="M75,0L400,413c0,0,71,91,101,149c0,0,30,58,30,109c0,0,0,55,-36,91c0,0,-36,36,-91,36c0,0,-63,0,-91,-45c0,0,-28,-46,-34,-142H67c0,0,0,173,102,268c0,0,102,95,253,95c0,0,140,0,229,-82c0,0,89,-82,89,-209c0,0,0,-125,-104,-276L580,324c0,0,-34,-50,-85,-114L468,178H740V0Z" 
id="f1_m"
transform="scale(0.001,-0.001)" />

<path d="M38,0V27H74c0,0,63,0,91,37c0,0,18,24,18,115V833c0,0,0,77,-10,102c0,0,-7,18,-30,32c0,0,-33,18,-69,18H38v27H470V985H434c0,0,-62,0,-90,-37c0,0,-18,-24,-18,-115V179c0,0,0,-77,9,-102c0,0,8,-18,31,-32c0,0,32,-18,68,-18h36V0Z" 
id="f2_19"
transform="scale(0.001,-0.001)" />

<path d="M21,0V26H35c0,0,53,0,71,27c0,0,18,27,18,101V408c0,0,0,123,-5,150c0,0,-6,27,-17,37c0,0,-12,10,-31,10c0,0,-21,0,-50,-11L10,620l206,83h32V558c0,0,120,145,229,145c0,0,56,0,96,-28c0,0,40,-28,64,-92c0,0,16,-45,16,-137V154c0,0,0,-65,11,-88c0,0,8,-19,26,-29c0,0,18,-11,68,-11V0H419V26h14c0,0,47,0,66,15c0,0,20,15,27,43c0,0,3,11,3,70V434c0,0,0,93,-24,135c0,0,-24,42,-81,42c0,0,-88,0,-176,-97V154c0,0,0,-69,9,-86c0,0,10,-21,28,-31c0,0,19,-11,75,-11V0Z" 
id="f2_2a"
transform="scale(0.001,-0.001)" />

<path d="M479,469c0,0,-4,66,-16,93c0,0,-18,42,-55,65c0,0,-37,24,-78,24c0,0,-62,0,-111,-48c0,0,-48,-48,-57,-134ZM355,-20c0,0,-123,0,-211,95c0,0,-87,96,-87,258c0,0,0,175,90,273c0,0,89,98,225,98c0,0,115,0,189,-76c0,0,74,-75,74,-202H162c0,0,0,-152,74,-239c0,0,75,-86,175,-86c0,0,67,0,117,36c0,0,50,37,83,127l24,-15c0,0,-16,-102,-91,-186c0,0,-76,-83,-189,-83Z" 
id="f2_21"
transform="scale(0.001,-0.001)" />

<path d="M17,0V26c0,0,52,0,77,17c0,0,19,12,26,38c0,0,4,13,4,73V419c0,0,0,119,-5,142c0,0,-4,23,-17,33c0,0,-13,11,-33,11c0,0,-23,0,-52,-11l-7,26l207,83h31V549c0,0,86,154,176,154c0,0,41,0,68,-25c0,0,27,-25,27,-58c0,0,0,-29,-20,-49c0,0,-19,-20,-46,-20c0,0,-26,0,-58,25c0,0,-33,26,-48,26c0,0,-14,0,-29,-15c0,0,-34,-30,-70,-101V159c0,0,0,-56,15,-85c0,0,9,-20,34,-34c0,0,24,-14,71,-14V0Z" 
id="f2_2e"
transform="scale(0.001,-0.001)" />

<path d="M55,0V26c0,0,50,0,67,10c0,0,17,10,27,32c0,0,10,23,10,86V418c0,0,0,111,-6,144c0,0,-6,24,-17,33c0,0,-11,10,-30,10c0,0,-21,0,-51,-11L45,620l206,83h33V154c0,0,0,-64,9,-85c0,0,9,-22,27,-32c0,0,19,-11,67,-11V0ZM222,909c0,0,-32,0,-54,23c0,0,-22,22,-22,53c0,0,0,32,22,54c0,0,22,22,54,22c0,0,31,0,53,-22c0,0,22,-22,22,-54c0,0,0,-31,-22,-53c0,0,-22,-23,-53,-23Z" 
id="f2_25"
transform="scale(0.001,-0.001)" />

<path d="M255,-10c0,0,-35,0,-68,18c0,0,-32,19,-48,55c0,0,-16,35,-16,109V632H15v24c0,0,41,16,84,56c0,0,43,39,77,92c0,0,17,29,48,104h23V683H407V632H247V188c0,0,0,-66,19,-90c0,0,19,-23,49,-23c0,0,24,0,47,16c0,0,23,15,36,45h29c0,0,-26,-73,-74,-110c0,0,-47,-36,-98,-36Z" 
id="f2_2g"
transform="scale(0.001,-0.001)" />

<path d="M411,-239c0,0,134,0,198,48c0,0,64,47,64,100c0,0,0,39,-38,55c0,0,-39,16,-154,19c0,0,-167,5,-258,17c0,0,-35,-37,-53,-70c0,0,-17,-32,-17,-60c0,0,0,-36,43,-62c0,0,74,-47,215,-47ZM380,257c0,0,56,0,93,43c0,0,36,42,36,133c0,0,0,118,-51,185c0,0,-38,49,-98,49c0,0,-55,0,-92,-44c0,0,-37,-44,-37,-135c0,0,0,-117,50,-182c0,0,39,-49,99,-49ZM345,-328c0,0,-144,0,-243,64c0,0,-56,38,-56,78c0,0,0,18,8,36c0,0,13,27,52,76c0,0,5,7,76,80c0,0,-39,23,-55,41c0,0,-16,19,-16,42c0,0,0,26,22,61c0,0,21,35,98,100c0,0,-63,30,-97,85c0,0,-33,55,-33,121c0,0,0,101,76,174c0,0,77,73,196,73c0,0,98,0,170,-48H688c0,0,32,0,37,-2c0,0,6,-2,8,-6c0,0,4,-7,4,-24c0,0,0,-20,-4,-27c0,0,-2,-4,-7,-6c0,0,-6,-2,-38,-2H599c0,0,41,-54,41,-137c0,0,0,-96,-73,-163c0,0,-73,-68,-196,-68c0,0,-51,0,-104,15c0,0,-33,-28,-44,-49c0,0,-12,-22,-12,-37c0,0,0,-12,13,-24c0,0,12,-12,48,-17c0,0,21,-4,104,-6c0,0,154,-4,199,-11c0,0,70,-10,111,-51c0,0,42,-41,42,-102c0,0,0,-84,-79,-158c0,0,-117,-108,-304,-108Z" 
id="f2_23"
transform="scale(0.001,-0.001)" />

<path d="M292,-20c0,0,-57,0,-100,33c0,0,-42,33,-58,85c0,0,-17,52,-17,148V551c0,0,0,49,-10,68c0,0,-11,18,-31,29c0,0,-19,9,-68,9c-2,0,-4,0,-6,0v26H242V226c0,0,0,-95,33,-125c0,0,33,-30,80,-30c0,0,32,0,73,21c0,0,40,20,96,76V555c0,0,0,59,-21,80c0,0,-22,21,-89,22v26H647V269c0,0,0,-119,6,-145c0,0,6,-27,18,-37c0,0,12,-11,29,-11c0,0,23,0,52,13L763,63L558,-20H524V124C524,124,436,29,390,4c0,0,-47,-24,-98,-24Z" 
id="f2_2h"
transform="scale(0.001,-0.001)" />

<path d="M23,0V26c0,0,47,0,66,10c0,0,19,11,28,33c0,0,10,22,10,85V416c0,0,0,112,-7,145c0,0,-5,25,-16,34c0,0,-11,10,-31,10c0,0,-21,0,-50,-11L12,620l207,83h32V557c0,0,75,75,88,86c0,0,34,29,72,44c0,0,39,16,77,16c0,0,64,0,110,-37c0,0,47,-38,62,-109c0,0,77,90,130,118c0,0,53,28,109,28c0,0,54,0,96,-28c0,0,42,-28,67,-91c0,0,16,-43,16,-136V154c0,0,0,-64,10,-88c0,0,8,-16,28,-28c0,0,20,-12,65,-12V0H844V26h14c0,0,44,0,69,18c0,0,17,12,24,38c0,0,3,13,3,72V448c0,0,0,83,-20,117c0,0,-29,48,-93,48c0,0,-39,0,-79,-20c0,0,-40,-19,-97,-73l-1,-8l2,-32V154c0,0,0,-70,8,-87c0,0,7,-17,29,-29c0,0,21,-12,73,-12V0H431V26c0,0,57,0,78,14c0,0,21,13,29,40c0,0,4,13,4,74V448c0,0,0,83,-25,120c0,0,-33,48,-91,48c0,0,-40,0,-80,-22c0,0,-61,-33,-95,-74V154c0,0,0,-67,10,-87c0,0,9,-20,27,-30c0,0,18,-11,74,-11V0Z" 
id="f2_29"
transform="scale(0.001,-0.001)" />

<path d="M1102,116c0,0,70,150,148,231H59v75H1250c0,0,-57,73,-80,108c0,0,-22,35,-66,123h57c0,0,99,-108,171,-164c0,0,72,-57,137,-84V371c0,0,-74,-36,-144,-91c0,0,-69,-56,-165,-164Z" 
id="f2_8r"
transform="scale(0.001,-0.001)" />

<path d="M253,0V27h36c0,0,64,0,91,39c0,0,16,24,16,109V948H274c0,0,-71,0,-100,-10c0,0,-39,-14,-67,-54c0,0,-27,-41,-33,-109H46l12,237H883L894,775H865c0,0,-8,62,-22,89c0,0,-23,43,-61,64c0,0,-39,20,-101,20H539V175c0,0,0,-93,20,-116c0,0,28,-32,87,-32h36V0Z" 
id="f2_1k"
transform="scale(0.001,-0.001)" />

<path d="M286,72c0,0,57,0,149,75V407c0,0,-113,-45,-145,-64c0,0,-59,-32,-85,-68c0,0,-25,-36,-25,-78c0,0,0,-54,32,-89c0,0,32,-36,74,-36ZM217,-13c0,0,-71,0,-116,48c0,0,-46,48,-46,127c0,0,0,50,22,87c0,0,31,50,106,95c0,0,76,45,252,109v26c0,0,0,102,-32,140c0,0,-32,38,-94,38c0,0,-47,0,-74,-25c0,0,-28,-25,-28,-58l1,-43c0,0,0,-34,-17,-53c0,0,-18,-18,-47,-18c0,0,-28,0,-45,19c0,0,-18,19,-18,53c0,0,0,64,66,117c0,0,65,54,184,54c0,0,91,0,149,-31c0,0,44,-23,65,-72c0,0,13,-32,13,-131V238c0,0,0,-98,4,-120c0,0,4,-22,12,-29c0,0,9,-8,20,-8c0,0,12,0,21,5c0,0,16,10,61,55V99C676,99,592,-12,516,-12c0,0,-37,0,-58,24c0,0,-22,26,-23,86C435,98,330,17,303,5c0,0,-40,-18,-86,-18Z" 
id="f2_1x"
transform="scale(0.001,-0.001)" />

<path d="M548,-21c0,0,-251,0,-389,185C159,164,56,303,56,490c0,0,0,152,68,278c0,0,67,127,186,197c0,0,119,69,260,69c0,0,109,0,216,-53c0,0,31,-17,44,-17c0,0,20,0,35,14c0,0,20,21,28,56h26L943,690H919c0,0,-46,155,-131,224c0,0,-86,68,-206,68c0,0,-100,0,-181,-51c0,0,-81,-52,-128,-163c0,0,-46,-112,-46,-279c0,0,0,-137,44,-238c0,0,44,-101,132,-154c0,0,88,-54,201,-54c0,0,99,0,174,42c0,0,75,42,165,167l23,-14C966,238,890,103,789,40c0,0,-102,-61,-241,-61Z" 
id="f2_13"
transform="scale(0.001,-0.001)" />

<path d="M20,0V26c0,0,45,0,71,15c0,0,15,7,24,28c0,0,9,21,9,85V773c0,0,0,117,-5,144c0,0,-6,27,-17,37c0,0,-12,9,-31,9c0,0,-16,0,-51,-12L10,978l204,83h34V561c0,0,83,91,131,116c0,0,49,26,97,26c0,0,58,0,100,-32c0,0,42,-32,62,-101c0,0,14,-47,14,-174V154c0,0,0,-65,11,-89c0,0,7,-18,25,-28c0,0,18,-11,66,-11V0H418V26h15c0,0,48,0,67,15c0,0,18,15,26,43c0,0,2,12,2,70V396c0,0,0,112,-12,147c0,0,-11,35,-36,53c0,0,-26,17,-61,17c0,0,-37,0,-76,-19c0,0,-40,-20,-95,-79V154c0,0,0,-70,8,-87c0,0,8,-17,29,-29c0,0,22,-12,74,-12V0Z" 
id="f2_24"
transform="scale(0.001,-0.001)" />

<path d="M58,0V26c0,0,47,0,64,10c0,0,18,10,28,32c0,0,9,23,9,86V775c0,0,0,116,-5,142c0,0,-5,27,-17,37c0,0,-11,9,-29,9c0,0,-20,0,-49,-12L46,978l204,83h34V154c0,0,0,-64,9,-85c0,0,9,-21,29,-32c0,0,19,-11,72,-11V0Z" 
id="f2_28"
transform="scale(0.001,-0.001)" />

<path d="M30,0V27L485,632H260c0,0,-72,0,-94,-10c0,0,-22,-9,-36,-35c0,0,-20,-37,-23,-92H76l5,188H654V656L196,51H445c0,0,79,0,106,13c0,0,28,13,45,46c0,0,12,23,21,100h25L634,0Z" 
id="f2_2m"
transform="scale(0.001,-0.001)" />

<path d="M435,502c0,0,78,0,134,60c0,0,57,60,57,155c0,0,0,66,-27,122c0,0,-27,56,-76,84c0,0,-50,28,-112,28c0,0,-38,0,-98,-14V517c0,0,39,-8,70,-12c0,0,31,-3,52,-3ZM25,0V27H63c0,0,65,0,92,42c0,0,15,23,15,110V833c0,0,0,96,-20,119c0,0,-29,33,-87,33H25v27H396c0,0,136,0,214,-28c0,0,78,-28,132,-94c0,0,54,-67,54,-158c0,0,0,-124,-82,-202c0,0,-82,-77,-231,-77c0,0,-36,0,-79,5c0,0,-43,5,-91,16V179c0,0,0,-96,21,-119c0,0,28,-33,85,-33h39V0Z" 
id="f2_1g"
transform="scale(0.001,-0.001)" />

<path d="M312,-20c0,0,-62,0,-143,22c0,0,-25,8,-40,8c0,0,-18,0,-27,-19H77V234h25c0,0,21,-105,80,-158c0,0,59,-53,132,-53c0,0,51,0,84,31c0,0,32,30,32,72c0,0,0,52,-36,87c0,0,-36,35,-144,88c0,0,-109,54,-142,97c0,0,-34,43,-34,107c0,0,0,85,58,141c0,0,58,57,150,57c0,0,40,0,97,-17c0,0,38,-11,51,-11c0,0,12,0,19,5c0,0,7,5,15,23h25V470H464c0,0,-28,110,-72,149c0,0,-45,40,-113,40c0,0,-53,0,-85,-28c0,0,-32,-27,-32,-61c0,0,0,-41,24,-71c0,0,23,-31,94,-65L389,381c0,0,152,-74,152,-194c0,0,0,-94,-71,-151c0,0,-70,-56,-158,-56Z" 
id="f2_2f"
transform="scale(0.001,-0.001)" />

<path d="M25,0V27H61c0,0,64,0,91,39c0,0,16,24,16,109V837c0,0,0,67,-15,97c0,0,-10,22,-38,36c0,0,-28,15,-90,15v27H312L678,220l363,792h285V985h-35c0,0,-64,0,-91,-39c0,0,-17,-24,-17,-109V175c0,0,0,-93,21,-116c0,0,28,-32,87,-32h35V0H898V27h36c0,0,64,0,90,39c0,0,17,24,17,109V852L649,0H625L234,852V175c0,0,0,-93,20,-116c0,0,27,-32,87,-32h35V0Z" 
id="f2_1d"
transform="scale(0.001,-0.001)" />

<path d="M342,-20c0,0,-116,0,-203,97c0,0,-86,98,-86,264c0,0,0,161,96,261c0,0,95,101,230,101c0,0,100,0,165,-53c0,0,65,-54,65,-111c0,0,0,-29,-18,-46c0,0,-18,-18,-51,-18c0,0,-44,0,-66,29c0,0,-13,15,-17,59c0,0,-4,45,-30,68c0,0,-26,22,-73,22c0,0,-74,0,-120,-55c0,0,-60,-73,-60,-193c0,0,0,-122,60,-216c0,0,60,-93,162,-93c0,0,73,0,131,49c0,0,41,35,80,126l22,-10C629,261,601,125,521,52c0,0,-81,-72,-179,-72Z" 
id="f2_1z"
transform="scale(0.001,-0.001)" />

<path d="M406,32c0,0,72,0,119,60c0,0,47,59,47,205c0,0,0,181,-78,286c0,0,-53,71,-135,71c0,0,-40,0,-79,-23c0,0,-40,-24,-65,-83c0,0,-24,-58,-24,-151c0,0,0,-149,59,-257c0,0,59,-108,156,-108ZM374,-20c0,0,-154,0,-245,122c0,0,-77,104,-77,233c0,0,0,94,46,187c0,0,47,92,123,137c0,0,76,44,161,44c0,0,155,0,249,-118c0,0,80,-100,80,-231c0,0,0,-91,-44,-185C667,169,623,75,546,27c0,0,-77,-47,-172,-47Z" 
id="f2_2b"
transform="scale(0.001,-0.001)" />

<path d="M398,24c0,0,74,0,120,58c0,0,61,76,61,214c0,0,0,156,-69,240c0,0,-47,59,-113,59c0,0,-36,0,-71,-18c0,0,-27,-14,-88,-81V242c0,0,0,-83,6,-109c0,0,11,-43,51,-76c0,0,41,-33,103,-33ZM-4,-326v27H15c5,0,42,0,69,16c0,0,14,8,22,26c0,0,7,19,7,94V481c0,0,0,67,-6,85c0,0,-5,18,-18,27c0,0,-13,9,-36,9c0,0,-18,0,-45,-10L0,615l209,85h29V540c0,0,53,91,106,127c0,0,53,36,112,36c0,0,103,0,172,-80c0,0,84,-99,84,-257c0,0,0,-176,-102,-292c0,0,-83,-94,-210,-94c0,0,-55,0,-95,16c0,0,-30,10,-67,44V-167c0,0,0,-71,8,-90c0,0,9,-20,30,-31c0,0,21,-11,77,-11v-27Z" 
id="f2_2c"
transform="scale(0.001,-0.001)" />

<path d="M145,-328c0,0,-44,0,-73,25c0,0,-28,25,-28,58c0,0,0,31,21,50c0,0,20,19,56,19c0,0,25,0,67,-16c0,0,30,-11,38,-11c0,0,22,0,49,23c0,0,26,23,53,89L376,28L131,542c0,0,-11,24,-36,58c0,0,-19,27,-30,36c0,0,-18,12,-56,21v26H328V657H312c0,0,-33,0,-50,-15c0,0,-17,-14,-17,-36c0,0,0,-30,25,-81L437,179L589,557c0,0,12,31,12,62c0,0,0,13,-5,20c0,0,-6,8,-19,13c0,0,-12,5,-44,5v26H754V657c0,0,-27,-3,-42,-12c0,0,-15,-9,-33,-34c0,0,-7,-10,-25,-58L376,-128c0,0,-40,-99,-105,-150c0,0,-66,-50,-126,-50Z" 
id="f2_2l"
transform="scale(0.001,-0.001)" />

<path d="M911,-16L244,799V175c0,0,0,-93,21,-116c0,0,28,-32,86,-32h36V0H36V27H71c0,0,65,0,92,39c0,0,16,24,16,109V879c0,0,-44,52,-67,68c0,0,-23,17,-67,31c0,0,-21,7,-64,7v27H253L873,253V837c0,0,0,93,-21,116c0,0,-28,32,-87,32H730v27h351V985h-36c0,0,-64,0,-91,-39c0,0,-16,-24,-16,-109V-16Z" 
id="f2_1e"
transform="scale(0.001,-0.001)" />

<path d="M678,393L506,802L330,393ZM11,0V27c0,0,63,12,82,30c0,0,38,35,84,145l356,832h27L912,193c0,0,43,-101,77,-132c0,0,35,-30,97,-34V0H687V27c0,0,60,3,82,21c0,0,21,17,21,41c0,0,0,33,-30,104L700,338H307L239,179c0,0,-26,-59,-26,-88c0,0,0,-23,22,-41c0,0,22,-17,95,-23V0Z" 
id="f2_11"
transform="scale(0.001,-0.001)" />

<path d="M397,34c0,0,67,0,126,75c0,0,58,74,58,216c0,0,0,131,-58,201c0,0,-59,70,-133,70c0,0,-39,0,-79,-20c0,0,-29,-14,-75,-59V109c0,0,37,-37,78,-56c0,0,40,-19,83,-19ZM358,-20c0,0,-59,0,-121,21c0,0,-61,22,-126,65V773c0,0,0,117,-5,144c0,0,-6,27,-18,37c0,0,-12,9,-29,9c0,0,-21,0,-53,-12l-9,27l205,83h34V564c0,0,98,139,213,139c0,0,105,0,183,-90c0,0,78,-90,78,-245c0,0,0,-182,-121,-293c0,0,-103,-95,-231,-95Z" 
id="f2_1y"
transform="scale(0.001,-0.001)" />

<path d="M399,62c0,0,68,0,131,68V481c0,0,-5,51,-27,93c0,0,-22,42,-59,63c0,0,-37,21,-72,21c0,0,-65,0,-117,-59c0,0,-67,-77,-67,-226c0,0,0,-151,65,-231c0,0,66,-80,146,-80ZM330,-20c0,0,-112,0,-196,93c0,0,-83,94,-83,240c0,0,0,147,92,269c0,0,93,122,238,122c0,0,90,0,149,-58V773c0,0,0,117,-6,144c0,0,-5,27,-17,37c0,0,-12,9,-30,9c0,0,-20,0,-52,-12l-9,27l204,83h33V270c0,0,0,-120,6,-146c0,0,5,-27,18,-37c0,0,12,-11,28,-11c0,0,21,0,54,13l9,-26L564,-20H530V78C530,78,480,25,432,2c0,0,-47,-22,-102,-22Z" 
id="f2_20"
transform="scale(0.001,-0.001)" />

<path d="M485,53c0,0,135,0,206,61c0,0,71,60,71,150c0,0,0,59,-32,114c0,0,-33,54,-105,85c0,0,-72,32,-179,32c0,0,-46,0,-79,-2c0,0,-33,-1,-53,-5V73c0,0,86,-20,171,-20ZM455,547c0,0,109,0,164,23c0,0,55,24,84,72c0,0,29,49,29,106c0,0,0,89,-72,151c0,0,-73,63,-212,63c0,0,-74,0,-134,-16V557c0,0,27,-5,63,-8c0,0,35,-2,78,-2ZM24,0V27H63c0,0,63,0,91,41c0,0,17,26,17,111V833c0,0,0,94,-22,119c0,0,-29,33,-86,33H24v27H462c0,0,122,0,196,-18c0,0,112,-27,171,-95c0,0,59,-68,59,-157c0,0,0,-76,-46,-136c0,0,-47,-60,-137,-89c0,0,105,-23,157,-72c0,0,73,-69,73,-168c0,0,0,-75,-48,-145C887,132,839,63,756,32C756,32,673,0,502,0Z" 
id="f2_12"
transform="scale(0.001,-0.001)" />

<path d="M63,0V26H93c0,0,30,0,54,15c0,0,25,15,34,41c0,0,10,25,10,99V630H58v53H191v45c0,0,0,102,33,173c0,0,32,71,100,114c0,0,68,44,152,44c0,0,79,0,145,-51c0,0,43,-33,43,-75c0,0,0,-22,-19,-42c0,0,-20,-20,-42,-20c0,0,-17,0,-36,12c0,0,-19,13,-47,53c0,0,-28,41,-51,55c0,0,-23,14,-51,14c0,0,-35,0,-58,-18c0,0,-24,-18,-35,-57c0,0,-10,-38,-10,-197V683H491V630H315V181c0,0,0,-96,21,-122c0,0,27,-33,73,-33h62V0Z" 
id="f2_22"
transform="scale(0.001,-0.001)" />

<path d="M31,0V27H67c0,0,36,0,68,18c0,0,24,12,32,36c0,0,9,24,9,98V836c0,0,0,96,-19,119c0,0,-27,30,-90,30H31v27H811L822,790H792c0,0,-15,80,-34,110c0,0,-19,30,-57,46c0,0,-29,11,-105,11H319V557H541c0,0,87,0,116,26c0,0,39,35,44,121h27V352H701c0,0,-11,74,-21,95c0,0,-14,26,-45,41c0,0,-30,15,-94,15H319V168c0,0,0,-67,6,-81c0,0,6,-15,21,-24c0,0,15,-8,56,-8H574c0,0,86,0,124,12c0,0,39,12,75,47c0,0,46,46,95,139h30L811,0Z" 
id="f2_15"
transform="scale(0.001,-0.001)" />

<path d="M399,-14c0,0,-341,0,-341,370c0,0,0,175,87,269c0,0,87,95,249,95c0,0,101,0,220,-23V501H573L541,625c0,0,-62,35,-149,35c0,0,-200,0,-200,-304c0,0,0,-158,61,-225c0,0,61,-67,189,-67c0,0,109,0,189,24V43C631,43,595,16,530,1c0,0,-64,-15,-131,-15Z" 
id="f3_1z"
transform="scale(0.001,-0.001)" />

<path d="M551,45c0,0,171,0,252,108c0,0,82,108,82,349c0,0,0,239,-81,344c0,0,-81,105,-253,105c0,0,-172,0,-252,-105c0,0,-80,-105,-80,-344c0,0,0,-241,80,-349c0,0,81,-108,252,-108Zm0,-59c0,0,-238,0,-363,129C188,115,63,245,63,501c0,0,0,510,488,510c0,0,242,0,366,-129c0,0,124,-130,124,-381c0,0,0,-255,-126,-385C915,116,790,-14,551,-14Z" 
id="f3_1f"
transform="scale(0.001,-0.001)" />

<path d="M448,506c0,0,134,0,190,49c0,0,57,50,57,168c0,0,0,114,-56,162c0,0,-56,48,-195,48H316V506ZM777,0L496,438H316V60L468,40V0H54V40L172,60V941L44,960v40H476c0,0,188,0,277,-63c0,0,90,-64,90,-204c0,0,0,-100,-54,-173c0,0,-55,-73,-151,-101L909,60L1017,40V0Z" 
id="f3_1i"
transform="scale(0.001,-0.001)" />

<path d="M460,-325c0,0,-148,79,-231,172c0,0,-84,93,-123,217c0,0,-39,126,-39,304c0,0,0,178,39,303c0,0,39,125,122,217c0,0,82,93,232,172V997c0,0,-91,-52,-145,-134c0,0,-54,-81,-79,-190c0,0,-25,-109,-25,-305c0,0,0,-194,26,-309c0,0,26,-114,82,-193c0,0,56,-79,141,-128v-63Z" 
id="f3_c"
transform="scale(0.001,-0.001)" />

<path d="M284,67c0,0,51,0,88,12c0,0,37,12,74,30V358l-98,-3c0,0,-100,-4,-135,-39c0,0,-35,-35,-35,-117c0,0,0,-132,106,-132ZM233,-14c0,0,-179,0,-179,208c0,0,0,70,27,116c0,0,27,46,87,70c0,0,60,24,173,27l105,3V519c0,0,0,72,-26,107c0,0,-27,34,-82,34c0,0,-75,0,-137,-35L176,538H134V691c0,0,121,26,213,26c0,0,115,0,169,-47c0,0,54,-47,54,-144V52L657,33V0H465L451,70c0,0,-85,-84,-218,-84Z" 
id="f3_1x"
transform="scale(0.001,-0.001)" />

<path d="M49,-325v63c0,0,85,49,140,128c0,0,56,79,83,194c0,0,26,115,26,308c0,0,0,196,-25,305c0,0,-25,109,-79,190c0,0,-54,82,-145,134v63c0,0,149,-80,232,-172c0,0,83,-92,122,-217c0,0,39,-125,39,-303c0,0,0,-177,-39,-303c0,0,-39,-125,-122,-217c0,0,-83,-93,-232,-173Z" 
id="f3_d"
transform="scale(0.001,-0.001)" />

<path d="M376,50c0,0,103,0,149,80c0,0,46,81,46,240c0,0,0,137,-47,204c0,0,-48,67,-148,67c0,0,-44,0,-87,-7c0,0,-44,-8,-63,-17V62c0,0,63,-12,150,-12Zm3,-64c0,0,-64,0,-141,14c0,0,-78,14,-136,37v971L0,1026v34H226V809c0,0,0,-40,-4,-148c0,0,74,59,188,59c0,0,143,0,219,-87c0,0,77,-87,77,-263c0,0,0,-189,-84,-287c0,0,-84,-97,-243,-97Z" 
id="f3_1y"
transform="scale(0.001,-0.001)" />

<path d="M36,0V54L154,74V926L26,945v55H860V731H790L766,908c0,0,-36,5,-121,8c0,0,-84,2,-133,2H389V508H633l23,127h67V298H656L633,426H389V74L556,54V0Z" 
id="f4_16"
transform="scale(0.001,-0.001)" />

<path d="M410,-14c0,0,-86,0,-175,14C235,0,145,14,81,38V307h66L181,146c0,0,31,-37,94,-62c0,0,64,-24,132,-24c0,0,214,0,214,177c0,0,0,55,-41,93c0,0,-41,38,-128,68c0,0,-128,42,-185,68c0,0,-56,27,-95,63c0,0,-38,36,-62,87c0,0,-23,51,-23,125c0,0,0,132,90,201c0,0,90,69,263,69c0,0,125,0,278,-32V741H651L618,878c0,0,-76,56,-178,56c0,0,-92,0,-141,-34c0,0,-49,-34,-49,-104c0,0,0,-50,41,-86c0,0,41,-35,128,-63c0,0,171,-56,235,-97c0,0,64,-41,97,-103c0,0,34,-61,34,-143c0,0,0,-318,-375,-318Z" 
id="f4_1j"
transform="scale(0.001,-0.001)" />

<path d="M26,0V55L154,74V926L26,946v54H518V946L389,926V555H798V926L670,946v54h493V946L1034,926V74L1163,55V0H670V55L798,74V473H389V74L518,55V0Z" 
id="f4_18"
transform="scale(0.001,-0.001)" />

<path d="M211,-20c0,0,-39,0,-64,25c0,0,-26,27,-26,64c0,0,0,38,26,64c0,0,26,26,64,26c0,0,37,0,64,-25c0,0,26,-26,26,-65c0,0,0,-37,-26,-64c0,0,-26,-25,-64,-25Zm0,556c0,0,-38,0,-64,26c0,0,-26,26,-26,64c0,0,0,37,26,64c0,0,25,27,64,27c0,0,38,0,64,-27c0,0,26,-27,26,-64c0,0,0,-38,-26,-64c0,0,-27,-26,-64,-26Z" 
id="f3_u"
transform="scale(0.001,-0.001)" />

<path d="M536,63c0,0,127,0,191,54c0,0,63,54,63,168c0,0,0,105,-70,154c0,0,-70,49,-225,49H316V67c0,0,103,-4,220,-4ZM480,555c0,0,121,0,178,48c0,0,57,48,57,155c0,0,0,91,-58,133c0,0,-57,42,-186,42H316V555ZM554,-4L235,0H44V40L172,60V941L44,960v40H501c0,0,191,0,279,-56c0,0,88,-56,88,-179c0,0,0,-88,-55,-149c0,0,-54,-62,-151,-83c0,0,135,-14,209,-79c0,0,73,-65,73,-166c0,0,0,-144,-99,-219C845,69,745,-4,554,-4Z" 
id="f3_12"
transform="scale(0.001,-0.001)" />

<path d="M32,0V33L151,52V649L52,668v33H275V52L395,33V0ZM201,850c0,0,-32,0,-56,24c0,0,-24,24,-24,56c0,0,0,34,24,58c0,0,24,24,56,24c0,0,34,0,58,-24c0,0,24,-24,24,-58c0,0,0,-32,-24,-56c0,0,-24,-24,-58,-24Z" 
id="f3_25"
transform="scale(0.001,-0.001)" />

<path d="M439,0V33l93,19V500c0,0,0,62,-30,97c0,0,-31,36,-94,36c0,0,-67,0,-165,-22V52L338,33V0H35V33l84,19V649L35,668v33H235l7,-57c0,0,57,33,122,54c0,0,65,22,108,22c0,0,91,0,137,-53c0,0,47,-53,47,-154V52L741,33V0Z" 
id="f3_2a"
transform="scale(0.001,-0.001)" />

<path d="M383,64c0,0,85,0,152,28V645c0,0,-67,13,-152,13c0,0,-194,0,-194,-314c0,0,0,-141,48,-211c0,0,48,-69,146,-69ZM342,-14c0,0,-287,0,-287,358c0,0,0,184,82,280c0,0,81,96,239,96c0,0,81,0,163,-18c0,0,-4,25,-4,124v182l-118,18v34H659V52L745,33V0H548l-9,52c0,0,-84,-66,-197,-66Z" 
id="f3_20"
transform="scale(0.001,-0.001)" />

<path d="M278,-14c0,0,-52,0,-115,11c0,0,-63,10,-99,23V193H98L134,95c0,0,56,-50,146,-50c0,0,144,0,144,123c0,0,0,91,-114,130l-66,21c0,0,-75,25,-110,50c0,0,-34,26,-53,63c0,0,-18,36,-18,89c0,0,0,92,63,145c0,0,63,54,170,54c0,0,77,0,193,-23V544H454l-32,81c0,0,-39,35,-124,35c0,0,-61,0,-92,-30c0,0,-32,-30,-32,-80c0,0,0,-43,29,-72c0,0,28,-29,86,-48c0,0,110,-38,144,-55c0,0,33,-17,57,-42c0,0,23,-25,36,-57c0,0,13,-32,13,-79c0,0,0,-104,-66,-158c0,0,-66,-53,-195,-53Z" 
id="f3_2f"
transform="scale(0.001,-0.001)" />

<path d="M327,-14L84,649L1,668v33H335V668L219,648L385,174L554,632h63L786,171L944,649L830,668v33h267V668l-78,-16L784,-14H726L553,448L382,-14Z" 
id="f3_2j"
transform="scale(0.001,-0.001)" />

<path d="M249,-14c0,0,-71,0,-107,42c0,0,-35,42,-35,119V639H15v33l93,29l76,159h47V701H391V639H231V161c0,0,0,-48,22,-73c0,0,22,-24,57,-24c0,0,44,0,106,12V26C416,26,389,8,340,-2c0,0,-49,-12,-91,-12Z" 
id="f3_2g"
transform="scale(0.001,-0.001)" />

<path d="M442,0V33l93,19V504c0,0,0,129,-124,129c0,0,-70,0,-168,-22V52L338,33V0H31V33l88,19v956L15,1026v34H243V756c0,0,0,-77,-5,-112c0,0,54,31,122,53c0,0,68,23,115,23c0,0,91,0,137,-53c0,0,47,-53,47,-154V52L744,33V0Z" 
id="f3_24"
transform="scale(0.001,-0.001)" />

<path d="M54,0V40L172,60V941L44,960v40H794V760H745L721,922c0,0,-83,11,-241,11H316V516H611l23,120h46V328H634L611,449H316V60L483,40V0Z" 
id="f3_16"
transform="scale(0.001,-0.001)" />

<path d="M410,-14c0,0,-80,0,-162,14c0,0,-81,14,-144,38V270h48L178,134c0,0,28,-35,95,-62c0,0,68,-27,134,-27c0,0,104,0,163,53c0,0,58,54,58,148c0,0,0,54,-23,89c0,0,-22,35,-59,59c0,0,-37,24,-84,41c0,0,-47,17,-97,34c0,0,-49,17,-96,38c0,0,-47,21,-84,53c0,0,-37,32,-60,79c0,0,-23,48,-23,117c0,0,0,119,90,187c0,0,89,68,248,68c0,0,121,0,263,-32V771H654L628,893c0,0,-76,55,-188,55c0,0,-100,0,-156,-40c0,0,-56,-41,-56,-112c0,0,0,-49,22,-81c0,0,23,-32,60,-55c0,0,37,-22,84,-39c0,0,48,-16,97,-34c0,0,50,-17,97,-39c0,0,48,-22,85,-56c0,0,36,-34,59,-83c0,0,23,-49,23,-120c0,0,0,-145,-89,-224c0,0,-89,-79,-256,-79Z" 
id="f3_1j"
transform="scale(0.001,-0.001)" />

<path d="M44,0V40L172,60V941L44,960v40H445V960L316,941V549H787V941L659,960v40h400V960L930,941V60L1059,40V0H659V40L787,60V481H316V60L445,40V0Z" 
id="f3_18"
transform="scale(0.001,-0.001)" />

<path d="M31,0V33l88,19V649L31,668v33H235l7,-87c0,0,44,37,121,71c0,0,76,35,121,35h11V530H463l-43,82c0,0,-37,0,-88,-10c0,0,-52,-10,-89,-26V52L363,33V0Z" 
id="f3_2e"
transform="scale(0.001,-0.001)" />

<path d="M495,413c0,0,0,133,-34,190c0,0,-34,57,-105,57c0,0,-78,0,-119,-63c0,0,-42,-62,-42,-184ZM374,-14c0,0,-163,0,-239,87c0,0,-75,88,-75,283c0,0,0,183,77,273c0,0,76,91,219,91c0,0,269,0,269,-306V353H194V340c0,0,0,-103,23,-160c0,0,22,-57,70,-87c0,0,47,-29,124,-29c0,0,40,0,96,6c0,0,55,7,91,15V43C598,43,562,20,500,3c0,0,-61,-17,-126,-17Z" 
id="f3_21"
transform="scale(0.001,-0.001)" />

<path d="M382,45c0,0,188,0,188,314c0,0,0,143,-47,213c0,0,-46,69,-141,69c0,0,-87,0,-146,-24V58c0,0,67,-13,146,-13ZM25,-325v35l88,18V649L34,668v33H231l1,-41c0,0,31,27,84,43c0,0,53,17,107,17c0,0,134,0,208,-94c0,0,73,-93,73,-267c0,0,0,-178,-80,-276c0,0,-80,-97,-232,-97c0,0,-84,0,-160,16c0,0,4,-53,4,-84V-272l123,-18v-35Z" 
id="f3_2c"
transform="scale(0.001,-0.001)" />

<path d="M377,45c0,0,99,0,147,73c0,0,47,73,47,237c0,0,0,161,-47,233c0,0,-47,72,-147,72c0,0,-97,0,-141,-69c0,0,-44,-69,-44,-236c0,0,0,-169,45,-240c0,0,44,-70,140,-70Zm0,-59c0,0,-158,0,-238,94c0,0,-81,95,-81,274c0,0,0,178,81,272c0,0,80,94,244,94c0,0,160,0,241,-92c0,0,82,-92,82,-274c0,0,0,-368,-329,-368Z" 
id="f3_2b"
transform="scale(0.001,-0.001)" />

<path d="M31,0V33L150,52v956L31,1026v34H274V52L394,33V0Z" 
id="f3_28"
transform="scale(0.001,-0.001)" />

<path d="M431,0V33L535,52V499c0,0,0,62,-32,96c0,0,-32,33,-95,33c0,0,-66,0,-163,-22V52L350,33V0H32V33l89,19V649L32,668v33H237l6,-57c0,0,56,32,119,54c0,0,62,22,110,22c0,0,52,0,95,-20c0,0,44,-19,66,-62c0,0,57,32,134,57c0,0,77,25,128,25c0,0,179,0,179,-207V52l90,-19V0H846V33L950,52V499c0,0,0,129,-119,129c0,0,-19,0,-45,-3c0,0,-26,-3,-52,-7c0,0,-25,-4,-49,-8c0,0,-23,-5,-39,-8c0,0,13,-41,13,-89V52L764,33V0Z" 
id="f3_29"
transform="scale(0.001,-0.001)" />

<path d="M64,0V34L168,59V639H47v36l121,29v49c0,0,0,155,61,239c0,0,62,84,173,84c0,0,58,0,107,-15V908H472l-33,92c0,0,-26,16,-62,16c0,0,-47,0,-66,-42c0,0,-19,-42,-19,-157V701H478V639H292V59L443,34V0Z" 
id="f3_22"
transform="scale(0.001,-0.001)" />

<path d="M289,-14c0,0,-179,0,-179,205V649L20,668v33H233V200c0,0,0,-128,120,-128c0,0,92,0,173,23V649L420,668v33H649V52L738,33V0H533l-6,57C527,57,474,28,405,7c0,0,-69,-21,-116,-21Z" 
id="f3_2h"
transform="scale(0.001,-0.001)" />

<path d="M191,-20c0,0,-39,0,-65,25c0,0,-25,27,-25,64c0,0,0,38,26,64c0,0,26,26,64,26c0,0,38,0,64,-26c0,0,26,-26,26,-64c0,0,0,-37,-25,-64c0,0,-26,-25,-65,-25Z" 
id="f3_i"
transform="scale(0.001,-0.001)" />

<path d="M235,0V40L394,60V936H356c0,0,-189,0,-258,-15L78,766H28v234H908V766H857L837,921c0,0,-22,5,-98,9c0,0,-75,4,-165,4H538V60L697,40V0Z" 
id="f3_1k"
transform="scale(0.001,-0.001)" />

<path d="M359,-270c0,0,124,0,192,46c0,0,67,47,67,129c0,0,0,43,-26,67c0,0,-26,24,-79,24H242c0,0,-32,-27,-51,-69c0,0,-20,-41,-20,-77c0,0,0,-64,46,-92c0,0,46,-28,142,-28Zm11,561c0,0,81,0,115,47c0,0,34,47,34,141c0,0,0,100,-35,142c0,0,-35,42,-113,42c0,0,-78,0,-114,-43c0,0,-37,-42,-37,-141c0,0,0,-98,36,-143c0,0,36,-45,114,-45ZM359,-329c0,0,-143,0,-218,44c0,0,-75,43,-75,125c0,0,0,39,27,78c0,0,26,38,98,89c0,0,-43,14,-72,48c0,0,-29,35,-29,74L208,262c0,0,-118,55,-118,217c0,0,0,115,73,178c0,0,73,63,211,63c0,0,28,0,71,-6c0,0,44,-6,67,-13l165,83l26,-32L599,644c0,0,50,-56,50,-165c0,0,0,-120,-72,-182c0,0,-73,-62,-208,-62c0,0,-62,0,-114,11L208,148c0,0,2,-13,29,-24c0,0,27,-12,67,-12H512c0,0,113,0,168,-49c0,0,55,-49,55,-134c0,0,0,-79,-44,-137c0,0,-43,-58,-128,-90c0,0,-84,-31,-204,-31Z" 
id="f3_23"
transform="scale(0.001,-0.001)" />

<path d="M360,-14L72,649L0,668v33H327V668L216,648L420,164L615,649L504,668v33H764V668L697,652L416,-14Z" 
id="f3_2i"
transform="scale(0.001,-0.001)" />

<path d="M681,416L504,902L333,416ZM669,0V40L803,60L704,348H310L210,60L344,40V0H15V40L128,60l341,949H611L965,60L1092,40V0Z" 
id="f3_11"
transform="scale(0.001,-0.001)" />

<path d="M394,460c0,0,126,0,186,57c0,0,60,57,60,187c0,0,0,123,-57,176c0,0,-58,53,-194,53H316V460ZM54,0V40L172,60V941L44,960v40H421c0,0,368,0,368,-295c0,0,0,-153,-93,-233c0,0,-93,-80,-267,-80H316V60L475,40V0Z" 
id="f3_1g"
transform="scale(0.001,-0.001)" />

<path d="M639,416L478,858L313,416ZM647,0V54L762,74L667,333H283L191,74L319,54V0H15V54L90,74l355,935H662L1016,74l76,-20V0Z" 
id="f4_11"
transform="scale(0.001,-0.001)" />

<path d="M559,77c0,0,87,0,129,53c0,0,42,53,42,162c0,0,0,99,-49,147c0,0,-50,49,-163,49H389V82c0,0,108,-5,170,-5ZM499,570c0,0,80,0,118,42c0,0,38,42,38,141c0,0,0,88,-38,126c0,0,-37,39,-124,39H389V570ZM561,-3L221,0H25V54L154,74V926L25,945v55H511c0,0,199,0,294,-53c0,0,95,-53,95,-173c0,0,0,-89,-56,-154c0,0,-56,-65,-150,-85c0,0,139,-14,211,-76c0,0,71,-61,71,-167c0,0,0,-146,-107,-221C869,71,762,-3,561,-3Z" 
id="f4_12"
transform="scale(0.001,-0.001)" />

<path d="M452,474c0,0,104,0,151,52c0,0,47,53,47,178c0,0,0,119,-45,167c0,0,-44,47,-156,47H390V474ZM36,0V54L154,74V926L26,945v55H467c0,0,213,0,318,-71c0,0,105,-71,105,-224c0,0,0,-313,-366,-313H390V74L557,54V0Z" 
id="f4_1g"
transform="scale(0.001,-0.001)" />

<path d="M577,-14c0,0,-243,0,-379,132C198,118,63,250,63,488c0,0,0,258,130,391c0,0,131,132,387,132c0,0,156,0,335,-38l5,-218H871L848,884c0,0,-52,32,-121,50c0,0,-69,17,-141,17c0,0,-191,0,-279,-112c0,0,-88,-113,-88,-349c0,0,0,-217,92,-332c0,0,92,-115,268,-115c0,0,85,0,160,20c0,0,76,21,120,55l27,149h49L930,32c0,0,-164,-46,-353,-46Z" 
id="f3_13"
transform="scale(0.001,-0.001)" />

<path d="M26,0V54L154,74V926L27,945v55H544V945L389,926V79H593c0,0,159,0,234,15l61,208h67L927,0Z" 
id="f4_1c"
transform="scale(0.001,-0.001)" />

<path d="M-14,-14L336,1006H440L90,-14Z" 
id="f4_j"
transform="scale(0.001,-0.001)" />

<path d="M51,0V55L180,74V926L51,946v54H543V946L415,926V74L543,55V0Z" 
id="f4_19"
transform="scale(0.001,-0.001)" />

<path d="M608,-14c0,0,-251,0,-392,133C216,119,75,252,75,488c0,0,0,257,134,390c0,0,135,133,398,133c0,0,174,0,361,-50l4,-240H905L884,866c0,0,-98,67,-229,67c0,0,-173,0,-253,-108c0,0,-80,-108,-80,-334c0,0,0,-209,84,-319c0,0,83,-109,243,-109c0,0,84,0,147,22c0,0,63,22,99,53l24,164h68L982,48C982,48,915,22,808,4C808,4,700,-14,608,-14Z" 
id="f4_13"
transform="scale(0.001,-0.001)" />

<path d="M248,-20c0,0,-52,0,-87,34c0,0,-36,36,-36,88c0,0,0,52,36,88c0,0,35,36,87,36c0,0,52,0,88,-36c0,0,36,-36,36,-88c0,0,0,-51,-36,-87c0,0,-35,-35,-88,-35Zm0,488c0,0,-52,0,-87,36c0,0,-36,36,-36,88c0,0,0,52,35,88c0,0,35,36,88,36c0,0,53,0,89,-36c0,0,35,-37,35,-88c0,0,0,-51,-36,-87c0,0,-35,-37,-88,-37Z" 
id="f4_u"
transform="scale(0.001,-0.001)" />

<path d="M57,302V417H454V302Z" 
id="f3_h"
transform="scale(0.001,-0.001)" />

<path d="M55,0V40L184,60V941L55,960v40H455V960L327,941V60L455,40V0Z" 
id="f3_19"
transform="scale(0.001,-0.001)" />

<path d="M148,-329c0,0,-58,0,-114,13v151H69l24,-71c0,0,23,-17,64,-17c0,0,39,0,72,22c0,0,33,23,60,67c0,0,27,44,68,157L90,649L19,668v33H344V668L233,648L423,158L606,649L497,668v33H758V668L685,652L411,-43c0,0,-48,-124,-84,-177c0,0,-36,-54,-79,-82c0,0,-44,-27,-100,-27Z" 
id="f3_2l"
transform="scale(0.001,-0.001)" />

<path d="M44,0V40L172,60V941L44,960v40H471V960L316,941V65H513c0,0,159,0,234,14l46,208h48L828,0Z" 
id="f3_1c"
transform="scale(0.001,-0.001)" />

<path d="M110,641L64,1000H211L165,641Z" 
id="f3_b"
transform="scale(0.001,-0.001)" />

<path d="M134,0V40L339,60V876L137,804v39l292,166h39V60L672,40V0Z" 
id="f3_l"
transform="scale(0.001,-0.001)" />

<path d="M377,45c0,0,99,0,145,108c0,0,46,109,46,352c0,0,0,240,-45,345c0,0,-46,106,-146,106c0,0,-97,0,-139,-100c0,0,-43,-99,-43,-351c0,0,0,-254,44,-357c0,0,43,-103,138,-103Zm0,-59c0,0,-158,0,-238,132c0,0,-81,133,-81,386c0,0,0,249,81,380c0,0,80,132,244,132c0,0,159,0,241,-130c0,0,82,-130,82,-382c0,0,0,-518,-329,-518Z" 
id="f3_k"
transform="scale(0.001,-0.001)" />

<path d="M41,0V49l69,18V634L41,652v49H313l11,-61l50,26c0,0,105,54,188,54c0,0,194,0,194,-207V67L827,49V0H478V49l63,18V484c0,0,0,63,-27,98c0,0,-26,35,-75,35c0,0,-57,0,-114,-25V67L389,49V0Z" 
id="f4_2a"
transform="scale(0.001,-0.001)" />

<path d="M41,0V49l69,18V992l-72,18v50H325V756c0,0,0,-49,-4,-116l51,26c0,0,106,54,190,54c0,0,194,0,194,-207V67L827,49V0H478V49l63,18V484c0,0,0,63,-27,98c0,0,-26,35,-75,35c0,0,-57,0,-114,-25V67L389,49V0Z" 
id="f4_24"
transform="scale(0.001,-0.001)" />

<path d="M34,0V49l76,18V634L38,652v49H325V67L402,49V0ZM217,831c0,0,-48,0,-81,33c0,0,-34,33,-34,82c0,0,0,48,34,81c0,0,34,33,81,33c0,0,48,0,81,-33c0,0,33,-33,33,-81c0,0,0,-47,-33,-81c0,0,-32,-34,-81,-34Z" 
id="f4_25"
transform="scale(0.001,-0.001)" />

<path d="M424,64c0,0,74,0,109,71c0,0,36,72,36,236c0,0,0,137,-34,201c0,0,-34,65,-111,65c0,0,-29,0,-62,-7c0,0,-34,-6,-55,-19V76c0,0,47,-12,117,-12Zm21,-78c0,0,-121,0,-354,50V994l-72,18v48H307V802c0,0,0,-69,-8,-141c0,0,30,25,86,42c0,0,57,17,110,17c0,0,153,0,223,-84c0,0,70,-83,70,-266c0,0,0,-180,-90,-283C698,87,608,-14,445,-14Z" 
id="f4_1y"
transform="scale(0.001,-0.001)" />

<path d="M13,0V34L95,46L325,350L122,649L40,668v33H357V668L264,648L399,446L554,649l-96,19v33H710V668L630,652L433,397L663,50L745,34V0H427V34l94,17L359,299L169,50L266,34V0Z" 
id="f3_2k"
transform="scale(0.001,-0.001)" />

<path d="M477,0V33l64,19L348,354L257,254V52L331,33V0H44V33l89,19v956L29,1026v34H257V338L544,647l-73,20v34H718V667L631,650L431,446L688,50L764,33V0Z" 
id="f3_27"
transform="scale(0.001,-0.001)" />

<path d="M58,-234v58c0,0,131,42,131,125c0,0,0,15,-11,27c0,0,-11,12,-38,25C140,1,89,27,89,75c0,0,0,40,25,61c0,0,26,21,65,21c0,0,48,0,77,-34c0,0,30,-34,30,-86c0,0,0,-101,-60,-170c0,0,-59,-69,-168,-101Z" 
id="f3_g"
transform="scale(0.001,-0.001)" />

<path d="M210,132c0,0,-41,0,-68,29c0,0,-27,28,-27,72c0,0,0,45,27,73c0,0,27,29,68,29c0,0,41,0,69,-29c0,0,27,-28,27,-73c0,0,0,-44,-27,-72c0,0,-28,-29,-69,-29Zm455,0c0,0,-41,0,-68,29c0,0,-27,28,-27,72c0,0,0,45,27,73c0,0,27,29,68,29c0,0,41,0,69,-29c0,0,27,-28,27,-73c0,0,0,-44,-27,-72c0,0,-28,-29,-69,-29ZM438,539c0,0,-41,0,-68,28c0,0,-28,29,-28,73c0,0,0,44,28,73c0,0,27,29,68,29c0,0,41,0,68,-29c0,0,27,-29,27,-73c0,0,0,-44,-27,-73c0,0,-27,-28,-68,-28Z" 
id="f5_16e"
transform="scale(0.001,-0.001)" />


</defs>
</svg>