<?xml version="1.0" encoding="UTF-8" standalone="no"?>
<!DOCTYPE svg PUBLIC "-//W3C//DTD SVG 1.1//EN"
"http://www.w3.org/Graphics/SVG/1.1/DTD/svg11.dtd">
<svg viewBox="0 0 909 1286" version="1.1" xmlns="http://www.w3.org/2000/svg" xmlns:xlink="http://www.w3.org/1999/xlink">
<defs>
<style type="text/css"><![CDATA[
.g0_35{
fill: #D9D9D9;
}
.g1_35{
fill: none;
stroke: #000000;
stroke-width: 0.7638889;
stroke-linecap: butt;
stroke-linejoin: miter;
}
.g2_35{
}
]]></style>
</defs>
<image preserveAspectRatio="none" x="748" y="1196" width="94" height="58" xlink:href="img/1.png" />
<image preserveAspectRatio="none" x="336" y="42" width="259" height="49" xlink:href="img/2.png" />
<image preserveAspectRatio="none" x="342" y="50" width="247" height="27" xlink:href="img/3.png" />
<image preserveAspectRatio="none" x="341" y="46" width="238" height="41" xlink:href="img/4.png" />
<g fill="#FFFFFF" >
<use xlink:href="#f0_j" transform="matrix(11.5,0,0,11.5,354.9,70)" />
<use xlink:href="#f0_i" transform="matrix(11.5,0,0,11.5,364.2,70)" />
<use xlink:href="#f0_2n" transform="matrix(11.5,0,0,11.5,374.1,70)" />
<use xlink:href="#f0_t" transform="matrix(11.5,0,0,11.5,382.4,70)" />
<use xlink:href="#f0_oj" transform="matrix(11.5,0,0,11.5,391,70)" />
<use xlink:href="#f0_3e" transform="matrix(11.5,0,0,11.5,396.3,70)" />
<use xlink:href="#f0_1c" transform="matrix(11.5,0,0,11.5,406,70)" />
<use xlink:href="#f0_1c" transform="matrix(11.5,0,0,11.5,410.7,70)" />
<use xlink:href="#f0_oj" transform="matrix(11.5,0,0,11.5,415.4,70)" />
<use xlink:href="#f0_rz" transform="matrix(11.5,0,0,11.5,420.8,70)" />
<use xlink:href="#f0_rx" transform="matrix(11.5,0,0,11.5,429.7,70)" />
<use xlink:href="#f0_ry" transform="matrix(11.5,0,0,11.5,438.6,70)" />
<use xlink:href="#f0_s3" transform="matrix(11.5,0,0,11.5,447.4,70)" />
<use xlink:href="#f0_t" transform="matrix(11.5,0,0,11.5,460.2,70)" />
<use xlink:href="#f0_3e" transform="matrix(11.5,0,0,11.5,468.8,70)" />
<use xlink:href="#f0_5" transform="matrix(11.5,0,0,11.5,478.5,70)" />
<use xlink:href="#f0_1x" transform="matrix(11.5,0,0,11.5,489.2,70)" />
<use xlink:href="#f0_1c" transform="matrix(11.5,0,0,11.5,504.6,70)" />
<use xlink:href="#f0_1y" transform="matrix(11.5,0,0,11.5,509.3,70)" />
<use xlink:href="#f0_5" transform="matrix(11.5,0,0,11.5,520.9,70)" />
<use xlink:href="#f0_2t" transform="matrix(11.5,0,0,11.5,531.5,70)" />
<use xlink:href="#f0_1c" transform="matrix(11.5,0,0,11.5,540.2,70)" />
<use xlink:href="#f0_24" transform="matrix(11.5,0,0,11.5,544.9,70)" />
<use xlink:href="#f0_1y" transform="matrix(11.5,0,0,11.5,556.8,70)" />
</g>
<image preserveAspectRatio="none" x="554" y="46" width="36" height="41" xlink:href="img/5.png" />
<g fill="#FFFFFF" >
<use xlink:href="#f1_t" transform="matrix(11,0,0,11,770.1,1227.7)" />
<use xlink:href="#f1_j" transform="matrix(11,0,0,11,783.5,1227.7)" />
<use xlink:href="#f1_l" transform="matrix(11,0,0,11,794.1,1227.7)" />
<use xlink:href="#f1_k" transform="matrix(11,0,0,11,803,1227.7)" />
</g>
<path fill-rule="evenodd" d="M52.7,1193.2H856.9v-.7H52.7v.7Z" class="g0_35" />
<path d="M37.9,99.4L873,98.5" class="g1_35" />
<g fill="#000000" >
<use xlink:href="#f2_c" transform="matrix(12,0,0,12,55,532.9)" />
<use xlink:href="#f2_1y" transform="matrix(12,0,0,12,61.1,532.9)" />
<use xlink:href="#f2_d" transform="matrix(12,0,0,12,70.3,532.9)" />
<use xlink:href="#f2_24" transform="matrix(12,0,0,12,81,532.9)" />
<use xlink:href="#f2_2a" transform="matrix(12,0,0,12,90.2,532.9)" />
<use xlink:href="#f2_1i" transform="matrix(12,0,0,12,99.3,532.9)" />
<use xlink:href="#f2_1e" transform="matrix(12,0,0,12,111.6,532.9)" />
<use xlink:href="#f2_11" transform="matrix(12,0,0,12,124.7,532.9)" />
<use xlink:href="#f2_2h" transform="matrix(12,0,0,12,142.6,532.9)" />
<use xlink:href="#f2_2a" transform="matrix(12,0,0,12,151.7,532.9)" />
<use xlink:href="#f2_20" transform="matrix(12,0,0,12,160.9,532.9)" />
<use xlink:href="#f2_21" transform="matrix(12,0,0,12,170.1,532.9)" />
<use xlink:href="#f2_2e" transform="matrix(12,0,0,12,178.2,532.9)" />
<use xlink:href="#f2_23" transform="matrix(12,0,0,12,184.4,532.9)" />
<use xlink:href="#f2_2b" transform="matrix(12,0,0,12,193.5,532.9)" />
<use xlink:href="#f2_21" transform="matrix(12,0,0,12,202.7,532.9)" />
<use xlink:href="#f2_2f" transform="matrix(12,0,0,12,210.8,532.9)" />
<use xlink:href="#f2_2f" transform="matrix(12,0,0,12,222.5,532.9)" />
<use xlink:href="#f2_2c" transform="matrix(12,0,0,12,229.7,532.9)" />
<use xlink:href="#f2_28" transform="matrix(12,0,0,12,238.8,532.9)" />
<use xlink:href="#f2_25" transform="matrix(12,0,0,12,243.9,532.9)" />
<use xlink:href="#f2_1z" transform="matrix(12,0,0,12,249,532.9)" />
<use xlink:href="#f2_25" transform="matrix(12,0,0,12,257.2,532.9)" />
<use xlink:href="#f2_2a" transform="matrix(12,0,0,12,262.3,532.9)" />
<use xlink:href="#f2_23" transform="matrix(12,0,0,12,271.4,532.9)" />
<use xlink:href="#f2_2j" transform="matrix(12,0,0,12,285.2,532.9)" />
<use xlink:href="#f2_24" transform="matrix(12,0,0,12,298.4,532.9)" />
<use xlink:href="#f2_21" transform="matrix(12,0,0,12,307.6,532.9)" />
<use xlink:href="#f2_2e" transform="matrix(12,0,0,12,315.7,532.9)" />
<use xlink:href="#f2_21" transform="matrix(12,0,0,12,321.8,532.9)" />
<use xlink:href="#f2_25" transform="matrix(12,0,0,12,334.5,532.9)" />
<use xlink:href="#f2_2a" transform="matrix(12,0,0,12,339.6,532.9)" />
<use xlink:href="#f2_2g" transform="matrix(12,0,0,12,348.7,532.9)" />
<use xlink:href="#f2_2e" transform="matrix(12,0,0,12,353.8,532.9)" />
<use xlink:href="#f2_2b" transform="matrix(12,0,0,12,360,532.9)" />
<use xlink:href="#f2_2a" transform="matrix(12,0,0,12,369.1,532.9)" />
<use xlink:href="#f2_2f" transform="matrix(12,0,0,12,378.3,532.9)" />
<use xlink:href="#f2_1x" transform="matrix(12,0,0,12,390,532.9)" />
<use xlink:href="#f2_2e" transform="matrix(12,0,0,12,398.2,532.9)" />
<use xlink:href="#f2_21" transform="matrix(12,0,0,12,404.3,532.9)" />
<use xlink:href="#f2_2e" transform="matrix(12,0,0,12,416.9,532.9)" />
<use xlink:href="#f2_21" transform="matrix(12,0,0,12,423,532.9)" />
<use xlink:href="#f2_29" transform="matrix(12,0,0,12,431.2,532.9)" />
<use xlink:href="#f2_2b" transform="matrix(12,0,0,12,445.3,532.9)" />
<use xlink:href="#f2_2i" transform="matrix(12,0,0,12,454.5,532.9)" />
<use xlink:href="#f2_21" transform="matrix(12,0,0,12,463.6,532.9)" />
<use xlink:href="#f2_20" transform="matrix(12,0,0,12,471.8,532.9)" />
<use xlink:href="#f2_1x" transform="matrix(12,0,0,12,485.5,532.9)" />
<use xlink:href="#f2_2a" transform="matrix(12,0,0,12,493.7,532.9)" />
<use xlink:href="#f2_20" transform="matrix(12,0,0,12,502.8,532.9)" />
<use xlink:href="#f2_21" transform="matrix(12,0,0,12,516.6,532.9)" />
<use xlink:href="#f2_2k" transform="matrix(12,0,0,12,524.7,532.9)" />
<use xlink:href="#f2_2b" transform="matrix(12,0,0,12,533.9,532.9)" />
<use xlink:href="#f2_2a" transform="matrix(12,0,0,12,543.1,532.9)" />
<use xlink:href="#f2_2f" transform="matrix(12,0,0,12,552.2,532.9)" />
<use xlink:href="#f2_1x" transform="matrix(12,0,0,12,564,532.9)" />
<use xlink:href="#f2_2e" transform="matrix(12,0,0,12,572.1,532.9)" />
<use xlink:href="#f2_21" transform="matrix(12,0,0,12,578.3,532.9)" />
<use xlink:href="#f2_26" transform="matrix(12,0,0,12,590.9,532.9)" />
<use xlink:href="#f2_2b" transform="matrix(12,0,0,12,596,532.9)" />
<use xlink:href="#f2_25" transform="matrix(12,0,0,12,605.1,532.9)" />
<use xlink:href="#f2_2a" transform="matrix(12,0,0,12,610.2,532.9)" />
<use xlink:href="#f2_21" transform="matrix(12,0,0,12,619.4,532.9)" />
<use xlink:href="#f2_20" transform="matrix(12,0,0,12,627.5,532.9)" />
<use xlink:href="#f2_25" transform="matrix(12,0,0,12,641.3,532.9)" />
<use xlink:href="#f2_2a" transform="matrix(12,0,0,12,646.4,532.9)" />
<use xlink:href="#f2_1x" transform="matrix(12,0,0,12,660.2,532.9)" />
<use xlink:href="#f2_20" transform="matrix(12,0,0,12,672.9,532.9)" />
<use xlink:href="#f2_21" transform="matrix(12,0,0,12,682,532.9)" />
<use xlink:href="#f2_22" transform="matrix(12,0,0,12,690.2,532.9)" />
<use xlink:href="#f2_25" transform="matrix(12,0,0,12,696.3,532.9)" />
<use xlink:href="#f2_2a" transform="matrix(12,0,0,12,701.4,532.9)" />
<use xlink:href="#f2_21" transform="matrix(12,0,0,12,710.5,532.9)" />
<use xlink:href="#f2_20" transform="matrix(12,0,0,12,718.7,532.9)" />
<use xlink:href="#f2_2b" transform="matrix(12,0,0,12,732.4,532.9)" />
<use xlink:href="#f2_2e" transform="matrix(12,0,0,12,741.6,532.9)" />
<use xlink:href="#f2_20" transform="matrix(12,0,0,12,747.7,532.9)" />
<use xlink:href="#f2_21" transform="matrix(12,0,0,12,756.9,532.9)" />
<use xlink:href="#f2_2e" transform="matrix(12,0,0,12,765,532.9)" />
<use xlink:href="#f2_24" transform="matrix(12,0,0,12,775.9,532.9)" />
<use xlink:href="#f2_2a" transform="matrix(12,0,0,12,785,532.9)" />
<use xlink:href="#f2_1i" transform="matrix(12,0,0,12,794.2,532.9)" />
<use xlink:href="#f2_1e" transform="matrix(12,0,0,12,806.4,532.9)" />
<use xlink:href="#f2_11" transform="matrix(12,0,0,12,819.6,532.9)" />
<use xlink:href="#f2_2h" transform="matrix(12,0,0,12,55,555.6)" />
<use xlink:href="#f2_2a" transform="matrix(12,0,0,12,64.2,555.6)" />
<use xlink:href="#f2_20" transform="matrix(12,0,0,12,73.3,555.6)" />
<use xlink:href="#f2_21" transform="matrix(12,0,0,12,82.5,555.6)" />
<use xlink:href="#f2_2e" transform="matrix(12,0,0,12,90.6,555.6)" />
<use xlink:href="#f2_23" transform="matrix(12,0,0,12,96.8,555.6)" />
<use xlink:href="#f2_2b" transform="matrix(12,0,0,12,105.9,555.6)" />
<use xlink:href="#f2_21" transform="matrix(12,0,0,12,115.1,555.6)" />
<use xlink:href="#f2_2f" transform="matrix(12,0,0,12,123.3,555.6)" />
<use xlink:href="#f2_1x" transform="matrix(12,0,0,12,135,555.6)" />
<use xlink:href="#f2_20" transform="matrix(12,0,0,12,143.1,555.6)" />
<use xlink:href="#f2_20" transform="matrix(12,0,0,12,152.3,555.6)" />
<use xlink:href="#f2_25" transform="matrix(12,0,0,12,161.4,555.6)" />
<use xlink:href="#f2_2g" transform="matrix(12,0,0,12,166.5,555.6)" />
<use xlink:href="#f2_25" transform="matrix(12,0,0,12,171.6,555.6)" />
<use xlink:href="#f2_2b" transform="matrix(12,0,0,12,176.8,555.6)" />
<use xlink:href="#f2_2a" transform="matrix(12,0,0,12,186,555.6)" />
<use xlink:href="#f2_1x" transform="matrix(12,0,0,12,195,555.6)" />
<use xlink:href="#f2_28" transform="matrix(12,0,0,12,203.2,555.6)" />
<use xlink:href="#f2_2c" transform="matrix(12,0,0,12,212.9,555.6)" />
<use xlink:href="#f2_2e" transform="matrix(12,0,0,12,222,555.6)" />
<use xlink:href="#f2_2b" transform="matrix(12,0,0,12,228.1,555.6)" />
<use xlink:href="#f2_1z" transform="matrix(12,0,0,12,237.3,555.6)" />
<use xlink:href="#f2_21" transform="matrix(12,0,0,12,245.4,555.6)" />
<use xlink:href="#f2_2f" transform="matrix(12,0,0,12,253.6,555.6)" />
<use xlink:href="#f2_2f" transform="matrix(12,0,0,12,260.7,555.6)" />
<use xlink:href="#f2_25" transform="matrix(12,0,0,12,267.9,555.6)" />
<use xlink:href="#f2_2a" transform="matrix(12,0,0,12,273,555.6)" />
<use xlink:href="#f2_23" transform="matrix(12,0,0,12,282.2,555.6)" />
<use xlink:href="#f2_25" transform="matrix(12,0,0,12,295.8,555.6)" />
<use xlink:href="#f2_i" transform="matrix(12,0,0,12,300.9,555.6)" />
<use xlink:href="#f2_21" transform="matrix(12,0,0,12,305.5,555.6)" />
<use xlink:href="#f2_1z" transform="matrix(12,0,0,12,318.2,555.6)" />
<use xlink:href="#f2_1x" transform="matrix(12,0,0,12,326.4,555.6)" />
<use xlink:href="#f2_2c" transform="matrix(12,0,0,12,334.5,555.6)" />
<use xlink:href="#f2_2c" transform="matrix(12,0,0,12,343.7,555.6)" />
<use xlink:href="#f2_25" transform="matrix(12,0,0,12,352.9,555.6)" />
<use xlink:href="#f2_2a" transform="matrix(12,0,0,12,358,555.6)" />
<use xlink:href="#f2_23" transform="matrix(12,0,0,12,367.1,555.6)" />
<use xlink:href="#f2_c" transform="matrix(12,0,0,12,380.9,555.6)" />
<use xlink:href="#f2_1x" transform="matrix(12,0,0,12,391.5,555.6)" />
<use xlink:href="#f2_20" transform="matrix(12,0,0,12,399.7,555.6)" />
<use xlink:href="#f2_20" transform="matrix(12,0,0,12,408.8,555.6)" />
<use xlink:href="#f2_25" transform="matrix(12,0,0,12,417.9,555.6)" />
<use xlink:href="#f2_2g" transform="matrix(12,0,0,12,423,555.6)" />
<use xlink:href="#f2_25" transform="matrix(12,0,0,12,428.2,555.6)" />
<use xlink:href="#f2_2b" transform="matrix(12,0,0,12,433.3,555.6)" />
<use xlink:href="#f2_2a" transform="matrix(12,0,0,12,442.4,555.6)" />
<use xlink:href="#f2_2b" transform="matrix(12,0,0,12,456.2,555.6)" />
<use xlink:href="#f2_22" transform="matrix(12,0,0,12,465.4,555.6)" />
<use xlink:href="#f2_29" transform="matrix(12,0,0,12,476,555.6)" />
<use xlink:href="#f2_21" transform="matrix(12,0,0,12,490.1,555.6)" />
<use xlink:href="#f2_2g" transform="matrix(12,0,0,12,498.4,555.6)" />
<use xlink:href="#f2_24" transform="matrix(12,0,0,12,503.5,555.6)" />
<use xlink:href="#f2_2l" transform="matrix(12,0,0,12,512.6,555.6)" />
<use xlink:href="#f2_28" transform="matrix(12,0,0,12,521.8,555.6)" />
<use xlink:href="#f2_23" transform="matrix(12,0,0,12,531.5,555.6)" />
<use xlink:href="#f2_2h" transform="matrix(12,0,0,12,540.7,555.6)" />
<use xlink:href="#f2_1x" transform="matrix(12,0,0,12,549.9,555.6)" />
<use xlink:href="#f2_2a" transform="matrix(12,0,0,12,558,555.6)" />
<use xlink:href="#f2_2b" transform="matrix(12,0,0,12,567.2,555.6)" />
<use xlink:href="#f2_2f" transform="matrix(12,0,0,12,576.3,555.6)" />
<use xlink:href="#f2_25" transform="matrix(12,0,0,12,583.4,555.6)" />
<use xlink:href="#f2_2a" transform="matrix(12,0,0,12,588.5,555.6)" />
<use xlink:href="#f2_21" transform="matrix(12,0,0,12,597.6,555.6)" />
<use xlink:href="#f2_2g" transform="matrix(12,0,0,12,610.6,555.6)" />
<use xlink:href="#f2_2e" transform="matrix(12,0,0,12,615.7,555.6)" />
<use xlink:href="#f2_25" transform="matrix(12,0,0,12,621.8,555.6)" />
<use xlink:href="#f2_2c" transform="matrix(12,0,0,12,626.9,555.6)" />
<use xlink:href="#f2_24" transform="matrix(12,0,0,12,636,555.6)" />
<use xlink:href="#f2_2b" transform="matrix(12,0,0,12,645.2,555.6)" />
<use xlink:href="#f2_2f" transform="matrix(12,0,0,12,654.4,555.6)" />
<use xlink:href="#f2_2c" transform="matrix(12,0,0,12,661.5,555.6)" />
<use xlink:href="#f2_24" transform="matrix(12,0,0,12,670.7,555.6)" />
<use xlink:href="#f2_1x" transform="matrix(12,0,0,12,679.8,555.6)" />
<use xlink:href="#f2_2g" transform="matrix(12,0,0,12,687.9,555.6)" />
<use xlink:href="#f2_21" transform="matrix(12,0,0,12,693,555.6)" />
<use xlink:href="#f2_2g" transform="matrix(12,0,0,12,705.8,555.6)" />
<use xlink:href="#f2_2b" transform="matrix(12,0,0,12,710.9,555.6)" />
<use xlink:href="#f2_2g" transform="matrix(12,0,0,12,724.6,555.6)" />
<use xlink:href="#f2_24" transform="matrix(12,0,0,12,729.7,555.6)" />
<use xlink:href="#f2_21" transform="matrix(12,0,0,12,738.8,555.6)" />
<use xlink:href="#f2_p" transform="matrix(12,0,0,12,751.6,555.6)" />
<use xlink:href="#f2_b" transform="matrix(12,0,0,12,760.7,555.6)" />
<use xlink:href="#f2_21" transform="matrix(12,0,0,12,764,555.6)" />
<use xlink:href="#f2_2a" transform="matrix(12,0,0,12,772.2,555.6)" />
<use xlink:href="#f2_20" transform="matrix(12,0,0,12,781.3,555.6)" />
<use xlink:href="#f2_d" transform="matrix(12,0,0,12,790.5,555.6)" />
<use xlink:href="#f2_g" transform="matrix(12,0,0,12,801.2,555.6)" />
<use xlink:href="#f2_2g" transform="matrix(12,0,0,12,55,578.4)" />
<use xlink:href="#f2_1x" transform="matrix(12,0,0,12,60.1,578.4)" />
<use xlink:href="#f2_25" transform="matrix(12,0,0,12,68.2,578.4)" />
<use xlink:href="#f2_28" transform="matrix(12,0,0,12,73.3,578.4)" />
<use xlink:href="#f2_25" transform="matrix(12,0,0,12,78.4,578.4)" />
<use xlink:href="#f2_2a" transform="matrix(12,0,0,12,83.6,578.4)" />
<use xlink:href="#f2_23" transform="matrix(12,0,0,12,92.7,578.4)" />
<use xlink:href="#f2_c" transform="matrix(12,0,0,12,106.5,578.4)" />
<use xlink:href="#f2_m" transform="matrix(12,0,0,12,117.2,578.4)" />
<use xlink:href="#f2_k" transform="matrix(12,0,0,12,126.4,578.4)" />
<use xlink:href="#f2_k" transform="matrix(12,0,0,12,135.5,578.4)" />
<use xlink:href="#f2_h" transform="matrix(12,0,0,12,144.7,578.4)" />
<use xlink:href="#f2_n" transform="matrix(12,0,0,12,150.8,578.4)" />
<use xlink:href="#f2_k" transform="matrix(12,0,0,12,160,578.4)" />
<use xlink:href="#f2_k" transform="matrix(12,0,0,12,169.2,578.4)" />
<use xlink:href="#f2_2c" transform="matrix(12,0,0,12,182.9,578.4)" />
<use xlink:href="#f2_2b" transform="matrix(12,0,0,12,192.1,578.4)" />
<use xlink:href="#f2_28" transform="matrix(12,0,0,12,201.2,578.4)" />
<use xlink:href="#f2_2l" transform="matrix(12,0,0,12,206.3,578.4)" />
<use xlink:href="#f2_1x" transform="matrix(12,0,0,12,220.1,578.4)" />
<use xlink:href="#f2_20" transform="matrix(12,0,0,12,228.2,578.4)" />
<use xlink:href="#f2_21" transform="matrix(12,0,0,12,237.4,578.4)" />
<use xlink:href="#f2_2a" transform="matrix(12,0,0,12,245.5,578.4)" />
<use xlink:href="#f2_2l" transform="matrix(12,0,0,12,254.7,578.4)" />
<use xlink:href="#f2_28" transform="matrix(12,0,0,12,263.9,578.4)" />
<use xlink:href="#f2_1x" transform="matrix(12,0,0,12,269,578.4)" />
<use xlink:href="#f2_2g" transform="matrix(12,0,0,12,277.1,578.4)" />
<use xlink:href="#f2_21" transform="matrix(12,0,0,12,282.2,578.4)" />
<use xlink:href="#f2_2e" transform="matrix(12,0,0,12,294.9,578.4)" />
<use xlink:href="#f2_21" transform="matrix(12,0,0,12,301,578.4)" />
<use xlink:href="#f2_2f" transform="matrix(12,0,0,12,309.2,578.4)" />
<use xlink:href="#f2_25" transform="matrix(12,0,0,12,316.3,578.4)" />
<use xlink:href="#f2_20" transform="matrix(12,0,0,12,321.4,578.4)" />
<use xlink:href="#f2_2h" transform="matrix(12,0,0,12,330.5,578.4)" />
<use xlink:href="#f2_21" transform="matrix(12,0,0,12,339.7,578.4)" />
<use xlink:href="#f2_1x" transform="matrix(12,0,0,12,352.4,578.4)" />
<use xlink:href="#f2_2e" transform="matrix(12,0,0,12,360.5,578.4)" />
<use xlink:href="#f2_21" transform="matrix(12,0,0,12,366.7,578.4)" />
<use xlink:href="#f2_1x" transform="matrix(12,0,0,12,379.4,578.4)" />
<use xlink:href="#f2_20" transform="matrix(12,0,0,12,387.5,578.4)" />
<use xlink:href="#f2_20" transform="matrix(12,0,0,12,396.7,578.4)" />
<use xlink:href="#f2_21" transform="matrix(12,0,0,12,405.8,578.4)" />
<use xlink:href="#f2_20" transform="matrix(12,0,0,12,414,578.4)" />
<use xlink:href="#f2_2g" transform="matrix(12,0,0,12,427.6,578.4)" />
<use xlink:href="#f2_2b" transform="matrix(12,0,0,12,432.7,578.4)" />
<use xlink:href="#f2_2g" transform="matrix(12,0,0,12,446.5,578.4)" />
<use xlink:href="#f2_24" transform="matrix(12,0,0,12,451.6,578.4)" />
<use xlink:href="#f2_21" transform="matrix(12,0,0,12,460.8,578.4)" />
<use xlink:href="#f2_n" transform="matrix(12,0,0,12,473.5,578.4)" />
<use xlink:href="#f2_b" transform="matrix(12,0,0,12,482.7,578.4)" />
<use xlink:href="#f2_21" transform="matrix(12,0,0,12,490.6,578.4)" />
<use xlink:href="#f2_2a" transform="matrix(12,0,0,12,498.7,578.4)" />
<use xlink:href="#f2_20" transform="matrix(12,0,0,12,507.9,578.4)" />
<use xlink:href="#f2_i" transform="matrix(12,0,0,12,517,578.4)" />
<use xlink:href="#f2_d" transform="matrix(12,0,0,12,521.6,578.4)" />
<use xlink:href="#f3_m" transform="matrix(12,0,0,12,55,988)" />
<use xlink:href="#f3_q" transform="matrix(12,0,0,12,64.2,988)" />
<use xlink:href="#f3_i" transform="matrix(12,0,0,12,73.3,988)" />
<use xlink:href="#f2_c" transform="matrix(12,0,0,12,82.5,988)" />
<use xlink:href="#f2_1x" transform="matrix(12,0,0,12,88.6,988)" />
<use xlink:href="#f2_d" transform="matrix(12,0,0,12,96.7,988)" />
<use xlink:href="#f2_1e" transform="matrix(12,0,0,12,107.5,988)" />
<use xlink:href="#f2_1x" transform="matrix(12,0,0,12,120.7,988)" />
<use xlink:href="#f2_29" transform="matrix(12,0,0,12,128.9,988)" />
<use xlink:href="#f2_21" transform="matrix(12,0,0,12,143.1,988)" />
<use xlink:href="#f2_2g" transform="matrix(12,0,0,12,155.8,988)" />
<use xlink:href="#f2_24" transform="matrix(12,0,0,12,160.9,988)" />
<use xlink:href="#f2_21" transform="matrix(12,0,0,12,170.1,988)" />
<use xlink:href="#f2_2g" transform="matrix(12,0,0,12,182.8,988)" />
<use xlink:href="#f2_2j" transform="matrix(12,0,0,12,187.9,988)" />
<use xlink:href="#f2_2b" transform="matrix(12,0,0,12,201.2,988)" />
<use xlink:href="#f2_23" transform="matrix(12,0,0,12,214.9,988)" />
<use xlink:href="#f2_2e" transform="matrix(12,0,0,12,224.1,988)" />
<use xlink:href="#f2_2b" transform="matrix(12,0,0,12,230.1,988)" />
<use xlink:href="#f2_2j" transform="matrix(12,0,0,12,239.3,988)" />
<use xlink:href="#f2_2g" transform="matrix(12,0,0,12,252.5,988)" />
<use xlink:href="#f2_24" transform="matrix(12,0,0,12,257.6,988)" />
<use xlink:href="#f2_29" transform="matrix(12,0,0,12,271.5,988)" />
<use xlink:href="#f2_2b" transform="matrix(12,0,0,12,285.6,988)" />
<use xlink:href="#f2_20" transform="matrix(12,0,0,12,294.7,988)" />
<use xlink:href="#f2_21" transform="matrix(12,0,0,12,303.9,988)" />
<use xlink:href="#f2_28" transform="matrix(12,0,0,12,312.1,988)" />
<use xlink:href="#f2_2f" transform="matrix(12,0,0,12,317.1,988)" />
<use xlink:href="#f2_2g" transform="matrix(12,0,0,12,328.9,988)" />
<use xlink:href="#f2_24" transform="matrix(12,0,0,12,334,988)" />
<use xlink:href="#f2_1x" transform="matrix(12,0,0,12,343.2,988)" />
<use xlink:href="#f2_2g" transform="matrix(12,0,0,12,351.3,988)" />
<use xlink:href="#f2_2e" transform="matrix(12,0,0,12,361,988)" />
<use xlink:href="#f2_21" transform="matrix(12,0,0,12,367.1,988)" />
<use xlink:href="#f2_2c" transform="matrix(12,0,0,12,375.2,988)" />
<use xlink:href="#f2_2e" transform="matrix(12,0,0,12,384.4,988)" />
<use xlink:href="#f2_21" transform="matrix(12,0,0,12,390.5,988)" />
<use xlink:href="#f2_2f" transform="matrix(12,0,0,12,398.7,988)" />
<use xlink:href="#f2_21" transform="matrix(12,0,0,12,405.7,988)" />
<use xlink:href="#f2_2a" transform="matrix(12,0,0,12,413.8,988)" />
<use xlink:href="#f2_2g" transform="matrix(12,0,0,12,423,988)" />
<use xlink:href="#f2_2c" transform="matrix(12,0,0,12,432.7,988)" />
<use xlink:href="#f2_2b" transform="matrix(12,0,0,12,441.9,988)" />
<use xlink:href="#f2_2c" transform="matrix(12,0,0,12,451,988)" />
<use xlink:href="#f2_2h" transform="matrix(12,0,0,12,460.2,988)" />
<use xlink:href="#f2_28" transform="matrix(12,0,0,12,469.4,988)" />
<use xlink:href="#f2_1x" transform="matrix(12,0,0,12,474.5,988)" />
<use xlink:href="#f2_2g" transform="matrix(12,0,0,12,482.6,988)" />
<use xlink:href="#f2_25" transform="matrix(12,0,0,12,487.7,988)" />
<use xlink:href="#f2_2b" transform="matrix(12,0,0,12,492.8,988)" />
<use xlink:href="#f2_2a" transform="matrix(12,0,0,12,501.9,988)" />
<use xlink:href="#f2_23" transform="matrix(12,0,0,12,515.7,988)" />
<use xlink:href="#f2_2e" transform="matrix(12,0,0,12,524.9,988)" />
<use xlink:href="#f2_2b" transform="matrix(12,0,0,12,531,988)" />
<use xlink:href="#f2_2j" transform="matrix(12,0,0,12,540.1,988)" />
<use xlink:href="#f2_2g" transform="matrix(12,0,0,12,553.4,988)" />
<use xlink:href="#f2_24" transform="matrix(12,0,0,12,558.5,988)" />
<use xlink:href="#f2_1x" transform="matrix(12,0,0,12,572.2,988)" />
<use xlink:href="#f2_2a" transform="matrix(12,0,0,12,580.4,988)" />
<use xlink:href="#f2_20" transform="matrix(12,0,0,12,589.5,988)" />
<use xlink:href="#f2_20" transform="matrix(12,0,0,12,603.3,988)" />
<use xlink:href="#f2_2e" transform="matrix(12,0,0,12,612.4,988)" />
<use xlink:href="#f2_1x" transform="matrix(12,0,0,12,618.5,988)" />
<use xlink:href="#f2_2j" transform="matrix(12,0,0,12,626.7,988)" />
<use xlink:href="#f2_2g" transform="matrix(12,0,0,12,644.5,988)" />
<use xlink:href="#f2_24" transform="matrix(12,0,0,12,649.6,988)" />
<use xlink:href="#f2_21" transform="matrix(12,0,0,12,658.8,988)" />
<use xlink:href="#f2_2e" transform="matrix(12,0,0,12,671.6,988)" />
<use xlink:href="#f2_21" transform="matrix(12,0,0,12,677.7,988)" />
<use xlink:href="#f2_2f" transform="matrix(12,0,0,12,685.9,988)" />
<use xlink:href="#f2_2c" transform="matrix(12,0,0,12,693.1,988)" />
<use xlink:href="#f2_21" transform="matrix(12,0,0,12,702.2,988)" />
<use xlink:href="#f2_1z" transform="matrix(12,0,0,12,710.4,988)" />
<use xlink:href="#f2_2g" transform="matrix(12,0,0,12,718.5,988)" />
<use xlink:href="#f2_25" transform="matrix(12,0,0,12,723.6,988)" />
<use xlink:href="#f2_2i" transform="matrix(12,0,0,12,728.7,988)" />
<use xlink:href="#f2_21" transform="matrix(12,0,0,12,737.9,988)" />
<use xlink:href="#f2_23" transform="matrix(12,0,0,12,750.6,988)" />
<use xlink:href="#f2_2e" transform="matrix(12,0,0,12,759.7,988)" />
<use xlink:href="#f2_2b" transform="matrix(12,0,0,12,765.8,988)" />
<use xlink:href="#f2_2j" transform="matrix(12,0,0,12,775,988)" />
<use xlink:href="#f2_2g" transform="matrix(12,0,0,12,788.2,988)" />
<use xlink:href="#f2_24" transform="matrix(12,0,0,12,793.3,988)" />
<use xlink:href="#f2_1z" transform="matrix(12,0,0,12,55,1010.7)" />
<use xlink:href="#f2_2h" transform="matrix(12,0,0,12,63.1,1010.7)" />
<use xlink:href="#f2_2e" transform="matrix(12,0,0,12,72.3,1010.7)" />
<use xlink:href="#f2_2i" transform="matrix(12,0,0,12,78.4,1010.7)" />
<use xlink:href="#f2_21" transform="matrix(12,0,0,12,87.6,1010.7)" />
<use xlink:href="#f2_2f" transform="matrix(12,0,0,12,95.8,1010.7)" />
<use xlink:href="#f2_2g" transform="matrix(12,0,0,12,107.5,1010.7)" />
<use xlink:href="#f2_24" transform="matrix(12,0,0,12,112.6,1010.7)" />
<use xlink:href="#f2_21" transform="matrix(12,0,0,12,121.7,1010.7)" />
<use xlink:href="#f2_2l" transform="matrix(12,0,0,12,129.8,1010.7)" />
<use xlink:href="#f2_2e" transform="matrix(12,0,0,12,143.5,1010.7)" />
<use xlink:href="#f2_21" transform="matrix(12,0,0,12,149.6,1010.7)" />
<use xlink:href="#f2_2c" transform="matrix(12,0,0,12,157.8,1010.7)" />
<use xlink:href="#f2_2e" transform="matrix(12,0,0,12,167,1010.7)" />
<use xlink:href="#f2_21" transform="matrix(12,0,0,12,173.1,1010.7)" />
<use xlink:href="#f2_2f" transform="matrix(12,0,0,12,181.2,1010.7)" />
<use xlink:href="#f2_21" transform="matrix(12,0,0,12,188.3,1010.7)" />
<use xlink:href="#f2_2a" transform="matrix(12,0,0,12,196.5,1010.7)" />
<use xlink:href="#f2_2g" transform="matrix(12,0,0,12,205.6,1010.7)" />
<use xlink:href="#f2_i" transform="matrix(12,0,0,12,210.7,1010.7)" />
<use xlink:href="#f2_c" transform="matrix(12,0,0,12,55,1033.4)" />
<use xlink:href="#f2_1y" transform="matrix(12,0,0,12,61.1,1033.4)" />
<use xlink:href="#f2_d" transform="matrix(12,0,0,12,70.3,1033.4)" />
<use xlink:href="#f2_1j" transform="matrix(12,0,0,12,81,1033.4)" />
<use xlink:href="#f2_2g" transform="matrix(12,0,0,12,91.2,1033.4)" />
<use xlink:href="#f2_1x" transform="matrix(12,0,0,12,96.3,1033.4)" />
<use xlink:href="#f2_2g" transform="matrix(12,0,0,12,104.4,1033.4)" />
<use xlink:href="#f2_21" transform="matrix(12,0,0,12,109.5,1033.4)" />
<use xlink:href="#f2_2g" transform="matrix(12,0,0,12,122.2,1033.4)" />
<use xlink:href="#f2_24" transform="matrix(12,0,0,12,127.4,1033.4)" />
<use xlink:href="#f2_21" transform="matrix(12,0,0,12,136.5,1033.4)" />
<use xlink:href="#f2_1y" transform="matrix(12,0,0,12,149.1,1033.4)" />
<use xlink:href="#f2_1x" transform="matrix(12,0,0,12,158.3,1033.4)" />
<use xlink:href="#f2_2f" transform="matrix(12,0,0,12,166.4,1033.4)" />
<use xlink:href="#f2_25" transform="matrix(12,0,0,12,173.5,1033.4)" />
<use xlink:href="#f2_2f" transform="matrix(12,0,0,12,178.7,1033.4)" />
<use xlink:href="#f2_22" transform="matrix(12,0,0,12,190.4,1033.4)" />
<use xlink:href="#f2_2b" transform="matrix(12,0,0,12,196.5,1033.4)" />
<use xlink:href="#f2_2e" transform="matrix(12,0,0,12,205.7,1033.4)" />
<use xlink:href="#f2_2g" transform="matrix(12,0,0,12,216.4,1033.4)" />
<use xlink:href="#f2_24" transform="matrix(12,0,0,12,221.5,1033.4)" />
<use xlink:href="#f2_21" transform="matrix(12,0,0,12,230.6,1033.4)" />
<use xlink:href="#f2_20" transform="matrix(12,0,0,12,243.3,1033.4)" />
<use xlink:href="#f2_25" transform="matrix(12,0,0,12,252.5,1033.4)" />
<use xlink:href="#f2_22" transform="matrix(12,0,0,12,257.6,1033.4)" />
<use xlink:href="#f2_22" transform="matrix(12,0,0,12,263.7,1033.4)" />
<use xlink:href="#f2_21" transform="matrix(12,0,0,12,269.7,1033.4)" />
<use xlink:href="#f2_2e" transform="matrix(12,0,0,12,277.9,1033.4)" />
<use xlink:href="#f2_21" transform="matrix(12,0,0,12,284,1033.4)" />
<use xlink:href="#f2_2a" transform="matrix(12,0,0,12,292.2,1033.4)" />
<use xlink:href="#f2_1z" transform="matrix(12,0,0,12,301.3,1033.4)" />
<use xlink:href="#f2_21" transform="matrix(12,0,0,12,309.5,1033.4)" />
<use xlink:href="#f2_25" transform="matrix(12,0,0,12,322.1,1033.4)" />
<use xlink:href="#f2_2a" transform="matrix(12,0,0,12,327.2,1033.4)" />
<use xlink:href="#f2_2g" transform="matrix(12,0,0,12,341,1033.4)" />
<use xlink:href="#f2_24" transform="matrix(12,0,0,12,346.1,1033.4)" />
<use xlink:href="#f2_21" transform="matrix(12,0,0,12,355.3,1033.4)" />
<use xlink:href="#f2_2f" transform="matrix(12,0,0,12,368,1033.4)" />
<use xlink:href="#f2_24" transform="matrix(12,0,0,12,375.2,1033.4)" />
<use xlink:href="#f2_1x" transform="matrix(12,0,0,12,384.3,1033.4)" />
<use xlink:href="#f2_2c" transform="matrix(12,0,0,12,392.4,1033.4)" />
<use xlink:href="#f2_21" transform="matrix(12,0,0,12,401.6,1033.4)" />
<use xlink:href="#f2_2b" transform="matrix(12,0,0,12,414.2,1033.4)" />
<use xlink:href="#f2_22" transform="matrix(12,0,0,12,423.4,1033.4)" />
<use xlink:href="#f2_2g" transform="matrix(12,0,0,12,434.1,1033.4)" />
<use xlink:href="#f2_24" transform="matrix(12,0,0,12,439.2,1033.4)" />
<use xlink:href="#f2_21" transform="matrix(12,0,0,12,448.4,1033.4)" />
<use xlink:href="#f2_2f" transform="matrix(12,0,0,12,456.5,1033.4)" />
<use xlink:href="#f2_21" transform="matrix(12,0,0,12,463.6,1033.4)" />
<use xlink:href="#f2_1z" transform="matrix(12,0,0,12,476.4,1033.4)" />
<use xlink:href="#f2_2h" transform="matrix(12,0,0,12,484.5,1033.4)" />
<use xlink:href="#f2_2e" transform="matrix(12,0,0,12,493.7,1033.4)" />
<use xlink:href="#f2_2i" transform="matrix(12,0,0,12,499.8,1033.4)" />
<use xlink:href="#f2_21" transform="matrix(12,0,0,12,509,1033.4)" />
<use xlink:href="#f2_2f" transform="matrix(12,0,0,12,517.1,1033.4)" />
<use xlink:href="#f2_i" transform="matrix(12,0,0,12,524.2,1033.4)" />
<use xlink:href="#f2_c" transform="matrix(12,0,0,12,55,1056.2)" />
<use xlink:href="#f2_1z" transform="matrix(12,0,0,12,61.1,1056.2)" />
<use xlink:href="#f2_d" transform="matrix(12,0,0,12,69.2,1056.2)" />
<use xlink:href="#f2_1n" transform="matrix(12,0,0,12,80,1056.2)" />
<use xlink:href="#f2_24" transform="matrix(12,0,0,12,97.1,1056.2)" />
<use xlink:href="#f2_25" transform="matrix(12,0,0,12,106.3,1056.2)" />
<use xlink:href="#f2_1z" transform="matrix(12,0,0,12,111.4,1056.2)" />
<use xlink:href="#f2_24" transform="matrix(12,0,0,12,119.6,1056.2)" />
<use xlink:href="#f2_2b" transform="matrix(12,0,0,12,133.3,1056.2)" />
<use xlink:href="#f2_2a" transform="matrix(12,0,0,12,142.5,1056.2)" />
<use xlink:href="#f2_21" transform="matrix(12,0,0,12,151.6,1056.2)" />
<use xlink:href="#f2_2b" transform="matrix(12,0,0,12,164.4,1056.2)" />
<use xlink:href="#f2_22" transform="matrix(12,0,0,12,173.6,1056.2)" />
<use xlink:href="#f2_2g" transform="matrix(12,0,0,12,184.3,1056.2)" />
<use xlink:href="#f2_24" transform="matrix(12,0,0,12,189.4,1056.2)" />
<use xlink:href="#f2_21" transform="matrix(12,0,0,12,198.5,1056.2)" />
<use xlink:href="#f2_1z" transform="matrix(12,0,0,12,211.3,1056.2)" />
<use xlink:href="#f2_2h" transform="matrix(12,0,0,12,219.4,1056.2)" />
<use xlink:href="#f2_2e" transform="matrix(12,0,0,12,228.6,1056.2)" />
<use xlink:href="#f2_2i" transform="matrix(12,0,0,12,234.7,1056.2)" />
<use xlink:href="#f2_21" transform="matrix(12,0,0,12,243.8,1056.2)" />
<use xlink:href="#f2_2f" transform="matrix(12,0,0,12,252,1056.2)" />
<use xlink:href="#f2_2e" transform="matrix(12,0,0,12,263.7,1056.2)" />
<use xlink:href="#f2_21" transform="matrix(12,0,0,12,269.8,1056.2)" />
<use xlink:href="#f2_2c" transform="matrix(12,0,0,12,277.9,1056.2)" />
<use xlink:href="#f2_2e" transform="matrix(12,0,0,12,287.1,1056.2)" />
<use xlink:href="#f2_21" transform="matrix(12,0,0,12,293.2,1056.2)" />
<use xlink:href="#f2_2f" transform="matrix(12,0,0,12,301.3,1056.2)" />
<use xlink:href="#f2_21" transform="matrix(12,0,0,12,308.5,1056.2)" />
<use xlink:href="#f2_2a" transform="matrix(12,0,0,12,316.6,1056.2)" />
<use xlink:href="#f2_2g" transform="matrix(12,0,0,12,325.8,1056.2)" />
<use xlink:href="#f2_2g" transform="matrix(12,0,0,12,335.5,1056.2)" />
<use xlink:href="#f2_24" transform="matrix(12,0,0,12,340.6,1056.2)" />
<use xlink:href="#f2_21" transform="matrix(12,0,0,12,349.7,1056.2)" />
<use xlink:href="#f2_24" transform="matrix(12,0,0,12,362.5,1056.2)" />
<use xlink:href="#f2_2h" transform="matrix(12,0,0,12,371.6,1056.2)" />
<use xlink:href="#f2_29" transform="matrix(12,0,0,12,380.8,1056.2)" />
<use xlink:href="#f2_1x" transform="matrix(12,0,0,12,395,1056.2)" />
<use xlink:href="#f2_2a" transform="matrix(12,0,0,12,403.1,1056.2)" />
<use xlink:href="#f2_2c" transform="matrix(12,0,0,12,416.8,1056.2)" />
<use xlink:href="#f2_2b" transform="matrix(12,0,0,12,426,1056.2)" />
<use xlink:href="#f2_2c" transform="matrix(12,0,0,12,435.2,1056.2)" />
<use xlink:href="#f2_2h" transform="matrix(12,0,0,12,444.3,1056.2)" />
<use xlink:href="#f2_28" transform="matrix(12,0,0,12,453.5,1056.2)" />
<use xlink:href="#f2_1x" transform="matrix(12,0,0,12,458.6,1056.2)" />
<use xlink:href="#f2_2g" transform="matrix(12,0,0,12,466.8,1056.2)" />
<use xlink:href="#f2_25" transform="matrix(12,0,0,12,472,1056.2)" />
<use xlink:href="#f2_2b" transform="matrix(12,0,0,12,477.1,1056.2)" />
<use xlink:href="#f2_2a" transform="matrix(12,0,0,12,486.2,1056.2)" />
<use xlink:href="#f2_23" transform="matrix(12,0,0,12,500,1056.2)" />
<use xlink:href="#f2_2e" transform="matrix(12,0,0,12,509.1,1056.2)" />
<use xlink:href="#f2_2b" transform="matrix(12,0,0,12,515.2,1056.2)" />
<use xlink:href="#f2_2j" transform="matrix(12,0,0,12,524.4,1056.2)" />
<use xlink:href="#f2_2g" transform="matrix(12,0,0,12,537.6,1056.2)" />
<use xlink:href="#f2_24" transform="matrix(12,0,0,12,542.7,1056.2)" />
<use xlink:href="#f2_1x" transform="matrix(12,0,0,12,556.5,1056.2)" />
<use xlink:href="#f2_2g" transform="matrix(12,0,0,12,564.6,1056.2)" />
<use xlink:href="#f2_2c" transform="matrix(12,0,0,12,574.3,1056.2)" />
<use xlink:href="#f2_2e" transform="matrix(12,0,0,12,583.5,1056.2)" />
<use xlink:href="#f2_21" transform="matrix(12,0,0,12,589.6,1056.2)" />
<use xlink:href="#f2_2f" transform="matrix(12,0,0,12,597.6,1056.2)" />
<use xlink:href="#f2_21" transform="matrix(12,0,0,12,604.8,1056.2)" />
<use xlink:href="#f2_2a" transform="matrix(12,0,0,12,612.9,1056.2)" />
<use xlink:href="#f2_2g" transform="matrix(12,0,0,12,622.1,1056.2)" />
<use xlink:href="#f2_z" transform="matrix(12,0,0,12,631.7,1056.2)" />
<use xlink:href="#f2_14" transform="matrix(12,0,0,12,644.5,1056.2)" />
<use xlink:href="#f2_2b" transform="matrix(12,0,0,12,657.8,1056.2)" />
<use xlink:href="#f2_2l" transform="matrix(12,0,0,12,671.5,1056.2)" />
<use xlink:href="#f2_2b" transform="matrix(12,0,0,12,680.7,1056.2)" />
<use xlink:href="#f2_2h" transform="matrix(12,0,0,12,689.7,1056.2)" />
<use xlink:href="#f2_2g" transform="matrix(12,0,0,12,703.5,1056.2)" />
<use xlink:href="#f2_24" transform="matrix(12,0,0,12,708.6,1056.2)" />
<use xlink:href="#f2_25" transform="matrix(12,0,0,12,717.8,1056.2)" />
<use xlink:href="#f2_2a" transform="matrix(12,0,0,12,723,1056.2)" />
<use xlink:href="#f2_27" transform="matrix(12,0,0,12,732.1,1056.2)" />
<use xlink:href="#f2_2f" transform="matrix(12,0,0,12,745.9,1056.2)" />
<use xlink:href="#f2_2h" transform="matrix(12,0,0,12,753,1056.2)" />
<use xlink:href="#f2_1z" transform="matrix(12,0,0,12,762.2,1056.2)" />
<use xlink:href="#f2_24" transform="matrix(12,0,0,12,770.3,1056.2)" />
<use xlink:href="#f2_1x" transform="matrix(12,0,0,12,784,1056.2)" />
<use xlink:href="#f2_1z" transform="matrix(12,0,0,12,796.7,1056.2)" />
<use xlink:href="#f2_2h" transform="matrix(12,0,0,12,804.9,1056.2)" />
<use xlink:href="#f2_2e" transform="matrix(12,0,0,12,814,1056.2)" />
<use xlink:href="#f2_2i" transform="matrix(12,0,0,12,820.2,1056.2)" />
<use xlink:href="#f2_21" transform="matrix(12,0,0,12,829.4,1056.2)" />
<use xlink:href="#f2_25" transform="matrix(12,0,0,12,842,1056.2)" />
<use xlink:href="#f2_2f" transform="matrix(12,0,0,12,847.1,1056.2)" />
<use xlink:href="#f2_2f" transform="matrix(12,0,0,12,55,1079)" />
<use xlink:href="#f2_2h" transform="matrix(12,0,0,12,62.1,1079)" />
<use xlink:href="#f2_2f" transform="matrix(12,0,0,12,71.3,1079)" />
<use xlink:href="#f2_2g" transform="matrix(12,0,0,12,78.4,1079)" />
<use xlink:href="#f2_1x" transform="matrix(12,0,0,12,83.6,1079)" />
<use xlink:href="#f2_25" transform="matrix(12,0,0,12,91.7,1079)" />
<use xlink:href="#f2_2a" transform="matrix(12,0,0,12,96.8,1079)" />
<use xlink:href="#f2_1x" transform="matrix(12,0,0,12,106,1079)" />
<use xlink:href="#f2_1y" transform="matrix(12,0,0,12,114.1,1079)" />
<use xlink:href="#f2_28" transform="matrix(12,0,0,12,123.3,1079)" />
<use xlink:href="#f2_21" transform="matrix(12,0,0,12,128.4,1079)" />
<use xlink:href="#f2_z" transform="matrix(12,0,0,12,141.1,1079)" />
<use xlink:href="#f2_17" transform="matrix(12,0,0,12,153.9,1079)" />
<use xlink:href="#f2_25" transform="matrix(12,0,0,12,167.1,1079)" />
<use xlink:href="#f2_2i" transform="matrix(12,0,0,12,172.2,1079)" />
<use xlink:href="#f2_21" transform="matrix(12,0,0,12,181.4,1079)" />
<use xlink:href="#f2_2e" transform="matrix(12,0,0,12,194,1079)" />
<use xlink:href="#f2_21" transform="matrix(12,0,0,12,200.1,1079)" />
<use xlink:href="#f2_1x" transform="matrix(12,0,0,12,208.3,1079)" />
<use xlink:href="#f2_2f" transform="matrix(12,0,0,12,216.4,1079)" />
<use xlink:href="#f2_2b" transform="matrix(12,0,0,12,223.5,1079)" />
<use xlink:href="#f2_2a" transform="matrix(12,0,0,12,232.6,1079)" />
<use xlink:href="#f2_25" transform="matrix(12,0,0,12,246.4,1079)" />
<use xlink:href="#f2_2a" transform="matrix(12,0,0,12,251.5,1079)" />
<use xlink:href="#f2_2f" transform="matrix(12,0,0,12,265.2,1079)" />
<use xlink:href="#f2_2h" transform="matrix(12,0,0,12,272.4,1079)" />
<use xlink:href="#f2_2c" transform="matrix(12,0,0,12,281.5,1079)" />
<use xlink:href="#f2_2c" transform="matrix(12,0,0,12,290.7,1079)" />
<use xlink:href="#f2_2b" transform="matrix(12,0,0,12,299.9,1079)" />
<use xlink:href="#f2_2e" transform="matrix(12,0,0,12,309,1079)" />
<use xlink:href="#f2_2g" transform="matrix(12,0,0,12,315.2,1079)" />
<use xlink:href="#f2_2b" transform="matrix(12,0,0,12,324.8,1079)" />
<use xlink:href="#f2_22" transform="matrix(12,0,0,12,334,1079)" />
<use xlink:href="#f2_2l" transform="matrix(12,0,0,12,344.6,1079)" />
<use xlink:href="#f2_2b" transform="matrix(12,0,0,12,353.8,1079)" />
<use xlink:href="#f2_2h" transform="matrix(12,0,0,12,362.9,1079)" />
<use xlink:href="#f2_2e" transform="matrix(12,0,0,12,372.1,1079)" />
<use xlink:href="#f2_1x" transform="matrix(12,0,0,12,382.8,1079)" />
<use xlink:href="#f2_2a" transform="matrix(12,0,0,12,391,1079)" />
<use xlink:href="#f2_2f" transform="matrix(12,0,0,12,400.1,1079)" />
<use xlink:href="#f2_2j" transform="matrix(12,0,0,12,407.3,1079)" />
<use xlink:href="#f2_21" transform="matrix(12,0,0,12,420.5,1079)" />
<use xlink:href="#f2_2e" transform="matrix(12,0,0,12,428.6,1079)" />
<use xlink:href="#f3_i" transform="matrix(12,0,0,12,434.9,1079)" />
<use xlink:href="#f3_11" transform="matrix(12,0,0,12,55,1101.7)" />
<use xlink:href="#f3_2a" transform="matrix(12,0,0,12,68.2,1101.7)" />
<use xlink:href="#f3_2f" transform="matrix(12,0,0,12,78.4,1101.7)" />
<use xlink:href="#f3_2j" transform="matrix(12,0,0,12,85.6,1101.7)" />
<use xlink:href="#f3_21" transform="matrix(12,0,0,12,98.7,1101.7)" />
<use xlink:href="#f3_2e" transform="matrix(12,0,0,12,106.8,1101.7)" />
<use xlink:href="#f3_u" transform="matrix(12,0,0,12,115,1101.7)" />
<use xlink:href="#f2_c" transform="matrix(12,0,0,12,55,1124.5)" />
<use xlink:href="#f2_1x" transform="matrix(12,0,0,12,61.1,1124.5)" />
<use xlink:href="#f2_d" transform="matrix(12,0,0,12,69.2,1124.5)" />
<use xlink:href="#f2_15" transform="matrix(12,0,0,12,80,1124.5)" />
<use xlink:href="#f2_2k" transform="matrix(12,0,0,12,91.2,1124.5)" />
<use xlink:href="#f2_2c" transform="matrix(12,0,0,12,100.4,1124.5)" />
<use xlink:href="#f2_2b" transform="matrix(12,0,0,12,109.5,1124.5)" />
<use xlink:href="#f2_2a" transform="matrix(12,0,0,12,118.7,1124.5)" />
<use xlink:href="#f2_21" transform="matrix(12,0,0,12,127.9,1124.5)" />
<use xlink:href="#f2_2a" transform="matrix(12,0,0,12,136,1124.5)" />
<use xlink:href="#f2_2g" transform="matrix(12,0,0,12,145.1,1124.5)" />
<use xlink:href="#f2_1x" transform="matrix(12,0,0,12,150.2,1124.5)" />
<use xlink:href="#f2_28" transform="matrix(12,0,0,12,158.3,1124.5)" />
<use xlink:href="#f2_23" transform="matrix(12,0,0,12,168.1,1124.5)" />
<use xlink:href="#f2_2e" transform="matrix(12,0,0,12,177.2,1124.5)" />
<use xlink:href="#f2_2b" transform="matrix(12,0,0,12,183.3,1124.5)" />
<use xlink:href="#f2_2j" transform="matrix(12,0,0,12,192.4,1124.5)" />
<use xlink:href="#f2_2g" transform="matrix(12,0,0,12,205.7,1124.5)" />
<use xlink:href="#f2_24" transform="matrix(12,0,0,12,210.8,1124.5)" />
<use xlink:href="#f2_1z" transform="matrix(12,0,0,12,224.5,1124.5)" />
<use xlink:href="#f2_2h" transform="matrix(12,0,0,12,232.7,1124.5)" />
<use xlink:href="#f2_2e" transform="matrix(12,0,0,12,241.8,1124.5)" />
<use xlink:href="#f2_2i" transform="matrix(12,0,0,12,247.9,1124.5)" />
<use xlink:href="#f2_21" transform="matrix(12,0,0,12,257.1,1124.5)" />
<use xlink:href="#f2_g" transform="matrix(12,0,0,12,269.8,1124.5)" />
<use xlink:href="#f2_28" transform="matrix(12,0,0,12,279,1124.5)" />
<use xlink:href="#f2_2b" transform="matrix(12,0,0,12,284.1,1124.5)" />
<use xlink:href="#f2_23" transform="matrix(12,0,0,12,293.3,1124.5)" />
<use xlink:href="#f2_25" transform="matrix(12,0,0,12,302.4,1124.5)" />
<use xlink:href="#f2_2f" transform="matrix(12,0,0,12,307.5,1124.5)" />
<use xlink:href="#f2_2g" transform="matrix(12,0,0,12,314.6,1124.5)" />
<use xlink:href="#f2_25" transform="matrix(12,0,0,12,319.7,1124.5)" />
<use xlink:href="#f2_1z" transform="matrix(12,0,0,12,324.7,1124.5)" />
<use xlink:href="#f2_2f" transform="matrix(12,0,0,12,332.9,1124.5)" />
<use xlink:href="#f2_23" transform="matrix(12,0,0,12,344.6,1124.5)" />
<use xlink:href="#f2_2e" transform="matrix(12,0,0,12,353.7,1124.5)" />
<use xlink:href="#f2_2b" transform="matrix(12,0,0,12,359.9,1124.5)" />
<use xlink:href="#f2_2j" transform="matrix(12,0,0,12,369.1,1124.5)" />
<use xlink:href="#f2_2g" transform="matrix(12,0,0,12,382.3,1124.5)" />
<use xlink:href="#f2_24" transform="matrix(12,0,0,12,387.4,1124.5)" />
<use xlink:href="#f2_1z" transform="matrix(12,0,0,12,401.2,1124.5)" />
<use xlink:href="#f2_2h" transform="matrix(12,0,0,12,409.3,1124.5)" />
<use xlink:href="#f2_2e" transform="matrix(12,0,0,12,418.4,1124.5)" />
<use xlink:href="#f2_2i" transform="matrix(12,0,0,12,424.5,1124.5)" />
<use xlink:href="#f2_21" transform="matrix(12,0,0,12,433.7,1124.5)" />
</g>
<image preserveAspectRatio="none" x="55" y="127" width="566" height="386" xlink:href="img/6.png" />
<image preserveAspectRatio="none" x="55" y="584" width="532" height="362" xlink:href="img/7.png" />
<path fill-rule="evenodd" d="M37.4,38.1h.7v-.7h-.7v.7Z" class="g2_35" />
<path fill-rule="evenodd" d="M37.4,38.1h.7v-.7h-.7v.7Z" class="g2_35" />
<path fill-rule="evenodd" d="M38.1,38.1H871.5v-.7H38.1v.7Z" class="g2_35" />
<path fill-rule="evenodd" d="M871.5,38.1h.7v-.7h-.7v.7Z" class="g2_35" />
<path fill-rule="evenodd" d="M871.5,38.1h.7v-.7h-.7v.7Z" class="g2_35" />
<path fill-rule="evenodd" d="M37.4,1248.2h.7V38.1h-.7V1248.2Z" class="g2_35" />
<path fill-rule="evenodd" d="M872.2,1248.2h.8V38.1h-.8V1248.2Z" class="g2_35" />
<path fill-rule="evenodd" d="M871.5,1248.2h.7V38.1h-.7V1248.2Z" class="g2_35" />
<path fill-rule="evenodd" d="M37.4,1249h.7v-.8h-.7v.8Z" class="g2_35" />
<path fill-rule="evenodd" d="M37.4,1249h.7v-.8h-.7v.8Z" class="g2_35" />
<path fill-rule="evenodd" d="M38.1,1249.7H871.5v-.7H38.1v.7Z" class="g2_35" />
<path fill-rule="evenodd" d="M38.1,1249H871.5v-.8H38.1v.8Z" class="g2_35" />
<path fill-rule="evenodd" d="M872.2,1249.7h.8v-1.5h-.8v1.5Z" class="g2_35" />
<path fill-rule="evenodd" d="M871.5,1249.7H873v-.7h-1.5v.7Z" class="g2_35" />
<path fill-rule="evenodd" d="M871.5,1249h.7v-.8h-.7v.8Z" class="g2_35" />
<path fill-rule="evenodd" d="M871.5,1249h.7v-.8h-.7v.8Z" class="g2_35" />
<defs>
<path d="M489,-15c0,0,-99,0,-179,30c0,0,-80,30,-136,91c0,0,-56,61,-85,152c0,0,-30,91,-30,212c0,0,0,123,32,218c0,0,33,96,92,161c0,0,59,65,142,98c0,0,82,34,181,34c0,0,40,0,78,-7c0,0,37,-7,69,-18c0,0,31,-11,57,-25c0,0,25,-14,35,-24c0,0,10,-10,14,-17c0,0,4,-7,6,-17c0,0,2,-11,3,-25c0,0,2,-14,2,-35c0,0,0,-22,-2,-38c0,0,-1,-15,-5,-25c0,0,-4,-10,-9,-14c0,0,-5,-5,-12,-5c0,0,-11,0,-28,13c0,0,-18,13,-45,29c0,0,-27,16,-65,29c0,0,-37,13,-89,13c0,0,-58,0,-103,-23c0,0,-45,-23,-77,-67c0,0,-31,-44,-48,-106c0,0,-16,-61,-16,-139c0,0,0,-85,17,-147c0,0,18,-62,50,-103c0,0,33,-40,79,-60c0,0,45,-19,103,-19c0,0,52,0,90,12c0,0,38,12,65,27c0,0,27,15,45,27c0,0,17,12,27,12c0,0,8,0,12,-3c0,0,4,-3,7,-12c0,0,3,-9,5,-25c0,0,1,-16,1,-43c0,0,0,-18,-1,-31c0,0,-1,-14,-3,-23c0,0,-2,-9,-6,-16c0,0,-4,-7,-12,-15c0,0,-8,-9,-32,-22c0,0,-23,-14,-57,-26C661,13,627,1,583,-6c0,0,-43,-9,-94,-9Z" 
id="f0_j"
transform="scale(0.001,-0.001)" />

<path d="M440,150c0,0,41,0,68,8c0,0,28,9,49,26c0,0,20,16,32,41c0,0,11,25,11,58c0,0,0,33,-11,60c0,0,-11,26,-33,44c0,0,-21,18,-55,28c0,0,-33,9,-87,9H298V150ZM407,567c0,0,42,0,68,10c0,0,25,10,42,28c0,0,16,17,24,41c0,0,9,24,9,50c0,0,0,29,-9,52c0,0,-9,23,-27,39c0,0,-18,15,-45,23c0,0,-27,8,-72,8H298V567ZM164,0c0,0,-25,0,-42,15c0,0,-16,14,-16,47V903c0,0,0,33,16,48c0,0,17,14,42,14H406c0,0,88,0,150,-15c0,0,61,-15,103,-45c0,0,42,-30,65,-77c0,0,22,-46,22,-108c0,0,0,-36,-9,-67c0,0,-9,-31,-26,-56c0,0,-17,-25,-42,-45c0,0,-25,-19,-57,-31c0,0,41,-7,76,-26c0,0,34,-19,60,-48c0,0,26,-30,41,-69c0,0,15,-40,15,-89c0,0,0,-51,-14,-93c0,0,-15,-42,-40,-74c0,0,-25,-32,-59,-55c0,0,-35,-23,-77,-38C614,29,573,14,525,7C525,7,478,0,420,0Z" 
id="f0_i"
transform="scale(0.001,-0.001)" />

<path d="M320,-17c0,0,-50,0,-93,9c0,0,-43,8,-76,19c0,0,-32,11,-54,24C97,35,75,48,65,58c0,0,-10,9,-14,28c0,0,-4,18,-4,52c0,0,0,23,1,39c0,0,2,15,5,25c0,0,4,10,9,14c0,0,6,4,13,4c0,0,11,0,30,-12c0,0,19,-13,49,-28c0,0,30,-15,71,-27c0,0,42,-12,96,-12c0,0,36,0,64,8c0,0,29,9,49,25c0,0,19,15,30,38c0,0,10,23,10,52c0,0,0,33,-18,56c0,0,-18,24,-46,42c0,0,-29,18,-66,34c0,0,-36,16,-75,34c0,0,-39,18,-76,41c0,0,-36,23,-65,54c0,0,-29,32,-47,75c0,0,-17,44,-17,104c0,0,0,70,25,122c0,0,26,53,70,88c0,0,43,34,103,51c0,0,59,18,125,18c0,0,35,0,69,-6c0,0,34,-5,64,-14c0,0,30,-9,53,-20c0,0,23,-11,31,-18c0,0,7,-8,10,-13c0,0,3,-5,4,-14c0,0,2,-8,3,-21c0,0,1,-13,1,-33c0,0,0,-21,-1,-36c0,0,-1,-15,-4,-25c0,0,-3,-9,-7,-14c0,0,-5,-4,-14,-4c0,0,-8,0,-26,10c0,0,-18,10,-44,23c0,0,-26,12,-60,22c0,0,-34,10,-75,10c0,0,-32,0,-56,-8c0,0,-24,-8,-40,-21c0,0,-16,-14,-24,-34c0,0,-8,-19,-8,-41c0,0,0,-32,18,-56c0,0,17,-23,46,-42c0,0,30,-18,67,-34c0,0,38,-16,76,-34c0,0,39,-18,76,-41c0,0,38,-22,67,-54c0,0,29,-32,47,-75c0,0,18,-43,18,-101c0,0,0,-76,-29,-133c0,0,-28,-58,-77,-96C572,60,524,21,459,2c0,0,-65,-19,-139,-19Z" 
id="f0_2n"
transform="scale(0.001,-0.001)" />

<path d="M164,0c0,0,-25,0,-42,15c0,0,-16,14,-16,47V903c0,0,0,33,16,48c0,0,17,14,42,14H645c0,0,7,0,12,-4c0,0,5,-3,9,-13c0,0,4,-9,6,-24c0,0,2,-14,2,-36c0,0,0,-21,-2,-36c0,0,-2,-14,-6,-23c0,0,-4,-9,-9,-13c0,0,-5,-4,-12,-4H301V576H593c0,0,6,0,12,-4c0,0,6,-4,9,-13c0,0,4,-8,6,-23c0,0,2,-14,2,-35c0,0,0,-22,-2,-36c0,0,-2,-14,-6,-23c0,0,-3,-8,-9,-12c0,0,-6,-4,-12,-4H301V154H649c0,0,6,0,12,-5c0,0,5,-4,9,-13c0,0,4,-9,6,-23c0,0,2,-15,2,-36c0,0,0,-22,-2,-36c0,0,-2,-15,-6,-24c0,0,-4,-9,-9,-13c0,0,-6,-4,-12,-4Z" 
id="f0_t"
transform="scale(0.001,-0.001)" />

<path d="M79,297c0,0,-19,0,-27,18c0,0,-8,17,-8,60c0,0,0,41,8,59c0,0,8,17,27,17H389c0,0,9,0,15,-4c0,0,7,-4,11,-13c0,0,5,-9,7,-23c0,0,1,-15,1,-36c0,0,0,-43,-8,-61c0,0,-8,-17,-26,-17Z" 
id="f0_oj"
transform="scale(0.001,-0.001)" />

<path d="M121,-4c0,0,-39,0,-60,2C61,-2,39,0,32,8c0,0,-8,8,-3,24c0,0,4,15,18,41L279,495L64,892c0,0,-14,26,-19,42c0,0,-5,17,4,24c0,0,9,8,32,10c0,0,23,2,65,2c0,0,35,0,56,-2c0,0,20,-1,32,-4c0,0,12,-4,17,-10c0,0,5,-6,9,-15L431,620L595,939c0,0,5,9,10,15c0,0,5,6,16,10c0,0,10,3,29,4c0,0,19,2,53,2c0,0,37,0,59,-2c0,0,22,-2,30,-10c0,0,8,-8,4,-24c0,0,-4,-16,-17,-42L564,497L793,73c0,0,14,-26,18,-41c0,0,4,-16,-5,-24c0,0,-9,-8,-32,-10c0,0,-24,-2,-65,-2c0,0,-36,0,-56,2c0,0,-20,1,-31,3c0,0,-12,4,-17,10c0,0,-5,6,-9,15L414,374L233,26c0,0,-4,-9,-9,-15c0,0,-6,-6,-17,-10c0,0,-12,-2,-32,-3c0,0,-21,-2,-54,-2Z" 
id="f0_3e"
transform="scale(0.001,-0.001)" />

<path d="M204,-4c0,0,-28,0,-47,2c0,0,-19,2,-31,5c0,0,-11,4,-16,10c0,0,-4,6,-4,13V939c0,0,0,7,4,13c0,0,5,6,17,10c0,0,11,3,30,6c0,0,19,2,47,2c0,0,29,0,48,-2c0,0,18,-3,29,-6c0,0,11,-4,16,-10c0,0,5,-6,5,-13V26c0,0,0,-7,-5,-13c0,0,-5,-6,-16,-10c0,0,-11,-3,-29,-5c0,0,-19,-2,-48,-2Z" 
id="f0_1c"
transform="scale(0.001,-0.001)" />

<path d="M127,0c0,0,-16,0,-28,3C99,3,87,6,80,15c0,0,-8,8,-11,25c0,0,-3,16,-3,42c0,0,0,25,2,42c0,0,2,18,8,32c0,0,6,14,15,27c0,0,9,13,24,29L282,390c0,0,50,53,81,95c0,0,30,43,47,79c0,0,17,35,24,65c0,0,6,30,6,57c0,0,0,24,-8,46c0,0,-8,22,-23,39c0,0,-15,16,-38,25c0,0,-23,10,-55,10c0,0,-44,0,-78,-12c0,0,-33,-11,-59,-25c0,0,-26,-13,-43,-25c0,0,-17,-12,-27,-12c0,0,-7,0,-11,5c0,0,-5,4,-8,15c0,0,-3,10,-5,28c0,0,-2,17,-2,42c0,0,0,18,1,29c0,0,1,12,4,20c0,0,2,9,6,15c0,0,3,6,13,15c0,0,9,9,34,23c0,0,25,14,61,27c0,0,37,14,81,23c0,0,44,9,92,9c0,0,75,0,131,-19c0,0,57,-19,94,-53c0,0,37,-34,55,-81c0,0,19,-47,19,-100c0,0,0,-47,-9,-93c0,0,-9,-45,-37,-98c0,0,-29,-52,-80,-116c0,0,-52,-64,-136,-148L299,159H679c0,0,8,0,14,-4c0,0,6,-5,11,-14c0,0,4,-9,7,-25c0,0,2,-15,2,-36c0,0,0,-22,-2,-37c0,0,-2,-15,-6,-25c0,0,-3,-10,-9,-14c0,0,-6,-4,-14,-4Z" 
id="f0_rz"
transform="scale(0.001,-0.001)" />

<path d="M385,138c0,0,29,0,52,9c0,0,22,10,39,28c0,0,17,19,28,47c0,0,11,29,19,66c0,0,7,37,9,84c0,0,3,47,3,104c0,0,0,69,-4,122c0,0,-4,52,-11,91c0,0,-8,39,-20,66c0,0,-12,27,-28,43c0,0,-16,16,-37,22c0,0,-21,7,-47,7c0,0,-44,0,-73,-21c0,0,-28,-21,-45,-64c0,0,-17,-42,-24,-106c0,0,-6,-63,-6,-148c0,0,0,-103,8,-171c0,0,8,-67,26,-107c0,0,17,-40,45,-56c0,0,27,-16,66,-16ZM378,-17c0,0,-99,0,-164,33c0,0,-65,34,-103,98c0,0,-38,64,-54,156c0,0,-15,92,-15,209c0,0,0,115,19,208c0,0,19,94,61,160c0,0,42,65,110,101c0,0,68,35,165,35c0,0,99,0,164,-34c0,0,65,-34,103,-98c0,0,39,-64,53,-156c0,0,15,-92,15,-209c0,0,0,-115,-18,-209c0,0,-19,-93,-61,-159C653,118,611,53,543,17c0,0,-67,-34,-165,-34Z" 
id="f0_rx"
transform="scale(0.001,-0.001)" />

<path d="M142,0c0,0,-6,0,-12,4c0,0,-5,3,-9,12c0,0,-4,9,-6,23c0,0,-3,15,-3,36c0,0,0,21,2,36c0,0,2,14,6,23c0,0,4,9,10,13c0,0,5,5,12,5H322V779L166,693c0,0,-17,-8,-28,-10c0,0,-1,0,-3,0c-4,0,-10,1,-14,5c0,0,-6,6,-8,22c0,0,-2,15,-2,44c0,0,0,18,0,29c0,0,1,12,4,20c0,0,3,8,8,14c0,0,5,5,14,11L345,962c0,0,4,3,9,5c0,0,6,2,15,3c0,0,9,1,23,2c0,0,15,0,38,0c0,0,28,0,46,-1c0,0,17,-1,26,-4c0,0,9,-3,12,-7c0,0,3,-4,3,-11V152H675c0,0,7,0,12,-5c0,0,6,-4,10,-13c0,0,4,-9,6,-23c0,0,2,-15,2,-36c0,0,0,-21,-2,-36c0,0,-3,-14,-7,-23c0,0,-4,-9,-9,-12c0,0,-5,-4,-12,-4Z" 
id="f0_ry"
transform="scale(0.001,-0.001)" />

<path d="M398,134c0,0,34,0,60,12c0,0,25,13,43,36c0,0,17,23,26,54c0,0,9,31,9,68c0,0,0,38,-7,66c0,0,-7,29,-22,49c0,0,-15,20,-39,30c0,0,-25,10,-60,10c0,0,-21,0,-41,-4c0,0,-20,-4,-40,-10c0,0,-19,-7,-37,-16c0,0,-18,-10,-33,-20c0,0,0,-80,9,-133c0,0,9,-54,26,-85c0,0,18,-31,44,-44c0,0,27,-13,62,-13ZM387,-16c0,0,-67,0,-117,15c0,0,-50,14,-86,43c0,0,-37,29,-60,70c0,0,-23,41,-37,92c0,0,-14,52,-19,112c0,0,-5,61,-5,129c0,0,0,56,5,118c0,0,6,62,22,122c0,0,16,59,45,114c0,0,29,54,75,94c0,0,46,41,111,65c0,0,65,24,155,24c0,0,28,0,57,-4c0,0,29,-3,53,-8c0,0,25,-5,42,-12c0,0,17,-7,23,-12c0,0,5,-5,8,-11c0,0,3,-5,5,-13c0,0,2,-7,3,-17c0,0,1,-11,1,-25c0,0,0,-24,-1,-39c0,0,-2,-15,-5,-24c0,0,-3,-8,-8,-12c0,0,-5,-4,-12,-4c0,0,-9,0,-24,5c0,0,-14,5,-34,11c0,0,-20,6,-47,10c0,0,-27,5,-63,5c0,0,-61,0,-102,-23c0,0,-42,-22,-68,-60c0,0,-26,-39,-38,-90c0,0,-12,-50,-13,-107c0,0,16,10,38,21c0,0,21,10,46,18c0,0,25,7,54,12c0,0,29,5,62,5c0,0,73,0,125,-20c0,0,52,-20,86,-58c0,0,33,-37,48,-90c0,0,16,-53,16,-118c0,0,0,-73,-22,-135c0,0,-23,-62,-66,-108C640,79,597,34,533,9c0,0,-63,-25,-146,-25Z" 
id="f0_s3"
transform="scale(0.001,-0.001)" />

<path d="M589,371L453,782h-1L317,371ZM106,-4c0,0,-35,0,-54,2C52,-2,32,0,25,8c0,0,-7,9,-5,24c0,0,2,16,11,42L329,931c0,0,4,13,10,21c0,0,6,7,19,12c0,0,13,4,36,5c0,0,23,1,61,1c0,0,44,0,71,-1c0,0,26,-1,40,-5c0,0,15,-5,21,-13c0,0,6,-8,11,-22L896,73c0,0,9,-27,11,-43c0,0,3,-15,-6,-23c0,0,-8,-7,-29,-9c0,0,-21,-2,-57,-2c0,0,-38,0,-59,1c0,0,-22,1,-33,4c0,0,-11,3,-16,9c0,0,-4,6,-7,16L635,220H272L211,31c0,0,-2,-11,-7,-18c0,0,-5,-7,-16,-11c0,0,-11,-3,-31,-4c0,0,-19,-2,-51,-2Z" 
id="f0_5"
transform="scale(0.001,-0.001)" />

<path d="M198,-4c0,0,-27,0,-45,2c0,0,-18,2,-28,5c0,0,-11,4,-15,10c0,0,-4,6,-4,13V887c0,0,0,38,20,58c0,0,20,20,53,20H308c0,0,34,0,59,-6c0,0,24,-5,42,-18c0,0,18,-13,30,-35c0,0,12,-21,21,-52L669,279h3L889,852c0,0,9,32,21,53c0,0,11,22,27,35c0,0,15,14,36,19c0,0,21,6,48,6h132c0,0,21,0,35,-5c0,0,15,-5,24,-15c0,0,9,-11,14,-25c0,0,5,-15,5,-33V26c0,0,0,-7,-4,-13c0,0,-4,-6,-15,-10c0,0,-11,-3,-29,-5c0,0,-18,-2,-45,-2c0,0,-27,0,-45,2c0,0,-18,2,-28,5c0,0,-11,4,-15,10c0,0,-5,6,-5,13V813h-1L764,27c0,0,-3,-10,-10,-16c0,0,-6,-6,-18,-10c0,0,-12,-3,-29,-4c0,0,-18,-1,-44,-1c0,0,-25,0,-43,2c0,0,-18,2,-29,5c0,0,-12,4,-19,10c0,0,-6,6,-9,14L293,813h-2V26c0,0,0,-7,-4,-13c0,0,-4,-6,-15,-10c0,0,-11,-3,-29,-5c0,0,-17,-2,-45,-2Z" 
id="f0_1x"
transform="scale(0.001,-0.001)" />

<path d="M193,-4c0,0,-26,0,-43,2c0,0,-18,2,-27,6c0,0,-10,4,-14,10c0,0,-3,6,-3,13V895c0,0,0,35,20,53c0,0,21,17,50,17H282c0,0,28,0,47,-5c0,0,20,-5,35,-16c0,0,15,-11,29,-31c0,0,13,-20,27,-49L608,511c0,0,17,-32,33,-63c0,0,16,-31,31,-62c0,0,14,-31,29,-60c0,0,14,-30,27,-60h1c0,0,-2,52,-3,109c0,0,-1,57,-1,108V936c0,0,0,7,4,13c0,0,5,6,15,11c0,0,10,4,28,6c0,0,17,2,44,2c0,0,25,0,42,-2c0,0,17,-2,27,-6c0,0,9,-5,13,-11c0,0,4,-6,4,-13V68c0,0,0,-17,-6,-30c0,0,-6,-14,-17,-23C879,15,869,6,856,2c0,0,-14,-3,-28,-3H744c0,0,-26,0,-45,4c0,0,-19,5,-35,19c0,0,-16,14,-31,38c0,0,-15,23,-34,60L359,572c0,0,-21,40,-43,86c0,0,-21,47,-38,91h-2c0,0,3,-54,5,-107c0,0,2,-53,2,-110V27c0,0,0,-7,-5,-13c0,0,-4,-6,-14,-10c0,0,-10,-4,-27,-6c0,0,-17,-2,-44,-2Z" 
id="f0_1y"
transform="scale(0.001,-0.001)" />

<path d="M378,-4c0,0,-28,0,-47,2c0,0,-19,2,-31,5c0,0,-11,4,-16,10c0,0,-4,6,-4,13V805H38c0,0,-8,0,-13,4c0,0,-5,5,-9,14c0,0,-3,9,-5,25c0,0,-2,15,-2,37c0,0,0,22,2,38c0,0,2,15,5,25c0,0,4,9,9,13c0,0,5,4,13,4H718c0,0,7,0,12,-4c0,0,6,-4,10,-13c0,0,3,-10,5,-25c0,0,2,-16,2,-38c0,0,0,-22,-2,-37c0,0,-2,-16,-5,-25c0,0,-4,-9,-10,-14c0,0,-5,-4,-12,-4H476V26c0,0,0,-7,-5,-13c0,0,-5,-6,-16,-10c0,0,-11,-3,-30,-5c0,0,-19,-2,-47,-2Z" 
id="f0_2t"
transform="scale(0.001,-0.001)" />

<path d="M514,145c0,0,72,0,121,27c0,0,48,26,78,73c0,0,30,46,42,107c0,0,13,62,13,131c0,0,0,76,-12,139c0,0,-12,62,-41,106c0,0,-29,45,-76,69c0,0,-48,24,-120,24c0,0,-72,0,-120,-27c0,0,-49,-27,-79,-73c0,0,-29,-45,-42,-106c0,0,-12,-61,-12,-129c0,0,0,-79,12,-142c0,0,12,-63,40,-108c0,0,28,-44,76,-68c0,0,48,-23,120,-23ZM508,-17c0,0,-113,0,-196,29c0,0,-84,29,-140,90c0,0,-56,60,-84,154c0,0,-28,93,-28,221c0,0,0,117,29,210c0,0,30,94,89,160c0,0,59,65,146,101c0,0,87,35,202,35c0,0,110,0,194,-29c0,0,84,-30,140,-90c0,0,56,-60,85,-153c0,0,29,-92,29,-217c0,0,0,-120,-30,-215c0,0,-30,-95,-89,-161C855,118,796,52,709,17c0,0,-87,-34,-201,-34Z" 
id="f0_24"
transform="scale(0.001,-0.001)" />

<path d="M407,475c0,0,61,0,105,44c0,0,44,43,44,103c0,0,0,64,-43,108c0,0,-44,43,-109,43c0,0,-57,0,-99,-44c0,0,-42,-45,-42,-107c0,0,0,-62,42,-104c0,0,42,-43,102,-43ZM195,0L430,323c0,0,-67,-8,-85,-8c0,0,-126,0,-212,92c0,0,-87,92,-87,227c0,0,0,141,107,237c0,0,106,96,264,96c0,0,151,0,246,-97c0,0,95,-96,95,-250c0,0,0,-112,-56,-223c0,0,-55,-112,-94,-168L448,0Z" 
id="f1_t"
transform="scale(0.001,-0.001)" />

<path d="M44,-281L425,1053H537L156,-281Z" 
id="f1_j"
transform="scale(0.001,-0.001)" />

<path d="M299,0V777H162l36,173H508V0Z" 
id="f1_l"
transform="scale(0.001,-0.001)" />

<path d="M403,172c0,0,80,0,127,81c0,0,48,80,48,218c0,0,0,145,-47,227c0,0,-46,83,-125,83c0,0,-82,0,-129,-83c0,0,-47,-82,-47,-230c0,0,0,-135,48,-215c0,0,48,-81,125,-81Zm3,-182c0,0,-167,0,-272,130C134,120,30,251,30,464c0,0,0,227,102,364c0,0,102,137,268,137h6c0,0,170,0,271,-130c0,0,100,-130,100,-347c0,0,0,-253,-112,-376C665,112,553,-10,406,-10Z" 
id="f1_k"
transform="scale(0.001,-0.001)" />

<path d="M460,-325c0,0,-148,79,-231,172c0,0,-84,93,-123,217c0,0,-39,126,-39,304c0,0,0,178,39,303c0,0,39,125,122,217c0,0,82,93,232,172V997c0,0,-91,-52,-145,-134c0,0,-54,-81,-79,-190c0,0,-25,-109,-25,-305c0,0,0,-194,26,-309c0,0,26,-114,82,-193c0,0,56,-79,141,-128v-63Z" 
id="f2_c"
transform="scale(0.001,-0.001)" />

<path d="M376,50c0,0,103,0,149,80c0,0,46,81,46,240c0,0,0,137,-47,204c0,0,-48,67,-148,67c0,0,-44,0,-87,-7c0,0,-44,-8,-63,-17V62c0,0,63,-12,150,-12Zm3,-64c0,0,-64,0,-141,14c0,0,-78,14,-136,37v971L0,1026v34H226V809c0,0,0,-40,-4,-148c0,0,74,59,188,59c0,0,143,0,219,-87c0,0,77,-87,77,-263c0,0,0,-189,-84,-287c0,0,-84,-97,-243,-97Z" 
id="f2_1y"
transform="scale(0.001,-0.001)" />

<path d="M49,-325v63c0,0,85,49,140,128c0,0,56,79,83,194c0,0,26,115,26,308c0,0,0,196,-25,305c0,0,-25,109,-79,190c0,0,-54,82,-145,134v63c0,0,149,-80,232,-172c0,0,83,-92,122,-217c0,0,39,-125,39,-303c0,0,0,-177,-39,-303c0,0,-39,-125,-122,-217c0,0,-83,-93,-232,-173Z" 
id="f2_d"
transform="scale(0.001,-0.001)" />

<path d="M442,0V33l93,19V504c0,0,0,129,-124,129c0,0,-70,0,-168,-22V52L338,33V0H31V33l88,19v956L15,1026v34H243V756c0,0,0,-77,-5,-112c0,0,54,31,122,53c0,0,68,23,115,23c0,0,91,0,137,-53c0,0,47,-53,47,-154V52L744,33V0Z" 
id="f2_24"
transform="scale(0.001,-0.001)" />

<path d="M439,0V33l93,19V500c0,0,0,62,-30,97c0,0,-31,36,-94,36c0,0,-67,0,-165,-22V52L338,33V0H35V33l84,19V649L35,668v33H235l7,-57c0,0,57,33,122,54c0,0,65,22,108,22c0,0,91,0,137,-53c0,0,47,-53,47,-154V52L741,33V0Z" 
id="f2_2a"
transform="scale(0.001,-0.001)" />

<path d="M448,506c0,0,134,0,190,49c0,0,57,50,57,168c0,0,0,114,-56,162c0,0,-56,48,-195,48H316V506ZM777,0L496,438H316V60L468,40V0H54V40L172,60V941L44,960v40H476c0,0,188,0,277,-63c0,0,90,-64,90,-204c0,0,0,-100,-54,-173c0,0,-55,-73,-151,-101L909,60L1017,40V0Z" 
id="f2_1i"
transform="scale(0.001,-0.001)" />

<path d="M868,0L251,900V60L385,40V0H44V40L172,60V941L44,960v40H347L862,259V941L727,960v40h341V960L940,941V0Z" 
id="f2_1e"
transform="scale(0.001,-0.001)" />

<path d="M681,416L504,902L333,416ZM669,0V40L803,60L704,348H310L210,60L344,40V0H15V40L128,60l341,949H611L965,60L1092,40V0Z" 
id="f2_11"
transform="scale(0.001,-0.001)" />

<path d="M289,-14c0,0,-179,0,-179,205V649L20,668v33H233V200c0,0,0,-128,120,-128c0,0,92,0,173,23V649L420,668v33H649V52L738,33V0H533l-6,57C527,57,474,28,405,7c0,0,-69,-21,-116,-21Z" 
id="f2_2h"
transform="scale(0.001,-0.001)" />

<path d="M383,64c0,0,85,0,152,28V645c0,0,-67,13,-152,13c0,0,-194,0,-194,-314c0,0,0,-141,48,-211c0,0,48,-69,146,-69ZM342,-14c0,0,-287,0,-287,358c0,0,0,184,82,280c0,0,81,96,239,96c0,0,81,0,163,-18c0,0,-4,25,-4,124v182l-118,18v34H659V52L745,33V0H548l-9,52c0,0,-84,-66,-197,-66Z" 
id="f2_20"
transform="scale(0.001,-0.001)" />

<path d="M495,413c0,0,0,133,-34,190c0,0,-34,57,-105,57c0,0,-78,0,-119,-63c0,0,-42,-62,-42,-184ZM374,-14c0,0,-163,0,-239,87c0,0,-75,88,-75,283c0,0,0,183,77,273c0,0,76,91,219,91c0,0,269,0,269,-306V353H194V340c0,0,0,-103,23,-160c0,0,22,-57,70,-87c0,0,47,-29,124,-29c0,0,40,0,96,6c0,0,55,7,91,15V43C598,43,562,20,500,3c0,0,-61,-17,-126,-17Z" 
id="f2_21"
transform="scale(0.001,-0.001)" />

<path d="M31,0V33l88,19V649L31,668v33H235l7,-87c0,0,44,37,121,71c0,0,76,35,121,35h11V530H463l-43,82c0,0,-37,0,-88,-10c0,0,-52,-10,-89,-26V52L363,33V0Z" 
id="f2_2e"
transform="scale(0.001,-0.001)" />

<path d="M359,-270c0,0,124,0,192,46c0,0,67,47,67,129c0,0,0,43,-26,67c0,0,-26,24,-79,24H242c0,0,-32,-27,-51,-69c0,0,-20,-41,-20,-77c0,0,0,-64,46,-92c0,0,46,-28,142,-28Zm11,561c0,0,81,0,115,47c0,0,34,47,34,141c0,0,0,100,-35,142c0,0,-35,42,-113,42c0,0,-78,0,-114,-43c0,0,-37,-42,-37,-141c0,0,0,-98,36,-143c0,0,36,-45,114,-45ZM359,-329c0,0,-143,0,-218,44c0,0,-75,43,-75,125c0,0,0,39,27,78c0,0,26,38,98,89c0,0,-43,14,-72,48c0,0,-29,35,-29,74L208,262c0,0,-118,55,-118,217c0,0,0,115,73,178c0,0,73,63,211,63c0,0,28,0,71,-6c0,0,44,-6,67,-13l165,83l26,-32L599,644c0,0,50,-56,50,-165c0,0,0,-120,-72,-182c0,0,-73,-62,-208,-62c0,0,-62,0,-114,11L208,148c0,0,2,-13,29,-24c0,0,27,-12,67,-12H512c0,0,113,0,168,-49c0,0,55,-49,55,-134c0,0,0,-79,-44,-137c0,0,-43,-58,-128,-90c0,0,-84,-31,-204,-31Z" 
id="f2_23"
transform="scale(0.001,-0.001)" />

<path d="M377,45c0,0,99,0,147,73c0,0,47,73,47,237c0,0,0,161,-47,233c0,0,-47,72,-147,72c0,0,-97,0,-141,-69c0,0,-44,-69,-44,-236c0,0,0,-169,45,-240c0,0,44,-70,140,-70Zm0,-59c0,0,-158,0,-238,94c0,0,-81,95,-81,274c0,0,0,178,81,272c0,0,80,94,244,94c0,0,160,0,241,-92c0,0,82,-92,82,-274c0,0,0,-368,-329,-368Z" 
id="f2_2b"
transform="scale(0.001,-0.001)" />

<path d="M278,-14c0,0,-52,0,-115,11c0,0,-63,10,-99,23V193H98L134,95c0,0,56,-50,146,-50c0,0,144,0,144,123c0,0,0,91,-114,130l-66,21c0,0,-75,25,-110,50c0,0,-34,26,-53,63c0,0,-18,36,-18,89c0,0,0,92,63,145c0,0,63,54,170,54c0,0,77,0,193,-23V544H454l-32,81c0,0,-39,35,-124,35c0,0,-61,0,-92,-30c0,0,-32,-30,-32,-80c0,0,0,-43,29,-72c0,0,28,-29,86,-48c0,0,110,-38,144,-55c0,0,33,-17,57,-42c0,0,23,-25,36,-57c0,0,13,-32,13,-79c0,0,0,-104,-66,-158c0,0,-66,-53,-195,-53Z" 
id="f2_2f"
transform="scale(0.001,-0.001)" />

<path d="M382,45c0,0,188,0,188,314c0,0,0,143,-47,213c0,0,-46,69,-141,69c0,0,-87,0,-146,-24V58c0,0,67,-13,146,-13ZM25,-325v35l88,18V649L34,668v33H231l1,-41c0,0,31,27,84,43c0,0,53,17,107,17c0,0,134,0,208,-94c0,0,73,-93,73,-267c0,0,0,-178,-80,-276c0,0,-80,-97,-232,-97c0,0,-84,0,-160,16c0,0,4,-53,4,-84V-272l123,-18v-35Z" 
id="f2_2c"
transform="scale(0.001,-0.001)" />

<path d="M31,0V33L150,52v956L31,1026v34H274V52L394,33V0Z" 
id="f2_28"
transform="scale(0.001,-0.001)" />

<path d="M32,0V33L151,52V649L52,668v33H275V52L395,33V0ZM201,850c0,0,-32,0,-56,24c0,0,-24,24,-24,56c0,0,0,34,24,58c0,0,24,24,56,24c0,0,34,0,58,-24c0,0,24,-24,24,-58c0,0,0,-32,-24,-56c0,0,-24,-24,-58,-24Z" 
id="f2_25"
transform="scale(0.001,-0.001)" />

<path d="M399,-14c0,0,-341,0,-341,370c0,0,0,175,87,269c0,0,87,95,249,95c0,0,101,0,220,-23V501H573L541,625c0,0,-62,35,-149,35c0,0,-200,0,-200,-304c0,0,0,-158,61,-225c0,0,61,-67,189,-67c0,0,109,0,189,24V43C631,43,595,16,530,1c0,0,-64,-15,-131,-15Z" 
id="f2_1z"
transform="scale(0.001,-0.001)" />

<path d="M327,-14L84,649L1,668v33H335V668L219,648L385,174L554,632h63L786,171L944,649L830,668v33h267V668l-78,-16L784,-14H726L553,448L382,-14Z" 
id="f2_2j"
transform="scale(0.001,-0.001)" />

<path d="M249,-14c0,0,-71,0,-107,42c0,0,-35,42,-35,119V639H15v33l93,29l76,159h47V701H391V639H231V161c0,0,0,-48,22,-73c0,0,22,-24,57,-24c0,0,44,0,106,12V26C416,26,389,8,340,-2c0,0,-49,-12,-91,-12Z" 
id="f2_2g"
transform="scale(0.001,-0.001)" />

<path d="M284,67c0,0,51,0,88,12c0,0,37,12,74,30V358l-98,-3c0,0,-100,-4,-135,-39c0,0,-35,-35,-35,-117c0,0,0,-132,106,-132ZM233,-14c0,0,-179,0,-179,208c0,0,0,70,27,116c0,0,27,46,87,70c0,0,60,24,173,27l105,3V519c0,0,0,72,-26,107c0,0,-27,34,-82,34c0,0,-75,0,-137,-35L176,538H134V691c0,0,121,26,213,26c0,0,115,0,169,-47c0,0,54,-47,54,-144V52L657,33V0H465L451,70c0,0,-85,-84,-218,-84Z" 
id="f2_1x"
transform="scale(0.001,-0.001)" />

<path d="M431,0V33L535,52V499c0,0,0,62,-32,96c0,0,-32,33,-95,33c0,0,-66,0,-163,-22V52L350,33V0H32V33l89,19V649L32,668v33H237l6,-57c0,0,56,32,119,54c0,0,62,22,110,22c0,0,52,0,95,-20c0,0,44,-19,66,-62c0,0,57,32,134,57c0,0,77,25,128,25c0,0,179,0,179,-207V52l90,-19V0H846V33L950,52V499c0,0,0,129,-119,129c0,0,-19,0,-45,-3c0,0,-26,-3,-52,-7c0,0,-25,-4,-49,-8c0,0,-23,-5,-39,-8c0,0,13,-41,13,-89V52L764,33V0Z" 
id="f2_29"
transform="scale(0.001,-0.001)" />

<path d="M360,-14L72,649L0,668v33H327V668L216,648L420,164L615,649L504,668v33H764V668L697,652L416,-14Z" 
id="f2_2i"
transform="scale(0.001,-0.001)" />

<path d="M13,0V34L95,46L325,350L122,649L40,668v33H357V668L264,648L399,446L554,649l-96,19v33H710V668L630,652L433,397L663,50L745,34V0H427V34l94,17L359,299L169,50L266,34V0Z" 
id="f2_2k"
transform="scale(0.001,-0.001)" />

<path d="M64,-325c0,0,-46,0,-107,14v148H-8l19,-81c0,0,25,-21,62,-21c0,0,44,0,67,47c0,0,22,47,22,152V649L57,668v33H286V-28c0,0,0,-146,-57,-221c0,0,-56,-76,-165,-76ZM213,850c0,0,-34,0,-58,24c0,0,-24,24,-24,56c0,0,0,34,24,58c0,0,24,24,58,24c0,0,32,0,56,-24c0,0,24,-24,24,-58c0,0,0,-32,-24,-56c0,0,-24,-24,-56,-24Z" 
id="f2_26"
transform="scale(0.001,-0.001)" />

<path d="M64,0V34L168,59V639H47v36l121,29v49c0,0,0,155,61,239c0,0,62,84,173,84c0,0,58,0,107,-15V908H472l-33,92c0,0,-26,16,-62,16c0,0,-47,0,-66,-42c0,0,-19,-42,-19,-157V701H478V639H292V59L443,34V0Z" 
id="f2_22"
transform="scale(0.001,-0.001)" />

<path d="M191,-20c0,0,-39,0,-65,25c0,0,-25,27,-25,64c0,0,0,38,26,64c0,0,26,26,64,26c0,0,38,0,64,-26c0,0,26,-26,26,-64c0,0,0,-37,-25,-64c0,0,-26,-25,-65,-25Z" 
id="f2_i"
transform="scale(0.001,-0.001)" />

<path d="M148,-329c0,0,-58,0,-114,13v151H69l24,-71c0,0,23,-17,64,-17c0,0,39,0,72,22c0,0,33,23,60,67c0,0,27,44,68,157L90,649L19,668v33H344V668L233,648L423,158L606,649L497,668v33H758V668L685,652L411,-43c0,0,-48,-124,-84,-177c0,0,-36,-54,-79,-82c0,0,-44,-27,-100,-27Z" 
id="f2_2l"
transform="scale(0.001,-0.001)" />

<path d="M350,-14c0,0,-142,0,-253,31L89,228h49L172,87c0,0,32,-18,78,-29c0,0,46,-11,88,-11c0,0,118,0,173,56c0,0,56,55,56,187c0,0,0,93,-24,140c0,0,-24,47,-76,70c0,0,-52,22,-140,22c0,0,-68,0,-133,-18H122v496H630V886H189V567c0,0,81,18,173,18c0,0,173,0,258,-71c0,0,84,-71,84,-216c0,0,0,-151,-92,-232c0,0,-91,-80,-262,-80Z" 
id="f2_p"
transform="scale(0.001,-0.001)" />

<path d="M110,641L64,1000H211L165,641Z" 
id="f2_b"
transform="scale(0.001,-0.001)" />

<path d="M58,-234v58c0,0,131,42,131,125c0,0,0,15,-11,27c0,0,-11,12,-38,25C140,1,89,27,89,75c0,0,0,40,25,61c0,0,26,21,65,21c0,0,48,0,77,-34c0,0,30,-34,30,-86c0,0,0,-101,-60,-170c0,0,-59,-69,-168,-101Z" 
id="f2_g"
transform="scale(0.001,-0.001)" />

<path d="M67,0V109L206,235c0,0,133,118,196,190c0,0,63,72,90,149c0,0,27,77,27,177c0,0,0,97,-44,148c0,0,-44,50,-144,50c0,0,-39,0,-81,-10c0,0,-42,-11,-74,-29L150,787H101V980c0,0,135,32,230,32c0,0,164,0,247,-68c0,0,82,-69,82,-193c0,0,0,-84,-32,-158c0,0,-33,-75,-100,-148c0,0,-67,-74,-222,-206c0,0,-67,-57,-141,-125H680V0Z" 
id="f2_m"
transform="scale(0.001,-0.001)" />

<path d="M377,45c0,0,99,0,145,108c0,0,46,109,46,352c0,0,0,240,-45,345c0,0,-46,106,-146,106c0,0,-97,0,-139,-100c0,0,-43,-99,-43,-351c0,0,0,-254,44,-357c0,0,43,-103,138,-103Zm0,-59c0,0,-158,0,-238,132c0,0,-81,133,-81,386c0,0,0,249,81,380c0,0,80,132,244,132c0,0,159,0,241,-130c0,0,82,-130,82,-382c0,0,0,-518,-329,-518Z" 
id="f2_k"
transform="scale(0.001,-0.001)" />

<path d="M57,302V417H454V302Z" 
id="f2_h"
transform="scale(0.001,-0.001)" />

<path d="M350,-14c0,0,-142,0,-269,31L73,228h49L156,87c0,0,29,-16,82,-28c0,0,54,-12,100,-12c0,0,117,0,173,54c0,0,56,53,56,178c0,0,0,99,-52,150c0,0,-51,51,-159,56l-107,6v61l107,7c0,0,84,5,124,52c0,0,41,48,41,145c0,0,0,101,-44,147c0,0,-44,45,-139,45c0,0,-40,0,-83,-10c0,0,-43,-11,-76,-29L153,786H104V979c0,0,74,19,127,26c0,0,54,6,107,6c0,0,321,0,321,-246c0,0,0,-104,-57,-165c0,0,-57,-62,-162,-77c0,0,136,-16,200,-78c0,0,64,-62,64,-173c0,0,0,-135,-92,-211c0,0,-93,-75,-262,-75Z" 
id="f2_n"
transform="scale(0.001,-0.001)" />

<path d="M64,0V141c0,0,64,68,119,123c0,0,119,118,174,185c0,0,56,68,81,140c0,0,26,72,26,165c0,0,0,81,-40,131c0,0,-39,50,-105,50c0,0,-46,0,-74,-10c0,0,-27,-10,-50,-29L163,751H98V979c0,0,59,13,116,23c0,0,58,9,125,9c0,0,165,0,252,-68c0,0,88,-68,88,-193c0,0,0,-78,-26,-142c0,0,-26,-64,-83,-124c0,0,-56,-61,-224,-197c0,0,-64,-52,-139,-119H698V0Z" 
id="f3_m"
transform="scale(0.001,-0.001)" />

<path d="M404,60c0,0,54,0,75,59c0,0,21,59,21,177c0,0,0,106,-29,162c0,0,-29,57,-87,57c0,0,-55,0,-112,-17v-4c0,0,0,-434,132,-434Zm3,-74c0,0,-172,0,-263,130c0,0,-92,130,-92,378c0,0,0,161,48,278c0,0,48,117,135,178c0,0,87,61,199,61c0,0,117,0,225,-32V751H594L562,896c0,0,-52,39,-113,39c0,0,-75,0,-121,-95c0,0,-47,-96,-55,-267c0,0,81,35,161,35c0,0,137,0,211,-77c0,0,74,-77,74,-220c0,0,0,-158,-81,-242c0,0,-81,-83,-231,-83Z" 
id="f3_q"
transform="scale(0.001,-0.001)" />

<path d="M191,-20c0,0,-51,0,-88,34c0,0,-36,36,-36,88c0,0,0,52,36,88c0,0,36,36,88,36c0,0,51,0,88,-36c0,0,36,-36,36,-88c0,0,0,-51,-36,-87c0,0,-36,-35,-88,-35Z" 
id="f3_i"
transform="scale(0.001,-0.001)" />

<path d="M410,-14c0,0,-80,0,-162,14c0,0,-81,14,-144,38V270h48L178,134c0,0,28,-35,95,-62c0,0,68,-27,134,-27c0,0,104,0,163,53c0,0,58,54,58,148c0,0,0,54,-23,89c0,0,-22,35,-59,59c0,0,-37,24,-84,41c0,0,-47,17,-97,34c0,0,-49,17,-96,38c0,0,-47,21,-84,53c0,0,-37,32,-60,79c0,0,-23,48,-23,117c0,0,0,119,90,187c0,0,89,68,248,68c0,0,121,0,263,-32V771H654L628,893c0,0,-76,55,-188,55c0,0,-100,0,-156,-40c0,0,-56,-41,-56,-112c0,0,0,-49,22,-81c0,0,23,-32,60,-55c0,0,37,-22,84,-39c0,0,48,-16,97,-34c0,0,50,-17,97,-39c0,0,48,-22,85,-56c0,0,36,-34,59,-83c0,0,23,-49,23,-120c0,0,0,-145,-89,-224c0,0,-89,-79,-256,-79Z" 
id="f2_1j"
transform="scale(0.001,-0.001)" />

<path d="M420,-22L89,941L1,960v40H383V960L236,941L474,236L744,930h33L1037,236l227,705l-156,19v40h331V960l-87,-19L1025,-22H985L726,666L460,-22Z" 
id="f2_1n"
transform="scale(0.001,-0.001)" />

<path d="M306,-20c0,0,-39,0,-65,25c0,0,-25,27,-25,64c0,0,0,38,26,64c0,0,26,26,64,26c0,0,37,0,63,-25c0,0,26,-26,26,-65c0,0,0,-37,-25,-64c0,0,-26,-25,-64,-25ZM269,261L249,510l107,22c0,0,64,13,93,65c0,0,29,52,29,152c0,0,0,109,-39,154c0,0,-40,45,-140,45c0,0,-83,0,-145,-36L128,789H79V979c0,0,118,32,220,32c0,0,316,0,316,-253c0,0,0,-121,-60,-195c0,0,-60,-74,-175,-98l-42,-9L328,261Z" 
id="f2_z"
transform="scale(0.001,-0.001)" />

<path d="M529,65c0,0,183,0,270,108c0,0,87,108,87,334c0,0,0,210,-113,318c0,0,-113,108,-322,108H316V71c0,0,90,-6,213,-6Zm0,-67L172,0H44V40L172,60V941L44,960v40H498c0,0,277,0,411,-123c0,0,133,-124,133,-371c0,0,0,-251,-129,-380C913,126,785,-2,529,-2Z" 
id="f2_14"
transform="scale(0.001,-0.001)" />

<path d="M477,0V33l64,19L348,354L257,254V52L331,33V0H44V33l89,19v956L29,1026v34H257V338L544,647l-73,20v34H718V667L631,650L431,446L688,50L764,33V0Z" 
id="f2_27"
transform="scale(0.001,-0.001)" />

<path d="M577,-14c0,0,-243,0,-379,131C198,117,63,248,63,488c0,0,0,263,131,393c0,0,132,130,386,130c0,0,182,0,352,-45V751H882L862,875c0,0,-52,37,-124,57c0,0,-72,19,-152,19c0,0,-191,0,-279,-113c0,0,-88,-114,-88,-348c0,0,0,-220,91,-333c0,0,91,-114,269,-114c0,0,63,0,131,15c0,0,69,15,105,36V377L686,397v40h370V397L958,377V52C958,52,871,24,778,5c0,0,-93,-19,-201,-19Z" 
id="f2_17"
transform="scale(0.001,-0.001)" />

<path d="M639,416L478,858L313,416ZM647,0V54L762,74L667,333H283L191,74L319,54V0H15V54L90,74l355,935H662L1016,74l76,-20V0Z" 
id="f3_11"
transform="scale(0.001,-0.001)" />

<path d="M41,0V49l69,18V634L41,652v49H313l11,-61l50,26c0,0,105,54,188,54c0,0,194,0,194,-207V67L827,49V0H478V49l63,18V484c0,0,0,63,-27,98c0,0,-26,35,-75,35c0,0,-57,0,-114,-25V67L389,49V0Z" 
id="f3_2a"
transform="scale(0.001,-0.001)" />

<path d="M276,-14c0,0,-57,0,-125,13C151,-1,83,10,48,23V214H97l28,-98c0,0,26,-26,69,-44c0,0,42,-17,86,-17c0,0,65,0,97,28c0,0,32,28,32,71c0,0,0,41,-31,65c0,0,-30,25,-133,57c0,0,-108,34,-154,92c0,0,-45,58,-45,143c0,0,0,95,71,152c0,0,71,57,183,57c0,0,77,0,207,-22V518H457l-24,82c0,0,-21,22,-60,35c0,0,-40,14,-75,14c0,0,-53,0,-79,-22c0,0,-26,-22,-26,-59c0,0,0,-40,32,-65c0,0,32,-26,132,-55c0,0,109,-34,155,-89c0,0,45,-55,45,-137c0,0,0,-117,-72,-177c0,0,-72,-59,-209,-59Z" 
id="f3_2f"
transform="scale(0.001,-0.001)" />

<path d="M305,-14L57,634L4,652v49H351V652L268,632L419,232L581,631h71L814,232L950,634l-82,18v49h227V652l-54,-15L806,-14H715L555,378L395,-14Z" 
id="f3_2j"
transform="scale(0.001,-0.001)" />

<path d="M434,423c0,0,0,101,-7,142c0,0,-6,40,-22,60c0,0,-16,19,-45,19c0,0,-44,0,-66,-48c0,0,-22,-49,-22,-173ZM389,-14c0,0,-172,0,-254,89c0,0,-83,90,-83,279c0,0,0,184,79,274c0,0,79,91,238,91c0,0,142,0,206,-76c0,0,64,-76,64,-237V345H271V333c0,0,0,-111,18,-158c0,0,18,-47,58,-72c0,0,40,-25,110,-25c0,0,66,0,166,22V42C623,42,582,18,517,1c0,0,-66,-15,-128,-15Z" 
id="f3_21"
transform="scale(0.001,-0.001)" />

<path d="M41,0V49l91,18V634L41,652v49H336l8,-145c0,0,80,89,144,128c0,0,64,40,117,40h40V468H604l-45,94c0,0,-47,0,-106,-21c0,0,-60,-20,-105,-48V67L460,49V0Z" 
id="f3_2e"
transform="scale(0.001,-0.001)" />

<path d="M248,-20c0,0,-52,0,-87,34c0,0,-36,36,-36,88c0,0,0,52,36,88c0,0,35,36,87,36c0,0,52,0,88,-36c0,0,36,-36,36,-88c0,0,0,-51,-36,-87c0,0,-35,-35,-88,-35Zm0,488c0,0,-52,0,-87,36c0,0,-36,36,-36,88c0,0,0,52,35,88c0,0,35,36,88,36c0,0,53,0,89,-36c0,0,35,-37,35,-88c0,0,0,-51,-36,-87c0,0,-35,-37,-88,-37Z" 
id="f3_u"
transform="scale(0.001,-0.001)" />

<path d="M44,0V40L172,60V941L44,960v40H794V760H745L721,922c0,0,-83,11,-241,11H316V543H586l23,119h48V354H609L586,475H316V67H513c0,0,193,0,252,12l43,185h49L843,0Z" 
id="f2_15"
transform="scale(0.001,-0.001)" />


</defs>
</svg>