<?xml version="1.0" encoding="UTF-8" standalone="no"?>
<!DOCTYPE svg PUBLIC "-//W3C//DTD SVG 1.1//EN"
"http://www.w3.org/Graphics/SVG/1.1/DTD/svg11.dtd">
<svg viewBox="0 0 909 1286" version="1.1" xmlns="http://www.w3.org/2000/svg" xmlns:xlink="http://www.w3.org/1999/xlink">
<defs>
</defs>
<g fill="#000000" >
<use xlink:href="#f0_c" transform="matrix(12,0,0,12,117,120.4)" />
<use xlink:href="#f0_1y" transform="matrix(12,0,0,12,122.9,120.4)" />
<use xlink:href="#f0_d" transform="matrix(12,0,0,12,131.3,120.4)" />
<use xlink:href="#f0_18" transform="matrix(12,0,0,12,155.8,120.4)" />
<use xlink:href="#f0_2b" transform="matrix(12,0,0,12,168.7,120.4)" />
<use xlink:href="#f0_2j" transform="matrix(12,0,0,12,178.2,120.4)" />
<use xlink:href="#f0_1z" transform="matrix(12,0,0,12,194.4,120.4)" />
<use xlink:href="#f0_1x" transform="matrix(12,0,0,12,202.5,120.4)" />
<use xlink:href="#f0_2a" transform="matrix(12,0,0,12,210.2,120.4)" />
<use xlink:href="#f0_2g" transform="matrix(12,0,0,12,221.9,120.4)" />
<use xlink:href="#f0_24" transform="matrix(12,0,0,12,227.1,120.4)" />
<use xlink:href="#f0_21" transform="matrix(12,0,0,12,235.9,120.4)" />
<use xlink:href="#f0_2f" transform="matrix(12,0,0,12,246.9,120.4)" />
<use xlink:href="#f0_1z" transform="matrix(12,0,0,12,253.9,120.4)" />
<use xlink:href="#f0_25" transform="matrix(12,0,0,12,261.6,120.4)" />
<use xlink:href="#f0_21" transform="matrix(12,0,0,12,266,120.4)" />
<use xlink:href="#f0_2a" transform="matrix(12,0,0,12,273.8,120.4)" />
<use xlink:href="#f0_2g" transform="matrix(12,0,0,12,282.2,120.4)" />
<use xlink:href="#f0_25" transform="matrix(12,0,0,12,287.7,120.4)" />
<use xlink:href="#f0_22" transform="matrix(12,0,0,12,291.8,120.4)" />
<use xlink:href="#f0_25" transform="matrix(12,0,0,12,296.9,120.4)" />
<use xlink:href="#f0_1z" transform="matrix(12,0,0,12,301.3,120.4)" />
<use xlink:href="#f0_2h" transform="matrix(12,0,0,12,312.4,120.4)" />
<use xlink:href="#f0_2a" transform="matrix(12,0,0,12,321.5,120.4)" />
<use xlink:href="#f0_20" transform="matrix(12,0,0,12,330,120.4)" />
<use xlink:href="#f0_21" transform="matrix(12,0,0,12,339.1,120.4)" />
<use xlink:href="#f0_2e" transform="matrix(12,0,0,12,346.9,120.4)" />
<use xlink:href="#f0_2f" transform="matrix(12,0,0,12,352.7,120.4)" />
<use xlink:href="#f0_2g" transform="matrix(12,0,0,12,359.7,120.4)" />
<use xlink:href="#f0_1x" transform="matrix(12,0,0,12,364.9,120.4)" />
<use xlink:href="#f0_2a" transform="matrix(12,0,0,12,372.6,120.4)" />
<use xlink:href="#f0_20" transform="matrix(12,0,0,12,381.4,120.4)" />
<use xlink:href="#f0_25" transform="matrix(12,0,0,12,390.2,120.4)" />
<use xlink:href="#f0_2a" transform="matrix(12,0,0,12,394.3,120.4)" />
<use xlink:href="#f0_23" transform="matrix(12,0,0,12,403.1,120.4)" />
<use xlink:href="#f0_2b" transform="matrix(12,0,0,12,415.6,120.4)" />
<use xlink:href="#f0_22" transform="matrix(12,0,0,12,424.7,120.4)" />
<use xlink:href="#f0_2g" transform="matrix(12,0,0,12,433.2,120.4)" />
<use xlink:href="#f0_24" transform="matrix(12,0,0,12,438.3,120.4)" />
<use xlink:href="#f0_21" transform="matrix(12,0,0,12,446.8,120.4)" />
<use xlink:href="#f0_29" transform="matrix(12,0,0,12,458.2,120.4)" />
<use xlink:href="#f0_21" transform="matrix(12,0,0,12,471.8,120.4)" />
<use xlink:href="#f0_2a" transform="matrix(12,0,0,12,479.5,120.4)" />
<use xlink:href="#f0_2g" transform="matrix(12,0,0,12,487.9,120.4)" />
<use xlink:href="#f0_2e" transform="matrix(12,0,0,12,493.4,120.4)" />
<use xlink:href="#f0_2h" transform="matrix(12,0,0,12,499.3,120.4)" />
<use xlink:href="#f0_1x" transform="matrix(12,0,0,12,508.1,120.4)" />
<use xlink:href="#f0_28" transform="matrix(12,0,0,12,516.2,120.4)" />
<use xlink:href="#f0_1z" transform="matrix(12,0,0,12,523.6,120.4)" />
<use xlink:href="#f0_2l" transform="matrix(12,0,0,12,531.7,120.4)" />
<use xlink:href="#f0_1z" transform="matrix(12,0,0,12,539.8,120.4)" />
<use xlink:href="#f0_28" transform="matrix(12,0,0,12,547.8,120.4)" />
<use xlink:href="#f0_21" transform="matrix(12,0,0,12,551.9,120.4)" />
<use xlink:href="#f0_2b" transform="matrix(12,0,0,12,563.3,120.4)" />
<use xlink:href="#f0_22" transform="matrix(12,0,0,12,572.5,120.4)" />
<use xlink:href="#f0_24" transform="matrix(12,0,0,12,580.9,120.4)" />
<use xlink:href="#f0_2h" transform="matrix(12,0,0,12,589.4,120.4)" />
<use xlink:href="#f0_29" transform="matrix(12,0,0,12,598.5,120.4)" />
<use xlink:href="#f0_1x" transform="matrix(12,0,0,12,611.8,120.4)" />
<use xlink:href="#f0_2a" transform="matrix(12,0,0,12,619.5,120.4)" />
<use xlink:href="#f0_22" transform="matrix(12,0,0,12,631.6,120.4)" />
<use xlink:href="#f0_21" transform="matrix(12,0,0,12,636.8,120.4)" />
<use xlink:href="#f0_29" transform="matrix(12,0,0,12,644.9,120.4)" />
<use xlink:href="#f0_1x" transform="matrix(12,0,0,12,658.1,120.4)" />
<use xlink:href="#f0_28" transform="matrix(12,0,0,12,665.8,120.4)" />
<use xlink:href="#f0_21" transform="matrix(12,0,0,12,670.2,120.4)" />
<use xlink:href="#f0_2f" transform="matrix(12,0,0,12,677.9,120.4)" />
<use xlink:href="#f0_24" transform="matrix(12,0,0,12,688.2,120.4)" />
<use xlink:href="#f0_21" transform="matrix(12,0,0,12,696.7,120.4)" />
<use xlink:href="#f0_28" transform="matrix(12,0,0,12,704.8,120.4)" />
<use xlink:href="#f0_2c" transform="matrix(12,0,0,12,708.8,120.4)" />
<use xlink:href="#f0_1x" transform="matrix(12,0,0,12,721.3,120.4)" />
<use xlink:href="#f0_2f" transform="matrix(12,0,0,12,729,120.4)" />
<use xlink:href="#f0_1x" transform="matrix(12,0,0,12,739,120.4)" />
<use xlink:href="#f0_1z" transform="matrix(12,0,0,12,750.4,120.4)" />
<use xlink:href="#f0_2b" transform="matrix(12,0,0,12,758.1,120.4)" />
<use xlink:href="#f0_2a" transform="matrix(12,0,0,12,767.2,120.4)" />
<use xlink:href="#f0_2g" transform="matrix(12,0,0,12,776.1,120.4)" />
<use xlink:href="#f0_2e" transform="matrix(12,0,0,12,781.2,120.4)" />
<use xlink:href="#f0_1x" transform="matrix(12,0,0,12,787.1,120.4)" />
<use xlink:href="#f0_1z" transform="matrix(12,0,0,12,795.2,120.4)" />
<use xlink:href="#f0_21" transform="matrix(12,0,0,12,802.9,120.4)" />
<use xlink:href="#f0_2c" transform="matrix(12,0,0,12,811,120.4)" />
<use xlink:href="#f0_2g" transform="matrix(12,0,0,12,819.8,120.4)" />
<use xlink:href="#f0_25" transform="matrix(12,0,0,12,824.9,120.4)" />
<use xlink:href="#f0_2i" transform="matrix(12,0,0,12,829.3,120.4)" />
<use xlink:href="#f0_21" transform="matrix(12,0,0,12,837.8,120.4)" />
<use xlink:href="#f0_29" transform="matrix(12,0,0,12,155.8,144.6)" />
<use xlink:href="#f0_21" transform="matrix(12,0,0,12,169,144.6)" />
<use xlink:href="#f0_1x" transform="matrix(12,0,0,12,177.1,144.6)" />
<use xlink:href="#f0_2f" transform="matrix(12,0,0,12,184.8,144.6)" />
<use xlink:href="#f0_2h" transform="matrix(12,0,0,12,191.8,144.6)" />
<use xlink:href="#f0_2e" transform="matrix(12,0,0,12,200.6,144.6)" />
<use xlink:href="#f0_21" transform="matrix(12,0,0,12,206.9,144.6)" />
<use xlink:href="#f0_z" transform="matrix(12,0,0,12,218.3,144.6)" />
<use xlink:href="#f0_11" transform="matrix(12,0,0,12,64.9,173.6)" />
<use xlink:href="#f0_2a" transform="matrix(12,0,0,12,77.4,173.6)" />
<use xlink:href="#f0_2f" transform="matrix(12,0,0,12,85.8,173.6)" />
<use xlink:href="#f0_i" transform="matrix(12,0,0,12,92.4,173.6)" />
<use xlink:href="#f0_1j" transform="matrix(12,0,0,12,117,173.6)" />
<use xlink:href="#f0_1z" transform="matrix(12,0,0,12,126.9,173.6)" />
<use xlink:href="#f0_25" transform="matrix(12,0,0,12,134.2,173.6)" />
<use xlink:href="#f0_21" transform="matrix(12,0,0,12,138.3,173.6)" />
<use xlink:href="#f0_2a" transform="matrix(12,0,0,12,146,173.6)" />
<use xlink:href="#f0_2g" transform="matrix(12,0,0,12,154.5,173.6)" />
<use xlink:href="#f0_25" transform="matrix(12,0,0,12,159.2,173.6)" />
<use xlink:href="#f0_22" transform="matrix(12,0,0,12,163.3,173.6)" />
<use xlink:href="#f0_25" transform="matrix(12,0,0,12,168.4,173.6)" />
<use xlink:href="#f0_1z" transform="matrix(12,0,0,12,172.1,173.6)" />
<use xlink:href="#f0_2h" transform="matrix(12,0,0,12,183.2,173.6)" />
<use xlink:href="#f0_2a" transform="matrix(12,0,0,12,191.6,173.6)" />
<use xlink:href="#f0_20" transform="matrix(12,0,0,12,200.1,173.6)" />
<use xlink:href="#f0_21" transform="matrix(12,0,0,12,208.9,173.6)" />
<use xlink:href="#f0_2e" transform="matrix(12,0,0,12,216.6,173.6)" />
<use xlink:href="#f0_2f" transform="matrix(12,0,0,12,222.1,173.6)" />
<use xlink:href="#f0_2g" transform="matrix(12,0,0,12,228.7,173.6)" />
<use xlink:href="#f0_1x" transform="matrix(12,0,0,12,233.9,173.6)" />
<use xlink:href="#f0_2a" transform="matrix(12,0,0,12,241.2,173.6)" />
<use xlink:href="#f0_20" transform="matrix(12,0,0,12,249.7,173.6)" />
<use xlink:href="#f0_25" transform="matrix(12,0,0,12,258.5,173.6)" />
<use xlink:href="#f0_2a" transform="matrix(12,0,0,12,262.2,173.6)" />
<use xlink:href="#f0_23" transform="matrix(12,0,0,12,270.6,173.6)" />
<use xlink:href="#f0_2b" transform="matrix(12,0,0,12,282.7,173.6)" />
<use xlink:href="#f0_22" transform="matrix(12,0,0,12,291.6,173.6)" />
<use xlink:href="#f0_29" transform="matrix(12,0,0,12,299.7,173.6)" />
<use xlink:href="#f0_21" transform="matrix(12,0,0,12,312.5,173.6)" />
<use xlink:href="#f0_2a" transform="matrix(12,0,0,12,320.2,173.6)" />
<use xlink:href="#f0_2f" transform="matrix(12,0,0,12,328.7,173.6)" />
<use xlink:href="#f0_2g" transform="matrix(12,0,0,12,334.9,173.6)" />
<use xlink:href="#f0_2e" transform="matrix(12,0,0,12,340.1,173.6)" />
<use xlink:href="#f0_2h" transform="matrix(12,0,0,12,345.9,173.6)" />
<use xlink:href="#f0_1x" transform="matrix(12,0,0,12,354.8,173.6)" />
<use xlink:href="#f0_28" transform="matrix(12,0,0,12,362.1,173.6)" />
<use xlink:href="#f0_1z" transform="matrix(12,0,0,12,369.5,173.6)" />
<use xlink:href="#f0_2l" transform="matrix(12,0,0,12,376.8,173.6)" />
<use xlink:href="#f0_1z" transform="matrix(12,0,0,12,384.9,173.6)" />
<use xlink:href="#f0_28" transform="matrix(12,0,0,12,392.6,173.6)" />
<use xlink:href="#f0_21" transform="matrix(12,0,0,12,396.3,173.6)" />
<use xlink:href="#f0_2b" transform="matrix(12,0,0,12,407.3,173.6)" />
<use xlink:href="#f0_22" transform="matrix(12,0,0,12,416.5,173.6)" />
<use xlink:href="#f0_24" transform="matrix(12,0,0,12,424.6,173.6)" />
<use xlink:href="#f0_2h" transform="matrix(12,0,0,12,433.1,173.6)" />
<use xlink:href="#f0_29" transform="matrix(12,0,0,12,441.5,173.6)" />
<use xlink:href="#f0_1x" transform="matrix(12,0,0,12,454.7,173.6)" />
<use xlink:href="#f0_2a" transform="matrix(12,0,0,12,462.4,173.6)" />
<use xlink:href="#f0_22" transform="matrix(12,0,0,12,473.5,173.6)" />
<use xlink:href="#f0_21" transform="matrix(12,0,0,12,478.6,173.6)" />
<use xlink:href="#f0_29" transform="matrix(12,0,0,12,486.3,173.6)" />
<use xlink:href="#f0_1x" transform="matrix(12,0,0,12,499.2,173.6)" />
<use xlink:href="#f0_28" transform="matrix(12,0,0,12,506.9,173.6)" />
<use xlink:href="#f0_21" transform="matrix(12,0,0,12,511,173.6)" />
<use xlink:href="#f0_2f" transform="matrix(12,0,0,12,518.3,173.6)" />
<use xlink:href="#f0_1x" transform="matrix(12,0,0,12,528.2,173.6)" />
<use xlink:href="#f0_2e" transform="matrix(12,0,0,12,535.6,173.6)" />
<use xlink:href="#f0_21" transform="matrix(12,0,0,12,541.5,173.6)" />
<use xlink:href="#f0_2i" transform="matrix(12,0,0,12,552.5,173.6)" />
<use xlink:href="#f0_21" transform="matrix(12,0,0,12,560.6,173.6)" />
<use xlink:href="#f0_2e" transform="matrix(12,0,0,12,568.3,173.6)" />
<use xlink:href="#f0_2l" transform="matrix(12,0,0,12,574.2,173.6)" />
<use xlink:href="#f0_25" transform="matrix(12,0,0,12,585.2,173.6)" />
<use xlink:href="#f0_29" transform="matrix(12,0,0,12,589.3,173.6)" />
<use xlink:href="#f0_2c" transform="matrix(12,0,0,12,602.1,173.6)" />
<use xlink:href="#f0_2b" transform="matrix(12,0,0,12,611,173.6)" />
<use xlink:href="#f0_2e" transform="matrix(12,0,0,12,620.1,173.6)" />
<use xlink:href="#f0_2g" transform="matrix(12,0,0,12,626,173.6)" />
<use xlink:href="#f0_1x" transform="matrix(12,0,0,12,630.8,173.6)" />
<use xlink:href="#f0_2a" transform="matrix(12,0,0,12,638.5,173.6)" />
<use xlink:href="#f0_2g" transform="matrix(12,0,0,12,647,173.6)" />
<use xlink:href="#f0_1x" transform="matrix(12,0,0,12,655.1,173.6)" />
<use xlink:href="#f0_2f" transform="matrix(12,0,0,12,662.8,173.6)" />
<use xlink:href="#f0_1x" transform="matrix(12,0,0,12,672,173.6)" />
<use xlink:href="#f0_1z" transform="matrix(12,0,0,12,683,173.6)" />
<use xlink:href="#f0_2b" transform="matrix(12,0,0,12,690.4,173.6)" />
<use xlink:href="#f0_2a" transform="matrix(12,0,0,12,699.5,173.6)" />
<use xlink:href="#f0_2g" transform="matrix(12,0,0,12,708,173.6)" />
<use xlink:href="#f0_2e" transform="matrix(12,0,0,12,712.8,173.6)" />
<use xlink:href="#f0_1x" transform="matrix(12,0,0,12,718.6,173.6)" />
<use xlink:href="#f0_1z" transform="matrix(12,0,0,12,726.4,173.6)" />
<use xlink:href="#f0_21" transform="matrix(12,0,0,12,733.7,173.6)" />
<use xlink:href="#f0_2c" transform="matrix(12,0,0,12,741.4,173.6)" />
<use xlink:href="#f0_2g" transform="matrix(12,0,0,12,750.2,173.6)" />
<use xlink:href="#f0_25" transform="matrix(12,0,0,12,755.4,173.6)" />
<use xlink:href="#f0_2i" transform="matrix(12,0,0,12,759.1,173.6)" />
<use xlink:href="#f0_21" transform="matrix(12,0,0,12,767.5,173.6)" />
<use xlink:href="#f0_29" transform="matrix(12,0,0,12,778.2,173.6)" />
<use xlink:href="#f0_21" transform="matrix(12,0,0,12,789.8,173.6)" />
<use xlink:href="#f0_1x" transform="matrix(12,0,0,12,797.5,173.6)" />
<use xlink:href="#f0_2f" transform="matrix(12,0,0,12,804.9,173.6)" />
<use xlink:href="#f0_2h" transform="matrix(12,0,0,12,811.5,173.6)" />
<use xlink:href="#f0_2e" transform="matrix(12,0,0,12,820.3,173.6)" />
<use xlink:href="#f0_21" transform="matrix(12,0,0,12,826.2,173.6)" />
<use xlink:href="#f0_2f" transform="matrix(12,0,0,12,833.5,173.6)" />
<use xlink:href="#f0_i" transform="matrix(12,0,0,12,840.2,173.6)" />
<use xlink:href="#f0_19" transform="matrix(12,0,0,12,117,197.8)" />
<use xlink:href="#f0_2g" transform="matrix(12,0,0,12,122.9,197.8)" />
<use xlink:href="#f0_24" transform="matrix(12,0,0,12,131.3,197.8)" />
<use xlink:href="#f0_21" transform="matrix(12,0,0,12,139.7,197.8)" />
<use xlink:href="#f0_28" transform="matrix(12,0,0,12,147.5,197.8)" />
<use xlink:href="#f0_2c" transform="matrix(12,0,0,12,151.5,197.8)" />
<use xlink:href="#f0_2f" transform="matrix(12,0,0,12,160.3,197.8)" />
<use xlink:href="#f0_25" transform="matrix(12,0,0,12,170.3,197.8)" />
<use xlink:href="#f0_2a" transform="matrix(12,0,0,12,174.3,197.8)" />
<use xlink:href="#f0_22" transform="matrix(12,0,0,12,185.7,197.8)" />
<use xlink:href="#f0_2b" transform="matrix(12,0,0,12,190.9,197.8)" />
<use xlink:href="#f0_28" transform="matrix(12,0,0,12,200,197.8)" />
<use xlink:href="#f0_28" transform="matrix(12,0,0,12,204.1,197.8)" />
<use xlink:href="#f0_2b" transform="matrix(12,0,0,12,208.1,197.8)" />
<use xlink:href="#f0_2j" transform="matrix(12,0,0,12,217.3,197.8)" />
<use xlink:href="#f0_25" transform="matrix(12,0,0,12,230.2,197.8)" />
<use xlink:href="#f0_2a" transform="matrix(12,0,0,12,234.2,197.8)" />
<use xlink:href="#f0_23" transform="matrix(12,0,0,12,242.7,197.8)" />
<use xlink:href="#f0_2j" transform="matrix(12,0,0,12,254.8,197.8)" />
<use xlink:href="#f0_1x" transform="matrix(12,0,0,12,267.6,197.8)" />
<use xlink:href="#f0_2l" transform="matrix(12,0,0,12,275.4,197.8)" />
<use xlink:href="#f0_2f" transform="matrix(12,0,0,12,283.4,197.8)" />
<use xlink:href="#f0_u" transform="matrix(12,0,0,12,293.4,197.8)" />
<use xlink:href="#f0_c" transform="matrix(12,0,0,12,117,226.7)" />
<use xlink:href="#f0_25" transform="matrix(12,0,0,12,122.1,226.7)" />
<use xlink:href="#f0_d" transform="matrix(12,0,0,12,125.8,226.7)" />
<use xlink:href="#f0_1j" transform="matrix(12,0,0,12,155.8,226.7)" />
<use xlink:href="#f0_1x" transform="matrix(12,0,0,12,165.7,226.7)" />
<use xlink:href="#f0_22" transform="matrix(12,0,0,12,173.5,226.7)" />
<use xlink:href="#f0_21" transform="matrix(12,0,0,12,178.6,226.7)" />
<use xlink:href="#f0_2c" transform="matrix(12,0,0,12,190,226.7)" />
<use xlink:href="#f0_21" transform="matrix(12,0,0,12,198.8,226.7)" />
<use xlink:href="#f0_2e" transform="matrix(12,0,0,12,206.6,226.7)" />
<use xlink:href="#f0_25" transform="matrix(12,0,0,12,212.4,226.7)" />
<use xlink:href="#f0_2b" transform="matrix(12,0,0,12,216.5,226.7)" />
<use xlink:href="#f0_20" transform="matrix(12,0,0,12,225.7,226.7)" />
<use xlink:href="#f0_c" transform="matrix(12,0,0,12,237.4,226.7)" />
<use xlink:href="#f0_1i" transform="matrix(12,0,0,12,243.3,226.7)" />
<use xlink:href="#f0_24" transform="matrix(12,0,0,12,255.4,226.7)" />
<use xlink:href="#f0_2l" transform="matrix(12,0,0,12,263.9,226.7)" />
<use xlink:href="#f0_2g" transform="matrix(12,0,0,12,272,226.7)" />
<use xlink:href="#f0_24" transform="matrix(12,0,0,12,277.1,226.7)" />
<use xlink:href="#f0_29" transform="matrix(12,0,0,12,285.5,226.7)" />
<use xlink:href="#f0_29" transform="matrix(12,0,0,12,302.1,226.7)" />
<use xlink:href="#f0_21" transform="matrix(12,0,0,12,315.3,226.7)" />
<use xlink:href="#f0_2g" transform="matrix(12,0,0,12,323.4,226.7)" />
<use xlink:href="#f0_24" transform="matrix(12,0,0,12,328.5,226.7)" />
<use xlink:href="#f0_2b" transform="matrix(12,0,0,12,336.9,226.7)" />
<use xlink:href="#f0_20" transform="matrix(12,0,0,12,346.1,226.7)" />
<use xlink:href="#f0_d" transform="matrix(12,0,0,12,354.9,226.7)" />
<use xlink:href="#f0_11" transform="matrix(12,0,0,12,155.8,255.7)" />
<use xlink:href="#f0_2j" transform="matrix(12,0,0,12,171.6,255.7)" />
<use xlink:href="#f0_21" transform="matrix(12,0,0,12,184.5,255.7)" />
<use xlink:href="#f0_21" transform="matrix(12,0,0,12,192.2,255.7)" />
<use xlink:href="#f0_27" transform="matrix(12,0,0,12,199.9,255.7)" />
<use xlink:href="#f0_1y" transform="matrix(12,0,0,12,211.7,255.7)" />
<use xlink:href="#f0_21" transform="matrix(12,0,0,12,220.1,255.7)" />
<use xlink:href="#f0_22" transform="matrix(12,0,0,12,227.8,255.7)" />
<use xlink:href="#f0_2b" transform="matrix(12,0,0,12,233,255.7)" />
<use xlink:href="#f0_2e" transform="matrix(12,0,0,12,242.2,255.7)" />
<use xlink:href="#f0_21" transform="matrix(12,0,0,12,248,255.7)" />
<use xlink:href="#f0_1x" transform="matrix(12,0,0,12,259.1,255.7)" />
<use xlink:href="#f0_2a" transform="matrix(12,0,0,12,266.8,255.7)" />
<use xlink:href="#f0_20" transform="matrix(12,0,0,12,275.3,255.7)" />
<use xlink:href="#f0_1x" transform="matrix(12,0,0,12,287.4,255.7)" />
<use xlink:href="#f0_2j" transform="matrix(12,0,0,12,298.4,255.7)" />
<use xlink:href="#f0_21" transform="matrix(12,0,0,12,311.3,255.7)" />
<use xlink:href="#f0_21" transform="matrix(12,0,0,12,319,255.7)" />
<use xlink:href="#f0_27" transform="matrix(12,0,0,12,326.7,255.7)" />
<use xlink:href="#f0_1x" transform="matrix(12,0,0,12,338.5,255.7)" />
<use xlink:href="#f0_22" transform="matrix(12,0,0,12,346.6,255.7)" />
<use xlink:href="#f0_2g" transform="matrix(12,0,0,12,351.7,255.7)" />
<use xlink:href="#f0_21" transform="matrix(12,0,0,12,356.8,255.7)" />
<use xlink:href="#f0_2e" transform="matrix(12,0,0,12,364.6,255.7)" />
<use xlink:href="#f0_29" transform="matrix(12,0,0,12,373.8,255.7)" />
<use xlink:href="#f0_21" transform="matrix(12,0,0,12,387,255.7)" />
<use xlink:href="#f0_2a" transform="matrix(12,0,0,12,394.7,255.7)" />
<use xlink:href="#f0_2f" transform="matrix(12,0,0,12,403.1,255.7)" />
<use xlink:href="#f0_2g" transform="matrix(12,0,0,12,409.8,255.7)" />
<use xlink:href="#f0_2e" transform="matrix(12,0,0,12,414.9,255.7)" />
<use xlink:href="#f0_2h" transform="matrix(12,0,0,12,420.8,255.7)" />
<use xlink:href="#f0_1x" transform="matrix(12,0,0,12,429.6,255.7)" />
<use xlink:href="#f0_28" transform="matrix(12,0,0,12,437.3,255.7)" />
<use xlink:href="#f0_1y" transform="matrix(12,0,0,12,444.7,255.7)" />
<use xlink:href="#f0_28" transform="matrix(12,0,0,12,453.1,255.7)" />
<use xlink:href="#f0_21" transform="matrix(12,0,0,12,457.2,255.7)" />
<use xlink:href="#f0_21" transform="matrix(12,0,0,12,464.9,255.7)" />
<use xlink:href="#f0_20" transform="matrix(12,0,0,12,472.6,255.7)" />
<use xlink:href="#f0_25" transform="matrix(12,0,0,12,481.4,255.7)" />
<use xlink:href="#f0_2a" transform="matrix(12,0,0,12,485.5,255.7)" />
<use xlink:href="#f0_23" transform="matrix(12,0,0,12,493.9,255.7)" />
<use xlink:href="#f0_25" transform="matrix(12,0,0,12,506.1,255.7)" />
<use xlink:href="#f0_2f" transform="matrix(12,0,0,12,510.1,255.7)" />
<use xlink:href="#f0_1z" transform="matrix(12,0,0,12,519.7,255.7)" />
<use xlink:href="#f0_2b" transform="matrix(12,0,0,12,527.4,255.7)" />
<use xlink:href="#f0_2a" transform="matrix(12,0,0,12,536.6,255.7)" />
<use xlink:href="#f0_2f" transform="matrix(12,0,0,12,545,255.7)" />
<use xlink:href="#f0_25" transform="matrix(12,0,0,12,551.6,255.7)" />
<use xlink:href="#f0_20" transform="matrix(12,0,0,12,555.7,255.7)" />
<use xlink:href="#f0_21" transform="matrix(12,0,0,12,564.5,255.7)" />
<use xlink:href="#f0_2e" transform="matrix(12,0,0,12,572.2,255.7)" />
<use xlink:href="#f0_21" transform="matrix(12,0,0,12,578.1,255.7)" />
<use xlink:href="#f0_20" transform="matrix(12,0,0,12,585.8,255.7)" />
<use xlink:href="#f0_1x" transform="matrix(12,0,0,12,597.9,255.7)" />
<use xlink:href="#f0_2f" transform="matrix(12,0,0,12,605.7,255.7)" />
<use xlink:href="#f0_2f" transform="matrix(12,0,0,12,615.6,255.7)" />
<use xlink:href="#f0_1x" transform="matrix(12,0,0,12,622.2,255.7)" />
<use xlink:href="#f0_22" transform="matrix(12,0,0,12,629.9,255.7)" />
<use xlink:href="#f0_21" transform="matrix(12,0,0,12,635.1,255.7)" />
<use xlink:href="#f0_2c" transform="matrix(12,0,0,12,646.1,255.7)" />
<use xlink:href="#f0_21" transform="matrix(12,0,0,12,654.9,255.7)" />
<use xlink:href="#f0_2e" transform="matrix(12,0,0,12,662.6,255.7)" />
<use xlink:href="#f0_25" transform="matrix(12,0,0,12,668.5,255.7)" />
<use xlink:href="#f0_2b" transform="matrix(12,0,0,12,672.9,255.7)" />
<use xlink:href="#f0_20" transform="matrix(12,0,0,12,682.1,255.7)" />
<use xlink:href="#f0_22" transform="matrix(12,0,0,12,693.9,255.7)" />
<use xlink:href="#f0_2b" transform="matrix(12,0,0,12,699,255.7)" />
<use xlink:href="#f0_2e" transform="matrix(12,0,0,12,708.2,255.7)" />
<use xlink:href="#f0_2f" transform="matrix(12,0,0,12,717.4,255.7)" />
<use xlink:href="#f0_21" transform="matrix(12,0,0,12,724,255.7)" />
<use xlink:href="#f0_2k" transform="matrix(12,0,0,12,731.7,255.7)" />
<use xlink:href="#f0_2h" transform="matrix(12,0,0,12,740.2,255.7)" />
<use xlink:href="#f0_1x" transform="matrix(12,0,0,12,749,255.7)" />
<use xlink:href="#f0_28" transform="matrix(12,0,0,12,756.7,255.7)" />
<use xlink:href="#f0_25" transform="matrix(12,0,0,12,764.1,255.7)" />
<use xlink:href="#f0_2a" transform="matrix(12,0,0,12,768.1,255.7)" />
<use xlink:href="#f0_2g" transform="matrix(12,0,0,12,776.6,255.7)" />
<use xlink:href="#f0_21" transform="matrix(12,0,0,12,781.7,255.7)" />
<use xlink:href="#f0_2e" transform="matrix(12,0,0,12,789.4,255.7)" />
<use xlink:href="#f0_1z" transform="matrix(12,0,0,12,795.3,255.7)" />
<use xlink:href="#f0_2b" transform="matrix(12,0,0,12,803,255.7)" />
<use xlink:href="#f0_2h" transform="matrix(12,0,0,12,812.2,255.7)" />
<use xlink:href="#f0_2e" transform="matrix(12,0,0,12,821,255.7)" />
<use xlink:href="#f0_2f" transform="matrix(12,0,0,12,826.9,255.7)" />
<use xlink:href="#f0_21" transform="matrix(12,0,0,12,832,255.7)" />
<use xlink:href="#f0_i" transform="matrix(12,0,0,12,839.7,255.7)" />
<use xlink:href="#f0_1k" transform="matrix(12,0,0,12,155.8,279.9)" />
<use xlink:href="#f0_24" transform="matrix(12,0,0,12,166.8,279.9)" />
<use xlink:href="#f0_21" transform="matrix(12,0,0,12,175.7,279.9)" />
<use xlink:href="#f0_25" transform="matrix(12,0,0,12,187.1,279.9)" />
<use xlink:href="#f0_20" transform="matrix(12,0,0,12,191.1,279.9)" />
<use xlink:href="#f0_21" transform="matrix(12,0,0,12,199.9,279.9)" />
<use xlink:href="#f0_1x" transform="matrix(12,0,0,12,208,279.9)" />
<use xlink:href="#f0_25" transform="matrix(12,0,0,12,218.7,279.9)" />
<use xlink:href="#f0_2f" transform="matrix(12,0,0,12,223.1,279.9)" />
<use xlink:href="#f0_1y" transform="matrix(12,0,0,12,233.4,279.9)" />
<use xlink:href="#f0_1x" transform="matrix(12,0,0,12,241.9,279.9)" />
<use xlink:href="#f0_2f" transform="matrix(12,0,0,12,249.6,279.9)" />
<use xlink:href="#f0_21" transform="matrix(12,0,0,12,256.6,279.9)" />
<use xlink:href="#f0_20" transform="matrix(12,0,0,12,264.3,279.9)" />
<use xlink:href="#f0_2b" transform="matrix(12,0,0,12,276.8,279.9)" />
<use xlink:href="#f0_2a" transform="matrix(12,0,0,12,285.9,279.9)" />
<use xlink:href="#f0_22" transform="matrix(12,0,0,12,298.1,279.9)" />
<use xlink:href="#f0_2b" transform="matrix(12,0,0,12,303.2,279.9)" />
<use xlink:href="#f0_28" transform="matrix(12,0,0,12,312.8,279.9)" />
<use xlink:href="#f0_28" transform="matrix(12,0,0,12,316.8,279.9)" />
<use xlink:href="#f0_2b" transform="matrix(12,0,0,12,320.9,279.9)" />
<use xlink:href="#f0_2j" transform="matrix(12,0,0,12,330.4,279.9)" />
<use xlink:href="#f0_25" transform="matrix(12,0,0,12,343.2,279.9)" />
<use xlink:href="#f0_2a" transform="matrix(12,0,0,12,347.7,279.9)" />
<use xlink:href="#f0_23" transform="matrix(12,0,0,12,356.1,279.9)" />
<use xlink:href="#f0_22" transform="matrix(12,0,0,12,368.2,279.9)" />
<use xlink:href="#f0_1x" transform="matrix(12,0,0,12,373.4,279.9)" />
<use xlink:href="#f0_1z" transform="matrix(12,0,0,12,381.1,279.9)" />
<use xlink:href="#f0_2g" transform="matrix(12,0,0,12,389.2,279.9)" />
<use xlink:href="#f0_2f" transform="matrix(12,0,0,12,394.3,279.9)" />
<use xlink:href="#f0_u" transform="matrix(12,0,0,12,404.6,279.9)" />
<use xlink:href="#f0_c" transform="matrix(12,0,0,12,155.8,308.9)" />
<use xlink:href="#f0_11" transform="matrix(12,0,0,12,162.1,308.9)" />
<use xlink:href="#f0_d" transform="matrix(12,0,0,12,174.5,308.9)" />
<use xlink:href="#f0_1f" transform="matrix(12,0,0,12,184.1,308.9)" />
<use xlink:href="#f0_2i" transform="matrix(12,0,0,12,197.3,308.9)" />
<use xlink:href="#f0_2h" transform="matrix(12,0,0,12,206.1,308.9)" />
<use xlink:href="#f0_28" transform="matrix(12,0,0,12,214.9,308.9)" />
<use xlink:href="#f0_1x" transform="matrix(12,0,0,12,219.4,308.9)" />
<use xlink:href="#f0_2g" transform="matrix(12,0,0,12,227.4,308.9)" />
<use xlink:href="#f0_25" transform="matrix(12,0,0,12,232.6,308.9)" />
<use xlink:href="#f0_2b" transform="matrix(12,0,0,12,237,308.9)" />
<use xlink:href="#f0_2a" transform="matrix(12,0,0,12,246.2,308.9)" />
<use xlink:href="#f0_2b" transform="matrix(12,0,0,12,258.7,308.9)" />
<use xlink:href="#f0_1z" transform="matrix(12,0,0,12,267.8,308.9)" />
<use xlink:href="#f0_1z" transform="matrix(12,0,0,12,275.9,308.9)" />
<use xlink:href="#f0_2h" transform="matrix(12,0,0,12,283.6,308.9)" />
<use xlink:href="#f0_2e" transform="matrix(12,0,0,12,292.8,308.9)" />
<use xlink:href="#f0_2f" transform="matrix(12,0,0,12,299,308.9)" />
<use xlink:href="#f0_2b" transform="matrix(12,0,0,12,309.3,308.9)" />
<use xlink:href="#f0_2a" transform="matrix(12,0,0,12,318.9,308.9)" />
<use xlink:href="#f0_l" transform="matrix(12,0,0,12,331,308.9)" />
<use xlink:href="#f0_o" transform="matrix(12,0,0,12,339.8,308.9)" />
<use xlink:href="#f0_2g" transform="matrix(7,0,0,7,348.7,302.6)" />
<use xlink:href="#f0_24" transform="matrix(7,0,0,7,351.3,302.6)" />
<use xlink:href="#f0_20" transform="matrix(12,0,0,12,360.1,308.9)" />
<use xlink:href="#f0_1x" transform="matrix(12,0,0,12,368.9,308.9)" />
<use xlink:href="#f0_2l" transform="matrix(12,0,0,12,377,308.9)" />
<use xlink:href="#f0_2b" transform="matrix(12,0,0,12,388.4,308.9)" />
<use xlink:href="#f0_22" transform="matrix(12,0,0,12,397.5,308.9)" />
<use xlink:href="#f0_1z" transform="matrix(12,0,0,12,406.8,308.9)" />
<use xlink:href="#f0_2l" transform="matrix(12,0,0,12,414.5,308.9)" />
<use xlink:href="#f0_1z" transform="matrix(12,0,0,12,422.9,308.9)" />
<use xlink:href="#f0_28" transform="matrix(12,0,0,12,430.6,308.9)" />
<use xlink:href="#f0_21" transform="matrix(12,0,0,12,435.1,308.9)" />
<use xlink:href="#f0_1x" transform="matrix(12,0,0,12,446.5,308.9)" />
<use xlink:href="#f0_2a" transform="matrix(12,0,0,12,454.5,308.9)" />
<use xlink:href="#f0_20" transform="matrix(12,0,0,12,463,308.9)" />
<use xlink:href="#f0_2b" transform="matrix(12,0,0,12,475.1,308.9)" />
<use xlink:href="#f0_2i" transform="matrix(12,0,0,12,484.6,308.9)" />
<use xlink:href="#f0_2h" transform="matrix(12,0,0,12,493.4,308.9)" />
<use xlink:href="#f0_29" transform="matrix(12,0,0,12,502.3,308.9)" />
<use xlink:href="#f0_2f" transform="matrix(12,0,0,12,519.2,308.9)" />
<use xlink:href="#f0_2h" transform="matrix(12,0,0,12,526.2,308.9)" />
<use xlink:href="#f0_2e" transform="matrix(12,0,0,12,535.3,308.9)" />
<use xlink:href="#f0_2i" transform="matrix(12,0,0,12,541.2,308.9)" />
<use xlink:href="#f0_25" transform="matrix(12,0,0,12,550,308.9)" />
<use xlink:href="#f0_2i" transform="matrix(12,0,0,12,554.1,308.9)" />
<use xlink:href="#f0_21" transform="matrix(12,0,0,12,562.9,308.9)" />
<use xlink:href="#f0_2f" transform="matrix(12,0,0,12,570.6,308.9)" />
<use xlink:href="#f0_22" transform="matrix(12,0,0,12,581.3,308.9)" />
<use xlink:href="#f0_2b" transform="matrix(12,0,0,12,586.4,308.9)" />
<use xlink:href="#f0_2e" transform="matrix(12,0,0,12,595.9,308.9)" />
<use xlink:href="#f0_1x" transform="matrix(12,0,0,12,605.5,308.9)" />
<use xlink:href="#f0_1y" transform="matrix(12,0,0,12,613.6,308.9)" />
<use xlink:href="#f0_2b" transform="matrix(12,0,0,12,622.1,308.9)" />
<use xlink:href="#f0_2h" transform="matrix(12,0,0,12,631.6,308.9)" />
<use xlink:href="#f0_2g" transform="matrix(12,0,0,12,640.4,308.9)" />
<use xlink:href="#f0_m" transform="matrix(12,0,0,12,648.8,308.9)" />
<use xlink:href="#f0_20" transform="matrix(12,0,0,12,661.7,308.9)" />
<use xlink:href="#f0_1x" transform="matrix(12,0,0,12,670.5,308.9)" />
<use xlink:href="#f0_2l" transform="matrix(12,0,0,12,678.6,308.9)" />
<use xlink:href="#f0_2f" transform="matrix(12,0,0,12,686.7,308.9)" />
<use xlink:href="#f0_i" transform="matrix(12,0,0,12,693.7,308.9)" />
<use xlink:href="#f0_c" transform="matrix(12,0,0,12,155.8,337.5)" />
<use xlink:href="#f0_12" transform="matrix(12,0,0,12,162.1,337.5)" />
<use xlink:href="#f0_d" transform="matrix(12,0,0,12,173.8,337.5)" />
<use xlink:href="#f0_1j" transform="matrix(12,0,0,12,183.4,337.5)" />
<use xlink:href="#f0_2c" transform="matrix(12,0,0,12,193.6,337.5)" />
<use xlink:href="#f0_21" transform="matrix(12,0,0,12,202.4,337.5)" />
<use xlink:href="#f0_2e" transform="matrix(12,0,0,12,210.5,337.5)" />
<use xlink:href="#f0_29" transform="matrix(12,0,0,12,216.4,337.5)" />
<use xlink:href="#f0_2f" transform="matrix(12,0,0,12,230,337.5)" />
<use xlink:href="#f0_2e" transform="matrix(12,0,0,12,239.9,337.5)" />
<use xlink:href="#f0_21" transform="matrix(12,0,0,12,246.2,337.5)" />
<use xlink:href="#f0_29" transform="matrix(12,0,0,12,253.9,337.5)" />
<use xlink:href="#f0_1x" transform="matrix(12,0,0,12,267.5,337.5)" />
<use xlink:href="#f0_25" transform="matrix(12,0,0,12,275.2,337.5)" />
<use xlink:href="#f0_2a" transform="matrix(12,0,0,12,279.6,337.5)" />
<use xlink:href="#f0_1x" transform="matrix(12,0,0,12,291.7,337.5)" />
<use xlink:href="#f0_28" transform="matrix(12,0,0,12,299.4,337.5)" />
<use xlink:href="#f0_25" transform="matrix(12,0,0,12,303.9,337.5)" />
<use xlink:href="#f0_2i" transform="matrix(12,0,0,12,308.3,337.5)" />
<use xlink:href="#f0_21" transform="matrix(12,0,0,12,316.7,337.5)" />
<use xlink:href="#f0_22" transform="matrix(12,0,0,12,328.1,337.5)" />
<use xlink:href="#f0_2b" transform="matrix(12,0,0,12,333.6,337.5)" />
<use xlink:href="#f0_2e" transform="matrix(12,0,0,12,342.8,337.5)" />
<use xlink:href="#f0_1x" transform="matrix(12,0,0,12,352.4,337.5)" />
<use xlink:href="#f0_1y" transform="matrix(12,0,0,12,360.4,337.5)" />
<use xlink:href="#f0_2b" transform="matrix(12,0,0,12,368.9,337.5)" />
<use xlink:href="#f0_2h" transform="matrix(12,0,0,12,378.4,337.5)" />
<use xlink:href="#f0_2g" transform="matrix(12,0,0,12,387.6,337.5)" />
<use xlink:href="#f0_n" transform="matrix(12,0,0,12,396,337.5)" />
<use xlink:href="#f0_20" transform="matrix(12,0,0,12,408.5,337.5)" />
<use xlink:href="#f0_1x" transform="matrix(12,0,0,12,417.4,337.5)" />
<use xlink:href="#f0_2l" transform="matrix(12,0,0,12,425.4,337.5)" />
<use xlink:href="#f0_2f" transform="matrix(12,0,0,12,433.5,337.5)" />
<use xlink:href="#f0_i" transform="matrix(12,0,0,12,440.5,337.5)" />
<use xlink:href="#f0_1k" transform="matrix(12,0,0,12,155.8,366.4)" />
<use xlink:href="#f0_24" transform="matrix(12,0,0,12,167.2,366.4)" />
<use xlink:href="#f0_25" transform="matrix(12,0,0,12,175.6,366.4)" />
<use xlink:href="#f0_2f" transform="matrix(12,0,0,12,180.1,366.4)" />
<use xlink:href="#f0_29" transform="matrix(12,0,0,12,190.4,366.4)" />
<use xlink:href="#f0_21" transform="matrix(12,0,0,12,203.6,366.4)" />
<use xlink:href="#f0_2g" transform="matrix(12,0,0,12,211.7,366.4)" />
<use xlink:href="#f0_24" transform="matrix(12,0,0,12,216.8,366.4)" />
<use xlink:href="#f0_2b" transform="matrix(12,0,0,12,225.6,366.4)" />
<use xlink:href="#f0_20" transform="matrix(12,0,0,12,234.8,366.4)" />
<use xlink:href="#f0_2e" transform="matrix(12,0,0,12,247.3,366.4)" />
<use xlink:href="#f0_21" transform="matrix(12,0,0,12,253.5,366.4)" />
<use xlink:href="#f0_20" transform="matrix(12,0,0,12,261.2,366.4)" />
<use xlink:href="#f0_2h" transform="matrix(12,0,0,12,270.4,366.4)" />
<use xlink:href="#f0_1z" transform="matrix(12,0,0,12,279.2,366.4)" />
<use xlink:href="#f0_21" transform="matrix(12,0,0,12,287.3,366.4)" />
<use xlink:href="#f0_2f" transform="matrix(12,0,0,12,295,366.4)" />
<use xlink:href="#f0_2g" transform="matrix(12,0,0,12,304.9,366.4)" />
<use xlink:href="#f0_24" transform="matrix(12,0,0,12,310.4,366.4)" />
<use xlink:href="#f0_21" transform="matrix(12,0,0,12,318.9,366.4)" />
<use xlink:href="#f0_1z" transform="matrix(12,0,0,12,330.3,366.4)" />
<use xlink:href="#f0_24" transform="matrix(12,0,0,12,338.4,366.4)" />
<use xlink:href="#f0_1x" transform="matrix(12,0,0,12,346.8,366.4)" />
<use xlink:href="#f0_2a" transform="matrix(12,0,0,12,354.9,366.4)" />
<use xlink:href="#f0_1z" transform="matrix(12,0,0,12,363.3,366.4)" />
<use xlink:href="#f0_21" transform="matrix(12,0,0,12,371.4,366.4)" />
<use xlink:href="#f0_2f" transform="matrix(12,0,0,12,379.5,366.4)" />
<use xlink:href="#f0_2b" transform="matrix(12,0,0,12,389.8,366.4)" />
<use xlink:href="#f0_22" transform="matrix(12,0,0,12,399,366.4)" />
<use xlink:href="#f0_2c" transform="matrix(12,0,0,12,407.8,366.4)" />
<use xlink:href="#f0_2e" transform="matrix(12,0,0,12,417,366.4)" />
<use xlink:href="#f0_21" transform="matrix(12,0,0,12,422.9,366.4)" />
<use xlink:href="#f0_23" transform="matrix(12,0,0,12,430.9,366.4)" />
<use xlink:href="#f0_21" transform="matrix(12,0,0,12,439.8,366.4)" />
<use xlink:href="#f0_2a" transform="matrix(12,0,0,12,447.8,366.4)" />
<use xlink:href="#f0_1x" transform="matrix(12,0,0,12,456.3,366.4)" />
<use xlink:href="#f0_2a" transform="matrix(12,0,0,12,464.4,366.4)" />
<use xlink:href="#f0_1z" transform="matrix(12,0,0,12,472.8,366.4)" />
<use xlink:href="#f0_2l" transform="matrix(12,0,0,12,480.9,366.4)" />
<use xlink:href="#f0_1y" transform="matrix(12,0,0,12,492.3,366.4)" />
<use xlink:href="#f0_2l" transform="matrix(12,0,0,12,500.8,366.4)" />
<use xlink:href="#f0_1x" transform="matrix(12,0,0,12,512.5,366.4)" />
<use xlink:href="#f0_1y" transform="matrix(12,0,0,12,520.6,366.4)" />
<use xlink:href="#f0_2b" transform="matrix(12,0,0,12,529.1,366.4)" />
<use xlink:href="#f0_2h" transform="matrix(12,0,0,12,538.6,366.4)" />
<use xlink:href="#f0_2g" transform="matrix(12,0,0,12,547.4,366.4)" />
<use xlink:href="#f0_s" transform="matrix(12,0,0,12,556.2,366.4)" />
<use xlink:href="#f0_k" transform="matrix(12,0,0,12,565.4,366.4)" />
<use xlink:href="#f0_9" transform="matrix(12,0,0,12,574.2,366.4)" />
<use xlink:href="#f0_i" transform="matrix(12,0,0,12,589.6,366.4)" />
<use xlink:href="#f0_c" transform="matrix(12,0,0,12,117,395)" />
<use xlink:href="#f0_25" transform="matrix(12,0,0,12,122.1,395)" />
<use xlink:href="#f0_25" transform="matrix(12,0,0,12,125.8,395)" />
<use xlink:href="#f0_d" transform="matrix(12,0,0,12,129.1,395)" />
<use xlink:href="#f0_1g" transform="matrix(12,0,0,12,155.8,395)" />
<use xlink:href="#f0_25" transform="matrix(12,0,0,12,166.1,395)" />
<use xlink:href="#f0_28" transform="matrix(12,0,0,12,170.5,395)" />
<use xlink:href="#f0_28" transform="matrix(12,0,0,12,174.9,395)" />
<use xlink:href="#f0_2f" transform="matrix(12,0,0,12,179.3,395)" />
<use xlink:href="#f0_2h" transform="matrix(12,0,0,12,190.4,395)" />
<use xlink:href="#f0_2f" transform="matrix(12,0,0,12,199.5,395)" />
<use xlink:href="#f0_21" transform="matrix(12,0,0,12,206.5,395)" />
<use xlink:href="#f0_20" transform="matrix(12,0,0,12,214.6,395)" />
<use xlink:href="#f0_1y" transform="matrix(12,0,0,12,228.2,395)" />
<use xlink:href="#f0_2l" transform="matrix(12,0,0,12,237,395)" />
<use xlink:href="#f0_21" transform="matrix(12,0,0,12,249.5,395)" />
<use xlink:href="#f0_29" transform="matrix(12,0,0,12,257.6,395)" />
<use xlink:href="#f0_1x" transform="matrix(12,0,0,12,271.2,395)" />
<use xlink:href="#f0_28" transform="matrix(12,0,0,12,279.3,395)" />
<use xlink:href="#f0_21" transform="matrix(12,0,0,12,283.7,395)" />
<use xlink:href="#f0_2f" transform="matrix(12,0,0,12,291.8,395)" />
<use xlink:href="#f0_1x" transform="matrix(12,0,0,12,302.8,395)" />
<use xlink:href="#f0_2e" transform="matrix(12,0,0,12,310.9,395)" />
<use xlink:href="#f0_21" transform="matrix(12,0,0,12,317.1,395)" />
<use xlink:href="#f0_1x" transform="matrix(12,0,0,12,329.6,395)" />
<use xlink:href="#f0_28" transform="matrix(12,0,0,12,337.7,395)" />
<use xlink:href="#f0_2f" transform="matrix(12,0,0,12,342.1,395)" />
<use xlink:href="#f0_2b" transform="matrix(12,0,0,12,349.1,395)" />
<use xlink:href="#f0_20" transform="matrix(12,0,0,12,362.7,395)" />
<use xlink:href="#f0_21" transform="matrix(12,0,0,12,371.8,395)" />
<use xlink:href="#f0_2c" transform="matrix(12,0,0,12,379.9,395)" />
<use xlink:href="#f0_21" transform="matrix(12,0,0,12,389.1,395)" />
<use xlink:href="#f0_2a" transform="matrix(12,0,0,12,397.2,395)" />
<use xlink:href="#f0_20" transform="matrix(12,0,0,12,406,395)" />
<use xlink:href="#f0_21" transform="matrix(12,0,0,12,415.2,395)" />
<use xlink:href="#f0_2a" transform="matrix(12,0,0,12,423.2,395)" />
<use xlink:href="#f0_2g" transform="matrix(12,0,0,12,432.1,395)" />
<use xlink:href="#f0_2b" transform="matrix(12,0,0,12,441.6,395)" />
<use xlink:href="#f0_2a" transform="matrix(12,0,0,12,451.1,395)" />
<use xlink:href="#f0_29" transform="matrix(12,0,0,12,464.4,395)" />
<use xlink:href="#f0_21" transform="matrix(12,0,0,12,478,395)" />
<use xlink:href="#f0_2a" transform="matrix(12,0,0,12,486,395)" />
<use xlink:href="#f0_2f" transform="matrix(12,0,0,12,494.9,395)" />
<use xlink:href="#f0_2g" transform="matrix(12,0,0,12,501.8,395)" />
<use xlink:href="#f0_2e" transform="matrix(12,0,0,12,507.3,395)" />
<use xlink:href="#f0_2h" transform="matrix(12,0,0,12,513.6,395)" />
<use xlink:href="#f0_1x" transform="matrix(12,0,0,12,522.7,395)" />
<use xlink:href="#f0_28" transform="matrix(12,0,0,12,530.8,395)" />
<use xlink:href="#f0_1z" transform="matrix(12,0,0,12,539.3,395)" />
<use xlink:href="#f0_2l" transform="matrix(12,0,0,12,547.4,395)" />
<use xlink:href="#f0_1z" transform="matrix(12,0,0,12,555.8,395)" />
<use xlink:href="#f0_28" transform="matrix(12,0,0,12,563.9,395)" />
<use xlink:href="#f0_21" transform="matrix(12,0,0,12,568.3,395)" />
<use xlink:href="#f0_i" transform="matrix(12,0,0,12,576.4,395)" />
<use xlink:href="#f0_1k" transform="matrix(12,0,0,12,585.2,395)" />
<use xlink:href="#f0_24" transform="matrix(12,0,0,12,596.6,395)" />
<use xlink:href="#f0_21" transform="matrix(12,0,0,12,605.4,395)" />
<use xlink:href="#f0_2c" transform="matrix(12,0,0,12,617.9,395)" />
<use xlink:href="#f0_25" transform="matrix(12,0,0,12,627.1,395)" />
<use xlink:href="#f0_28" transform="matrix(12,0,0,12,631.5,395)" />
<use xlink:href="#f0_28" transform="matrix(12,0,0,12,635.9,395)" />
<use xlink:href="#f0_2f" transform="matrix(12,0,0,12,640.3,395)" />
<use xlink:href="#f0_24" transform="matrix(12,0,0,12,651.4,395)" />
<use xlink:href="#f0_1x" transform="matrix(12,0,0,12,660.2,395)" />
<use xlink:href="#f0_2i" transform="matrix(12,0,0,12,668.3,395)" />
<use xlink:href="#f0_21" transform="matrix(12,0,0,12,677.1,395)" />
<use xlink:href="#f0_2g" transform="matrix(12,0,0,12,689.2,395)" />
<use xlink:href="#f0_2b" transform="matrix(12,0,0,12,694.7,395)" />
<use xlink:href="#f0_1y" transform="matrix(12,0,0,12,708.7,395)" />
<use xlink:href="#f0_21" transform="matrix(12,0,0,12,717.5,395)" />
<use xlink:href="#f0_2g" transform="matrix(12,0,0,12,729.6,395)" />
<use xlink:href="#f0_1x" transform="matrix(12,0,0,12,735.1,395)" />
<use xlink:href="#f0_27" transform="matrix(12,0,0,12,743.2,395)" />
<use xlink:href="#f0_21" transform="matrix(12,0,0,12,752.4,395)" />
<use xlink:href="#f0_2a" transform="matrix(12,0,0,12,760.4,395)" />
<use xlink:href="#f0_20" transform="matrix(12,0,0,12,773.3,395)" />
<use xlink:href="#f0_1x" transform="matrix(12,0,0,12,782.5,395)" />
<use xlink:href="#f0_25" transform="matrix(12,0,0,12,790.6,395)" />
<use xlink:href="#f0_28" transform="matrix(12,0,0,12,795,395)" />
<use xlink:href="#f0_2l" transform="matrix(12,0,0,12,799.4,395)" />
<use xlink:href="#f0_22" transform="matrix(12,0,0,12,812.3,395)" />
<use xlink:href="#f0_2b" transform="matrix(12,0,0,12,817.8,395)" />
<use xlink:href="#f0_2e" transform="matrix(12,0,0,12,827.3,395)" />
<use xlink:href="#f0_1x" transform="matrix(12,0,0,12,837.6,395)" />
<use xlink:href="#f0_2c" transform="matrix(12,0,0,12,155.8,419.6)" />
<use xlink:href="#f0_21" transform="matrix(12,0,0,12,164.6,419.6)" />
<use xlink:href="#f0_2e" transform="matrix(12,0,0,12,172.4,419.6)" />
<use xlink:href="#f0_25" transform="matrix(12,0,0,12,178.6,419.6)" />
<use xlink:href="#f0_2b" transform="matrix(12,0,0,12,182.6,419.6)" />
<use xlink:href="#f0_20" transform="matrix(12,0,0,12,191.8,419.6)" />
<use xlink:href="#f0_2b" transform="matrix(12,0,0,12,204.3,419.6)" />
<use xlink:href="#f0_22" transform="matrix(12,0,0,12,213.5,419.6)" />
<use xlink:href="#f0_m" transform="matrix(12,0,0,12,221.9,419.6)" />
<use xlink:href="#f0_l" transform="matrix(12,0,0,12,230.8,419.6)" />
<use xlink:href="#f0_20" transform="matrix(12,0,0,12,242.9,419.6)" />
<use xlink:href="#f0_1x" transform="matrix(12,0,0,12,251.7,419.6)" />
<use xlink:href="#f0_2l" transform="matrix(12,0,0,12,259.4,419.6)" />
<use xlink:href="#f0_2f" transform="matrix(12,0,0,12,267.5,419.6)" />
<use xlink:href="#f0_2f" transform="matrix(12,0,0,12,277.8,419.6)" />
<use xlink:href="#f0_2g" transform="matrix(12,0,0,12,284.4,419.6)" />
<use xlink:href="#f0_1x" transform="matrix(12,0,0,12,289.5,419.6)" />
<use xlink:href="#f0_2e" transform="matrix(12,0,0,12,297.6,419.6)" />
<use xlink:href="#f0_2g" transform="matrix(12,0,0,12,303.5,419.6)" />
<use xlink:href="#f0_25" transform="matrix(12,0,0,12,308.6,419.6)" />
<use xlink:href="#f0_2a" transform="matrix(12,0,0,12,312.7,419.6)" />
<use xlink:href="#f0_23" transform="matrix(12,0,0,12,321.1,419.6)" />
<use xlink:href="#f0_2c" transform="matrix(12,0,0,12,333.6,419.6)" />
<use xlink:href="#f0_2e" transform="matrix(12,0,0,12,342.4,419.6)" />
<use xlink:href="#f0_21" transform="matrix(12,0,0,12,348.3,419.6)" />
<use xlink:href="#f0_22" transform="matrix(12,0,0,12,356.4,419.6)" />
<use xlink:href="#f0_21" transform="matrix(12,0,0,12,361.6,419.6)" />
<use xlink:href="#f0_2e" transform="matrix(12,0,0,12,369.3,419.6)" />
<use xlink:href="#f0_1x" transform="matrix(12,0,0,12,375.2,419.6)" />
<use xlink:href="#f0_1y" transform="matrix(12,0,0,12,382.9,419.6)" />
<use xlink:href="#f0_28" transform="matrix(12,0,0,12,391.7,419.6)" />
<use xlink:href="#f0_2l" transform="matrix(12,0,0,12,395.7,419.6)" />
<use xlink:href="#f0_2j" transform="matrix(12,0,0,12,407.2,419.6)" />
<use xlink:href="#f0_25" transform="matrix(12,0,0,12,420,419.6)" />
<use xlink:href="#f0_2g" transform="matrix(12,0,0,12,424.4,419.6)" />
<use xlink:href="#f0_24" transform="matrix(12,0,0,12,429.5,419.6)" />
<use xlink:href="#f0_25" transform="matrix(12,0,0,12,438,419.6)" />
<use xlink:href="#f0_2a" transform="matrix(12,0,0,12,442.1,419.6)" />
<use xlink:href="#f0_22" transform="matrix(12,0,0,12,453.8,419.6)" />
<use xlink:href="#f0_25" transform="matrix(12,0,0,12,459,419.6)" />
<use xlink:href="#f0_2e" transform="matrix(12,0,0,12,463,419.6)" />
<use xlink:href="#f0_2f" transform="matrix(12,0,0,12,468.9,419.6)" />
<use xlink:href="#f0_2g" transform="matrix(12,0,0,12,475.9,419.6)" />
<use xlink:href="#f0_22" transform="matrix(12,0,0,12,484.3,419.6)" />
<use xlink:href="#f0_25" transform="matrix(12,0,0,12,489.5,419.6)" />
<use xlink:href="#f0_2i" transform="matrix(12,0,0,12,493.5,419.6)" />
<use xlink:href="#f0_21" transform="matrix(12,0,0,12,502.4,419.6)" />
<use xlink:href="#f0_20" transform="matrix(12,0,0,12,513.4,419.6)" />
<use xlink:href="#f0_1x" transform="matrix(12,0,0,12,522.2,419.6)" />
<use xlink:href="#f0_2l" transform="matrix(12,0,0,12,530.3,419.6)" />
<use xlink:href="#f0_2f" transform="matrix(12,0,0,12,538.4,419.6)" />
<use xlink:href="#f0_2b" transform="matrix(12,0,0,12,548.3,419.6)" />
<use xlink:href="#f0_22" transform="matrix(12,0,0,12,557.5,419.6)" />
<use xlink:href="#f0_29" transform="matrix(12,0,0,12,565.9,419.6)" />
<use xlink:href="#f0_21" transform="matrix(12,0,0,12,579.2,419.6)" />
<use xlink:href="#f0_2a" transform="matrix(12,0,0,12,586.9,419.6)" />
<use xlink:href="#f0_2f" transform="matrix(12,0,0,12,595.7,419.6)" />
<use xlink:href="#f0_2g" transform="matrix(12,0,0,12,602.3,419.6)" />
<use xlink:href="#f0_2e" transform="matrix(12,0,0,12,607.4,419.6)" />
<use xlink:href="#f0_2h" transform="matrix(12,0,0,12,613.3,419.6)" />
<use xlink:href="#f0_1x" transform="matrix(12,0,0,12,622.1,419.6)" />
<use xlink:href="#f0_28" transform="matrix(12,0,0,12,630.2,419.6)" />
<use xlink:href="#f0_1z" transform="matrix(12,0,0,12,637.6,419.6)" />
<use xlink:href="#f0_2l" transform="matrix(12,0,0,12,645.3,419.6)" />
<use xlink:href="#f0_1z" transform="matrix(12,0,0,12,653.4,419.6)" />
<use xlink:href="#f0_28" transform="matrix(12,0,0,12,661.5,419.6)" />
<use xlink:href="#f0_21" transform="matrix(12,0,0,12,665.5,419.6)" />
<use xlink:href="#f0_i" transform="matrix(12,0,0,12,673.2,419.6)" />
<use xlink:href="#f0_19" transform="matrix(12,0,0,12,681.3,419.6)" />
<use xlink:href="#f0_2g" transform="matrix(12,0,0,12,687.2,419.6)" />
<use xlink:href="#f0_25" transform="matrix(12,0,0,12,695.7,419.6)" />
<use xlink:href="#f0_2f" transform="matrix(12,0,0,12,699.7,419.6)" />
<use xlink:href="#f0_2e" transform="matrix(12,0,0,12,709.7,419.6)" />
<use xlink:href="#f0_21" transform="matrix(12,0,0,12,715.5,419.6)" />
<use xlink:href="#f0_2c" transform="matrix(12,0,0,12,723.3,419.6)" />
<use xlink:href="#f0_21" transform="matrix(12,0,0,12,732.4,419.6)" />
<use xlink:href="#f0_1x" transform="matrix(12,0,0,12,740.1,419.6)" />
<use xlink:href="#f0_2g" transform="matrix(12,0,0,12,747.9,419.6)" />
<use xlink:href="#f0_21" transform="matrix(12,0,0,12,753,419.6)" />
<use xlink:href="#f0_20" transform="matrix(12,0,0,12,760.7,419.6)" />
<use xlink:href="#f0_1x" transform="matrix(12,0,0,12,773.2,419.6)" />
<use xlink:href="#f0_23" transform="matrix(12,0,0,12,780.9,419.6)" />
<use xlink:href="#f0_1x" transform="matrix(12,0,0,12,789.7,419.6)" />
<use xlink:href="#f0_25" transform="matrix(12,0,0,12,797.4,419.6)" />
<use xlink:href="#f0_2a" transform="matrix(12,0,0,12,800.4,419.6)" />
<use xlink:href="#f0_1x" transform="matrix(12,0,0,12,812.2,419.6)" />
<use xlink:href="#f0_22" transform="matrix(12,0,0,12,819.9,419.6)" />
<use xlink:href="#f0_2g" transform="matrix(12,0,0,12,825.4,419.6)" />
<use xlink:href="#f0_21" transform="matrix(12,0,0,12,830.6,419.6)" />
<use xlink:href="#f0_2e" transform="matrix(12,0,0,12,838.3,419.6)" />
<use xlink:href="#f0_2c" transform="matrix(12,0,0,12,155.8,444.2)" />
<use xlink:href="#f0_21" transform="matrix(12,0,0,12,164.6,444.2)" />
<use xlink:href="#f0_2e" transform="matrix(12,0,0,12,172.4,444.2)" />
<use xlink:href="#f0_25" transform="matrix(12,0,0,12,178.2,444.2)" />
<use xlink:href="#f0_2b" transform="matrix(12,0,0,12,182.3,444.2)" />
<use xlink:href="#f0_20" transform="matrix(12,0,0,12,191.5,444.2)" />
<use xlink:href="#f0_2b" transform="matrix(12,0,0,12,204,444.2)" />
<use xlink:href="#f0_22" transform="matrix(12,0,0,12,213.1,444.2)" />
<use xlink:href="#f0_r" transform="matrix(12,0,0,12,221.6,444.2)" />
<use xlink:href="#f0_20" transform="matrix(12,0,0,12,233.4,444.2)" />
<use xlink:href="#f0_1x" transform="matrix(12,0,0,12,242.2,444.2)" />
<use xlink:href="#f0_2l" transform="matrix(12,0,0,12,249.9,444.2)" />
<use xlink:href="#f0_2f" transform="matrix(12,0,0,12,258,444.2)" />
<use xlink:href="#f0_i" transform="matrix(12,0,0,12,264.6,444.2)" />
<use xlink:href="#f0_1k" transform="matrix(12,0,0,12,272.3,444.2)" />
<use xlink:href="#f0_24" transform="matrix(12,0,0,12,283.4,444.2)" />
<use xlink:href="#f0_21" transform="matrix(12,0,0,12,292.2,444.2)" />
<use xlink:href="#f0_2f" transform="matrix(12,0,0,12,299.9,444.2)" />
<use xlink:href="#f0_21" transform="matrix(12,0,0,12,306.5,444.2)" />
<use xlink:href="#f0_25" transform="matrix(12,0,0,12,317.5,444.2)" />
<use xlink:href="#f0_2a" transform="matrix(12,0,0,12,321.6,444.2)" />
<use xlink:href="#f0_24" transform="matrix(12,0,0,12,330,444.2)" />
<use xlink:href="#f0_25" transform="matrix(12,0,0,12,338.5,444.2)" />
<use xlink:href="#f0_1y" transform="matrix(12,0,0,12,342.5,444.2)" />
<use xlink:href="#f0_25" transform="matrix(12,0,0,12,351,444.2)" />
<use xlink:href="#f0_2g" transform="matrix(12,0,0,12,355,444.2)" />
<use xlink:href="#f0_2b" transform="matrix(12,0,0,12,363.5,444.2)" />
<use xlink:href="#f0_2i" transform="matrix(12,0,0,12,373,444.2)" />
<use xlink:href="#f0_2h" transform="matrix(12,0,0,12,381.5,444.2)" />
<use xlink:href="#f0_28" transform="matrix(12,0,0,12,390.3,444.2)" />
<use xlink:href="#f0_1x" transform="matrix(12,0,0,12,394.3,444.2)" />
<use xlink:href="#f0_2g" transform="matrix(12,0,0,12,402.1,444.2)" />
<use xlink:href="#f0_25" transform="matrix(12,0,0,12,407.2,444.2)" />
<use xlink:href="#f0_2b" transform="matrix(12,0,0,12,411.2,444.2)" />
<use xlink:href="#f0_2a" transform="matrix(12,0,0,12,420.4,444.2)" />
<use xlink:href="#f0_1x" transform="matrix(12,0,0,12,431.8,444.2)" />
<use xlink:href="#f0_1y" transform="matrix(12,0,0,12,439.5,444.2)" />
<use xlink:href="#f0_20" transform="matrix(12,0,0,12,448,444.2)" />
<use xlink:href="#f0_25" transform="matrix(12,0,0,12,460.5,444.2)" />
<use xlink:href="#f0_29" transform="matrix(12,0,0,12,464.5,444.2)" />
<use xlink:href="#f0_2c" transform="matrix(12,0,0,12,477.7,444.2)" />
<use xlink:href="#f0_28" transform="matrix(12,0,0,12,486.6,444.2)" />
<use xlink:href="#f0_1x" transform="matrix(12,0,0,12,490.6,444.2)" />
<use xlink:href="#f0_2a" transform="matrix(12,0,0,12,498.3,444.2)" />
<use xlink:href="#f0_2g" transform="matrix(12,0,0,12,506.8,444.2)" />
<use xlink:href="#f0_1x" transform="matrix(12,0,0,12,511.9,444.2)" />
<use xlink:href="#f0_2g" transform="matrix(12,0,0,12,519.6,444.2)" />
<use xlink:href="#f0_25" transform="matrix(12,0,0,12,524.8,444.2)" />
<use xlink:href="#f0_2b" transform="matrix(12,0,0,12,528.8,444.2)" />
<use xlink:href="#f0_2a" transform="matrix(12,0,0,12,538,444.2)" />
<use xlink:href="#f0_1x" transform="matrix(12,0,0,12,550.1,444.2)" />
<use xlink:href="#f0_2f" transform="matrix(12,0,0,12,557.8,444.2)" />
<use xlink:href="#f0_2j" transform="matrix(12,0,0,12,567.8,444.2)" />
<use xlink:href="#f0_21" transform="matrix(12,0,0,12,580.6,444.2)" />
<use xlink:href="#f0_28" transform="matrix(12,0,0,12,588.3,444.2)" />
<use xlink:href="#f0_28" transform="matrix(12,0,0,12,592.4,444.2)" />
<use xlink:href="#f0_1x" transform="matrix(12,0,0,12,599.4,444.2)" />
<use xlink:href="#f0_2f" transform="matrix(12,0,0,12,607.1,444.2)" />
<use xlink:href="#f0_1x" transform="matrix(12,0,0,12,617,444.2)" />
<use xlink:href="#f0_28" transform="matrix(12,0,0,12,624.7,444.2)" />
<use xlink:href="#f0_2g" transform="matrix(12,0,0,12,629.2,444.2)" />
<use xlink:href="#f0_21" transform="matrix(12,0,0,12,634.3,444.2)" />
<use xlink:href="#f0_2e" transform="matrix(12,0,0,12,642,444.2)" />
<use xlink:href="#f0_2g" transform="matrix(12,0,0,12,651.2,444.2)" />
<use xlink:href="#f0_24" transform="matrix(12,0,0,12,656.3,444.2)" />
<use xlink:href="#f0_21" transform="matrix(12,0,0,12,664.8,444.2)" />
<use xlink:href="#f0_2d" transform="matrix(12,0,0,12,675.8,444.2)" />
<use xlink:href="#f0_2h" transform="matrix(12,0,0,12,684.6,444.2)" />
<use xlink:href="#f0_1x" transform="matrix(12,0,0,12,693.5,444.2)" />
<use xlink:href="#f0_28" transform="matrix(12,0,0,12,701.2,444.2)" />
<use xlink:href="#f0_25" transform="matrix(12,0,0,12,705.2,444.2)" />
<use xlink:href="#f0_2g" transform="matrix(12,0,0,12,709.6,444.2)" />
<use xlink:href="#f0_2l" transform="matrix(12,0,0,12,714.8,444.2)" />
<use xlink:href="#f0_2b" transform="matrix(12,0,0,12,725.8,444.2)" />
<use xlink:href="#f0_22" transform="matrix(12,0,0,12,735,444.2)" />
<use xlink:href="#f0_1z" transform="matrix(12,0,0,12,743.4,444.2)" />
<use xlink:href="#f0_21" transform="matrix(12,0,0,12,751.2,444.2)" />
<use xlink:href="#f0_2e" transform="matrix(12,0,0,12,758.9,444.2)" />
<use xlink:href="#f0_2i" transform="matrix(12,0,0,12,764.8,444.2)" />
<use xlink:href="#f0_25" transform="matrix(12,0,0,12,773.2,444.2)" />
<use xlink:href="#f0_1z" transform="matrix(12,0,0,12,777.3,444.2)" />
<use xlink:href="#f0_1x" transform="matrix(12,0,0,12,785,444.2)" />
<use xlink:href="#f0_28" transform="matrix(12,0,0,12,793.1,444.2)" />
<use xlink:href="#f0_29" transform="matrix(12,0,0,12,799,444.2)" />
<use xlink:href="#f0_2h" transform="matrix(12,0,0,12,812.2,444.2)" />
<use xlink:href="#f0_1z" transform="matrix(12,0,0,12,821,444.2)" />
<use xlink:href="#f0_2h" transform="matrix(12,0,0,12,828.7,444.2)" />
<use xlink:href="#f0_2f" transform="matrix(12,0,0,12,837.5,444.2)" />
<use xlink:href="#f0_2g" transform="matrix(12,0,0,12,155.8,468.4)" />
<use xlink:href="#f0_2b" transform="matrix(12,0,0,12,161,468.4)" />
<use xlink:href="#f0_2c" transform="matrix(12,0,0,12,173.8,468.4)" />
<use xlink:href="#f0_2e" transform="matrix(12,0,0,12,182.6,468.4)" />
<use xlink:href="#f0_21" transform="matrix(12,0,0,12,188.5,468.4)" />
<use xlink:href="#f0_2i" transform="matrix(12,0,0,12,196.6,468.4)" />
<use xlink:href="#f0_21" transform="matrix(12,0,0,12,205,468.4)" />
<use xlink:href="#f0_2a" transform="matrix(12,0,0,12,212.8,468.4)" />
<use xlink:href="#f0_2g" transform="matrix(12,0,0,12,221.2,468.4)" />
<use xlink:href="#f0_j" transform="matrix(12,0,0,12,226.7,468.4)" />
<use xlink:href="#f0_2e" transform="matrix(12,0,0,12,231.5,468.4)" />
<use xlink:href="#f0_21" transform="matrix(12,0,0,12,237.4,468.4)" />
<use xlink:href="#f0_2g" transform="matrix(12,0,0,12,245.5,468.4)" />
<use xlink:href="#f0_1x" transform="matrix(12,0,0,12,250.6,468.4)" />
<use xlink:href="#f0_2e" transform="matrix(12,0,0,12,258.3,468.4)" />
<use xlink:href="#f0_20" transform="matrix(12,0,0,12,264.2,468.4)" />
<use xlink:href="#f0_21" transform="matrix(12,0,0,12,276.3,468.4)" />
<use xlink:href="#f0_2a" transform="matrix(12,0,0,12,284,468.4)" />
<use xlink:href="#f0_2g" transform="matrix(12,0,0,12,292.5,468.4)" />
<use xlink:href="#f0_2e" transform="matrix(12,0,0,12,298,468.4)" />
<use xlink:href="#f0_2l" transform="matrix(12,0,0,12,303.9,468.4)" />
<use xlink:href="#f0_2b" transform="matrix(12,0,0,12,315.6,468.4)" />
<use xlink:href="#f0_22" transform="matrix(12,0,0,12,324.8,468.4)" />
<use xlink:href="#f0_2f" transform="matrix(12,0,0,12,333.3,468.4)" />
<use xlink:href="#f0_2c" transform="matrix(12,0,0,12,340.2,468.4)" />
<use xlink:href="#f0_21" transform="matrix(12,0,0,12,349.1,468.4)" />
<use xlink:href="#f0_2e" transform="matrix(12,0,0,12,356.8,468.4)" />
<use xlink:href="#f0_29" transform="matrix(12,0,0,12,362.7,468.4)" />
<use xlink:href="#f0_2f" transform="matrix(12,0,0,12,376.2,468.4)" />
<use xlink:href="#f0_i" transform="matrix(12,0,0,12,382.9,468.4)" />
<use xlink:href="#f1_l" transform="matrix(8,0,0,8,785.4,1264.3)" />
<use xlink:href="#f1_o" transform="matrix(8,0,0,8,792.2,1264.3)" />
</g>
<defs>
<path d="M474,-326c0,0,-112,57,-188,133c0,0,-107,108,-165,254c0,0,-58,147,-58,305c0,0,0,231,114,421c0,0,114,191,297,273v-31c0,0,-92,-51,-151,-139c0,0,-59,-88,-88,-223c0,0,-30,-135,-30,-281c0,0,0,-160,25,-290c0,0,20,-102,47,-164c0,0,28,-62,75,-120c0,0,47,-57,122,-109v-29Z" 
id="f0_c"
transform="scale(0.001,-0.001)" />

<path d="M397,34c0,0,67,0,126,75c0,0,58,74,58,216c0,0,0,131,-58,201c0,0,-59,70,-133,70c0,0,-39,0,-79,-20c0,0,-29,-14,-75,-59V109c0,0,37,-37,78,-56c0,0,40,-19,83,-19ZM358,-20c0,0,-59,0,-121,21c0,0,-61,22,-126,65V773c0,0,0,117,-5,144c0,0,-6,27,-18,37c0,0,-12,9,-29,9c0,0,-21,0,-53,-12l-9,27l205,83h34V564c0,0,98,139,213,139c0,0,105,0,183,-90c0,0,78,-90,78,-245c0,0,0,-182,-121,-293c0,0,-103,-95,-231,-95Z" 
id="f0_1y"
transform="scale(0.001,-0.001)" />

<path d="M35,-326v29c0,0,92,51,151,139c0,0,60,87,89,221c0,0,28,136,28,282c0,0,0,159,-24,290c0,0,-19,103,-47,165c0,0,-28,62,-75,119c0,0,-46,57,-122,110v31c0,0,113,-56,188,-132c0,0,107,-109,165,-255c0,0,58,-147,58,-306c0,0,0,-231,-114,-420c0,0,-113,-191,-297,-273Z" 
id="f0_d"
transform="scale(0.001,-0.001)" />

<path d="M26,0V27H62c0,0,63,0,91,37c0,0,18,24,18,115V833c0,0,0,77,-10,102c0,0,-7,18,-30,32c0,0,-33,18,-69,18H26v27H459V985H422c0,0,-35,0,-67,-17c0,0,-23,-12,-32,-36c0,0,-9,-25,-9,-99V542H784V833c0,0,0,77,-10,102c0,0,-8,18,-31,32c0,0,-33,18,-68,18H639v27h432V985h-36c0,0,-36,0,-68,-17c0,0,-24,-12,-32,-36c0,0,-9,-25,-9,-99V179c0,0,0,-77,10,-102c0,0,7,-18,31,-32c0,0,32,-18,68,-18h36V0H639V27h36c0,0,62,0,90,37c0,0,19,24,19,115V487H314V179c0,0,0,-77,9,-102c0,0,8,-18,32,-32c0,0,32,-18,67,-18h37V0Z" 
id="f0_18"
transform="scale(0.001,-0.001)" />

<path d="M406,32c0,0,72,0,119,60c0,0,47,59,47,205c0,0,0,181,-78,286c0,0,-53,71,-135,71c0,0,-40,0,-79,-23c0,0,-40,-24,-65,-83c0,0,-24,-58,-24,-151c0,0,0,-149,59,-257c0,0,59,-108,156,-108ZM374,-20c0,0,-154,0,-245,122c0,0,-77,104,-77,233c0,0,0,94,46,187c0,0,47,92,123,137c0,0,76,44,161,44c0,0,155,0,249,-118c0,0,80,-100,80,-231c0,0,0,-91,-44,-185C667,169,623,75,546,27c0,0,-77,-47,-172,-47Z" 
id="f0_2b"
transform="scale(0.001,-0.001)" />

<path d="M336,-20L117,554c0,0,-21,55,-42,74c0,0,-21,19,-66,29v26H296V657c0,0,-40,-3,-52,-14c0,0,-13,-12,-13,-33c0,0,0,-23,13,-56L390,162L537,481L498,581c0,0,-18,46,-47,63c0,0,-17,11,-61,13v26H716V657c0,0,-54,-2,-77,-20c0,0,-15,-12,-15,-39c0,0,0,-15,6,-30L785,177L929,554c0,0,15,40,15,65c0,0,0,14,-15,25c0,0,-14,12,-57,13v26h216V657c0,0,-65,-10,-95,-89L764,-20H733L563,415L363,-20Z" 
id="f0_2j"
transform="scale(0.001,-0.001)" />

<path d="M342,-20c0,0,-116,0,-203,97c0,0,-86,98,-86,264c0,0,0,161,96,261c0,0,95,101,230,101c0,0,100,0,165,-53c0,0,65,-54,65,-111c0,0,0,-29,-18,-46c0,0,-18,-18,-51,-18c0,0,-44,0,-66,29c0,0,-13,15,-17,59c0,0,-4,45,-30,68c0,0,-26,22,-73,22c0,0,-74,0,-120,-55c0,0,-60,-73,-60,-193c0,0,0,-122,60,-216c0,0,60,-93,162,-93c0,0,73,0,131,49c0,0,41,35,80,126l22,-10C629,261,601,125,521,52c0,0,-81,-72,-179,-72Z" 
id="f0_1z"
transform="scale(0.001,-0.001)" />

<path d="M286,72c0,0,57,0,149,75V407c0,0,-113,-45,-145,-64c0,0,-59,-32,-85,-68c0,0,-25,-36,-25,-78c0,0,0,-54,32,-89c0,0,32,-36,74,-36ZM217,-13c0,0,-71,0,-116,48c0,0,-46,48,-46,127c0,0,0,50,22,87c0,0,31,50,106,95c0,0,76,45,252,109v26c0,0,0,102,-32,140c0,0,-32,38,-94,38c0,0,-47,0,-74,-25c0,0,-28,-25,-28,-58l1,-43c0,0,0,-34,-17,-53c0,0,-18,-18,-47,-18c0,0,-28,0,-45,19c0,0,-18,19,-18,53c0,0,0,64,66,117c0,0,65,54,184,54c0,0,91,0,149,-31c0,0,44,-23,65,-72c0,0,13,-32,13,-131V238c0,0,0,-98,4,-120c0,0,4,-22,12,-29c0,0,9,-8,20,-8c0,0,12,0,21,5c0,0,16,10,61,55V99C676,99,592,-12,516,-12c0,0,-37,0,-58,24c0,0,-22,26,-23,86C435,98,330,17,303,5c0,0,-40,-18,-86,-18Z" 
id="f0_1x"
transform="scale(0.001,-0.001)" />

<path d="M21,0V26H35c0,0,53,0,71,27c0,0,18,27,18,101V408c0,0,0,123,-5,150c0,0,-6,27,-17,37c0,0,-12,10,-31,10c0,0,-21,0,-50,-11L10,620l206,83h32V558c0,0,120,145,229,145c0,0,56,0,96,-28c0,0,40,-28,64,-92c0,0,16,-45,16,-137V154c0,0,0,-65,11,-88c0,0,8,-19,26,-29c0,0,18,-11,68,-11V0H419V26h14c0,0,47,0,66,15c0,0,20,15,27,43c0,0,3,11,3,70V434c0,0,0,93,-24,135c0,0,-24,42,-81,42c0,0,-88,0,-176,-97V154c0,0,0,-69,9,-86c0,0,10,-21,28,-31c0,0,19,-11,75,-11V0Z" 
id="f0_2a"
transform="scale(0.001,-0.001)" />

<path d="M255,-10c0,0,-35,0,-68,18c0,0,-32,19,-48,55c0,0,-16,35,-16,109V632H15v24c0,0,41,16,84,56c0,0,43,39,77,92c0,0,17,29,48,104h23V683H407V632H247V188c0,0,0,-66,19,-90c0,0,19,-23,49,-23c0,0,24,0,47,16c0,0,23,15,36,45h29c0,0,-26,-73,-74,-110c0,0,-47,-36,-98,-36Z" 
id="f0_2g"
transform="scale(0.001,-0.001)" />

<path d="M20,0V26c0,0,45,0,71,15c0,0,15,7,24,28c0,0,9,21,9,85V773c0,0,0,117,-5,144c0,0,-6,27,-17,37c0,0,-12,9,-31,9c0,0,-16,0,-51,-12L10,978l204,83h34V561c0,0,83,91,131,116c0,0,49,26,97,26c0,0,58,0,100,-32c0,0,42,-32,62,-101c0,0,14,-47,14,-174V154c0,0,0,-65,11,-89c0,0,7,-18,25,-28c0,0,18,-11,66,-11V0H418V26h15c0,0,48,0,67,15c0,0,18,15,26,43c0,0,2,12,2,70V396c0,0,0,112,-12,147c0,0,-11,35,-36,53c0,0,-26,17,-61,17c0,0,-37,0,-76,-19c0,0,-40,-20,-95,-79V154c0,0,0,-70,8,-87c0,0,8,-17,29,-29c0,0,22,-12,74,-12V0Z" 
id="f0_24"
transform="scale(0.001,-0.001)" />

<path d="M479,469c0,0,-4,66,-16,93c0,0,-18,42,-55,65c0,0,-37,24,-78,24c0,0,-62,0,-111,-48c0,0,-48,-48,-57,-134ZM355,-20c0,0,-123,0,-211,95c0,0,-87,96,-87,258c0,0,0,175,90,273c0,0,89,98,225,98c0,0,115,0,189,-76c0,0,74,-75,74,-202H162c0,0,0,-152,74,-239c0,0,75,-86,175,-86c0,0,67,0,117,36c0,0,50,37,83,127l24,-15c0,0,-16,-102,-91,-186c0,0,-76,-83,-189,-83Z" 
id="f0_21"
transform="scale(0.001,-0.001)" />

<path d="M312,-20c0,0,-62,0,-143,22c0,0,-25,8,-40,8c0,0,-18,0,-27,-19H77V234h25c0,0,21,-105,80,-158c0,0,59,-53,132,-53c0,0,51,0,84,31c0,0,32,30,32,72c0,0,0,52,-36,87c0,0,-36,35,-144,88c0,0,-109,54,-142,97c0,0,-34,43,-34,107c0,0,0,85,58,141c0,0,58,57,150,57c0,0,40,0,97,-17c0,0,38,-11,51,-11c0,0,12,0,19,5c0,0,7,5,15,23h25V470H464c0,0,-28,110,-72,149c0,0,-45,40,-113,40c0,0,-53,0,-85,-28c0,0,-32,-27,-32,-61c0,0,0,-41,24,-71c0,0,23,-31,94,-65L389,381c0,0,152,-74,152,-194c0,0,0,-94,-71,-151c0,0,-70,-56,-158,-56Z" 
id="f0_2f"
transform="scale(0.001,-0.001)" />

<path d="M55,0V26c0,0,50,0,67,10c0,0,17,10,27,32c0,0,10,23,10,86V418c0,0,0,111,-6,144c0,0,-6,24,-17,33c0,0,-11,10,-30,10c0,0,-21,0,-51,-11L45,620l206,83h33V154c0,0,0,-64,9,-85c0,0,9,-22,27,-32c0,0,19,-11,67,-11V0ZM222,909c0,0,-32,0,-54,23c0,0,-22,22,-22,53c0,0,0,32,22,54c0,0,22,22,54,22c0,0,31,0,53,-22c0,0,22,-22,22,-54c0,0,0,-31,-22,-53c0,0,-22,-23,-53,-23Z" 
id="f0_25"
transform="scale(0.001,-0.001)" />

<path d="M63,0V26H93c0,0,30,0,54,15c0,0,25,15,34,41c0,0,10,25,10,99V630H58v53H191v45c0,0,0,102,33,173c0,0,32,71,100,114c0,0,68,44,152,44c0,0,79,0,145,-51c0,0,43,-33,43,-75c0,0,0,-22,-19,-42c0,0,-20,-20,-42,-20c0,0,-17,0,-36,12c0,0,-19,13,-47,53c0,0,-28,41,-51,55c0,0,-23,14,-51,14c0,0,-35,0,-58,-18c0,0,-24,-18,-35,-57c0,0,-10,-38,-10,-197V683H491V630H315V181c0,0,0,-96,21,-122c0,0,27,-33,73,-33h62V0Z" 
id="f0_22"
transform="scale(0.001,-0.001)" />

<path d="M292,-20c0,0,-57,0,-100,33c0,0,-42,33,-58,85c0,0,-17,52,-17,148V551c0,0,0,49,-10,68c0,0,-11,18,-31,29c0,0,-19,9,-68,9c-2,0,-4,0,-6,0v26H242V226c0,0,0,-95,33,-125c0,0,33,-30,80,-30c0,0,32,0,73,21c0,0,40,20,96,76V555c0,0,0,59,-21,80c0,0,-22,21,-89,22v26H647V269c0,0,0,-119,6,-145c0,0,6,-27,18,-37c0,0,12,-11,29,-11c0,0,23,0,52,13L763,63L558,-20H524V124C524,124,436,29,390,4c0,0,-47,-24,-98,-24Z" 
id="f0_2h"
transform="scale(0.001,-0.001)" />

<path d="M399,62c0,0,68,0,131,68V481c0,0,-5,51,-27,93c0,0,-22,42,-59,63c0,0,-37,21,-72,21c0,0,-65,0,-117,-59c0,0,-67,-77,-67,-226c0,0,0,-151,65,-231c0,0,66,-80,146,-80ZM330,-20c0,0,-112,0,-196,93c0,0,-83,94,-83,240c0,0,0,147,92,269c0,0,93,122,238,122c0,0,90,0,149,-58V773c0,0,0,117,-6,144c0,0,-5,27,-17,37c0,0,-12,9,-30,9c0,0,-20,0,-52,-12l-9,27l204,83h33V270c0,0,0,-120,6,-146c0,0,5,-27,18,-37c0,0,12,-11,28,-11c0,0,21,0,54,13l9,-26L564,-20H530V78C530,78,480,25,432,2c0,0,-47,-22,-102,-22Z" 
id="f0_20"
transform="scale(0.001,-0.001)" />

<path d="M17,0V26c0,0,52,0,77,17c0,0,19,12,26,38c0,0,4,13,4,73V419c0,0,0,119,-5,142c0,0,-4,23,-17,33c0,0,-13,11,-33,11c0,0,-23,0,-52,-11l-7,26l207,83h31V549c0,0,86,154,176,154c0,0,41,0,68,-25c0,0,27,-25,27,-58c0,0,0,-29,-20,-49c0,0,-19,-20,-46,-20c0,0,-26,0,-58,25c0,0,-33,26,-48,26c0,0,-14,0,-29,-15c0,0,-34,-30,-70,-101V159c0,0,0,-56,15,-85c0,0,9,-20,34,-34c0,0,24,-14,71,-14V0Z" 
id="f0_2e"
transform="scale(0.001,-0.001)" />

<path d="M411,-239c0,0,134,0,198,48c0,0,64,47,64,100c0,0,0,39,-38,55c0,0,-39,16,-154,19c0,0,-167,5,-258,17c0,0,-35,-37,-53,-70c0,0,-17,-32,-17,-60c0,0,0,-36,43,-62c0,0,74,-47,215,-47ZM380,257c0,0,56,0,93,43c0,0,36,42,36,133c0,0,0,118,-51,185c0,0,-38,49,-98,49c0,0,-55,0,-92,-44c0,0,-37,-44,-37,-135c0,0,0,-117,50,-182c0,0,39,-49,99,-49ZM345,-328c0,0,-144,0,-243,64c0,0,-56,38,-56,78c0,0,0,18,8,36c0,0,13,27,52,76c0,0,5,7,76,80c0,0,-39,23,-55,41c0,0,-16,19,-16,42c0,0,0,26,22,61c0,0,21,35,98,100c0,0,-63,30,-97,85c0,0,-33,55,-33,121c0,0,0,101,76,174c0,0,77,73,196,73c0,0,98,0,170,-48H688c0,0,32,0,37,-2c0,0,6,-2,8,-6c0,0,4,-7,4,-24c0,0,0,-20,-4,-27c0,0,-2,-4,-7,-6c0,0,-6,-2,-38,-2H599c0,0,41,-54,41,-137c0,0,0,-96,-73,-163c0,0,-73,-68,-196,-68c0,0,-51,0,-104,15c0,0,-33,-28,-44,-49c0,0,-12,-22,-12,-37c0,0,0,-12,13,-24c0,0,12,-12,48,-17c0,0,21,-4,104,-6c0,0,154,-4,199,-11c0,0,70,-10,111,-51c0,0,42,-41,42,-102c0,0,0,-84,-79,-158c0,0,-117,-108,-304,-108Z" 
id="f0_23"
transform="scale(0.001,-0.001)" />

<path d="M23,0V26c0,0,47,0,66,10c0,0,19,11,28,33c0,0,10,22,10,85V416c0,0,0,112,-7,145c0,0,-5,25,-16,34c0,0,-11,10,-31,10c0,0,-21,0,-50,-11L12,620l207,83h32V557c0,0,75,75,88,86c0,0,34,29,72,44c0,0,39,16,77,16c0,0,64,0,110,-37c0,0,47,-38,62,-109c0,0,77,90,130,118c0,0,53,28,109,28c0,0,54,0,96,-28c0,0,42,-28,67,-91c0,0,16,-43,16,-136V154c0,0,0,-64,10,-88c0,0,8,-16,28,-28c0,0,20,-12,65,-12V0H844V26h14c0,0,44,0,69,18c0,0,17,12,24,38c0,0,3,13,3,72V448c0,0,0,83,-20,117c0,0,-29,48,-93,48c0,0,-39,0,-79,-20c0,0,-40,-19,-97,-73l-1,-8l2,-32V154c0,0,0,-70,8,-87c0,0,7,-17,29,-29c0,0,21,-12,73,-12V0H431V26c0,0,57,0,78,14c0,0,21,13,29,40c0,0,4,13,4,74V448c0,0,0,83,-25,120c0,0,-33,48,-91,48c0,0,-40,0,-80,-22c0,0,-61,-33,-95,-74V154c0,0,0,-67,10,-87c0,0,9,-20,27,-30c0,0,18,-11,74,-11V0Z" 
id="f0_29"
transform="scale(0.001,-0.001)" />

<path d="M58,0V26c0,0,47,0,64,10c0,0,18,10,28,32c0,0,9,23,9,86V775c0,0,0,116,-5,142c0,0,-5,27,-17,37c0,0,-11,9,-29,9c0,0,-20,0,-49,-12L46,978l204,83h34V154c0,0,0,-64,9,-85c0,0,9,-21,29,-32c0,0,19,-11,72,-11V0Z" 
id="f0_28"
transform="scale(0.001,-0.001)" />

<path d="M145,-328c0,0,-44,0,-73,25c0,0,-28,25,-28,58c0,0,0,31,21,50c0,0,20,19,56,19c0,0,25,0,67,-16c0,0,30,-11,38,-11c0,0,22,0,49,23c0,0,26,23,53,89L376,28L131,542c0,0,-11,24,-36,58c0,0,-19,27,-30,36c0,0,-18,12,-56,21v26H328V657H312c0,0,-33,0,-50,-15c0,0,-17,-14,-17,-36c0,0,0,-30,25,-81L437,179L589,557c0,0,12,31,12,62c0,0,0,13,-5,20c0,0,-6,8,-19,13c0,0,-12,5,-44,5v26H754V657c0,0,-27,-3,-42,-12c0,0,-15,-9,-33,-34c0,0,-7,-10,-25,-58L376,-128c0,0,-40,-99,-105,-150c0,0,-66,-50,-126,-50Z" 
id="f0_2l"
transform="scale(0.001,-0.001)" />

<path d="M398,24c0,0,74,0,120,58c0,0,61,76,61,214c0,0,0,156,-69,240c0,0,-47,59,-113,59c0,0,-36,0,-71,-18c0,0,-27,-14,-88,-81V242c0,0,0,-83,6,-109c0,0,11,-43,51,-76c0,0,41,-33,103,-33ZM-4,-326v27H15c5,0,42,0,69,16c0,0,14,8,22,26c0,0,7,19,7,94V481c0,0,0,67,-6,85c0,0,-5,18,-18,27c0,0,-13,9,-36,9c0,0,-18,0,-45,-10L0,615l209,85h29V540c0,0,53,91,106,127c0,0,53,36,112,36c0,0,103,0,172,-80c0,0,84,-99,84,-257c0,0,0,-176,-102,-292c0,0,-83,-94,-210,-94c0,0,-55,0,-95,16c0,0,-30,10,-67,44V-167c0,0,0,-71,8,-90c0,0,9,-20,30,-31c0,0,21,-11,77,-11v-27Z" 
id="f0_2c"
transform="scale(0.001,-0.001)" />

<path d="M376,-20L133,556c0,0,-17,41,-31,58c0,0,-15,18,-39,30c0,0,-12,7,-50,13v26H335V657H314c0,0,-29,0,-44,-14c0,0,-16,-14,-15,-38c0,0,-1,-26,15,-62L429,165L588,557c0,0,17,42,17,64c0,0,0,10,-6,17c0,0,-8,11,-21,15c0,0,-13,4,-52,4v26H750V657c0,0,-39,-3,-54,-16c0,0,-26,-23,-47,-76L409,-20Z" 
id="f0_2i"
transform="scale(0.001,-0.001)" />

<path d="M328,-20c0,0,-34,0,-58,24c0,0,-25,24,-25,58c0,0,0,35,25,59c0,0,24,24,58,24c0,0,34,0,59,-24c0,0,24,-24,24,-59c0,0,0,-34,-25,-58c0,0,-24,-24,-58,-24ZM308,238c0,0,5,94,23,155c0,0,18,62,76,172c0,0,44,84,58,129c0,0,13,46,13,92c0,0,0,95,-50,150c0,0,-50,56,-123,56c0,0,-65,0,-102,-30c0,0,-38,-31,-38,-67c0,0,0,-27,23,-67c0,0,22,-41,22,-62c0,0,0,-26,-17,-45c0,0,-17,-18,-42,-18c0,0,-31,0,-57,31c0,0,-26,31,-26,86c0,0,0,85,73,150c0,0,72,64,196,64c0,0,153,0,225,-89c0,0,54,-66,54,-146c0,0,0,-54,-24,-112c0,0,-25,-57,-92,-135C500,552,391,430,367,378c0,0,-24,-51,-29,-140Z" 
id="f0_z"
transform="scale(0.001,-0.001)" />

<path d="M678,393L506,802L330,393ZM11,0V27c0,0,63,12,82,30c0,0,38,35,84,145l356,832h27L912,193c0,0,43,-101,77,-132c0,0,35,-30,97,-34V0H687V27c0,0,60,3,82,21c0,0,21,17,21,41c0,0,0,33,-30,104L700,338H307L239,179c0,0,-26,-59,-26,-88c0,0,0,-23,22,-41c0,0,22,-17,95,-23V0Z" 
id="f0_11"
transform="scale(0.001,-0.001)" />

<path d="M191,-20c0,0,-34,0,-58,24c0,0,-24,24,-24,58c0,0,0,35,24,59c0,0,24,24,58,24c0,0,35,0,59,-24c0,0,24,-25,24,-59c0,0,0,-34,-24,-58c0,0,-25,-24,-59,-24Z" 
id="f0_i"
transform="scale(0.001,-0.001)" />

<path d="M107,-21V325h27c0,0,19,-109,52,-163c0,0,33,-54,100,-90c0,0,68,-36,148,-36c0,0,93,0,148,49c0,0,54,50,54,117c0,0,0,37,-21,75c0,0,-20,38,-64,71c0,0,-29,22,-159,95c0,0,-130,72,-185,115c0,0,-55,44,-83,96c0,0,-28,52,-28,114c0,0,0,109,83,188c0,0,84,78,213,78c0,0,81,0,171,-39c0,0,42,-19,59,-19c0,0,20,0,32,11c0,0,12,12,20,47h27V684H674c0,0,-14,101,-48,161c0,0,-35,60,-100,95c0,0,-64,35,-133,35c0,0,-77,0,-128,-47c0,0,-51,-48,-51,-108c0,0,0,-46,32,-84c0,0,47,-56,221,-149c0,0,142,-76,194,-117c0,0,51,-41,80,-96c0,0,28,-55,28,-115c0,0,0,-115,-90,-198c0,0,-89,-82,-229,-82c0,0,-44,0,-83,6c0,0,-23,4,-95,27c0,0,-73,24,-93,24c0,0,-18,0,-29,-11c0,0,-11,-12,-16,-46Z" 
id="f0_1j"
transform="scale(0.001,-0.001)" />

<path d="M38,0V27H74c0,0,63,0,91,37c0,0,18,24,18,115V833c0,0,0,77,-10,102c0,0,-7,18,-30,32c0,0,-33,18,-69,18H38v27H470V985H434c0,0,-62,0,-90,-37c0,0,-18,-24,-18,-115V179c0,0,0,-77,9,-102c0,0,8,-18,31,-32c0,0,32,-18,68,-18h36V0Z" 
id="f0_19"
transform="scale(0.001,-0.001)" />

<path d="M213,-20c0,0,-34,0,-58,24c0,0,-24,24,-24,58c0,0,0,34,24,58c0,0,24,25,58,25c0,0,35,0,59,-25c0,0,24,-24,24,-58c0,0,0,-34,-24,-58c0,0,-25,-24,-59,-24Zm3,559c0,0,-35,0,-59,24c0,0,-24,24,-24,58c0,0,0,35,24,59c0,0,24,24,59,24c0,0,34,0,58,-24c0,0,24,-24,24,-59c0,0,0,-34,-24,-58c0,0,-24,-24,-58,-24Z" 
id="f0_u"
transform="scale(0.001,-0.001)" />

<path d="M356,519c0,0,145,0,218,63c0,0,74,63,74,160c0,0,0,95,-60,154c0,0,-59,59,-157,59c0,0,-43,0,-117,-13V520c0,0,14,0,25,0c0,0,10,-1,17,-1ZM26,0V27H64c0,0,64,0,92,42c0,0,15,23,15,110V833c0,0,0,96,-21,119c0,0,-29,33,-86,33H26v27H395c0,0,161,0,238,-24c0,0,76,-23,129,-86c0,0,54,-63,54,-151c0,0,0,-93,-61,-162c0,0,-61,-68,-189,-97L775,202c0,0,72,-100,123,-133c0,0,52,-33,134,-42V0H762L419,473c0,0,-38,-1,-61,-1c0,0,-10,0,-21,0c0,0,-11,0,-23,1V179c0,0,0,-96,21,-119c0,0,28,-33,84,-33h40V0Z" 
id="f0_1i"
transform="scale(0.001,-0.001)" />

<path d="M13,0V26c0,0,52,0,78,13c0,0,16,8,24,25c0,0,11,25,11,86V773c0,0,0,118,-5,145c0,0,-5,26,-17,36c0,0,-12,10,-32,10c0,0,-15,0,-47,-13L13,978l203,83h34V381L424,540c0,0,55,50,64,64c0,0,6,9,6,18c0,0,0,15,-12,26c0,0,-13,11,-41,12v23H738V660c0,0,-61,-2,-102,-19c0,0,-40,-17,-89,-62L372,418L547,196c0,0,73,-92,98,-117c0,0,36,-35,63,-45c0,0,18,-8,65,-8V0H441V26c0,0,28,1,38,9c0,0,10,8,10,22c0,0,0,17,-29,56L250,381V154c0,0,0,-67,10,-88c0,0,9,-21,26,-30c0,0,17,-9,75,-10V0Z" 
id="f0_27"
transform="scale(0.001,-0.001)" />

<path d="M25,0V26c0,0,27,4,47,19c0,0,29,22,96,111L311,346L182,535c0,0,-55,81,-86,102c0,0,-30,20,-75,20v26H341V657c0,0,-30,0,-42,-10c0,0,-13,-11,-13,-28c0,0,0,-19,27,-56c0,0,8,-12,25,-37l48,-78l56,77c0,0,55,74,55,94c0,0,0,16,0,27c0,0,0,11,0,11v26H674V657c0,0,-37,-2,-64,-20c0,0,-37,-26,-100,-111L416,402L587,156c0,0,63,-91,89,-109c0,0,27,-18,70,-21V0H423V26c0,0,34,0,53,15c0,0,14,11,14,28c0,0,0,17,-48,87L341,302L232,157c0,0,-50,-69,-50,-82c0,0,0,-18,17,-32c0,0,17,-15,50,-17V0Z" 
id="f0_2k"
transform="scale(0.001,-0.001)" />

<path d="M253,0V27h36c0,0,64,0,91,39c0,0,16,24,16,109V948H274c0,0,-71,0,-100,-10c0,0,-39,-14,-67,-54c0,0,-27,-41,-33,-109H46l12,237H883L894,775H865c0,0,-8,62,-22,89c0,0,-23,43,-61,64c0,0,-39,20,-101,20H539V175c0,0,0,-93,20,-116c0,0,28,-32,87,-32h36V0Z" 
id="f0_1k"
transform="scale(0.001,-0.001)" />

<path d="M545,30c0,0,143,0,236,111c0,0,93,111,93,351c0,0,0,259,-103,386c0,0,-82,102,-226,102c0,0,-136,0,-218,-101C327,879,225,754,225,512c0,0,0,-247,106,-380c0,0,81,-102,214,-102Zm2,-51c0,0,-209,0,-351,147C196,126,54,274,54,510c0,0,0,240,164,393c0,0,142,131,341,131c0,0,197,0,341,-149c0,0,145,-149,145,-373c0,0,0,-230,-146,-382C899,130,754,-21,547,-21Z" 
id="f0_1f"
transform="scale(0.001,-0.001)" />

<path d="M197,0V27c0,0,71,2,92,13c0,0,21,10,29,29c0,0,9,18,9,109V725c0,0,0,110,-8,141c0,0,-5,24,-19,35c0,0,-14,11,-33,11c0,0,-28,0,-77,-23l-11,23l246,121h25V178c0,0,0,-85,7,-106c0,0,7,-21,29,-32c0,0,23,-11,91,-13V0Z" 
id="f0_l"
transform="scale(0.001,-0.001)" />

<path d="M452,373V875L97,373ZM452,0V267H23v95l470,671h82V373H711V267H575V0Z" 
id="f0_o"
transform="scale(0.001,-0.001)" />

<path d="M33,0V27c0,0,264,241,371,393c0,0,108,152,108,278c0,0,0,96,-59,158c0,0,-59,62,-141,62c0,0,-75,0,-134,-43c0,0,-59,-44,-88,-128H63c0,0,18,138,95,212c0,0,77,74,193,74c0,0,123,0,205,-80c0,0,83,-79,83,-186c0,0,0,-77,-36,-154c0,0,-55,-121,-179,-256C424,357,238,154,191,112H455c0,0,81,0,114,6c0,0,32,6,58,25c0,0,27,18,46,52h27L630,0Z" 
id="f0_m"
transform="scale(0.001,-0.001)" />

<path d="M485,53c0,0,135,0,206,61c0,0,71,60,71,150c0,0,0,59,-32,114c0,0,-33,54,-105,85c0,0,-72,32,-179,32c0,0,-46,0,-79,-2c0,0,-33,-1,-53,-5V73c0,0,86,-20,171,-20ZM455,547c0,0,109,0,164,23c0,0,55,24,84,72c0,0,29,49,29,106c0,0,0,89,-72,151c0,0,-73,63,-212,63c0,0,-74,0,-134,-16V557c0,0,27,-5,63,-8c0,0,35,-2,78,-2ZM24,0V27H63c0,0,63,0,91,41c0,0,17,26,17,111V833c0,0,0,94,-22,119c0,0,-29,33,-86,33H24v27H462c0,0,122,0,196,-18c0,0,112,-27,171,-95c0,0,59,-68,59,-157c0,0,0,-76,-46,-136c0,0,-47,-60,-137,-89c0,0,105,-23,157,-72c0,0,73,-69,73,-168c0,0,0,-75,-48,-145C887,132,839,63,756,32C756,32,673,0,502,0Z" 
id="f0_12"
transform="scale(0.001,-0.001)" />

<path d="M238,-17c0,0,-103,0,-139,25C99,8,62,33,62,62c0,0,0,22,17,38c0,0,18,16,42,16c0,0,19,0,38,-6c0,0,13,-3,58,-27c0,0,45,-23,62,-28c0,0,27,-8,59,-8c0,0,76,0,132,59c0,0,56,59,56,140c0,0,0,59,-26,115c0,0,-19,41,-42,63c0,0,-32,30,-88,54c0,0,-56,25,-114,25H232v22c0,0,59,8,118,42c0,0,59,35,86,85c0,0,27,49,27,108c0,0,0,76,-48,124c0,0,-48,47,-120,47c0,0,-116,0,-193,-124L77,819c0,0,44,102,110,158c0,0,66,56,164,56c0,0,122,0,187,-80c0,0,49,-58,49,-126c0,0,0,-110,-139,-228c0,0,93,-36,141,-104c0,0,48,-68,48,-160c0,0,0,-131,-84,-227C553,108,444,-17,238,-17Z" 
id="f0_n"
transform="scale(0.001,-0.001)" />

<path d="M394,23c0,0,80,0,129,45c0,0,48,45,48,110c0,0,0,54,-28,97c0,0,-53,79,-214,206c0,0,-62,-52,-92,-114c0,0,-30,-61,-30,-133c0,0,0,-96,53,-154c0,0,52,-57,134,-57Zm17,566c0,0,90,81,114,128c0,0,24,46,24,105c0,0,0,79,-44,123c0,0,-44,45,-121,45c0,0,-76,0,-124,-45c0,0,-48,-44,-48,-103c0,0,0,-38,20,-77c0,0,20,-39,56,-74L411,589ZM382,-17c0,0,-144,0,-225,90c0,0,-64,72,-64,158c0,0,0,67,45,133c0,0,45,66,156,146c0,0,-121,98,-156,158c0,0,-34,59,-34,124c0,0,0,98,76,169c0,0,76,72,202,72c0,0,123,0,198,-67c0,0,74,-66,74,-151c0,0,0,-57,-40,-116c0,0,-40,-59,-168,-139c0,0,132,-101,174,-159c0,0,57,-76,57,-161c0,0,0,-106,-82,-182c0,0,-81,-75,-213,-75Z" 
id="f0_s"
transform="scale(0.001,-0.001)" />

<path d="M379,29c0,0,41,0,84,37c0,0,43,36,65,121c0,0,34,128,34,362c0,0,0,173,-35,288c0,0,-27,86,-69,122c0,0,-31,25,-74,25c0,0,-51,0,-90,-46c0,0,-54,-62,-73,-195c0,0,-20,-132,-20,-261c0,0,0,-209,52,-341c0,0,42,-112,126,-112Zm-2,-46c0,0,-145,0,-241,170c0,0,-81,144,-81,347c0,0,0,173,52,298c0,0,52,125,139,186c0,0,67,49,139,49c0,0,116,0,208,-119c0,0,116,-147,116,-398c0,0,0,-176,-51,-299C658,217,608,94,529,38c0,0,-79,-55,-152,-55Z" 
id="f0_k"
transform="scale(0.001,-0.001)" />

<path d="M1005,0c0,0,34,0,61,41c0,0,36,55,36,187c0,0,0,141,-36,196c0,0,-25,39,-61,39c0,0,-36,0,-62,-41c0,0,-34,-52,-34,-197c0,0,0,-134,35,-187c0,0,25,-38,61,-38Zm2,-41c0,0,-55,0,-106,34c0,0,-51,32,-80,94c0,0,-30,63,-30,142c0,0,0,79,29,144c0,0,30,64,81,97c0,0,51,32,104,32c0,0,53,0,105,-34c0,0,53,-33,82,-98c0,0,28,-64,28,-141c0,0,0,-132,-63,-201c0,0,-64,-69,-150,-69ZM267,524c0,0,36,0,61,39c0,0,38,57,38,192c0,0,0,142,-37,199c0,0,-24,38,-60,38c0,0,-38,0,-67,-44c0,0,-30,-45,-30,-189c0,0,0,-103,17,-158c0,0,12,-41,39,-63c0,0,16,-14,39,-14Zm3,-37c0,0,-59,0,-108,32c0,0,-49,33,-79,97c0,0,-29,64,-29,143c0,0,0,78,30,144c0,0,30,66,81,99c0,0,52,32,107,32c0,0,101,0,156,-83c0,0,56,-84,56,-192c0,0,0,-130,-63,-201c0,0,-62,-71,-151,-71ZM235,-41L972,1034h67L301,-41Z" 
id="f0_9"
transform="scale(0.001,-0.001)" />

<path d="M435,502c0,0,78,0,134,60c0,0,57,60,57,155c0,0,0,66,-27,122c0,0,-27,56,-76,84c0,0,-50,28,-112,28c0,0,-38,0,-98,-14V517c0,0,39,-8,70,-12c0,0,31,-3,52,-3ZM25,0V27H63c0,0,65,0,92,42c0,0,15,23,15,110V833c0,0,0,96,-20,119c0,0,-29,33,-87,33H25v27H396c0,0,136,0,214,-28c0,0,78,-28,132,-94c0,0,54,-67,54,-158c0,0,0,-124,-82,-202c0,0,-82,-77,-231,-77c0,0,-36,0,-79,5c0,0,-43,5,-91,16V179c0,0,0,-96,21,-119c0,0,28,-33,85,-33h39V0Z" 
id="f0_1g"
transform="scale(0.001,-0.001)" />

<path d="M275,-20L578,891H299c0,0,-84,0,-120,-20c0,0,-63,-35,-101,-106l-21,8l97,239H696V983L359,-20Z" 
id="f0_r"
transform="scale(0.001,-0.001)" />

<path d="M384,85c0,0,44,0,78,19c0,0,35,19,68,62V487c0,0,0,55,-15,87c0,0,-14,33,-51,55c0,0,-38,22,-85,22c0,0,-84,0,-143,-71c0,0,-60,-70,-60,-214c0,0,0,-138,61,-209c0,0,61,-72,147,-72Zm35,-411v27h15c0,0,41,0,63,12c0,0,15,8,24,30c0,0,9,21,9,83V119C530,119,462,39,411,9c0,0,-50,-29,-105,-29c0,0,-99,0,-177,90c0,0,-78,90,-78,241c0,0,0,174,103,283c0,0,103,109,248,109c0,0,43,0,78,-12c0,0,36,-12,65,-35c0,0,43,20,83,47h25V-174c0,0,0,-66,9,-85c0,0,9,-19,28,-30c0,0,19,-10,74,-10v-27Z" 
id="f0_2d"
transform="scale(0.001,-0.001)" />

<path d="M2,-20L369,1061h59L62,-20Z" 
id="f0_j"
transform="scale(0.001,-0.001)" />

<path d="M435,0V856c0,0,-48,-47,-127,-93c0,0,-79,-46,-142,-69V824c0,0,113,52,197,128c0,0,85,75,120,146h86V0Z" 
id="f1_l"
transform="scale(0.001,-0.001)" />

<path d="M494,385V878L152,385ZM494,0V262H20V385l498,708H628V385H775V262H628V0Z" 
id="f1_o"
transform="scale(0.001,-0.001)" />


</defs>
</svg>